G04 #@! TF.FileFunction,Copper,L2,Bot,Signal*
%FSLAX46Y46*%
G04 Gerber Fmt 4.6, Leading zero omitted, Abs format (unit mm)*
G04 Created by KiCad (PCBNEW 4.0.7) date 03/31/18 13:52:08*
%MOMM*%
%LPD*%
G01*
G04 APERTURE LIST*
%ADD10C,0.100000*%
%ADD11C,1.727200*%
%ADD12O,1.727200X1.727200*%
%ADD13O,1.727200X2.032000*%
%ADD14C,4.064000*%
%ADD15R,2.000000X2.000000*%
%ADD16C,2.000000*%
%ADD17R,3.000000X3.000000*%
%ADD18C,3.000000*%
%ADD19C,0.762000*%
%ADD20C,0.250000*%
%ADD21C,0.254000*%
G04 APERTURE END LIST*
D10*
D11*
X197358000Y-114046000D03*
D12*
X199898000Y-114046000D03*
X197358000Y-111506000D03*
X199898000Y-111506000D03*
X197358000Y-108966000D03*
X199898000Y-108966000D03*
X197358000Y-106426000D03*
X199898000Y-106426000D03*
X197358000Y-103886000D03*
X199898000Y-103886000D03*
X197358000Y-101346000D03*
X199898000Y-101346000D03*
X197358000Y-98806000D03*
X199898000Y-98806000D03*
X197358000Y-96266000D03*
X199898000Y-96266000D03*
X197358000Y-93726000D03*
X199898000Y-93726000D03*
X197358000Y-91186000D03*
X199898000Y-91186000D03*
X197358000Y-88646000D03*
X199898000Y-88646000D03*
X197358000Y-86106000D03*
X199898000Y-86106000D03*
X197358000Y-83566000D03*
X199898000Y-83566000D03*
X197358000Y-81026000D03*
X199898000Y-81026000D03*
X197358000Y-78486000D03*
X199898000Y-78486000D03*
X197358000Y-75946000D03*
X199898000Y-75946000D03*
X197358000Y-73406000D03*
X199898000Y-73406000D03*
X197358000Y-70866000D03*
X199898000Y-70866000D03*
D13*
X131318000Y-119126000D03*
X133858000Y-119126000D03*
X136398000Y-119126000D03*
X138938000Y-119126000D03*
X141478000Y-119126000D03*
X144018000Y-119126000D03*
X146558000Y-119126000D03*
X149098000Y-119126000D03*
X154178000Y-119126000D03*
X156718000Y-119126000D03*
X159258000Y-119126000D03*
X161798000Y-119126000D03*
X164338000Y-119126000D03*
X166878000Y-119126000D03*
X169418000Y-119126000D03*
X171958000Y-119126000D03*
X177038000Y-119126000D03*
X179578000Y-119126000D03*
X182118000Y-119126000D03*
X184658000Y-119126000D03*
X187198000Y-119126000D03*
X189738000Y-119126000D03*
X192278000Y-119126000D03*
X194818000Y-119126000D03*
X122174000Y-70866000D03*
X124714000Y-70866000D03*
X127254000Y-70866000D03*
X129794000Y-70866000D03*
X132334000Y-70866000D03*
X134874000Y-70866000D03*
X137414000Y-70866000D03*
X139954000Y-70866000D03*
X142494000Y-70866000D03*
X145034000Y-70866000D03*
X149098000Y-70866000D03*
X151638000Y-70866000D03*
X154178000Y-70866000D03*
X156718000Y-70866000D03*
X159258000Y-70866000D03*
X161798000Y-70866000D03*
X164338000Y-70866000D03*
X166878000Y-70866000D03*
X171958000Y-70866000D03*
X174498000Y-70866000D03*
X177038000Y-70866000D03*
X179578000Y-70866000D03*
X182118000Y-70866000D03*
X184658000Y-70866000D03*
X187198000Y-70866000D03*
X189738000Y-70866000D03*
D14*
X169418000Y-114046000D03*
X199898000Y-119126000D03*
X118618000Y-70866000D03*
X169418000Y-86106000D03*
X193548000Y-70866000D03*
D15*
X174498000Y-83058000D03*
D16*
X174498000Y-80518000D03*
X174498000Y-77978000D03*
X174498000Y-75438000D03*
D15*
X179832000Y-83058000D03*
D16*
X179832000Y-80518000D03*
X179832000Y-77978000D03*
X179832000Y-75438000D03*
D17*
X185166000Y-106934000D03*
D18*
X190246000Y-106934000D03*
D15*
X184658000Y-83058000D03*
D16*
X187198000Y-83058000D03*
X189738000Y-83058000D03*
X192278000Y-83058000D03*
D19*
X174498000Y-83058000D02*
X174498000Y-88900000D01*
X141478000Y-112522000D02*
X141478000Y-119126000D01*
X162560000Y-91440000D02*
X141478000Y-112522000D01*
X171958000Y-91440000D02*
X162560000Y-91440000D01*
X174498000Y-88900000D02*
X171958000Y-91440000D01*
X184658000Y-83058000D02*
X179832000Y-83058000D01*
X179832000Y-83058000D02*
X174498000Y-83058000D01*
D20*
X174498000Y-77978000D02*
X166370000Y-77978000D01*
X166370000Y-77978000D02*
X159258000Y-70866000D01*
X174498000Y-75438000D02*
X166370000Y-75438000D01*
X166370000Y-75438000D02*
X161798000Y-70866000D01*
X187198000Y-70866000D02*
X187198000Y-74930000D01*
X189738000Y-77470000D02*
X189738000Y-83058000D01*
X187198000Y-74930000D02*
X189738000Y-77470000D01*
X192278000Y-83058000D02*
X192278000Y-77470000D01*
X189738000Y-74930000D02*
X189738000Y-70866000D01*
X192278000Y-77470000D02*
X189738000Y-74930000D01*
X179832000Y-75438000D02*
X182118000Y-73152000D01*
X182118000Y-73152000D02*
X182118000Y-70866000D01*
X179832000Y-77978000D02*
X184658000Y-73152000D01*
X184658000Y-73152000D02*
X184658000Y-70866000D01*
D19*
X185166000Y-106934000D02*
X161290000Y-106934000D01*
X161290000Y-106934000D02*
X149098000Y-119126000D01*
D21*
G36*
X191649877Y-69147485D02*
X191275832Y-69372154D01*
X191032294Y-69972725D01*
X190797670Y-69621585D01*
X190311489Y-69296729D01*
X189738000Y-69182655D01*
X189164511Y-69296729D01*
X188678330Y-69621585D01*
X188468000Y-69936366D01*
X188257670Y-69621585D01*
X187771489Y-69296729D01*
X187198000Y-69182655D01*
X186624511Y-69296729D01*
X186138330Y-69621585D01*
X185928000Y-69936366D01*
X185717670Y-69621585D01*
X185231489Y-69296729D01*
X184658000Y-69182655D01*
X184084511Y-69296729D01*
X183598330Y-69621585D01*
X183388000Y-69936366D01*
X183177670Y-69621585D01*
X182691489Y-69296729D01*
X182118000Y-69182655D01*
X181544511Y-69296729D01*
X181058330Y-69621585D01*
X180848000Y-69936366D01*
X180637670Y-69621585D01*
X180151489Y-69296729D01*
X179578000Y-69182655D01*
X179004511Y-69296729D01*
X178518330Y-69621585D01*
X178308000Y-69936366D01*
X178097670Y-69621585D01*
X177611489Y-69296729D01*
X177038000Y-69182655D01*
X176464511Y-69296729D01*
X175978330Y-69621585D01*
X175768000Y-69936366D01*
X175557670Y-69621585D01*
X175071489Y-69296729D01*
X174498000Y-69182655D01*
X173924511Y-69296729D01*
X173438330Y-69621585D01*
X173228000Y-69936366D01*
X173017670Y-69621585D01*
X172531489Y-69296729D01*
X171958000Y-69182655D01*
X171384511Y-69296729D01*
X170898330Y-69621585D01*
X170573474Y-70107766D01*
X170459400Y-70681255D01*
X170459400Y-71050745D01*
X170573474Y-71624234D01*
X170898330Y-72110415D01*
X171384511Y-72435271D01*
X171958000Y-72549345D01*
X172531489Y-72435271D01*
X173017670Y-72110415D01*
X173228000Y-71795634D01*
X173438330Y-72110415D01*
X173924511Y-72435271D01*
X174498000Y-72549345D01*
X175071489Y-72435271D01*
X175557670Y-72110415D01*
X175768000Y-71795634D01*
X175978330Y-72110415D01*
X176464511Y-72435271D01*
X177038000Y-72549345D01*
X177611489Y-72435271D01*
X178097670Y-72110415D01*
X178308000Y-71795634D01*
X178518330Y-72110415D01*
X179004511Y-72435271D01*
X179578000Y-72549345D01*
X180151489Y-72435271D01*
X180637670Y-72110415D01*
X180848000Y-71795634D01*
X181058330Y-72110415D01*
X181358000Y-72310648D01*
X181358000Y-72837198D01*
X180323473Y-73871725D01*
X180158648Y-73803284D01*
X179508205Y-73802716D01*
X178907057Y-74051106D01*
X178446722Y-74510637D01*
X178197284Y-75111352D01*
X178196716Y-75761795D01*
X178445106Y-76362943D01*
X178789759Y-76708199D01*
X178446722Y-77050637D01*
X178197284Y-77651352D01*
X178196716Y-78301795D01*
X178445106Y-78902943D01*
X178871978Y-79330562D01*
X178859073Y-79365468D01*
X179832000Y-80338395D01*
X180804927Y-79365468D01*
X180791836Y-79330062D01*
X181217278Y-78905363D01*
X181466716Y-78304648D01*
X181467284Y-77654205D01*
X181398081Y-77486721D01*
X185195401Y-73689401D01*
X185360148Y-73442839D01*
X185418000Y-73152000D01*
X185418000Y-72310648D01*
X185717670Y-72110415D01*
X185928000Y-71795634D01*
X186138330Y-72110415D01*
X186438000Y-72310648D01*
X186438000Y-74930000D01*
X186495852Y-75220839D01*
X186660599Y-75467401D01*
X188978000Y-77784802D01*
X188978000Y-81602953D01*
X188813057Y-81671106D01*
X188385438Y-82097978D01*
X188350532Y-82085073D01*
X187377605Y-83058000D01*
X188350532Y-84030927D01*
X188385938Y-84017836D01*
X188810637Y-84443278D01*
X189411352Y-84692716D01*
X190061795Y-84693284D01*
X190662943Y-84444894D01*
X191008199Y-84100241D01*
X191350637Y-84443278D01*
X191951352Y-84692716D01*
X192601795Y-84693284D01*
X193202943Y-84444894D01*
X193663278Y-83985363D01*
X193912716Y-83384648D01*
X193913284Y-82734205D01*
X193664894Y-82133057D01*
X193205363Y-81672722D01*
X193038000Y-81603227D01*
X193038000Y-77470000D01*
X192980148Y-77179161D01*
X192980148Y-77179160D01*
X192815401Y-76932599D01*
X190498000Y-74615198D01*
X190498000Y-72764121D01*
X191829484Y-72764121D01*
X192054154Y-73138168D01*
X193037388Y-73536880D01*
X194098357Y-73528975D01*
X195041846Y-73138168D01*
X195266516Y-72764121D01*
X193548000Y-71045605D01*
X191829484Y-72764121D01*
X190498000Y-72764121D01*
X190498000Y-72310648D01*
X190797670Y-72110415D01*
X191029067Y-71764105D01*
X191275832Y-72359846D01*
X191649879Y-72584516D01*
X193368395Y-70866000D01*
X193354253Y-70851858D01*
X193533858Y-70672253D01*
X193548000Y-70686395D01*
X193562143Y-70672253D01*
X193741748Y-70851858D01*
X193727605Y-70866000D01*
X195446121Y-72584516D01*
X195820168Y-72359846D01*
X196102919Y-71662576D01*
X196298330Y-71955029D01*
X196569172Y-72136000D01*
X196298330Y-72316971D01*
X195973474Y-72803152D01*
X195859400Y-73376641D01*
X195859400Y-73435359D01*
X195973474Y-74008848D01*
X196298330Y-74495029D01*
X196569172Y-74676000D01*
X196298330Y-74856971D01*
X195973474Y-75343152D01*
X195859400Y-75916641D01*
X195859400Y-75975359D01*
X195973474Y-76548848D01*
X196298330Y-77035029D01*
X196569172Y-77216000D01*
X196298330Y-77396971D01*
X195973474Y-77883152D01*
X195859400Y-78456641D01*
X195859400Y-78515359D01*
X195973474Y-79088848D01*
X196298330Y-79575029D01*
X196569172Y-79756000D01*
X196298330Y-79936971D01*
X195973474Y-80423152D01*
X195859400Y-80996641D01*
X195859400Y-81055359D01*
X195973474Y-81628848D01*
X196298330Y-82115029D01*
X196569172Y-82296000D01*
X196298330Y-82476971D01*
X195973474Y-82963152D01*
X195859400Y-83536641D01*
X195859400Y-83595359D01*
X195973474Y-84168848D01*
X196298330Y-84655029D01*
X196569172Y-84836000D01*
X196298330Y-85016971D01*
X195973474Y-85503152D01*
X195859400Y-86076641D01*
X195859400Y-86135359D01*
X195973474Y-86708848D01*
X196298330Y-87195029D01*
X196569172Y-87376000D01*
X196298330Y-87556971D01*
X195973474Y-88043152D01*
X195859400Y-88616641D01*
X195859400Y-88675359D01*
X195973474Y-89248848D01*
X196298330Y-89735029D01*
X196569172Y-89916000D01*
X196298330Y-90096971D01*
X195973474Y-90583152D01*
X195859400Y-91156641D01*
X195859400Y-91215359D01*
X195973474Y-91788848D01*
X196298330Y-92275029D01*
X196569172Y-92456000D01*
X196298330Y-92636971D01*
X195973474Y-93123152D01*
X195859400Y-93696641D01*
X195859400Y-93755359D01*
X195973474Y-94328848D01*
X196298330Y-94815029D01*
X196569172Y-94996000D01*
X196298330Y-95176971D01*
X195973474Y-95663152D01*
X195859400Y-96236641D01*
X195859400Y-96295359D01*
X195973474Y-96868848D01*
X196298330Y-97355029D01*
X196569172Y-97536000D01*
X196298330Y-97716971D01*
X195973474Y-98203152D01*
X195859400Y-98776641D01*
X195859400Y-98835359D01*
X195973474Y-99408848D01*
X196298330Y-99895029D01*
X196569172Y-100076000D01*
X196298330Y-100256971D01*
X195973474Y-100743152D01*
X195859400Y-101316641D01*
X195859400Y-101375359D01*
X195973474Y-101948848D01*
X196298330Y-102435029D01*
X196569172Y-102616000D01*
X196298330Y-102796971D01*
X195973474Y-103283152D01*
X195859400Y-103856641D01*
X195859400Y-103915359D01*
X195973474Y-104488848D01*
X196298330Y-104975029D01*
X196569172Y-105156000D01*
X196298330Y-105336971D01*
X195973474Y-105823152D01*
X195859400Y-106396641D01*
X195859400Y-106455359D01*
X195973474Y-107028848D01*
X196298330Y-107515029D01*
X196569172Y-107696000D01*
X196298330Y-107876971D01*
X195973474Y-108363152D01*
X195859400Y-108936641D01*
X195859400Y-108995359D01*
X195973474Y-109568848D01*
X196298330Y-110055029D01*
X196569172Y-110236000D01*
X196298330Y-110416971D01*
X195973474Y-110903152D01*
X195859400Y-111476641D01*
X195859400Y-111535359D01*
X195973474Y-112108848D01*
X196298330Y-112595029D01*
X196556620Y-112767613D01*
X196483800Y-112992195D01*
X197358000Y-113866395D01*
X198232200Y-112992195D01*
X198159380Y-112767613D01*
X198417670Y-112595029D01*
X198628000Y-112280248D01*
X198838330Y-112595029D01*
X199109161Y-112775992D01*
X198691179Y-113157510D01*
X198648510Y-113248551D01*
X198411805Y-113171800D01*
X197537605Y-114046000D01*
X198411805Y-114920200D01*
X198648510Y-114843449D01*
X198691179Y-114934490D01*
X199123053Y-115328688D01*
X199538974Y-115500958D01*
X199771000Y-115379817D01*
X199771000Y-114173000D01*
X200025000Y-114173000D01*
X200025000Y-115379817D01*
X200257026Y-115500958D01*
X200672947Y-115328688D01*
X201104821Y-114934490D01*
X201352968Y-114405027D01*
X201232469Y-114173000D01*
X200025000Y-114173000D01*
X199771000Y-114173000D01*
X199751000Y-114173000D01*
X199751000Y-113919000D01*
X199771000Y-113919000D01*
X199771000Y-113899000D01*
X200025000Y-113899000D01*
X200025000Y-113919000D01*
X201232469Y-113919000D01*
X201352968Y-113686973D01*
X201104821Y-113157510D01*
X200686839Y-112775992D01*
X200957670Y-112595029D01*
X201282526Y-112108848D01*
X201396600Y-111535359D01*
X201396600Y-111476641D01*
X201282526Y-110903152D01*
X200957670Y-110416971D01*
X200686828Y-110236000D01*
X200957670Y-110055029D01*
X201282526Y-109568848D01*
X201396600Y-108995359D01*
X201396600Y-108936641D01*
X201282526Y-108363152D01*
X200957670Y-107876971D01*
X200686828Y-107696000D01*
X200957670Y-107515029D01*
X201282526Y-107028848D01*
X201396600Y-106455359D01*
X201396600Y-106396641D01*
X201282526Y-105823152D01*
X200957670Y-105336971D01*
X200686828Y-105156000D01*
X200957670Y-104975029D01*
X201282526Y-104488848D01*
X201396600Y-103915359D01*
X201396600Y-103856641D01*
X201282526Y-103283152D01*
X200957670Y-102796971D01*
X200686828Y-102616000D01*
X200957670Y-102435029D01*
X201282526Y-101948848D01*
X201396600Y-101375359D01*
X201396600Y-101316641D01*
X201282526Y-100743152D01*
X200957670Y-100256971D01*
X200686828Y-100076000D01*
X200957670Y-99895029D01*
X201282526Y-99408848D01*
X201396600Y-98835359D01*
X201396600Y-98776641D01*
X201282526Y-98203152D01*
X200957670Y-97716971D01*
X200686828Y-97536000D01*
X200957670Y-97355029D01*
X201282526Y-96868848D01*
X201396600Y-96295359D01*
X201396600Y-96236641D01*
X201282526Y-95663152D01*
X200957670Y-95176971D01*
X200686828Y-94996000D01*
X200957670Y-94815029D01*
X201282526Y-94328848D01*
X201396600Y-93755359D01*
X201396600Y-93696641D01*
X201282526Y-93123152D01*
X200957670Y-92636971D01*
X200686828Y-92456000D01*
X200957670Y-92275029D01*
X201282526Y-91788848D01*
X201396600Y-91215359D01*
X201396600Y-91156641D01*
X201282526Y-90583152D01*
X200957670Y-90096971D01*
X200686828Y-89916000D01*
X200957670Y-89735029D01*
X201282526Y-89248848D01*
X201396600Y-88675359D01*
X201396600Y-88616641D01*
X201282526Y-88043152D01*
X200957670Y-87556971D01*
X200686828Y-87376000D01*
X200957670Y-87195029D01*
X201282526Y-86708848D01*
X201396600Y-86135359D01*
X201396600Y-86076641D01*
X201282526Y-85503152D01*
X200957670Y-85016971D01*
X200686828Y-84836000D01*
X200957670Y-84655029D01*
X201282526Y-84168848D01*
X201396600Y-83595359D01*
X201396600Y-83536641D01*
X201282526Y-82963152D01*
X200957670Y-82476971D01*
X200686828Y-82296000D01*
X200957670Y-82115029D01*
X201282526Y-81628848D01*
X201396600Y-81055359D01*
X201396600Y-80996641D01*
X201282526Y-80423152D01*
X200957670Y-79936971D01*
X200686828Y-79756000D01*
X200957670Y-79575029D01*
X201282526Y-79088848D01*
X201396600Y-78515359D01*
X201396600Y-78456641D01*
X201282526Y-77883152D01*
X200957670Y-77396971D01*
X200686828Y-77216000D01*
X200957670Y-77035029D01*
X201282526Y-76548848D01*
X201396600Y-75975359D01*
X201396600Y-75916641D01*
X201282526Y-75343152D01*
X200957670Y-74856971D01*
X200686828Y-74676000D01*
X200957670Y-74495029D01*
X201282526Y-74008848D01*
X201396600Y-73435359D01*
X201396600Y-73376641D01*
X201282526Y-72803152D01*
X200957670Y-72316971D01*
X200686828Y-72136000D01*
X200957670Y-71955029D01*
X201282526Y-71468848D01*
X201396600Y-70895359D01*
X201396600Y-70836641D01*
X201282526Y-70263152D01*
X200957670Y-69776971D01*
X200471489Y-69452115D01*
X199898000Y-69338041D01*
X199324511Y-69452115D01*
X198838330Y-69776971D01*
X198628000Y-70091752D01*
X198417670Y-69776971D01*
X197931489Y-69452115D01*
X197358000Y-69338041D01*
X196784511Y-69452115D01*
X196298330Y-69776971D01*
X196106665Y-70063817D01*
X195820168Y-69372154D01*
X195446123Y-69147485D01*
X195557608Y-69036000D01*
X201855000Y-69036000D01*
X201855000Y-117442849D01*
X201796121Y-117407484D01*
X200077605Y-119126000D01*
X200091748Y-119140143D01*
X199912143Y-119319748D01*
X199898000Y-119305605D01*
X199883858Y-119319748D01*
X199704253Y-119140143D01*
X199718395Y-119126000D01*
X197999879Y-117407484D01*
X197625832Y-117632154D01*
X197227120Y-118615388D01*
X197235025Y-119676357D01*
X197625832Y-120619846D01*
X197999877Y-120844515D01*
X197888392Y-120956000D01*
X116788000Y-120956000D01*
X116788000Y-118941255D01*
X129819400Y-118941255D01*
X129819400Y-119310745D01*
X129933474Y-119884234D01*
X130258330Y-120370415D01*
X130744511Y-120695271D01*
X131318000Y-120809345D01*
X131891489Y-120695271D01*
X132377670Y-120370415D01*
X132588000Y-120055634D01*
X132798330Y-120370415D01*
X133284511Y-120695271D01*
X133858000Y-120809345D01*
X134431489Y-120695271D01*
X134917670Y-120370415D01*
X135128000Y-120055634D01*
X135338330Y-120370415D01*
X135824511Y-120695271D01*
X136398000Y-120809345D01*
X136971489Y-120695271D01*
X137457670Y-120370415D01*
X137668000Y-120055634D01*
X137878330Y-120370415D01*
X138364511Y-120695271D01*
X138938000Y-120809345D01*
X139511489Y-120695271D01*
X139997670Y-120370415D01*
X140208000Y-120055634D01*
X140418330Y-120370415D01*
X140904511Y-120695271D01*
X141478000Y-120809345D01*
X142051489Y-120695271D01*
X142537670Y-120370415D01*
X142744461Y-120060931D01*
X143115964Y-120476732D01*
X143643209Y-120730709D01*
X143658974Y-120733358D01*
X143891000Y-120612217D01*
X143891000Y-119253000D01*
X144145000Y-119253000D01*
X144145000Y-120612217D01*
X144377026Y-120733358D01*
X144392791Y-120730709D01*
X144920036Y-120476732D01*
X145288000Y-120064892D01*
X145655964Y-120476732D01*
X146183209Y-120730709D01*
X146198974Y-120733358D01*
X146431000Y-120612217D01*
X146431000Y-119253000D01*
X144145000Y-119253000D01*
X143891000Y-119253000D01*
X143871000Y-119253000D01*
X143871000Y-118999000D01*
X143891000Y-118999000D01*
X143891000Y-117639783D01*
X144145000Y-117639783D01*
X144145000Y-118999000D01*
X146431000Y-118999000D01*
X146431000Y-117639783D01*
X146685000Y-117639783D01*
X146685000Y-118999000D01*
X146705000Y-118999000D01*
X146705000Y-119253000D01*
X146685000Y-119253000D01*
X146685000Y-120612217D01*
X146917026Y-120733358D01*
X146932791Y-120730709D01*
X147460036Y-120476732D01*
X147831539Y-120060931D01*
X148038330Y-120370415D01*
X148524511Y-120695271D01*
X149098000Y-120809345D01*
X149671489Y-120695271D01*
X150157670Y-120370415D01*
X150482526Y-119884234D01*
X150596600Y-119310745D01*
X150596600Y-119064240D01*
X150719585Y-118941255D01*
X152679400Y-118941255D01*
X152679400Y-119310745D01*
X152793474Y-119884234D01*
X153118330Y-120370415D01*
X153604511Y-120695271D01*
X154178000Y-120809345D01*
X154751489Y-120695271D01*
X155237670Y-120370415D01*
X155448000Y-120055634D01*
X155658330Y-120370415D01*
X156144511Y-120695271D01*
X156718000Y-120809345D01*
X157291489Y-120695271D01*
X157777670Y-120370415D01*
X157988000Y-120055634D01*
X158198330Y-120370415D01*
X158684511Y-120695271D01*
X159258000Y-120809345D01*
X159831489Y-120695271D01*
X160317670Y-120370415D01*
X160528000Y-120055634D01*
X160738330Y-120370415D01*
X161224511Y-120695271D01*
X161798000Y-120809345D01*
X162371489Y-120695271D01*
X162857670Y-120370415D01*
X163068000Y-120055634D01*
X163278330Y-120370415D01*
X163764511Y-120695271D01*
X164338000Y-120809345D01*
X164911489Y-120695271D01*
X165397670Y-120370415D01*
X165608000Y-120055634D01*
X165818330Y-120370415D01*
X166304511Y-120695271D01*
X166878000Y-120809345D01*
X167451489Y-120695271D01*
X167937670Y-120370415D01*
X168148000Y-120055634D01*
X168358330Y-120370415D01*
X168844511Y-120695271D01*
X169418000Y-120809345D01*
X169991489Y-120695271D01*
X170477670Y-120370415D01*
X170688000Y-120055634D01*
X170898330Y-120370415D01*
X171384511Y-120695271D01*
X171958000Y-120809345D01*
X172531489Y-120695271D01*
X173017670Y-120370415D01*
X173342526Y-119884234D01*
X173456600Y-119310745D01*
X173456600Y-118941255D01*
X175539400Y-118941255D01*
X175539400Y-119310745D01*
X175653474Y-119884234D01*
X175978330Y-120370415D01*
X176464511Y-120695271D01*
X177038000Y-120809345D01*
X177611489Y-120695271D01*
X178097670Y-120370415D01*
X178308000Y-120055634D01*
X178518330Y-120370415D01*
X179004511Y-120695271D01*
X179578000Y-120809345D01*
X180151489Y-120695271D01*
X180637670Y-120370415D01*
X180848000Y-120055634D01*
X181058330Y-120370415D01*
X181544511Y-120695271D01*
X182118000Y-120809345D01*
X182691489Y-120695271D01*
X183177670Y-120370415D01*
X183388000Y-120055634D01*
X183598330Y-120370415D01*
X184084511Y-120695271D01*
X184658000Y-120809345D01*
X185231489Y-120695271D01*
X185717670Y-120370415D01*
X185928000Y-120055634D01*
X186138330Y-120370415D01*
X186624511Y-120695271D01*
X187198000Y-120809345D01*
X187771489Y-120695271D01*
X188257670Y-120370415D01*
X188468000Y-120055634D01*
X188678330Y-120370415D01*
X189164511Y-120695271D01*
X189738000Y-120809345D01*
X190311489Y-120695271D01*
X190797670Y-120370415D01*
X191008000Y-120055634D01*
X191218330Y-120370415D01*
X191704511Y-120695271D01*
X192278000Y-120809345D01*
X192851489Y-120695271D01*
X193337670Y-120370415D01*
X193548000Y-120055634D01*
X193758330Y-120370415D01*
X194244511Y-120695271D01*
X194818000Y-120809345D01*
X195391489Y-120695271D01*
X195877670Y-120370415D01*
X196202526Y-119884234D01*
X196316600Y-119310745D01*
X196316600Y-118941255D01*
X196202526Y-118367766D01*
X195877670Y-117881585D01*
X195391489Y-117556729D01*
X194818000Y-117442655D01*
X194244511Y-117556729D01*
X193758330Y-117881585D01*
X193548000Y-118196366D01*
X193337670Y-117881585D01*
X192851489Y-117556729D01*
X192278000Y-117442655D01*
X191704511Y-117556729D01*
X191218330Y-117881585D01*
X191008000Y-118196366D01*
X190797670Y-117881585D01*
X190311489Y-117556729D01*
X189738000Y-117442655D01*
X189164511Y-117556729D01*
X188678330Y-117881585D01*
X188468000Y-118196366D01*
X188257670Y-117881585D01*
X187771489Y-117556729D01*
X187198000Y-117442655D01*
X186624511Y-117556729D01*
X186138330Y-117881585D01*
X185928000Y-118196366D01*
X185717670Y-117881585D01*
X185231489Y-117556729D01*
X184658000Y-117442655D01*
X184084511Y-117556729D01*
X183598330Y-117881585D01*
X183388000Y-118196366D01*
X183177670Y-117881585D01*
X182691489Y-117556729D01*
X182118000Y-117442655D01*
X181544511Y-117556729D01*
X181058330Y-117881585D01*
X180848000Y-118196366D01*
X180637670Y-117881585D01*
X180151489Y-117556729D01*
X179578000Y-117442655D01*
X179004511Y-117556729D01*
X178518330Y-117881585D01*
X178308000Y-118196366D01*
X178097670Y-117881585D01*
X177611489Y-117556729D01*
X177038000Y-117442655D01*
X176464511Y-117556729D01*
X175978330Y-117881585D01*
X175653474Y-118367766D01*
X175539400Y-118941255D01*
X173456600Y-118941255D01*
X173342526Y-118367766D01*
X173017670Y-117881585D01*
X172531489Y-117556729D01*
X171958000Y-117442655D01*
X171384511Y-117556729D01*
X170898330Y-117881585D01*
X170688000Y-118196366D01*
X170477670Y-117881585D01*
X169991489Y-117556729D01*
X169418000Y-117442655D01*
X168844511Y-117556729D01*
X168358330Y-117881585D01*
X168148000Y-118196366D01*
X167937670Y-117881585D01*
X167451489Y-117556729D01*
X166878000Y-117442655D01*
X166304511Y-117556729D01*
X165818330Y-117881585D01*
X165608000Y-118196366D01*
X165397670Y-117881585D01*
X164911489Y-117556729D01*
X164338000Y-117442655D01*
X163764511Y-117556729D01*
X163278330Y-117881585D01*
X163068000Y-118196366D01*
X162857670Y-117881585D01*
X162371489Y-117556729D01*
X161798000Y-117442655D01*
X161224511Y-117556729D01*
X160738330Y-117881585D01*
X160528000Y-118196366D01*
X160317670Y-117881585D01*
X159831489Y-117556729D01*
X159258000Y-117442655D01*
X158684511Y-117556729D01*
X158198330Y-117881585D01*
X157988000Y-118196366D01*
X157777670Y-117881585D01*
X157291489Y-117556729D01*
X156718000Y-117442655D01*
X156144511Y-117556729D01*
X155658330Y-117881585D01*
X155448000Y-118196366D01*
X155237670Y-117881585D01*
X154751489Y-117556729D01*
X154178000Y-117442655D01*
X153604511Y-117556729D01*
X153118330Y-117881585D01*
X152793474Y-118367766D01*
X152679400Y-118941255D01*
X150719585Y-118941255D01*
X152432961Y-117227879D01*
X198179484Y-117227879D01*
X199898000Y-118946395D01*
X201616516Y-117227879D01*
X201391846Y-116853832D01*
X200408612Y-116455120D01*
X199347643Y-116463025D01*
X198404154Y-116853832D01*
X198179484Y-117227879D01*
X152432961Y-117227879D01*
X153716719Y-115944121D01*
X167699484Y-115944121D01*
X167924154Y-116318168D01*
X168907388Y-116716880D01*
X169968357Y-116708975D01*
X170911846Y-116318168D01*
X171136516Y-115944121D01*
X169418000Y-114225605D01*
X167699484Y-115944121D01*
X153716719Y-115944121D01*
X156125452Y-113535388D01*
X166747120Y-113535388D01*
X166755025Y-114596357D01*
X167145832Y-115539846D01*
X167519879Y-115764516D01*
X169238395Y-114046000D01*
X169597605Y-114046000D01*
X171316121Y-115764516D01*
X171690168Y-115539846D01*
X171868609Y-115099805D01*
X196483800Y-115099805D01*
X196565741Y-115352516D01*
X197126030Y-115556248D01*
X197721635Y-115530058D01*
X198150259Y-115352516D01*
X198232200Y-115099805D01*
X197358000Y-114225605D01*
X196483800Y-115099805D01*
X171868609Y-115099805D01*
X172088880Y-114556612D01*
X172083348Y-113814030D01*
X195847752Y-113814030D01*
X195873942Y-114409635D01*
X196051484Y-114838259D01*
X196304195Y-114920200D01*
X197178395Y-114046000D01*
X196304195Y-113171800D01*
X196051484Y-113253741D01*
X195847752Y-113814030D01*
X172083348Y-113814030D01*
X172080975Y-113495643D01*
X171690168Y-112552154D01*
X171316121Y-112327484D01*
X169597605Y-114046000D01*
X169238395Y-114046000D01*
X167519879Y-112327484D01*
X167145832Y-112552154D01*
X166747120Y-113535388D01*
X156125452Y-113535388D01*
X157512961Y-112147879D01*
X167699484Y-112147879D01*
X169418000Y-113866395D01*
X171136516Y-112147879D01*
X170911846Y-111773832D01*
X169928612Y-111375120D01*
X168867643Y-111383025D01*
X167924154Y-111773832D01*
X167699484Y-112147879D01*
X157512961Y-112147879D01*
X161710841Y-107950000D01*
X183018560Y-107950000D01*
X183018560Y-108434000D01*
X183062838Y-108669317D01*
X183201910Y-108885441D01*
X183414110Y-109030431D01*
X183666000Y-109081440D01*
X186666000Y-109081440D01*
X186901317Y-109037162D01*
X187117441Y-108898090D01*
X187262431Y-108685890D01*
X187310611Y-108447970D01*
X188911635Y-108447970D01*
X189071418Y-108766739D01*
X189862187Y-109076723D01*
X190711387Y-109060497D01*
X191420582Y-108766739D01*
X191580365Y-108447970D01*
X190246000Y-107113605D01*
X188911635Y-108447970D01*
X187310611Y-108447970D01*
X187313440Y-108434000D01*
X187313440Y-106550187D01*
X188103277Y-106550187D01*
X188119503Y-107399387D01*
X188413261Y-108108582D01*
X188732030Y-108268365D01*
X190066395Y-106934000D01*
X190425605Y-106934000D01*
X191759970Y-108268365D01*
X192078739Y-108108582D01*
X192388723Y-107317813D01*
X192372497Y-106468613D01*
X192078739Y-105759418D01*
X191759970Y-105599635D01*
X190425605Y-106934000D01*
X190066395Y-106934000D01*
X188732030Y-105599635D01*
X188413261Y-105759418D01*
X188103277Y-106550187D01*
X187313440Y-106550187D01*
X187313440Y-105434000D01*
X187310812Y-105420030D01*
X188911635Y-105420030D01*
X190246000Y-106754395D01*
X191580365Y-105420030D01*
X191420582Y-105101261D01*
X190629813Y-104791277D01*
X189780613Y-104807503D01*
X189071418Y-105101261D01*
X188911635Y-105420030D01*
X187310812Y-105420030D01*
X187269162Y-105198683D01*
X187130090Y-104982559D01*
X186917890Y-104837569D01*
X186666000Y-104786560D01*
X183666000Y-104786560D01*
X183430683Y-104830838D01*
X183214559Y-104969910D01*
X183069569Y-105182110D01*
X183018560Y-105434000D01*
X183018560Y-105918000D01*
X161290000Y-105918000D01*
X160965700Y-105982507D01*
X160901193Y-105995338D01*
X160571580Y-106215579D01*
X149303607Y-117483553D01*
X149098000Y-117442655D01*
X148524511Y-117556729D01*
X148038330Y-117881585D01*
X147831539Y-118191069D01*
X147460036Y-117775268D01*
X146932791Y-117521291D01*
X146917026Y-117518642D01*
X146685000Y-117639783D01*
X146431000Y-117639783D01*
X146198974Y-117518642D01*
X146183209Y-117521291D01*
X145655964Y-117775268D01*
X145288000Y-118187108D01*
X144920036Y-117775268D01*
X144392791Y-117521291D01*
X144377026Y-117518642D01*
X144145000Y-117639783D01*
X143891000Y-117639783D01*
X143658974Y-117518642D01*
X143643209Y-117521291D01*
X143115964Y-117775268D01*
X142744461Y-118191069D01*
X142537670Y-117881585D01*
X142494000Y-117852406D01*
X142494000Y-112942840D01*
X162980841Y-92456000D01*
X171958000Y-92456000D01*
X172282300Y-92391493D01*
X172346807Y-92378662D01*
X172676420Y-92158420D01*
X175216420Y-89618421D01*
X175436661Y-89288807D01*
X175436662Y-89288806D01*
X175514000Y-88900000D01*
X175514000Y-84702429D01*
X175733317Y-84661162D01*
X175949441Y-84522090D01*
X176094431Y-84309890D01*
X176142200Y-84074000D01*
X178187571Y-84074000D01*
X178228838Y-84293317D01*
X178367910Y-84509441D01*
X178580110Y-84654431D01*
X178832000Y-84705440D01*
X180832000Y-84705440D01*
X181067317Y-84661162D01*
X181283441Y-84522090D01*
X181428431Y-84309890D01*
X181476200Y-84074000D01*
X183013571Y-84074000D01*
X183054838Y-84293317D01*
X183193910Y-84509441D01*
X183406110Y-84654431D01*
X183658000Y-84705440D01*
X185658000Y-84705440D01*
X185893317Y-84661162D01*
X186109441Y-84522090D01*
X186254431Y-84309890D01*
X186257042Y-84296998D01*
X186323736Y-84477387D01*
X186933461Y-84703908D01*
X187583460Y-84679856D01*
X188072264Y-84477387D01*
X188170927Y-84210532D01*
X187198000Y-83237605D01*
X187183858Y-83251748D01*
X187004253Y-83072143D01*
X187018395Y-83058000D01*
X187004253Y-83043858D01*
X187183858Y-82864253D01*
X187198000Y-82878395D01*
X188170927Y-81905468D01*
X188072264Y-81638613D01*
X187462539Y-81412092D01*
X186812540Y-81436144D01*
X186323736Y-81638613D01*
X186257681Y-81817273D01*
X186122090Y-81606559D01*
X185909890Y-81461569D01*
X185658000Y-81410560D01*
X183658000Y-81410560D01*
X183422683Y-81454838D01*
X183206559Y-81593910D01*
X183061569Y-81806110D01*
X183013800Y-82042000D01*
X181476429Y-82042000D01*
X181435162Y-81822683D01*
X181296090Y-81606559D01*
X181083890Y-81461569D01*
X181070998Y-81458958D01*
X181251387Y-81392264D01*
X181477908Y-80782539D01*
X181453856Y-80132540D01*
X181251387Y-79643736D01*
X180984532Y-79545073D01*
X180011605Y-80518000D01*
X180025748Y-80532143D01*
X179846143Y-80711748D01*
X179832000Y-80697605D01*
X179817858Y-80711748D01*
X179638253Y-80532143D01*
X179652395Y-80518000D01*
X178679468Y-79545073D01*
X178412613Y-79643736D01*
X178186092Y-80253461D01*
X178210144Y-80903460D01*
X178412613Y-81392264D01*
X178591273Y-81458319D01*
X178380559Y-81593910D01*
X178235569Y-81806110D01*
X178187800Y-82042000D01*
X176142429Y-82042000D01*
X176101162Y-81822683D01*
X175962090Y-81606559D01*
X175749890Y-81461569D01*
X175736998Y-81458958D01*
X175917387Y-81392264D01*
X176143908Y-80782539D01*
X176119856Y-80132540D01*
X175917387Y-79643736D01*
X175650532Y-79545073D01*
X174677605Y-80518000D01*
X174691748Y-80532143D01*
X174512143Y-80711748D01*
X174498000Y-80697605D01*
X174483858Y-80711748D01*
X174304253Y-80532143D01*
X174318395Y-80518000D01*
X173345468Y-79545073D01*
X173078613Y-79643736D01*
X172852092Y-80253461D01*
X172876144Y-80903460D01*
X173078613Y-81392264D01*
X173257273Y-81458319D01*
X173046559Y-81593910D01*
X172901569Y-81806110D01*
X172850560Y-82058000D01*
X172850560Y-84058000D01*
X172894838Y-84293317D01*
X173033910Y-84509441D01*
X173246110Y-84654431D01*
X173482000Y-84702200D01*
X173482000Y-88479159D01*
X171537160Y-90424000D01*
X162560000Y-90424000D01*
X162171194Y-90501338D01*
X162171192Y-90501339D01*
X162171193Y-90501339D01*
X161841579Y-90721580D01*
X140759580Y-111803580D01*
X140539338Y-112133193D01*
X140539338Y-112133194D01*
X140462000Y-112522000D01*
X140462000Y-117852406D01*
X140418330Y-117881585D01*
X140208000Y-118196366D01*
X139997670Y-117881585D01*
X139511489Y-117556729D01*
X138938000Y-117442655D01*
X138364511Y-117556729D01*
X137878330Y-117881585D01*
X137668000Y-118196366D01*
X137457670Y-117881585D01*
X136971489Y-117556729D01*
X136398000Y-117442655D01*
X135824511Y-117556729D01*
X135338330Y-117881585D01*
X135128000Y-118196366D01*
X134917670Y-117881585D01*
X134431489Y-117556729D01*
X133858000Y-117442655D01*
X133284511Y-117556729D01*
X132798330Y-117881585D01*
X132588000Y-118196366D01*
X132377670Y-117881585D01*
X131891489Y-117556729D01*
X131318000Y-117442655D01*
X130744511Y-117556729D01*
X130258330Y-117881585D01*
X129933474Y-118367766D01*
X129819400Y-118941255D01*
X116788000Y-118941255D01*
X116788000Y-88004121D01*
X167699484Y-88004121D01*
X167924154Y-88378168D01*
X168907388Y-88776880D01*
X169968357Y-88768975D01*
X170911846Y-88378168D01*
X171136516Y-88004121D01*
X169418000Y-86285605D01*
X167699484Y-88004121D01*
X116788000Y-88004121D01*
X116788000Y-85595388D01*
X166747120Y-85595388D01*
X166755025Y-86656357D01*
X167145832Y-87599846D01*
X167519879Y-87824516D01*
X169238395Y-86106000D01*
X169597605Y-86106000D01*
X171316121Y-87824516D01*
X171690168Y-87599846D01*
X172088880Y-86616612D01*
X172080975Y-85555643D01*
X171690168Y-84612154D01*
X171316121Y-84387484D01*
X169597605Y-86106000D01*
X169238395Y-86106000D01*
X167519879Y-84387484D01*
X167145832Y-84612154D01*
X166747120Y-85595388D01*
X116788000Y-85595388D01*
X116788000Y-84207879D01*
X167699484Y-84207879D01*
X169418000Y-85926395D01*
X171136516Y-84207879D01*
X170911846Y-83833832D01*
X169928612Y-83435120D01*
X168867643Y-83443025D01*
X167924154Y-83833832D01*
X167699484Y-84207879D01*
X116788000Y-84207879D01*
X116788000Y-72875608D01*
X116899485Y-72764123D01*
X117124154Y-73138168D01*
X118107388Y-73536880D01*
X119168357Y-73528975D01*
X120111846Y-73138168D01*
X120336516Y-72764121D01*
X118618000Y-71045605D01*
X118603858Y-71059748D01*
X118424253Y-70880143D01*
X118438395Y-70866000D01*
X118424253Y-70851858D01*
X118603858Y-70672253D01*
X118618000Y-70686395D01*
X118632143Y-70672253D01*
X118811748Y-70851858D01*
X118797605Y-70866000D01*
X120516121Y-72584516D01*
X120890168Y-72359846D01*
X121037775Y-71995843D01*
X121114330Y-72110415D01*
X121600511Y-72435271D01*
X122174000Y-72549345D01*
X122747489Y-72435271D01*
X123233670Y-72110415D01*
X123444000Y-71795634D01*
X123654330Y-72110415D01*
X124140511Y-72435271D01*
X124714000Y-72549345D01*
X125287489Y-72435271D01*
X125773670Y-72110415D01*
X125984000Y-71795634D01*
X126194330Y-72110415D01*
X126680511Y-72435271D01*
X127254000Y-72549345D01*
X127827489Y-72435271D01*
X128313670Y-72110415D01*
X128520461Y-71800931D01*
X128891964Y-72216732D01*
X129419209Y-72470709D01*
X129434974Y-72473358D01*
X129667000Y-72352217D01*
X129667000Y-70993000D01*
X129647000Y-70993000D01*
X129647000Y-70739000D01*
X129667000Y-70739000D01*
X129667000Y-69379783D01*
X129921000Y-69379783D01*
X129921000Y-70739000D01*
X129941000Y-70739000D01*
X129941000Y-70993000D01*
X129921000Y-70993000D01*
X129921000Y-72352217D01*
X130153026Y-72473358D01*
X130168791Y-72470709D01*
X130696036Y-72216732D01*
X131067539Y-71800931D01*
X131274330Y-72110415D01*
X131760511Y-72435271D01*
X132334000Y-72549345D01*
X132907489Y-72435271D01*
X133393670Y-72110415D01*
X133604000Y-71795634D01*
X133814330Y-72110415D01*
X134300511Y-72435271D01*
X134874000Y-72549345D01*
X135447489Y-72435271D01*
X135933670Y-72110415D01*
X136144000Y-71795634D01*
X136354330Y-72110415D01*
X136840511Y-72435271D01*
X137414000Y-72549345D01*
X137987489Y-72435271D01*
X138473670Y-72110415D01*
X138684000Y-71795634D01*
X138894330Y-72110415D01*
X139380511Y-72435271D01*
X139954000Y-72549345D01*
X140527489Y-72435271D01*
X141013670Y-72110415D01*
X141224000Y-71795634D01*
X141434330Y-72110415D01*
X141920511Y-72435271D01*
X142494000Y-72549345D01*
X143067489Y-72435271D01*
X143553670Y-72110415D01*
X143764000Y-71795634D01*
X143974330Y-72110415D01*
X144460511Y-72435271D01*
X145034000Y-72549345D01*
X145607489Y-72435271D01*
X146093670Y-72110415D01*
X146418526Y-71624234D01*
X146532600Y-71050745D01*
X146532600Y-70681255D01*
X147599400Y-70681255D01*
X147599400Y-71050745D01*
X147713474Y-71624234D01*
X148038330Y-72110415D01*
X148524511Y-72435271D01*
X149098000Y-72549345D01*
X149671489Y-72435271D01*
X150157670Y-72110415D01*
X150368000Y-71795634D01*
X150578330Y-72110415D01*
X151064511Y-72435271D01*
X151638000Y-72549345D01*
X152211489Y-72435271D01*
X152697670Y-72110415D01*
X152908000Y-71795634D01*
X153118330Y-72110415D01*
X153604511Y-72435271D01*
X154178000Y-72549345D01*
X154751489Y-72435271D01*
X155237670Y-72110415D01*
X155448000Y-71795634D01*
X155658330Y-72110415D01*
X156144511Y-72435271D01*
X156718000Y-72549345D01*
X157291489Y-72435271D01*
X157777670Y-72110415D01*
X157988000Y-71795634D01*
X158198330Y-72110415D01*
X158684511Y-72435271D01*
X159258000Y-72549345D01*
X159765579Y-72448381D01*
X165832599Y-78515401D01*
X166079161Y-78680148D01*
X166370000Y-78738000D01*
X173042953Y-78738000D01*
X173111106Y-78902943D01*
X173537978Y-79330562D01*
X173525073Y-79365468D01*
X174498000Y-80338395D01*
X175470927Y-79365468D01*
X175457836Y-79330062D01*
X175883278Y-78905363D01*
X176132716Y-78304648D01*
X176133284Y-77654205D01*
X175884894Y-77053057D01*
X175540241Y-76707801D01*
X175883278Y-76365363D01*
X176132716Y-75764648D01*
X176133284Y-75114205D01*
X175884894Y-74513057D01*
X175425363Y-74052722D01*
X174824648Y-73803284D01*
X174174205Y-73802716D01*
X173573057Y-74051106D01*
X173112722Y-74510637D01*
X173043227Y-74678000D01*
X166684802Y-74678000D01*
X164519954Y-72513152D01*
X164911489Y-72435271D01*
X165397670Y-72110415D01*
X165608000Y-71795634D01*
X165818330Y-72110415D01*
X166304511Y-72435271D01*
X166878000Y-72549345D01*
X167451489Y-72435271D01*
X167937670Y-72110415D01*
X168262526Y-71624234D01*
X168376600Y-71050745D01*
X168376600Y-70681255D01*
X168262526Y-70107766D01*
X167937670Y-69621585D01*
X167451489Y-69296729D01*
X166878000Y-69182655D01*
X166304511Y-69296729D01*
X165818330Y-69621585D01*
X165608000Y-69936366D01*
X165397670Y-69621585D01*
X164911489Y-69296729D01*
X164338000Y-69182655D01*
X163764511Y-69296729D01*
X163278330Y-69621585D01*
X163068000Y-69936366D01*
X162857670Y-69621585D01*
X162371489Y-69296729D01*
X161798000Y-69182655D01*
X161224511Y-69296729D01*
X160738330Y-69621585D01*
X160528000Y-69936366D01*
X160317670Y-69621585D01*
X159831489Y-69296729D01*
X159258000Y-69182655D01*
X158684511Y-69296729D01*
X158198330Y-69621585D01*
X157988000Y-69936366D01*
X157777670Y-69621585D01*
X157291489Y-69296729D01*
X156718000Y-69182655D01*
X156144511Y-69296729D01*
X155658330Y-69621585D01*
X155448000Y-69936366D01*
X155237670Y-69621585D01*
X154751489Y-69296729D01*
X154178000Y-69182655D01*
X153604511Y-69296729D01*
X153118330Y-69621585D01*
X152908000Y-69936366D01*
X152697670Y-69621585D01*
X152211489Y-69296729D01*
X151638000Y-69182655D01*
X151064511Y-69296729D01*
X150578330Y-69621585D01*
X150368000Y-69936366D01*
X150157670Y-69621585D01*
X149671489Y-69296729D01*
X149098000Y-69182655D01*
X148524511Y-69296729D01*
X148038330Y-69621585D01*
X147713474Y-70107766D01*
X147599400Y-70681255D01*
X146532600Y-70681255D01*
X146418526Y-70107766D01*
X146093670Y-69621585D01*
X145607489Y-69296729D01*
X145034000Y-69182655D01*
X144460511Y-69296729D01*
X143974330Y-69621585D01*
X143764000Y-69936366D01*
X143553670Y-69621585D01*
X143067489Y-69296729D01*
X142494000Y-69182655D01*
X141920511Y-69296729D01*
X141434330Y-69621585D01*
X141224000Y-69936366D01*
X141013670Y-69621585D01*
X140527489Y-69296729D01*
X139954000Y-69182655D01*
X139380511Y-69296729D01*
X138894330Y-69621585D01*
X138684000Y-69936366D01*
X138473670Y-69621585D01*
X137987489Y-69296729D01*
X137414000Y-69182655D01*
X136840511Y-69296729D01*
X136354330Y-69621585D01*
X136144000Y-69936366D01*
X135933670Y-69621585D01*
X135447489Y-69296729D01*
X134874000Y-69182655D01*
X134300511Y-69296729D01*
X133814330Y-69621585D01*
X133604000Y-69936366D01*
X133393670Y-69621585D01*
X132907489Y-69296729D01*
X132334000Y-69182655D01*
X131760511Y-69296729D01*
X131274330Y-69621585D01*
X131067539Y-69931069D01*
X130696036Y-69515268D01*
X130168791Y-69261291D01*
X130153026Y-69258642D01*
X129921000Y-69379783D01*
X129667000Y-69379783D01*
X129434974Y-69258642D01*
X129419209Y-69261291D01*
X128891964Y-69515268D01*
X128520461Y-69931069D01*
X128313670Y-69621585D01*
X127827489Y-69296729D01*
X127254000Y-69182655D01*
X126680511Y-69296729D01*
X126194330Y-69621585D01*
X125984000Y-69936366D01*
X125773670Y-69621585D01*
X125287489Y-69296729D01*
X124714000Y-69182655D01*
X124140511Y-69296729D01*
X123654330Y-69621585D01*
X123444000Y-69936366D01*
X123233670Y-69621585D01*
X122747489Y-69296729D01*
X122174000Y-69182655D01*
X121600511Y-69296729D01*
X121114330Y-69621585D01*
X121039731Y-69733230D01*
X120890168Y-69372154D01*
X120516123Y-69147485D01*
X120627608Y-69036000D01*
X191538392Y-69036000D01*
X191649877Y-69147485D01*
X191649877Y-69147485D01*
G37*
X191649877Y-69147485D02*
X191275832Y-69372154D01*
X191032294Y-69972725D01*
X190797670Y-69621585D01*
X190311489Y-69296729D01*
X189738000Y-69182655D01*
X189164511Y-69296729D01*
X188678330Y-69621585D01*
X188468000Y-69936366D01*
X188257670Y-69621585D01*
X187771489Y-69296729D01*
X187198000Y-69182655D01*
X186624511Y-69296729D01*
X186138330Y-69621585D01*
X185928000Y-69936366D01*
X185717670Y-69621585D01*
X185231489Y-69296729D01*
X184658000Y-69182655D01*
X184084511Y-69296729D01*
X183598330Y-69621585D01*
X183388000Y-69936366D01*
X183177670Y-69621585D01*
X182691489Y-69296729D01*
X182118000Y-69182655D01*
X181544511Y-69296729D01*
X181058330Y-69621585D01*
X180848000Y-69936366D01*
X180637670Y-69621585D01*
X180151489Y-69296729D01*
X179578000Y-69182655D01*
X179004511Y-69296729D01*
X178518330Y-69621585D01*
X178308000Y-69936366D01*
X178097670Y-69621585D01*
X177611489Y-69296729D01*
X177038000Y-69182655D01*
X176464511Y-69296729D01*
X175978330Y-69621585D01*
X175768000Y-69936366D01*
X175557670Y-69621585D01*
X175071489Y-69296729D01*
X174498000Y-69182655D01*
X173924511Y-69296729D01*
X173438330Y-69621585D01*
X173228000Y-69936366D01*
X173017670Y-69621585D01*
X172531489Y-69296729D01*
X171958000Y-69182655D01*
X171384511Y-69296729D01*
X170898330Y-69621585D01*
X170573474Y-70107766D01*
X170459400Y-70681255D01*
X170459400Y-71050745D01*
X170573474Y-71624234D01*
X170898330Y-72110415D01*
X171384511Y-72435271D01*
X171958000Y-72549345D01*
X172531489Y-72435271D01*
X173017670Y-72110415D01*
X173228000Y-71795634D01*
X173438330Y-72110415D01*
X173924511Y-72435271D01*
X174498000Y-72549345D01*
X175071489Y-72435271D01*
X175557670Y-72110415D01*
X175768000Y-71795634D01*
X175978330Y-72110415D01*
X176464511Y-72435271D01*
X177038000Y-72549345D01*
X177611489Y-72435271D01*
X178097670Y-72110415D01*
X178308000Y-71795634D01*
X178518330Y-72110415D01*
X179004511Y-72435271D01*
X179578000Y-72549345D01*
X180151489Y-72435271D01*
X180637670Y-72110415D01*
X180848000Y-71795634D01*
X181058330Y-72110415D01*
X181358000Y-72310648D01*
X181358000Y-72837198D01*
X180323473Y-73871725D01*
X180158648Y-73803284D01*
X179508205Y-73802716D01*
X178907057Y-74051106D01*
X178446722Y-74510637D01*
X178197284Y-75111352D01*
X178196716Y-75761795D01*
X178445106Y-76362943D01*
X178789759Y-76708199D01*
X178446722Y-77050637D01*
X178197284Y-77651352D01*
X178196716Y-78301795D01*
X178445106Y-78902943D01*
X178871978Y-79330562D01*
X178859073Y-79365468D01*
X179832000Y-80338395D01*
X180804927Y-79365468D01*
X180791836Y-79330062D01*
X181217278Y-78905363D01*
X181466716Y-78304648D01*
X181467284Y-77654205D01*
X181398081Y-77486721D01*
X185195401Y-73689401D01*
X185360148Y-73442839D01*
X185418000Y-73152000D01*
X185418000Y-72310648D01*
X185717670Y-72110415D01*
X185928000Y-71795634D01*
X186138330Y-72110415D01*
X186438000Y-72310648D01*
X186438000Y-74930000D01*
X186495852Y-75220839D01*
X186660599Y-75467401D01*
X188978000Y-77784802D01*
X188978000Y-81602953D01*
X188813057Y-81671106D01*
X188385438Y-82097978D01*
X188350532Y-82085073D01*
X187377605Y-83058000D01*
X188350532Y-84030927D01*
X188385938Y-84017836D01*
X188810637Y-84443278D01*
X189411352Y-84692716D01*
X190061795Y-84693284D01*
X190662943Y-84444894D01*
X191008199Y-84100241D01*
X191350637Y-84443278D01*
X191951352Y-84692716D01*
X192601795Y-84693284D01*
X193202943Y-84444894D01*
X193663278Y-83985363D01*
X193912716Y-83384648D01*
X193913284Y-82734205D01*
X193664894Y-82133057D01*
X193205363Y-81672722D01*
X193038000Y-81603227D01*
X193038000Y-77470000D01*
X192980148Y-77179161D01*
X192980148Y-77179160D01*
X192815401Y-76932599D01*
X190498000Y-74615198D01*
X190498000Y-72764121D01*
X191829484Y-72764121D01*
X192054154Y-73138168D01*
X193037388Y-73536880D01*
X194098357Y-73528975D01*
X195041846Y-73138168D01*
X195266516Y-72764121D01*
X193548000Y-71045605D01*
X191829484Y-72764121D01*
X190498000Y-72764121D01*
X190498000Y-72310648D01*
X190797670Y-72110415D01*
X191029067Y-71764105D01*
X191275832Y-72359846D01*
X191649879Y-72584516D01*
X193368395Y-70866000D01*
X193354253Y-70851858D01*
X193533858Y-70672253D01*
X193548000Y-70686395D01*
X193562143Y-70672253D01*
X193741748Y-70851858D01*
X193727605Y-70866000D01*
X195446121Y-72584516D01*
X195820168Y-72359846D01*
X196102919Y-71662576D01*
X196298330Y-71955029D01*
X196569172Y-72136000D01*
X196298330Y-72316971D01*
X195973474Y-72803152D01*
X195859400Y-73376641D01*
X195859400Y-73435359D01*
X195973474Y-74008848D01*
X196298330Y-74495029D01*
X196569172Y-74676000D01*
X196298330Y-74856971D01*
X195973474Y-75343152D01*
X195859400Y-75916641D01*
X195859400Y-75975359D01*
X195973474Y-76548848D01*
X196298330Y-77035029D01*
X196569172Y-77216000D01*
X196298330Y-77396971D01*
X195973474Y-77883152D01*
X195859400Y-78456641D01*
X195859400Y-78515359D01*
X195973474Y-79088848D01*
X196298330Y-79575029D01*
X196569172Y-79756000D01*
X196298330Y-79936971D01*
X195973474Y-80423152D01*
X195859400Y-80996641D01*
X195859400Y-81055359D01*
X195973474Y-81628848D01*
X196298330Y-82115029D01*
X196569172Y-82296000D01*
X196298330Y-82476971D01*
X195973474Y-82963152D01*
X195859400Y-83536641D01*
X195859400Y-83595359D01*
X195973474Y-84168848D01*
X196298330Y-84655029D01*
X196569172Y-84836000D01*
X196298330Y-85016971D01*
X195973474Y-85503152D01*
X195859400Y-86076641D01*
X195859400Y-86135359D01*
X195973474Y-86708848D01*
X196298330Y-87195029D01*
X196569172Y-87376000D01*
X196298330Y-87556971D01*
X195973474Y-88043152D01*
X195859400Y-88616641D01*
X195859400Y-88675359D01*
X195973474Y-89248848D01*
X196298330Y-89735029D01*
X196569172Y-89916000D01*
X196298330Y-90096971D01*
X195973474Y-90583152D01*
X195859400Y-91156641D01*
X195859400Y-91215359D01*
X195973474Y-91788848D01*
X196298330Y-92275029D01*
X196569172Y-92456000D01*
X196298330Y-92636971D01*
X195973474Y-93123152D01*
X195859400Y-93696641D01*
X195859400Y-93755359D01*
X195973474Y-94328848D01*
X196298330Y-94815029D01*
X196569172Y-94996000D01*
X196298330Y-95176971D01*
X195973474Y-95663152D01*
X195859400Y-96236641D01*
X195859400Y-96295359D01*
X195973474Y-96868848D01*
X196298330Y-97355029D01*
X196569172Y-97536000D01*
X196298330Y-97716971D01*
X195973474Y-98203152D01*
X195859400Y-98776641D01*
X195859400Y-98835359D01*
X195973474Y-99408848D01*
X196298330Y-99895029D01*
X196569172Y-100076000D01*
X196298330Y-100256971D01*
X195973474Y-100743152D01*
X195859400Y-101316641D01*
X195859400Y-101375359D01*
X195973474Y-101948848D01*
X196298330Y-102435029D01*
X196569172Y-102616000D01*
X196298330Y-102796971D01*
X195973474Y-103283152D01*
X195859400Y-103856641D01*
X195859400Y-103915359D01*
X195973474Y-104488848D01*
X196298330Y-104975029D01*
X196569172Y-105156000D01*
X196298330Y-105336971D01*
X195973474Y-105823152D01*
X195859400Y-106396641D01*
X195859400Y-106455359D01*
X195973474Y-107028848D01*
X196298330Y-107515029D01*
X196569172Y-107696000D01*
X196298330Y-107876971D01*
X195973474Y-108363152D01*
X195859400Y-108936641D01*
X195859400Y-108995359D01*
X195973474Y-109568848D01*
X196298330Y-110055029D01*
X196569172Y-110236000D01*
X196298330Y-110416971D01*
X195973474Y-110903152D01*
X195859400Y-111476641D01*
X195859400Y-111535359D01*
X195973474Y-112108848D01*
X196298330Y-112595029D01*
X196556620Y-112767613D01*
X196483800Y-112992195D01*
X197358000Y-113866395D01*
X198232200Y-112992195D01*
X198159380Y-112767613D01*
X198417670Y-112595029D01*
X198628000Y-112280248D01*
X198838330Y-112595029D01*
X199109161Y-112775992D01*
X198691179Y-113157510D01*
X198648510Y-113248551D01*
X198411805Y-113171800D01*
X197537605Y-114046000D01*
X198411805Y-114920200D01*
X198648510Y-114843449D01*
X198691179Y-114934490D01*
X199123053Y-115328688D01*
X199538974Y-115500958D01*
X199771000Y-115379817D01*
X199771000Y-114173000D01*
X200025000Y-114173000D01*
X200025000Y-115379817D01*
X200257026Y-115500958D01*
X200672947Y-115328688D01*
X201104821Y-114934490D01*
X201352968Y-114405027D01*
X201232469Y-114173000D01*
X200025000Y-114173000D01*
X199771000Y-114173000D01*
X199751000Y-114173000D01*
X199751000Y-113919000D01*
X199771000Y-113919000D01*
X199771000Y-113899000D01*
X200025000Y-113899000D01*
X200025000Y-113919000D01*
X201232469Y-113919000D01*
X201352968Y-113686973D01*
X201104821Y-113157510D01*
X200686839Y-112775992D01*
X200957670Y-112595029D01*
X201282526Y-112108848D01*
X201396600Y-111535359D01*
X201396600Y-111476641D01*
X201282526Y-110903152D01*
X200957670Y-110416971D01*
X200686828Y-110236000D01*
X200957670Y-110055029D01*
X201282526Y-109568848D01*
X201396600Y-108995359D01*
X201396600Y-108936641D01*
X201282526Y-108363152D01*
X200957670Y-107876971D01*
X200686828Y-107696000D01*
X200957670Y-107515029D01*
X201282526Y-107028848D01*
X201396600Y-106455359D01*
X201396600Y-106396641D01*
X201282526Y-105823152D01*
X200957670Y-105336971D01*
X200686828Y-105156000D01*
X200957670Y-104975029D01*
X201282526Y-104488848D01*
X201396600Y-103915359D01*
X201396600Y-103856641D01*
X201282526Y-103283152D01*
X200957670Y-102796971D01*
X200686828Y-102616000D01*
X200957670Y-102435029D01*
X201282526Y-101948848D01*
X201396600Y-101375359D01*
X201396600Y-101316641D01*
X201282526Y-100743152D01*
X200957670Y-100256971D01*
X200686828Y-100076000D01*
X200957670Y-99895029D01*
X201282526Y-99408848D01*
X201396600Y-98835359D01*
X201396600Y-98776641D01*
X201282526Y-98203152D01*
X200957670Y-97716971D01*
X200686828Y-97536000D01*
X200957670Y-97355029D01*
X201282526Y-96868848D01*
X201396600Y-96295359D01*
X201396600Y-96236641D01*
X201282526Y-95663152D01*
X200957670Y-95176971D01*
X200686828Y-94996000D01*
X200957670Y-94815029D01*
X201282526Y-94328848D01*
X201396600Y-93755359D01*
X201396600Y-93696641D01*
X201282526Y-93123152D01*
X200957670Y-92636971D01*
X200686828Y-92456000D01*
X200957670Y-92275029D01*
X201282526Y-91788848D01*
X201396600Y-91215359D01*
X201396600Y-91156641D01*
X201282526Y-90583152D01*
X200957670Y-90096971D01*
X200686828Y-89916000D01*
X200957670Y-89735029D01*
X201282526Y-89248848D01*
X201396600Y-88675359D01*
X201396600Y-88616641D01*
X201282526Y-88043152D01*
X200957670Y-87556971D01*
X200686828Y-87376000D01*
X200957670Y-87195029D01*
X201282526Y-86708848D01*
X201396600Y-86135359D01*
X201396600Y-86076641D01*
X201282526Y-85503152D01*
X200957670Y-85016971D01*
X200686828Y-84836000D01*
X200957670Y-84655029D01*
X201282526Y-84168848D01*
X201396600Y-83595359D01*
X201396600Y-83536641D01*
X201282526Y-82963152D01*
X200957670Y-82476971D01*
X200686828Y-82296000D01*
X200957670Y-82115029D01*
X201282526Y-81628848D01*
X201396600Y-81055359D01*
X201396600Y-80996641D01*
X201282526Y-80423152D01*
X200957670Y-79936971D01*
X200686828Y-79756000D01*
X200957670Y-79575029D01*
X201282526Y-79088848D01*
X201396600Y-78515359D01*
X201396600Y-78456641D01*
X201282526Y-77883152D01*
X200957670Y-77396971D01*
X200686828Y-77216000D01*
X200957670Y-77035029D01*
X201282526Y-76548848D01*
X201396600Y-75975359D01*
X201396600Y-75916641D01*
X201282526Y-75343152D01*
X200957670Y-74856971D01*
X200686828Y-74676000D01*
X200957670Y-74495029D01*
X201282526Y-74008848D01*
X201396600Y-73435359D01*
X201396600Y-73376641D01*
X201282526Y-72803152D01*
X200957670Y-72316971D01*
X200686828Y-72136000D01*
X200957670Y-71955029D01*
X201282526Y-71468848D01*
X201396600Y-70895359D01*
X201396600Y-70836641D01*
X201282526Y-70263152D01*
X200957670Y-69776971D01*
X200471489Y-69452115D01*
X199898000Y-69338041D01*
X199324511Y-69452115D01*
X198838330Y-69776971D01*
X198628000Y-70091752D01*
X198417670Y-69776971D01*
X197931489Y-69452115D01*
X197358000Y-69338041D01*
X196784511Y-69452115D01*
X196298330Y-69776971D01*
X196106665Y-70063817D01*
X195820168Y-69372154D01*
X195446123Y-69147485D01*
X195557608Y-69036000D01*
X201855000Y-69036000D01*
X201855000Y-117442849D01*
X201796121Y-117407484D01*
X200077605Y-119126000D01*
X200091748Y-119140143D01*
X199912143Y-119319748D01*
X199898000Y-119305605D01*
X199883858Y-119319748D01*
X199704253Y-119140143D01*
X199718395Y-119126000D01*
X197999879Y-117407484D01*
X197625832Y-117632154D01*
X197227120Y-118615388D01*
X197235025Y-119676357D01*
X197625832Y-120619846D01*
X197999877Y-120844515D01*
X197888392Y-120956000D01*
X116788000Y-120956000D01*
X116788000Y-118941255D01*
X129819400Y-118941255D01*
X129819400Y-119310745D01*
X129933474Y-119884234D01*
X130258330Y-120370415D01*
X130744511Y-120695271D01*
X131318000Y-120809345D01*
X131891489Y-120695271D01*
X132377670Y-120370415D01*
X132588000Y-120055634D01*
X132798330Y-120370415D01*
X133284511Y-120695271D01*
X133858000Y-120809345D01*
X134431489Y-120695271D01*
X134917670Y-120370415D01*
X135128000Y-120055634D01*
X135338330Y-120370415D01*
X135824511Y-120695271D01*
X136398000Y-120809345D01*
X136971489Y-120695271D01*
X137457670Y-120370415D01*
X137668000Y-120055634D01*
X137878330Y-120370415D01*
X138364511Y-120695271D01*
X138938000Y-120809345D01*
X139511489Y-120695271D01*
X139997670Y-120370415D01*
X140208000Y-120055634D01*
X140418330Y-120370415D01*
X140904511Y-120695271D01*
X141478000Y-120809345D01*
X142051489Y-120695271D01*
X142537670Y-120370415D01*
X142744461Y-120060931D01*
X143115964Y-120476732D01*
X143643209Y-120730709D01*
X143658974Y-120733358D01*
X143891000Y-120612217D01*
X143891000Y-119253000D01*
X144145000Y-119253000D01*
X144145000Y-120612217D01*
X144377026Y-120733358D01*
X144392791Y-120730709D01*
X144920036Y-120476732D01*
X145288000Y-120064892D01*
X145655964Y-120476732D01*
X146183209Y-120730709D01*
X146198974Y-120733358D01*
X146431000Y-120612217D01*
X146431000Y-119253000D01*
X144145000Y-119253000D01*
X143891000Y-119253000D01*
X143871000Y-119253000D01*
X143871000Y-118999000D01*
X143891000Y-118999000D01*
X143891000Y-117639783D01*
X144145000Y-117639783D01*
X144145000Y-118999000D01*
X146431000Y-118999000D01*
X146431000Y-117639783D01*
X146685000Y-117639783D01*
X146685000Y-118999000D01*
X146705000Y-118999000D01*
X146705000Y-119253000D01*
X146685000Y-119253000D01*
X146685000Y-120612217D01*
X146917026Y-120733358D01*
X146932791Y-120730709D01*
X147460036Y-120476732D01*
X147831539Y-120060931D01*
X148038330Y-120370415D01*
X148524511Y-120695271D01*
X149098000Y-120809345D01*
X149671489Y-120695271D01*
X150157670Y-120370415D01*
X150482526Y-119884234D01*
X150596600Y-119310745D01*
X150596600Y-119064240D01*
X150719585Y-118941255D01*
X152679400Y-118941255D01*
X152679400Y-119310745D01*
X152793474Y-119884234D01*
X153118330Y-120370415D01*
X153604511Y-120695271D01*
X154178000Y-120809345D01*
X154751489Y-120695271D01*
X155237670Y-120370415D01*
X155448000Y-120055634D01*
X155658330Y-120370415D01*
X156144511Y-120695271D01*
X156718000Y-120809345D01*
X157291489Y-120695271D01*
X157777670Y-120370415D01*
X157988000Y-120055634D01*
X158198330Y-120370415D01*
X158684511Y-120695271D01*
X159258000Y-120809345D01*
X159831489Y-120695271D01*
X160317670Y-120370415D01*
X160528000Y-120055634D01*
X160738330Y-120370415D01*
X161224511Y-120695271D01*
X161798000Y-120809345D01*
X162371489Y-120695271D01*
X162857670Y-120370415D01*
X163068000Y-120055634D01*
X163278330Y-120370415D01*
X163764511Y-120695271D01*
X164338000Y-120809345D01*
X164911489Y-120695271D01*
X165397670Y-120370415D01*
X165608000Y-120055634D01*
X165818330Y-120370415D01*
X166304511Y-120695271D01*
X166878000Y-120809345D01*
X167451489Y-120695271D01*
X167937670Y-120370415D01*
X168148000Y-120055634D01*
X168358330Y-120370415D01*
X168844511Y-120695271D01*
X169418000Y-120809345D01*
X169991489Y-120695271D01*
X170477670Y-120370415D01*
X170688000Y-120055634D01*
X170898330Y-120370415D01*
X171384511Y-120695271D01*
X171958000Y-120809345D01*
X172531489Y-120695271D01*
X173017670Y-120370415D01*
X173342526Y-119884234D01*
X173456600Y-119310745D01*
X173456600Y-118941255D01*
X175539400Y-118941255D01*
X175539400Y-119310745D01*
X175653474Y-119884234D01*
X175978330Y-120370415D01*
X176464511Y-120695271D01*
X177038000Y-120809345D01*
X177611489Y-120695271D01*
X178097670Y-120370415D01*
X178308000Y-120055634D01*
X178518330Y-120370415D01*
X179004511Y-120695271D01*
X179578000Y-120809345D01*
X180151489Y-120695271D01*
X180637670Y-120370415D01*
X180848000Y-120055634D01*
X181058330Y-120370415D01*
X181544511Y-120695271D01*
X182118000Y-120809345D01*
X182691489Y-120695271D01*
X183177670Y-120370415D01*
X183388000Y-120055634D01*
X183598330Y-120370415D01*
X184084511Y-120695271D01*
X184658000Y-120809345D01*
X185231489Y-120695271D01*
X185717670Y-120370415D01*
X185928000Y-120055634D01*
X186138330Y-120370415D01*
X186624511Y-120695271D01*
X187198000Y-120809345D01*
X187771489Y-120695271D01*
X188257670Y-120370415D01*
X188468000Y-120055634D01*
X188678330Y-120370415D01*
X189164511Y-120695271D01*
X189738000Y-120809345D01*
X190311489Y-120695271D01*
X190797670Y-120370415D01*
X191008000Y-120055634D01*
X191218330Y-120370415D01*
X191704511Y-120695271D01*
X192278000Y-120809345D01*
X192851489Y-120695271D01*
X193337670Y-120370415D01*
X193548000Y-120055634D01*
X193758330Y-120370415D01*
X194244511Y-120695271D01*
X194818000Y-120809345D01*
X195391489Y-120695271D01*
X195877670Y-120370415D01*
X196202526Y-119884234D01*
X196316600Y-119310745D01*
X196316600Y-118941255D01*
X196202526Y-118367766D01*
X195877670Y-117881585D01*
X195391489Y-117556729D01*
X194818000Y-117442655D01*
X194244511Y-117556729D01*
X193758330Y-117881585D01*
X193548000Y-118196366D01*
X193337670Y-117881585D01*
X192851489Y-117556729D01*
X192278000Y-117442655D01*
X191704511Y-117556729D01*
X191218330Y-117881585D01*
X191008000Y-118196366D01*
X190797670Y-117881585D01*
X190311489Y-117556729D01*
X189738000Y-117442655D01*
X189164511Y-117556729D01*
X188678330Y-117881585D01*
X188468000Y-118196366D01*
X188257670Y-117881585D01*
X187771489Y-117556729D01*
X187198000Y-117442655D01*
X186624511Y-117556729D01*
X186138330Y-117881585D01*
X185928000Y-118196366D01*
X185717670Y-117881585D01*
X185231489Y-117556729D01*
X184658000Y-117442655D01*
X184084511Y-117556729D01*
X183598330Y-117881585D01*
X183388000Y-118196366D01*
X183177670Y-117881585D01*
X182691489Y-117556729D01*
X182118000Y-117442655D01*
X181544511Y-117556729D01*
X181058330Y-117881585D01*
X180848000Y-118196366D01*
X180637670Y-117881585D01*
X180151489Y-117556729D01*
X179578000Y-117442655D01*
X179004511Y-117556729D01*
X178518330Y-117881585D01*
X178308000Y-118196366D01*
X178097670Y-117881585D01*
X177611489Y-117556729D01*
X177038000Y-117442655D01*
X176464511Y-117556729D01*
X175978330Y-117881585D01*
X175653474Y-118367766D01*
X175539400Y-118941255D01*
X173456600Y-118941255D01*
X173342526Y-118367766D01*
X173017670Y-117881585D01*
X172531489Y-117556729D01*
X171958000Y-117442655D01*
X171384511Y-117556729D01*
X170898330Y-117881585D01*
X170688000Y-118196366D01*
X170477670Y-117881585D01*
X169991489Y-117556729D01*
X169418000Y-117442655D01*
X168844511Y-117556729D01*
X168358330Y-117881585D01*
X168148000Y-118196366D01*
X167937670Y-117881585D01*
X167451489Y-117556729D01*
X166878000Y-117442655D01*
X166304511Y-117556729D01*
X165818330Y-117881585D01*
X165608000Y-118196366D01*
X165397670Y-117881585D01*
X164911489Y-117556729D01*
X164338000Y-117442655D01*
X163764511Y-117556729D01*
X163278330Y-117881585D01*
X163068000Y-118196366D01*
X162857670Y-117881585D01*
X162371489Y-117556729D01*
X161798000Y-117442655D01*
X161224511Y-117556729D01*
X160738330Y-117881585D01*
X160528000Y-118196366D01*
X160317670Y-117881585D01*
X159831489Y-117556729D01*
X159258000Y-117442655D01*
X158684511Y-117556729D01*
X158198330Y-117881585D01*
X157988000Y-118196366D01*
X157777670Y-117881585D01*
X157291489Y-117556729D01*
X156718000Y-117442655D01*
X156144511Y-117556729D01*
X155658330Y-117881585D01*
X155448000Y-118196366D01*
X155237670Y-117881585D01*
X154751489Y-117556729D01*
X154178000Y-117442655D01*
X153604511Y-117556729D01*
X153118330Y-117881585D01*
X152793474Y-118367766D01*
X152679400Y-118941255D01*
X150719585Y-118941255D01*
X152432961Y-117227879D01*
X198179484Y-117227879D01*
X199898000Y-118946395D01*
X201616516Y-117227879D01*
X201391846Y-116853832D01*
X200408612Y-116455120D01*
X199347643Y-116463025D01*
X198404154Y-116853832D01*
X198179484Y-117227879D01*
X152432961Y-117227879D01*
X153716719Y-115944121D01*
X167699484Y-115944121D01*
X167924154Y-116318168D01*
X168907388Y-116716880D01*
X169968357Y-116708975D01*
X170911846Y-116318168D01*
X171136516Y-115944121D01*
X169418000Y-114225605D01*
X167699484Y-115944121D01*
X153716719Y-115944121D01*
X156125452Y-113535388D01*
X166747120Y-113535388D01*
X166755025Y-114596357D01*
X167145832Y-115539846D01*
X167519879Y-115764516D01*
X169238395Y-114046000D01*
X169597605Y-114046000D01*
X171316121Y-115764516D01*
X171690168Y-115539846D01*
X171868609Y-115099805D01*
X196483800Y-115099805D01*
X196565741Y-115352516D01*
X197126030Y-115556248D01*
X197721635Y-115530058D01*
X198150259Y-115352516D01*
X198232200Y-115099805D01*
X197358000Y-114225605D01*
X196483800Y-115099805D01*
X171868609Y-115099805D01*
X172088880Y-114556612D01*
X172083348Y-113814030D01*
X195847752Y-113814030D01*
X195873942Y-114409635D01*
X196051484Y-114838259D01*
X196304195Y-114920200D01*
X197178395Y-114046000D01*
X196304195Y-113171800D01*
X196051484Y-113253741D01*
X195847752Y-113814030D01*
X172083348Y-113814030D01*
X172080975Y-113495643D01*
X171690168Y-112552154D01*
X171316121Y-112327484D01*
X169597605Y-114046000D01*
X169238395Y-114046000D01*
X167519879Y-112327484D01*
X167145832Y-112552154D01*
X166747120Y-113535388D01*
X156125452Y-113535388D01*
X157512961Y-112147879D01*
X167699484Y-112147879D01*
X169418000Y-113866395D01*
X171136516Y-112147879D01*
X170911846Y-111773832D01*
X169928612Y-111375120D01*
X168867643Y-111383025D01*
X167924154Y-111773832D01*
X167699484Y-112147879D01*
X157512961Y-112147879D01*
X161710841Y-107950000D01*
X183018560Y-107950000D01*
X183018560Y-108434000D01*
X183062838Y-108669317D01*
X183201910Y-108885441D01*
X183414110Y-109030431D01*
X183666000Y-109081440D01*
X186666000Y-109081440D01*
X186901317Y-109037162D01*
X187117441Y-108898090D01*
X187262431Y-108685890D01*
X187310611Y-108447970D01*
X188911635Y-108447970D01*
X189071418Y-108766739D01*
X189862187Y-109076723D01*
X190711387Y-109060497D01*
X191420582Y-108766739D01*
X191580365Y-108447970D01*
X190246000Y-107113605D01*
X188911635Y-108447970D01*
X187310611Y-108447970D01*
X187313440Y-108434000D01*
X187313440Y-106550187D01*
X188103277Y-106550187D01*
X188119503Y-107399387D01*
X188413261Y-108108582D01*
X188732030Y-108268365D01*
X190066395Y-106934000D01*
X190425605Y-106934000D01*
X191759970Y-108268365D01*
X192078739Y-108108582D01*
X192388723Y-107317813D01*
X192372497Y-106468613D01*
X192078739Y-105759418D01*
X191759970Y-105599635D01*
X190425605Y-106934000D01*
X190066395Y-106934000D01*
X188732030Y-105599635D01*
X188413261Y-105759418D01*
X188103277Y-106550187D01*
X187313440Y-106550187D01*
X187313440Y-105434000D01*
X187310812Y-105420030D01*
X188911635Y-105420030D01*
X190246000Y-106754395D01*
X191580365Y-105420030D01*
X191420582Y-105101261D01*
X190629813Y-104791277D01*
X189780613Y-104807503D01*
X189071418Y-105101261D01*
X188911635Y-105420030D01*
X187310812Y-105420030D01*
X187269162Y-105198683D01*
X187130090Y-104982559D01*
X186917890Y-104837569D01*
X186666000Y-104786560D01*
X183666000Y-104786560D01*
X183430683Y-104830838D01*
X183214559Y-104969910D01*
X183069569Y-105182110D01*
X183018560Y-105434000D01*
X183018560Y-105918000D01*
X161290000Y-105918000D01*
X160965700Y-105982507D01*
X160901193Y-105995338D01*
X160571580Y-106215579D01*
X149303607Y-117483553D01*
X149098000Y-117442655D01*
X148524511Y-117556729D01*
X148038330Y-117881585D01*
X147831539Y-118191069D01*
X147460036Y-117775268D01*
X146932791Y-117521291D01*
X146917026Y-117518642D01*
X146685000Y-117639783D01*
X146431000Y-117639783D01*
X146198974Y-117518642D01*
X146183209Y-117521291D01*
X145655964Y-117775268D01*
X145288000Y-118187108D01*
X144920036Y-117775268D01*
X144392791Y-117521291D01*
X144377026Y-117518642D01*
X144145000Y-117639783D01*
X143891000Y-117639783D01*
X143658974Y-117518642D01*
X143643209Y-117521291D01*
X143115964Y-117775268D01*
X142744461Y-118191069D01*
X142537670Y-117881585D01*
X142494000Y-117852406D01*
X142494000Y-112942840D01*
X162980841Y-92456000D01*
X171958000Y-92456000D01*
X172282300Y-92391493D01*
X172346807Y-92378662D01*
X172676420Y-92158420D01*
X175216420Y-89618421D01*
X175436661Y-89288807D01*
X175436662Y-89288806D01*
X175514000Y-88900000D01*
X175514000Y-84702429D01*
X175733317Y-84661162D01*
X175949441Y-84522090D01*
X176094431Y-84309890D01*
X176142200Y-84074000D01*
X178187571Y-84074000D01*
X178228838Y-84293317D01*
X178367910Y-84509441D01*
X178580110Y-84654431D01*
X178832000Y-84705440D01*
X180832000Y-84705440D01*
X181067317Y-84661162D01*
X181283441Y-84522090D01*
X181428431Y-84309890D01*
X181476200Y-84074000D01*
X183013571Y-84074000D01*
X183054838Y-84293317D01*
X183193910Y-84509441D01*
X183406110Y-84654431D01*
X183658000Y-84705440D01*
X185658000Y-84705440D01*
X185893317Y-84661162D01*
X186109441Y-84522090D01*
X186254431Y-84309890D01*
X186257042Y-84296998D01*
X186323736Y-84477387D01*
X186933461Y-84703908D01*
X187583460Y-84679856D01*
X188072264Y-84477387D01*
X188170927Y-84210532D01*
X187198000Y-83237605D01*
X187183858Y-83251748D01*
X187004253Y-83072143D01*
X187018395Y-83058000D01*
X187004253Y-83043858D01*
X187183858Y-82864253D01*
X187198000Y-82878395D01*
X188170927Y-81905468D01*
X188072264Y-81638613D01*
X187462539Y-81412092D01*
X186812540Y-81436144D01*
X186323736Y-81638613D01*
X186257681Y-81817273D01*
X186122090Y-81606559D01*
X185909890Y-81461569D01*
X185658000Y-81410560D01*
X183658000Y-81410560D01*
X183422683Y-81454838D01*
X183206559Y-81593910D01*
X183061569Y-81806110D01*
X183013800Y-82042000D01*
X181476429Y-82042000D01*
X181435162Y-81822683D01*
X181296090Y-81606559D01*
X181083890Y-81461569D01*
X181070998Y-81458958D01*
X181251387Y-81392264D01*
X181477908Y-80782539D01*
X181453856Y-80132540D01*
X181251387Y-79643736D01*
X180984532Y-79545073D01*
X180011605Y-80518000D01*
X180025748Y-80532143D01*
X179846143Y-80711748D01*
X179832000Y-80697605D01*
X179817858Y-80711748D01*
X179638253Y-80532143D01*
X179652395Y-80518000D01*
X178679468Y-79545073D01*
X178412613Y-79643736D01*
X178186092Y-80253461D01*
X178210144Y-80903460D01*
X178412613Y-81392264D01*
X178591273Y-81458319D01*
X178380559Y-81593910D01*
X178235569Y-81806110D01*
X178187800Y-82042000D01*
X176142429Y-82042000D01*
X176101162Y-81822683D01*
X175962090Y-81606559D01*
X175749890Y-81461569D01*
X175736998Y-81458958D01*
X175917387Y-81392264D01*
X176143908Y-80782539D01*
X176119856Y-80132540D01*
X175917387Y-79643736D01*
X175650532Y-79545073D01*
X174677605Y-80518000D01*
X174691748Y-80532143D01*
X174512143Y-80711748D01*
X174498000Y-80697605D01*
X174483858Y-80711748D01*
X174304253Y-80532143D01*
X174318395Y-80518000D01*
X173345468Y-79545073D01*
X173078613Y-79643736D01*
X172852092Y-80253461D01*
X172876144Y-80903460D01*
X173078613Y-81392264D01*
X173257273Y-81458319D01*
X173046559Y-81593910D01*
X172901569Y-81806110D01*
X172850560Y-82058000D01*
X172850560Y-84058000D01*
X172894838Y-84293317D01*
X173033910Y-84509441D01*
X173246110Y-84654431D01*
X173482000Y-84702200D01*
X173482000Y-88479159D01*
X171537160Y-90424000D01*
X162560000Y-90424000D01*
X162171194Y-90501338D01*
X162171192Y-90501339D01*
X162171193Y-90501339D01*
X161841579Y-90721580D01*
X140759580Y-111803580D01*
X140539338Y-112133193D01*
X140539338Y-112133194D01*
X140462000Y-112522000D01*
X140462000Y-117852406D01*
X140418330Y-117881585D01*
X140208000Y-118196366D01*
X139997670Y-117881585D01*
X139511489Y-117556729D01*
X138938000Y-117442655D01*
X138364511Y-117556729D01*
X137878330Y-117881585D01*
X137668000Y-118196366D01*
X137457670Y-117881585D01*
X136971489Y-117556729D01*
X136398000Y-117442655D01*
X135824511Y-117556729D01*
X135338330Y-117881585D01*
X135128000Y-118196366D01*
X134917670Y-117881585D01*
X134431489Y-117556729D01*
X133858000Y-117442655D01*
X133284511Y-117556729D01*
X132798330Y-117881585D01*
X132588000Y-118196366D01*
X132377670Y-117881585D01*
X131891489Y-117556729D01*
X131318000Y-117442655D01*
X130744511Y-117556729D01*
X130258330Y-117881585D01*
X129933474Y-118367766D01*
X129819400Y-118941255D01*
X116788000Y-118941255D01*
X116788000Y-88004121D01*
X167699484Y-88004121D01*
X167924154Y-88378168D01*
X168907388Y-88776880D01*
X169968357Y-88768975D01*
X170911846Y-88378168D01*
X171136516Y-88004121D01*
X169418000Y-86285605D01*
X167699484Y-88004121D01*
X116788000Y-88004121D01*
X116788000Y-85595388D01*
X166747120Y-85595388D01*
X166755025Y-86656357D01*
X167145832Y-87599846D01*
X167519879Y-87824516D01*
X169238395Y-86106000D01*
X169597605Y-86106000D01*
X171316121Y-87824516D01*
X171690168Y-87599846D01*
X172088880Y-86616612D01*
X172080975Y-85555643D01*
X171690168Y-84612154D01*
X171316121Y-84387484D01*
X169597605Y-86106000D01*
X169238395Y-86106000D01*
X167519879Y-84387484D01*
X167145832Y-84612154D01*
X166747120Y-85595388D01*
X116788000Y-85595388D01*
X116788000Y-84207879D01*
X167699484Y-84207879D01*
X169418000Y-85926395D01*
X171136516Y-84207879D01*
X170911846Y-83833832D01*
X169928612Y-83435120D01*
X168867643Y-83443025D01*
X167924154Y-83833832D01*
X167699484Y-84207879D01*
X116788000Y-84207879D01*
X116788000Y-72875608D01*
X116899485Y-72764123D01*
X117124154Y-73138168D01*
X118107388Y-73536880D01*
X119168357Y-73528975D01*
X120111846Y-73138168D01*
X120336516Y-72764121D01*
X118618000Y-71045605D01*
X118603858Y-71059748D01*
X118424253Y-70880143D01*
X118438395Y-70866000D01*
X118424253Y-70851858D01*
X118603858Y-70672253D01*
X118618000Y-70686395D01*
X118632143Y-70672253D01*
X118811748Y-70851858D01*
X118797605Y-70866000D01*
X120516121Y-72584516D01*
X120890168Y-72359846D01*
X121037775Y-71995843D01*
X121114330Y-72110415D01*
X121600511Y-72435271D01*
X122174000Y-72549345D01*
X122747489Y-72435271D01*
X123233670Y-72110415D01*
X123444000Y-71795634D01*
X123654330Y-72110415D01*
X124140511Y-72435271D01*
X124714000Y-72549345D01*
X125287489Y-72435271D01*
X125773670Y-72110415D01*
X125984000Y-71795634D01*
X126194330Y-72110415D01*
X126680511Y-72435271D01*
X127254000Y-72549345D01*
X127827489Y-72435271D01*
X128313670Y-72110415D01*
X128520461Y-71800931D01*
X128891964Y-72216732D01*
X129419209Y-72470709D01*
X129434974Y-72473358D01*
X129667000Y-72352217D01*
X129667000Y-70993000D01*
X129647000Y-70993000D01*
X129647000Y-70739000D01*
X129667000Y-70739000D01*
X129667000Y-69379783D01*
X129921000Y-69379783D01*
X129921000Y-70739000D01*
X129941000Y-70739000D01*
X129941000Y-70993000D01*
X129921000Y-70993000D01*
X129921000Y-72352217D01*
X130153026Y-72473358D01*
X130168791Y-72470709D01*
X130696036Y-72216732D01*
X131067539Y-71800931D01*
X131274330Y-72110415D01*
X131760511Y-72435271D01*
X132334000Y-72549345D01*
X132907489Y-72435271D01*
X133393670Y-72110415D01*
X133604000Y-71795634D01*
X133814330Y-72110415D01*
X134300511Y-72435271D01*
X134874000Y-72549345D01*
X135447489Y-72435271D01*
X135933670Y-72110415D01*
X136144000Y-71795634D01*
X136354330Y-72110415D01*
X136840511Y-72435271D01*
X137414000Y-72549345D01*
X137987489Y-72435271D01*
X138473670Y-72110415D01*
X138684000Y-71795634D01*
X138894330Y-72110415D01*
X139380511Y-72435271D01*
X139954000Y-72549345D01*
X140527489Y-72435271D01*
X141013670Y-72110415D01*
X141224000Y-71795634D01*
X141434330Y-72110415D01*
X141920511Y-72435271D01*
X142494000Y-72549345D01*
X143067489Y-72435271D01*
X143553670Y-72110415D01*
X143764000Y-71795634D01*
X143974330Y-72110415D01*
X144460511Y-72435271D01*
X145034000Y-72549345D01*
X145607489Y-72435271D01*
X146093670Y-72110415D01*
X146418526Y-71624234D01*
X146532600Y-71050745D01*
X146532600Y-70681255D01*
X147599400Y-70681255D01*
X147599400Y-71050745D01*
X147713474Y-71624234D01*
X148038330Y-72110415D01*
X148524511Y-72435271D01*
X149098000Y-72549345D01*
X149671489Y-72435271D01*
X150157670Y-72110415D01*
X150368000Y-71795634D01*
X150578330Y-72110415D01*
X151064511Y-72435271D01*
X151638000Y-72549345D01*
X152211489Y-72435271D01*
X152697670Y-72110415D01*
X152908000Y-71795634D01*
X153118330Y-72110415D01*
X153604511Y-72435271D01*
X154178000Y-72549345D01*
X154751489Y-72435271D01*
X155237670Y-72110415D01*
X155448000Y-71795634D01*
X155658330Y-72110415D01*
X156144511Y-72435271D01*
X156718000Y-72549345D01*
X157291489Y-72435271D01*
X157777670Y-72110415D01*
X157988000Y-71795634D01*
X158198330Y-72110415D01*
X158684511Y-72435271D01*
X159258000Y-72549345D01*
X159765579Y-72448381D01*
X165832599Y-78515401D01*
X166079161Y-78680148D01*
X166370000Y-78738000D01*
X173042953Y-78738000D01*
X173111106Y-78902943D01*
X173537978Y-79330562D01*
X173525073Y-79365468D01*
X174498000Y-80338395D01*
X175470927Y-79365468D01*
X175457836Y-79330062D01*
X175883278Y-78905363D01*
X176132716Y-78304648D01*
X176133284Y-77654205D01*
X175884894Y-77053057D01*
X175540241Y-76707801D01*
X175883278Y-76365363D01*
X176132716Y-75764648D01*
X176133284Y-75114205D01*
X175884894Y-74513057D01*
X175425363Y-74052722D01*
X174824648Y-73803284D01*
X174174205Y-73802716D01*
X173573057Y-74051106D01*
X173112722Y-74510637D01*
X173043227Y-74678000D01*
X166684802Y-74678000D01*
X164519954Y-72513152D01*
X164911489Y-72435271D01*
X165397670Y-72110415D01*
X165608000Y-71795634D01*
X165818330Y-72110415D01*
X166304511Y-72435271D01*
X166878000Y-72549345D01*
X167451489Y-72435271D01*
X167937670Y-72110415D01*
X168262526Y-71624234D01*
X168376600Y-71050745D01*
X168376600Y-70681255D01*
X168262526Y-70107766D01*
X167937670Y-69621585D01*
X167451489Y-69296729D01*
X166878000Y-69182655D01*
X166304511Y-69296729D01*
X165818330Y-69621585D01*
X165608000Y-69936366D01*
X165397670Y-69621585D01*
X164911489Y-69296729D01*
X164338000Y-69182655D01*
X163764511Y-69296729D01*
X163278330Y-69621585D01*
X163068000Y-69936366D01*
X162857670Y-69621585D01*
X162371489Y-69296729D01*
X161798000Y-69182655D01*
X161224511Y-69296729D01*
X160738330Y-69621585D01*
X160528000Y-69936366D01*
X160317670Y-69621585D01*
X159831489Y-69296729D01*
X159258000Y-69182655D01*
X158684511Y-69296729D01*
X158198330Y-69621585D01*
X157988000Y-69936366D01*
X157777670Y-69621585D01*
X157291489Y-69296729D01*
X156718000Y-69182655D01*
X156144511Y-69296729D01*
X155658330Y-69621585D01*
X155448000Y-69936366D01*
X155237670Y-69621585D01*
X154751489Y-69296729D01*
X154178000Y-69182655D01*
X153604511Y-69296729D01*
X153118330Y-69621585D01*
X152908000Y-69936366D01*
X152697670Y-69621585D01*
X152211489Y-69296729D01*
X151638000Y-69182655D01*
X151064511Y-69296729D01*
X150578330Y-69621585D01*
X150368000Y-69936366D01*
X150157670Y-69621585D01*
X149671489Y-69296729D01*
X149098000Y-69182655D01*
X148524511Y-69296729D01*
X148038330Y-69621585D01*
X147713474Y-70107766D01*
X147599400Y-70681255D01*
X146532600Y-70681255D01*
X146418526Y-70107766D01*
X146093670Y-69621585D01*
X145607489Y-69296729D01*
X145034000Y-69182655D01*
X144460511Y-69296729D01*
X143974330Y-69621585D01*
X143764000Y-69936366D01*
X143553670Y-69621585D01*
X143067489Y-69296729D01*
X142494000Y-69182655D01*
X141920511Y-69296729D01*
X141434330Y-69621585D01*
X141224000Y-69936366D01*
X141013670Y-69621585D01*
X140527489Y-69296729D01*
X139954000Y-69182655D01*
X139380511Y-69296729D01*
X138894330Y-69621585D01*
X138684000Y-69936366D01*
X138473670Y-69621585D01*
X137987489Y-69296729D01*
X137414000Y-69182655D01*
X136840511Y-69296729D01*
X136354330Y-69621585D01*
X136144000Y-69936366D01*
X135933670Y-69621585D01*
X135447489Y-69296729D01*
X134874000Y-69182655D01*
X134300511Y-69296729D01*
X133814330Y-69621585D01*
X133604000Y-69936366D01*
X133393670Y-69621585D01*
X132907489Y-69296729D01*
X132334000Y-69182655D01*
X131760511Y-69296729D01*
X131274330Y-69621585D01*
X131067539Y-69931069D01*
X130696036Y-69515268D01*
X130168791Y-69261291D01*
X130153026Y-69258642D01*
X129921000Y-69379783D01*
X129667000Y-69379783D01*
X129434974Y-69258642D01*
X129419209Y-69261291D01*
X128891964Y-69515268D01*
X128520461Y-69931069D01*
X128313670Y-69621585D01*
X127827489Y-69296729D01*
X127254000Y-69182655D01*
X126680511Y-69296729D01*
X126194330Y-69621585D01*
X125984000Y-69936366D01*
X125773670Y-69621585D01*
X125287489Y-69296729D01*
X124714000Y-69182655D01*
X124140511Y-69296729D01*
X123654330Y-69621585D01*
X123444000Y-69936366D01*
X123233670Y-69621585D01*
X122747489Y-69296729D01*
X122174000Y-69182655D01*
X121600511Y-69296729D01*
X121114330Y-69621585D01*
X121039731Y-69733230D01*
X120890168Y-69372154D01*
X120516123Y-69147485D01*
X120627608Y-69036000D01*
X191538392Y-69036000D01*
X191649877Y-69147485D01*
M02*
