G04 #@! TF.FileFunction,Legend,Top*
%FSLAX46Y46*%
G04 Gerber Fmt 4.6, Leading zero omitted, Abs format (unit mm)*
G04 Created by KiCad (PCBNEW 4.0.7) date 03/21/18 18:24:30*
%MOMM*%
%LPD*%
G01*
G04 APERTURE LIST*
%ADD10C,0.100000*%
%ADD11C,0.300000*%
%ADD12C,0.150000*%
%ADD13C,0.190500*%
%ADD14C,0.120000*%
G04 APERTURE END LIST*
D10*
D11*
X187261572Y-116947143D02*
X188404429Y-116947143D01*
X182181572Y-116947143D02*
X183324429Y-116947143D01*
X182753000Y-117518571D02*
X182753000Y-116375714D01*
X182185858Y-114827857D02*
X182400144Y-114899286D01*
X182471572Y-114970714D01*
X182543001Y-115113571D01*
X182543001Y-115327857D01*
X182471572Y-115470714D01*
X182400144Y-115542143D01*
X182257286Y-115613571D01*
X181685858Y-115613571D01*
X181685858Y-114113571D01*
X182185858Y-114113571D01*
X182328715Y-114185000D01*
X182400144Y-114256429D01*
X182471572Y-114399286D01*
X182471572Y-114542143D01*
X182400144Y-114685000D01*
X182328715Y-114756429D01*
X182185858Y-114827857D01*
X181685858Y-114827857D01*
X183828715Y-115613571D02*
X183828715Y-114827857D01*
X183757286Y-114685000D01*
X183614429Y-114613571D01*
X183328715Y-114613571D01*
X183185858Y-114685000D01*
X183828715Y-115542143D02*
X183685858Y-115613571D01*
X183328715Y-115613571D01*
X183185858Y-115542143D01*
X183114429Y-115399286D01*
X183114429Y-115256429D01*
X183185858Y-115113571D01*
X183328715Y-115042143D01*
X183685858Y-115042143D01*
X183828715Y-114970714D01*
X184328715Y-114613571D02*
X184900144Y-114613571D01*
X184543001Y-114113571D02*
X184543001Y-115399286D01*
X184614429Y-115542143D01*
X184757287Y-115613571D01*
X184900144Y-115613571D01*
X185185858Y-114613571D02*
X185757287Y-114613571D01*
X185400144Y-114113571D02*
X185400144Y-115399286D01*
X185471572Y-115542143D01*
X185614430Y-115613571D01*
X185757287Y-115613571D01*
X186828715Y-115542143D02*
X186685858Y-115613571D01*
X186400144Y-115613571D01*
X186257287Y-115542143D01*
X186185858Y-115399286D01*
X186185858Y-114827857D01*
X186257287Y-114685000D01*
X186400144Y-114613571D01*
X186685858Y-114613571D01*
X186828715Y-114685000D01*
X186900144Y-114827857D01*
X186900144Y-114970714D01*
X186185858Y-115113571D01*
X187543001Y-115613571D02*
X187543001Y-114613571D01*
X187543001Y-114899286D02*
X187614429Y-114756429D01*
X187685858Y-114685000D01*
X187828715Y-114613571D01*
X187971572Y-114613571D01*
X188328715Y-114613571D02*
X188685858Y-115613571D01*
X189043000Y-114613571D02*
X188685858Y-115613571D01*
X188543000Y-115970714D01*
X188471572Y-116042143D01*
X188328715Y-116113571D01*
X229465143Y-109668571D02*
X229465143Y-110882857D01*
X229536571Y-111025714D01*
X229608000Y-111097143D01*
X229750857Y-111168571D01*
X230036571Y-111168571D01*
X230179429Y-111097143D01*
X230250857Y-111025714D01*
X230322286Y-110882857D01*
X230322286Y-109668571D01*
X230965143Y-111097143D02*
X231179429Y-111168571D01*
X231536572Y-111168571D01*
X231679429Y-111097143D01*
X231750858Y-111025714D01*
X231822286Y-110882857D01*
X231822286Y-110740000D01*
X231750858Y-110597143D01*
X231679429Y-110525714D01*
X231536572Y-110454286D01*
X231250858Y-110382857D01*
X231108000Y-110311429D01*
X231036572Y-110240000D01*
X230965143Y-110097143D01*
X230965143Y-109954286D01*
X231036572Y-109811429D01*
X231108000Y-109740000D01*
X231250858Y-109668571D01*
X231608000Y-109668571D01*
X231822286Y-109740000D01*
X232965143Y-110382857D02*
X233179429Y-110454286D01*
X233250857Y-110525714D01*
X233322286Y-110668571D01*
X233322286Y-110882857D01*
X233250857Y-111025714D01*
X233179429Y-111097143D01*
X233036571Y-111168571D01*
X232465143Y-111168571D01*
X232465143Y-109668571D01*
X232965143Y-109668571D01*
X233108000Y-109740000D01*
X233179429Y-109811429D01*
X233250857Y-109954286D01*
X233250857Y-110097143D01*
X233179429Y-110240000D01*
X233108000Y-110311429D01*
X232965143Y-110382857D01*
X232465143Y-110382857D01*
X229465143Y-82998571D02*
X229465143Y-84212857D01*
X229536571Y-84355714D01*
X229608000Y-84427143D01*
X229750857Y-84498571D01*
X230036571Y-84498571D01*
X230179429Y-84427143D01*
X230250857Y-84355714D01*
X230322286Y-84212857D01*
X230322286Y-82998571D01*
X230965143Y-84427143D02*
X231179429Y-84498571D01*
X231536572Y-84498571D01*
X231679429Y-84427143D01*
X231750858Y-84355714D01*
X231822286Y-84212857D01*
X231822286Y-84070000D01*
X231750858Y-83927143D01*
X231679429Y-83855714D01*
X231536572Y-83784286D01*
X231250858Y-83712857D01*
X231108000Y-83641429D01*
X231036572Y-83570000D01*
X230965143Y-83427143D01*
X230965143Y-83284286D01*
X231036572Y-83141429D01*
X231108000Y-83070000D01*
X231250858Y-82998571D01*
X231608000Y-82998571D01*
X231822286Y-83070000D01*
X232965143Y-83712857D02*
X233179429Y-83784286D01*
X233250857Y-83855714D01*
X233322286Y-83998571D01*
X233322286Y-84212857D01*
X233250857Y-84355714D01*
X233179429Y-84427143D01*
X233036571Y-84498571D01*
X232465143Y-84498571D01*
X232465143Y-82998571D01*
X232965143Y-82998571D01*
X233108000Y-83070000D01*
X233179429Y-83141429D01*
X233250857Y-83284286D01*
X233250857Y-83427143D01*
X233179429Y-83570000D01*
X233108000Y-83641429D01*
X232965143Y-83712857D01*
X232465143Y-83712857D01*
X195326571Y-122593571D02*
X194826571Y-121879286D01*
X194469428Y-122593571D02*
X194469428Y-121093571D01*
X195040856Y-121093571D01*
X195183714Y-121165000D01*
X195255142Y-121236429D01*
X195326571Y-121379286D01*
X195326571Y-121593571D01*
X195255142Y-121736429D01*
X195183714Y-121807857D01*
X195040856Y-121879286D01*
X194469428Y-121879286D01*
X195969428Y-122593571D02*
X195969428Y-121593571D01*
X195969428Y-121093571D02*
X195897999Y-121165000D01*
X195969428Y-121236429D01*
X196040856Y-121165000D01*
X195969428Y-121093571D01*
X195969428Y-121236429D01*
X197326571Y-121593571D02*
X197326571Y-122807857D01*
X197255142Y-122950714D01*
X197183714Y-123022143D01*
X197040857Y-123093571D01*
X196826571Y-123093571D01*
X196683714Y-123022143D01*
X197326571Y-122522143D02*
X197183714Y-122593571D01*
X196898000Y-122593571D01*
X196755142Y-122522143D01*
X196683714Y-122450714D01*
X196612285Y-122307857D01*
X196612285Y-121879286D01*
X196683714Y-121736429D01*
X196755142Y-121665000D01*
X196898000Y-121593571D01*
X197183714Y-121593571D01*
X197326571Y-121665000D01*
X198040857Y-122593571D02*
X198040857Y-121093571D01*
X198683714Y-122593571D02*
X198683714Y-121807857D01*
X198612285Y-121665000D01*
X198469428Y-121593571D01*
X198255143Y-121593571D01*
X198112285Y-121665000D01*
X198040857Y-121736429D01*
X199183714Y-121593571D02*
X199755143Y-121593571D01*
X199398000Y-121093571D02*
X199398000Y-122379286D01*
X199469428Y-122522143D01*
X199612286Y-122593571D01*
X199755143Y-122593571D01*
X191326572Y-124357857D02*
X191826572Y-124357857D01*
X192040858Y-125143571D02*
X191326572Y-125143571D01*
X191326572Y-123643571D01*
X192040858Y-123643571D01*
X192683715Y-124143571D02*
X192683715Y-125143571D01*
X192683715Y-124286429D02*
X192755143Y-124215000D01*
X192898001Y-124143571D01*
X193112286Y-124143571D01*
X193255143Y-124215000D01*
X193326572Y-124357857D01*
X193326572Y-125143571D01*
X194683715Y-125072143D02*
X194540858Y-125143571D01*
X194255144Y-125143571D01*
X194112286Y-125072143D01*
X194040858Y-125000714D01*
X193969429Y-124857857D01*
X193969429Y-124429286D01*
X194040858Y-124286429D01*
X194112286Y-124215000D01*
X194255144Y-124143571D01*
X194540858Y-124143571D01*
X194683715Y-124215000D01*
X195540858Y-125143571D02*
X195398000Y-125072143D01*
X195326572Y-125000714D01*
X195255143Y-124857857D01*
X195255143Y-124429286D01*
X195326572Y-124286429D01*
X195398000Y-124215000D01*
X195540858Y-124143571D01*
X195755143Y-124143571D01*
X195898000Y-124215000D01*
X195969429Y-124286429D01*
X196040858Y-124429286D01*
X196040858Y-124857857D01*
X195969429Y-125000714D01*
X195898000Y-125072143D01*
X195755143Y-125143571D01*
X195540858Y-125143571D01*
X197326572Y-125143571D02*
X197326572Y-123643571D01*
X197326572Y-125072143D02*
X197183715Y-125143571D01*
X196898001Y-125143571D01*
X196755143Y-125072143D01*
X196683715Y-125000714D01*
X196612286Y-124857857D01*
X196612286Y-124429286D01*
X196683715Y-124286429D01*
X196755143Y-124215000D01*
X196898001Y-124143571D01*
X197183715Y-124143571D01*
X197326572Y-124215000D01*
X198612286Y-125072143D02*
X198469429Y-125143571D01*
X198183715Y-125143571D01*
X198040858Y-125072143D01*
X197969429Y-124929286D01*
X197969429Y-124357857D01*
X198040858Y-124215000D01*
X198183715Y-124143571D01*
X198469429Y-124143571D01*
X198612286Y-124215000D01*
X198683715Y-124357857D01*
X198683715Y-124500714D01*
X197969429Y-124643571D01*
X199326572Y-125143571D02*
X199326572Y-124143571D01*
X199326572Y-124429286D02*
X199398000Y-124286429D01*
X199469429Y-124215000D01*
X199612286Y-124143571D01*
X199755143Y-124143571D01*
X196755143Y-96558571D02*
X196040857Y-96558571D01*
X196040857Y-95058571D01*
X197826571Y-96487143D02*
X197683714Y-96558571D01*
X197398000Y-96558571D01*
X197255143Y-96487143D01*
X197183714Y-96344286D01*
X197183714Y-95772857D01*
X197255143Y-95630000D01*
X197398000Y-95558571D01*
X197683714Y-95558571D01*
X197826571Y-95630000D01*
X197898000Y-95772857D01*
X197898000Y-95915714D01*
X197183714Y-96058571D01*
X198326571Y-95558571D02*
X198898000Y-95558571D01*
X198540857Y-96558571D02*
X198540857Y-95272857D01*
X198612285Y-95130000D01*
X198755143Y-95058571D01*
X198898000Y-95058571D01*
X199183714Y-95558571D02*
X199755143Y-95558571D01*
X199398000Y-95058571D02*
X199398000Y-96344286D01*
X199469428Y-96487143D01*
X199612286Y-96558571D01*
X199755143Y-96558571D01*
X191326572Y-98322857D02*
X191826572Y-98322857D01*
X192040858Y-99108571D02*
X191326572Y-99108571D01*
X191326572Y-97608571D01*
X192040858Y-97608571D01*
X192683715Y-98108571D02*
X192683715Y-99108571D01*
X192683715Y-98251429D02*
X192755143Y-98180000D01*
X192898001Y-98108571D01*
X193112286Y-98108571D01*
X193255143Y-98180000D01*
X193326572Y-98322857D01*
X193326572Y-99108571D01*
X194683715Y-99037143D02*
X194540858Y-99108571D01*
X194255144Y-99108571D01*
X194112286Y-99037143D01*
X194040858Y-98965714D01*
X193969429Y-98822857D01*
X193969429Y-98394286D01*
X194040858Y-98251429D01*
X194112286Y-98180000D01*
X194255144Y-98108571D01*
X194540858Y-98108571D01*
X194683715Y-98180000D01*
X195540858Y-99108571D02*
X195398000Y-99037143D01*
X195326572Y-98965714D01*
X195255143Y-98822857D01*
X195255143Y-98394286D01*
X195326572Y-98251429D01*
X195398000Y-98180000D01*
X195540858Y-98108571D01*
X195755143Y-98108571D01*
X195898000Y-98180000D01*
X195969429Y-98251429D01*
X196040858Y-98394286D01*
X196040858Y-98822857D01*
X195969429Y-98965714D01*
X195898000Y-99037143D01*
X195755143Y-99108571D01*
X195540858Y-99108571D01*
X197326572Y-99108571D02*
X197326572Y-97608571D01*
X197326572Y-99037143D02*
X197183715Y-99108571D01*
X196898001Y-99108571D01*
X196755143Y-99037143D01*
X196683715Y-98965714D01*
X196612286Y-98822857D01*
X196612286Y-98394286D01*
X196683715Y-98251429D01*
X196755143Y-98180000D01*
X196898001Y-98108571D01*
X197183715Y-98108571D01*
X197326572Y-98180000D01*
X198612286Y-99037143D02*
X198469429Y-99108571D01*
X198183715Y-99108571D01*
X198040858Y-99037143D01*
X197969429Y-98894286D01*
X197969429Y-98322857D01*
X198040858Y-98180000D01*
X198183715Y-98108571D01*
X198469429Y-98108571D01*
X198612286Y-98180000D01*
X198683715Y-98322857D01*
X198683715Y-98465714D01*
X197969429Y-98608571D01*
X199326572Y-99108571D02*
X199326572Y-98108571D01*
X199326572Y-98394286D02*
X199398000Y-98251429D01*
X199469429Y-98180000D01*
X199612286Y-98108571D01*
X199755143Y-98108571D01*
X181288715Y-90848571D02*
X181288715Y-89348571D01*
X181931572Y-89491429D02*
X182003001Y-89420000D01*
X182145858Y-89348571D01*
X182503001Y-89348571D01*
X182645858Y-89420000D01*
X182717287Y-89491429D01*
X182788715Y-89634286D01*
X182788715Y-89777143D01*
X182717287Y-89991429D01*
X181860144Y-90848571D01*
X182788715Y-90848571D01*
X184288715Y-90705714D02*
X184217286Y-90777143D01*
X184003000Y-90848571D01*
X183860143Y-90848571D01*
X183645858Y-90777143D01*
X183503000Y-90634286D01*
X183431572Y-90491429D01*
X183360143Y-90205714D01*
X183360143Y-89991429D01*
X183431572Y-89705714D01*
X183503000Y-89562857D01*
X183645858Y-89420000D01*
X183860143Y-89348571D01*
X184003000Y-89348571D01*
X184217286Y-89420000D01*
X184288715Y-89491429D01*
D12*
X189103000Y-104775000D02*
X189103000Y-110490000D01*
X188468000Y-82550000D02*
X188468000Y-86360000D01*
D11*
X188511571Y-109628571D02*
X187797286Y-110128571D01*
X188511571Y-110485714D02*
X187011571Y-110485714D01*
X187011571Y-109914286D01*
X187083000Y-109771428D01*
X187154429Y-109700000D01*
X187297286Y-109628571D01*
X187511571Y-109628571D01*
X187654429Y-109700000D01*
X187725857Y-109771428D01*
X187797286Y-109914286D01*
X187797286Y-110485714D01*
X188511571Y-108985714D02*
X187511571Y-108985714D01*
X187011571Y-108985714D02*
X187083000Y-109057143D01*
X187154429Y-108985714D01*
X187083000Y-108914286D01*
X187011571Y-108985714D01*
X187154429Y-108985714D01*
X187511571Y-107628571D02*
X188725857Y-107628571D01*
X188868714Y-107700000D01*
X188940143Y-107771428D01*
X189011571Y-107914285D01*
X189011571Y-108128571D01*
X188940143Y-108271428D01*
X188440143Y-107628571D02*
X188511571Y-107771428D01*
X188511571Y-108057142D01*
X188440143Y-108200000D01*
X188368714Y-108271428D01*
X188225857Y-108342857D01*
X187797286Y-108342857D01*
X187654429Y-108271428D01*
X187583000Y-108200000D01*
X187511571Y-108057142D01*
X187511571Y-107771428D01*
X187583000Y-107628571D01*
X188511571Y-106914285D02*
X187011571Y-106914285D01*
X188511571Y-106271428D02*
X187725857Y-106271428D01*
X187583000Y-106342857D01*
X187511571Y-106485714D01*
X187511571Y-106699999D01*
X187583000Y-106842857D01*
X187654429Y-106914285D01*
X187511571Y-105771428D02*
X187511571Y-105199999D01*
X187011571Y-105557142D02*
X188297286Y-105557142D01*
X188440143Y-105485714D01*
X188511571Y-105342856D01*
X188511571Y-105199999D01*
X187876571Y-85490714D02*
X187876571Y-86205000D01*
X186376571Y-86205000D01*
X187805143Y-84419286D02*
X187876571Y-84562143D01*
X187876571Y-84847857D01*
X187805143Y-84990714D01*
X187662286Y-85062143D01*
X187090857Y-85062143D01*
X186948000Y-84990714D01*
X186876571Y-84847857D01*
X186876571Y-84562143D01*
X186948000Y-84419286D01*
X187090857Y-84347857D01*
X187233714Y-84347857D01*
X187376571Y-85062143D01*
X186876571Y-83919286D02*
X186876571Y-83347857D01*
X187876571Y-83705000D02*
X186590857Y-83705000D01*
X186448000Y-83633572D01*
X186376571Y-83490714D01*
X186376571Y-83347857D01*
X186876571Y-83062143D02*
X186876571Y-82490714D01*
X186376571Y-82847857D02*
X187662286Y-82847857D01*
X187805143Y-82776429D01*
X187876571Y-82633571D01*
X187876571Y-82490714D01*
D13*
X185274857Y-98697143D02*
X185238571Y-98733429D01*
X185129714Y-98769714D01*
X185057143Y-98769714D01*
X184948286Y-98733429D01*
X184875714Y-98660857D01*
X184839429Y-98588286D01*
X184803143Y-98443143D01*
X184803143Y-98334286D01*
X184839429Y-98189143D01*
X184875714Y-98116571D01*
X184948286Y-98044000D01*
X185057143Y-98007714D01*
X185129714Y-98007714D01*
X185238571Y-98044000D01*
X185274857Y-98080286D01*
X185710286Y-98769714D02*
X185637714Y-98733429D01*
X185601429Y-98660857D01*
X185601429Y-98007714D01*
X186109429Y-98769714D02*
X186036857Y-98733429D01*
X186000572Y-98697143D01*
X185964286Y-98624571D01*
X185964286Y-98406857D01*
X186000572Y-98334286D01*
X186036857Y-98298000D01*
X186109429Y-98261714D01*
X186218286Y-98261714D01*
X186290857Y-98298000D01*
X186327143Y-98334286D01*
X186363429Y-98406857D01*
X186363429Y-98624571D01*
X186327143Y-98697143D01*
X186290857Y-98733429D01*
X186218286Y-98769714D01*
X186109429Y-98769714D01*
X187016572Y-98733429D02*
X186944001Y-98769714D01*
X186798858Y-98769714D01*
X186726286Y-98733429D01*
X186690001Y-98697143D01*
X186653715Y-98624571D01*
X186653715Y-98406857D01*
X186690001Y-98334286D01*
X186726286Y-98298000D01*
X186798858Y-98261714D01*
X186944001Y-98261714D01*
X187016572Y-98298000D01*
X187343144Y-98769714D02*
X187343144Y-98007714D01*
X187415715Y-98479429D02*
X187633429Y-98769714D01*
X187633429Y-98261714D02*
X187343144Y-98552000D01*
X184839429Y-96229714D02*
X184839429Y-95467714D01*
X185020857Y-95467714D01*
X185129714Y-95504000D01*
X185202286Y-95576571D01*
X185238571Y-95649143D01*
X185274857Y-95794286D01*
X185274857Y-95903143D01*
X185238571Y-96048286D01*
X185202286Y-96120857D01*
X185129714Y-96193429D01*
X185020857Y-96229714D01*
X184839429Y-96229714D01*
X185928000Y-96229714D02*
X185928000Y-95830571D01*
X185891714Y-95758000D01*
X185819143Y-95721714D01*
X185674000Y-95721714D01*
X185601429Y-95758000D01*
X185928000Y-96193429D02*
X185855429Y-96229714D01*
X185674000Y-96229714D01*
X185601429Y-96193429D01*
X185565143Y-96120857D01*
X185565143Y-96048286D01*
X185601429Y-95975714D01*
X185674000Y-95939429D01*
X185855429Y-95939429D01*
X185928000Y-95903143D01*
X186182000Y-95721714D02*
X186472286Y-95721714D01*
X186290858Y-95467714D02*
X186290858Y-96120857D01*
X186327143Y-96193429D01*
X186399715Y-96229714D01*
X186472286Y-96229714D01*
X187052858Y-96229714D02*
X187052858Y-95830571D01*
X187016572Y-95758000D01*
X186944001Y-95721714D01*
X186798858Y-95721714D01*
X186726287Y-95758000D01*
X187052858Y-96193429D02*
X186980287Y-96229714D01*
X186798858Y-96229714D01*
X186726287Y-96193429D01*
X186690001Y-96120857D01*
X186690001Y-96048286D01*
X186726287Y-95975714D01*
X186798858Y-95939429D01*
X186980287Y-95939429D01*
X187052858Y-95903143D01*
D11*
X185015143Y-101072143D02*
X186158000Y-101072143D01*
X185015143Y-93452143D02*
X186158000Y-93452143D01*
X185586571Y-94023571D02*
X185586571Y-92880714D01*
D12*
X215773000Y-97155000D02*
G75*
G03X215773000Y-97155000I-1270000J0D01*
G01*
X218948000Y-97155000D02*
G75*
G03X218948000Y-97155000I-1270000J0D01*
G01*
X222123000Y-97155000D02*
G75*
G03X222123000Y-97155000I-1270000J0D01*
G01*
X225298000Y-97155000D02*
G75*
G03X225298000Y-97155000I-1270000J0D01*
G01*
D13*
X214357858Y-96737714D02*
X213995001Y-96737714D01*
X213958715Y-97100571D01*
X213995001Y-97064286D01*
X214067572Y-97028000D01*
X214249001Y-97028000D01*
X214321572Y-97064286D01*
X214357858Y-97100571D01*
X214394143Y-97173143D01*
X214394143Y-97354571D01*
X214357858Y-97427143D01*
X214321572Y-97463429D01*
X214249001Y-97499714D01*
X214067572Y-97499714D01*
X213995001Y-97463429D01*
X213958715Y-97427143D01*
X214611857Y-96737714D02*
X214865857Y-97499714D01*
X215119857Y-96737714D01*
X217496572Y-97282000D02*
X217859429Y-97282000D01*
X217424000Y-97499714D02*
X217678000Y-96737714D01*
X217932000Y-97499714D01*
X220907429Y-97100571D02*
X221016286Y-97136857D01*
X221052571Y-97173143D01*
X221088857Y-97245714D01*
X221088857Y-97354571D01*
X221052571Y-97427143D01*
X221016286Y-97463429D01*
X220943714Y-97499714D01*
X220653429Y-97499714D01*
X220653429Y-96737714D01*
X220907429Y-96737714D01*
X220980000Y-96774000D01*
X221016286Y-96810286D01*
X221052571Y-96882857D01*
X221052571Y-96955429D01*
X221016286Y-97028000D01*
X220980000Y-97064286D01*
X220907429Y-97100571D01*
X220653429Y-97100571D01*
X223447428Y-96774000D02*
X223374857Y-96737714D01*
X223266000Y-96737714D01*
X223157143Y-96774000D01*
X223084571Y-96846571D01*
X223048286Y-96919143D01*
X223012000Y-97064286D01*
X223012000Y-97173143D01*
X223048286Y-97318286D01*
X223084571Y-97390857D01*
X223157143Y-97463429D01*
X223266000Y-97499714D01*
X223338571Y-97499714D01*
X223447428Y-97463429D01*
X223483714Y-97427143D01*
X223483714Y-97173143D01*
X223338571Y-97173143D01*
X223810286Y-97499714D02*
X223810286Y-96737714D01*
X224245714Y-97499714D01*
X224245714Y-96737714D01*
X224608572Y-97499714D02*
X224608572Y-96737714D01*
X224790000Y-96737714D01*
X224898857Y-96774000D01*
X224971429Y-96846571D01*
X225007714Y-96919143D01*
X225044000Y-97064286D01*
X225044000Y-97173143D01*
X225007714Y-97318286D01*
X224971429Y-97390857D01*
X224898857Y-97463429D01*
X224790000Y-97499714D01*
X224608572Y-97499714D01*
D12*
X212598000Y-95885000D02*
X225933000Y-95885000D01*
X225933000Y-95885000D02*
X225933000Y-98425000D01*
X225933000Y-98425000D02*
X212598000Y-98425000D01*
X212598000Y-98425000D02*
X212598000Y-95885000D01*
X212598000Y-124460000D02*
X212598000Y-121920000D01*
X225933000Y-124460000D02*
X212598000Y-124460000D01*
X225933000Y-121920000D02*
X225933000Y-124460000D01*
X212598000Y-121920000D02*
X225933000Y-121920000D01*
D13*
X223447428Y-122809000D02*
X223374857Y-122772714D01*
X223266000Y-122772714D01*
X223157143Y-122809000D01*
X223084571Y-122881571D01*
X223048286Y-122954143D01*
X223012000Y-123099286D01*
X223012000Y-123208143D01*
X223048286Y-123353286D01*
X223084571Y-123425857D01*
X223157143Y-123498429D01*
X223266000Y-123534714D01*
X223338571Y-123534714D01*
X223447428Y-123498429D01*
X223483714Y-123462143D01*
X223483714Y-123208143D01*
X223338571Y-123208143D01*
X223810286Y-123534714D02*
X223810286Y-122772714D01*
X224245714Y-123534714D01*
X224245714Y-122772714D01*
X224608572Y-123534714D02*
X224608572Y-122772714D01*
X224790000Y-122772714D01*
X224898857Y-122809000D01*
X224971429Y-122881571D01*
X225007714Y-122954143D01*
X225044000Y-123099286D01*
X225044000Y-123208143D01*
X225007714Y-123353286D01*
X224971429Y-123425857D01*
X224898857Y-123498429D01*
X224790000Y-123534714D01*
X224608572Y-123534714D01*
X220907429Y-123135571D02*
X221016286Y-123171857D01*
X221052571Y-123208143D01*
X221088857Y-123280714D01*
X221088857Y-123389571D01*
X221052571Y-123462143D01*
X221016286Y-123498429D01*
X220943714Y-123534714D01*
X220653429Y-123534714D01*
X220653429Y-122772714D01*
X220907429Y-122772714D01*
X220980000Y-122809000D01*
X221016286Y-122845286D01*
X221052571Y-122917857D01*
X221052571Y-122990429D01*
X221016286Y-123063000D01*
X220980000Y-123099286D01*
X220907429Y-123135571D01*
X220653429Y-123135571D01*
X217496572Y-123317000D02*
X217859429Y-123317000D01*
X217424000Y-123534714D02*
X217678000Y-122772714D01*
X217932000Y-123534714D01*
X214357858Y-122772714D02*
X213995001Y-122772714D01*
X213958715Y-123135571D01*
X213995001Y-123099286D01*
X214067572Y-123063000D01*
X214249001Y-123063000D01*
X214321572Y-123099286D01*
X214357858Y-123135571D01*
X214394143Y-123208143D01*
X214394143Y-123389571D01*
X214357858Y-123462143D01*
X214321572Y-123498429D01*
X214249001Y-123534714D01*
X214067572Y-123534714D01*
X213995001Y-123498429D01*
X213958715Y-123462143D01*
X214611857Y-122772714D02*
X214865857Y-123534714D01*
X215119857Y-122772714D01*
D12*
X225298000Y-123190000D02*
G75*
G03X225298000Y-123190000I-1270000J0D01*
G01*
X222123000Y-123190000D02*
G75*
G03X222123000Y-123190000I-1270000J0D01*
G01*
X218948000Y-123190000D02*
G75*
G03X218948000Y-123190000I-1270000J0D01*
G01*
X215773000Y-123190000D02*
G75*
G03X215773000Y-123190000I-1270000J0D01*
G01*
X139390381Y-120999285D02*
X139390381Y-121570714D01*
X139390381Y-121285000D02*
X138390381Y-121285000D01*
X138533238Y-121380238D01*
X138628476Y-121475476D01*
X138676095Y-121570714D01*
X191008000Y-74549000D02*
X191008000Y-93091000D01*
X237388000Y-79970000D02*
X237388000Y-87670000D01*
X237388000Y-87670000D02*
X228188000Y-87670000D01*
X228188000Y-87670000D02*
X228188000Y-79970000D01*
X228188000Y-79970000D02*
X237388000Y-79970000D01*
X191008000Y-93091000D02*
X234188000Y-93091000D01*
X234188000Y-93091000D02*
X234188000Y-74549000D01*
X234188000Y-74549000D02*
X191008000Y-74549000D01*
X140208000Y-125095000D02*
X157988000Y-125095000D01*
X157988000Y-125095000D02*
X157988000Y-122555000D01*
X157988000Y-122555000D02*
X140208000Y-122555000D01*
X137388000Y-125375000D02*
X138938000Y-125375000D01*
X140208000Y-125095000D02*
X140208000Y-122555000D01*
X138938000Y-122275000D02*
X137388000Y-122275000D01*
X137388000Y-122275000D02*
X137388000Y-125375000D01*
X163068000Y-125095000D02*
X175768000Y-125095000D01*
X175768000Y-125095000D02*
X175768000Y-122555000D01*
X175768000Y-122555000D02*
X163068000Y-122555000D01*
X160248000Y-125375000D02*
X161798000Y-125375000D01*
X163068000Y-125095000D02*
X163068000Y-122555000D01*
X161798000Y-122275000D02*
X160248000Y-122275000D01*
X160248000Y-122275000D02*
X160248000Y-125375000D01*
X131064000Y-76835000D02*
X153924000Y-76835000D01*
X153924000Y-76835000D02*
X153924000Y-74295000D01*
X153924000Y-74295000D02*
X131064000Y-74295000D01*
X128244000Y-77115000D02*
X129794000Y-77115000D01*
X131064000Y-76835000D02*
X131064000Y-74295000D01*
X129794000Y-74015000D02*
X128244000Y-74015000D01*
X128244000Y-74015000D02*
X128244000Y-77115000D01*
X157988000Y-76835000D02*
X175768000Y-76835000D01*
X175768000Y-76835000D02*
X175768000Y-74295000D01*
X175768000Y-74295000D02*
X157988000Y-74295000D01*
X155168000Y-77115000D02*
X156718000Y-77115000D01*
X157988000Y-76835000D02*
X157988000Y-74295000D01*
X156718000Y-74015000D02*
X155168000Y-74015000D01*
X155168000Y-74015000D02*
X155168000Y-77115000D01*
X127254000Y-123825000D02*
G75*
G03X127254000Y-123825000I-2286000J0D01*
G01*
X179324000Y-118745000D02*
G75*
G03X179324000Y-118745000I-2286000J0D01*
G01*
X128524000Y-75565000D02*
G75*
G03X128524000Y-75565000I-2286000J0D01*
G01*
X179324000Y-90805000D02*
G75*
G03X179324000Y-90805000I-2286000J0D01*
G01*
D14*
X201018000Y-97325000D02*
X201018000Y-95735000D01*
X201018000Y-95735000D02*
X211478000Y-95735000D01*
X211478000Y-95735000D02*
X211478000Y-98575000D01*
X211478000Y-98575000D02*
X202268000Y-98575000D01*
X200768000Y-97425000D02*
X200768000Y-98825000D01*
X200768000Y-98825000D02*
X202168000Y-98825000D01*
X201018000Y-123360000D02*
X201018000Y-121770000D01*
X201018000Y-121770000D02*
X211478000Y-121770000D01*
X211478000Y-121770000D02*
X211478000Y-124610000D01*
X211478000Y-124610000D02*
X202268000Y-124610000D01*
X200768000Y-123460000D02*
X200768000Y-124860000D01*
X200768000Y-124860000D02*
X202168000Y-124860000D01*
X182583000Y-91925000D02*
X184173000Y-91925000D01*
X184173000Y-91925000D02*
X184173000Y-102385000D01*
X184173000Y-102385000D02*
X181333000Y-102385000D01*
X181333000Y-102385000D02*
X181333000Y-93175000D01*
X182483000Y-91675000D02*
X181083000Y-91675000D01*
X181083000Y-91675000D02*
X181083000Y-93075000D01*
D12*
X191008000Y-101219000D02*
X191008000Y-119761000D01*
X237388000Y-106640000D02*
X237388000Y-114340000D01*
X237388000Y-114340000D02*
X228188000Y-114340000D01*
X228188000Y-114340000D02*
X228188000Y-106640000D01*
X228188000Y-106640000D02*
X237388000Y-106640000D01*
X191008000Y-119761000D02*
X234188000Y-119761000D01*
X234188000Y-119761000D02*
X234188000Y-101219000D01*
X234188000Y-101219000D02*
X191008000Y-101219000D01*
D14*
X190373000Y-124460000D02*
X180213000Y-124460000D01*
X190373000Y-125730000D02*
X190373000Y-118110000D01*
X190373000Y-118110000D02*
X180213000Y-118110000D01*
X180213000Y-118110000D02*
X180213000Y-125730000D01*
X180213000Y-125730000D02*
X190373000Y-125730000D01*
D12*
X205914667Y-98877381D02*
X205914667Y-99591667D01*
X205867047Y-99734524D01*
X205771809Y-99829762D01*
X205628952Y-99877381D01*
X205533714Y-99877381D01*
X206914667Y-99877381D02*
X206343238Y-99877381D01*
X206628952Y-99877381D02*
X206628952Y-98877381D01*
X206533714Y-99020238D01*
X206438476Y-99115476D01*
X206343238Y-99163095D01*
X205914667Y-120102381D02*
X205914667Y-120816667D01*
X205867047Y-120959524D01*
X205771809Y-121054762D01*
X205628952Y-121102381D01*
X205533714Y-121102381D01*
X206343238Y-120197619D02*
X206390857Y-120150000D01*
X206486095Y-120102381D01*
X206724191Y-120102381D01*
X206819429Y-120150000D01*
X206867048Y-120197619D01*
X206914667Y-120292857D01*
X206914667Y-120388095D01*
X206867048Y-120530952D01*
X206295619Y-121102381D01*
X206914667Y-121102381D01*
X179935381Y-97488333D02*
X180649667Y-97488333D01*
X180792524Y-97535953D01*
X180887762Y-97631191D01*
X180935381Y-97774048D01*
X180935381Y-97869286D01*
X179935381Y-97107381D02*
X179935381Y-96488333D01*
X180316333Y-96821667D01*
X180316333Y-96678809D01*
X180363952Y-96583571D01*
X180411571Y-96535952D01*
X180506810Y-96488333D01*
X180744905Y-96488333D01*
X180840143Y-96535952D01*
X180887762Y-96583571D01*
X180935381Y-96678809D01*
X180935381Y-96964524D01*
X180887762Y-97059762D01*
X180840143Y-97107381D01*
X178609667Y-123912381D02*
X178609667Y-124626667D01*
X178562047Y-124769524D01*
X178466809Y-124864762D01*
X178323952Y-124912381D01*
X178228714Y-124912381D01*
X179514429Y-124245714D02*
X179514429Y-124912381D01*
X179276333Y-123864762D02*
X179038238Y-124579048D01*
X179657286Y-124579048D01*
M02*
