M48
;DRILL file {KiCad 4.0.7} date 03/21/18 18:24:38
;FORMAT={-:-/ absolute / inch / decimal}
FMAT,2
INCH,TZ
T1C0.016
T2C0.037
T3C0.040
T4C0.048
T5C0.060
T6C0.070
T7C0.120
%
G90
G05
M72
T1
X6.87Y-3.775
X6.87Y-3.875
X8.27Y-3.175
T2
X7.195Y-3.675
X7.195Y-3.775
X7.195Y-3.875
X7.195Y-3.975
X7.97Y-3.825
X7.97Y-4.85
X8.07Y-3.825
X8.07Y-4.85
X8.17Y-3.825
X8.17Y-4.85
X8.27Y-3.825
X8.27Y-4.85
T3
X5.11Y-2.975
X5.21Y-2.975
X5.31Y-2.975
X5.41Y-2.975
X5.47Y-4.875
X5.51Y-2.975
X5.57Y-4.875
X5.61Y-2.975
X5.67Y-4.875
X5.71Y-2.975
X5.77Y-4.875
X5.81Y-2.975
X5.87Y-4.875
X5.91Y-2.975
X5.97Y-4.875
X6.01Y-2.975
X6.07Y-4.875
X6.17Y-2.975
X6.17Y-4.875
X6.27Y-2.975
X6.37Y-2.975
X6.37Y-4.875
X6.47Y-2.975
X6.47Y-4.875
X6.57Y-2.975
X6.57Y-4.875
X6.67Y-2.975
X6.67Y-4.875
X6.77Y-2.975
X6.77Y-4.875
X6.87Y-2.975
X6.87Y-4.875
X7.67Y-3.
X7.67Y-3.6
X7.67Y-4.05
X7.67Y-4.65
X7.77Y-3.
X7.77Y-3.6
X7.77Y-4.05
X7.77Y-4.65
X7.87Y-3.
X7.87Y-3.6
X7.87Y-4.05
X7.87Y-4.65
X7.97Y-3.
X7.97Y-3.6
X7.97Y-4.05
X7.97Y-4.65
X8.07Y-3.
X8.07Y-3.6
X8.07Y-4.05
X8.07Y-4.65
X8.17Y-3.
X8.17Y-3.6
X8.17Y-4.05
X8.17Y-4.65
X8.27Y-3.
X8.27Y-3.6
X8.27Y-4.05
X8.27Y-4.65
X8.37Y-3.
X8.37Y-3.6
X8.37Y-4.05
X8.37Y-4.65
X8.47Y-3.
X8.47Y-3.6
X8.47Y-4.05
X8.47Y-4.65
X8.57Y-3.
X8.57Y-3.6
X8.57Y-4.05
X8.57Y-4.65
X8.67Y-3.
X8.67Y-3.6
X8.67Y-4.05
X8.67Y-4.65
X8.77Y-3.
X8.77Y-3.6
X8.77Y-4.05
X8.77Y-4.65
X8.87Y-3.
X8.87Y-3.6
X8.87Y-4.05
X8.87Y-4.65
X8.97Y-3.
X8.97Y-3.6
X8.97Y-4.05
X8.97Y-4.65
X9.07Y-3.
X9.07Y-3.6
X9.07Y-4.05
X9.07Y-4.65
T4
X7.445Y-3.675
X7.445Y-4.325
T5
X7.195Y-4.8
X7.395Y-4.8
T6
X7.58Y-2.995
X7.58Y-3.605
X7.58Y-4.045
X7.58Y-4.655
X9.16Y-2.995
X9.16Y-3.605
X9.16Y-4.045
X9.16Y-4.655
T7
X4.92Y-4.875
X4.97Y-2.975
X6.97Y-3.575
X6.97Y-4.675
T0
M30
