G04 #@! TF.FileFunction,Copper,L1,Top,Signal*
%FSLAX46Y46*%
G04 Gerber Fmt 4.6, Leading zero omitted, Abs format (unit mm)*
G04 Created by KiCad (PCBNEW 4.0.7) date 03/21/18 18:24:30*
%MOMM*%
%LPD*%
G01*
G04 APERTURE LIST*
%ADD10C,0.100000*%
%ADD11C,1.905000*%
%ADD12C,2.032000*%
%ADD13O,1.727200X2.032000*%
%ADD14C,4.064000*%
%ADD15R,2.000000X2.000000*%
%ADD16C,2.000000*%
%ADD17R,3.000000X3.000000*%
%ADD18C,3.000000*%
%ADD19C,1.828800*%
%ADD20C,0.600000*%
%ADD21C,0.762000*%
%ADD22C,0.250000*%
G04 APERTURE END LIST*
D10*
D11*
X194818000Y-91440000D03*
X197358000Y-91440000D03*
X199898000Y-91440000D03*
X202438000Y-91440000D03*
X204978000Y-91440000D03*
X207518000Y-91440000D03*
X210058000Y-91440000D03*
X212598000Y-91440000D03*
X215138000Y-91440000D03*
X217678000Y-91440000D03*
X220218000Y-91440000D03*
X222758000Y-91440000D03*
X225298000Y-91440000D03*
X227838000Y-91440000D03*
X230378000Y-91440000D03*
X230378000Y-76200000D03*
X227838000Y-76200000D03*
X225298000Y-76200000D03*
X222758000Y-76200000D03*
X220218000Y-76200000D03*
X217678000Y-76200000D03*
X215138000Y-76200000D03*
X212598000Y-76200000D03*
X210058000Y-76200000D03*
X207518000Y-76200000D03*
X204978000Y-76200000D03*
X202438000Y-76200000D03*
X199898000Y-76200000D03*
X197358000Y-76200000D03*
X194818000Y-76200000D03*
D12*
X232664000Y-76073000D03*
X192532000Y-76073000D03*
X192532000Y-91567000D03*
X232664000Y-91567000D03*
D13*
X138938000Y-123825000D03*
X141478000Y-123825000D03*
X144018000Y-123825000D03*
X146558000Y-123825000D03*
X149098000Y-123825000D03*
X151638000Y-123825000D03*
X154178000Y-123825000D03*
X156718000Y-123825000D03*
X161798000Y-123825000D03*
X164338000Y-123825000D03*
X166878000Y-123825000D03*
X169418000Y-123825000D03*
X171958000Y-123825000D03*
X174498000Y-123825000D03*
X129794000Y-75565000D03*
X132334000Y-75565000D03*
X134874000Y-75565000D03*
X137414000Y-75565000D03*
X139954000Y-75565000D03*
X142494000Y-75565000D03*
X145034000Y-75565000D03*
X147574000Y-75565000D03*
X150114000Y-75565000D03*
X152654000Y-75565000D03*
X156718000Y-75565000D03*
X159258000Y-75565000D03*
X161798000Y-75565000D03*
X164338000Y-75565000D03*
X166878000Y-75565000D03*
X169418000Y-75565000D03*
X171958000Y-75565000D03*
X174498000Y-75565000D03*
D14*
X124968000Y-123825000D03*
X177038000Y-118745000D03*
X126238000Y-75565000D03*
X177038000Y-90805000D03*
D15*
X202438000Y-97155000D03*
D16*
X204978000Y-97155000D03*
X207518000Y-97155000D03*
X210058000Y-97155000D03*
D15*
X202438000Y-123190000D03*
D16*
X204978000Y-123190000D03*
X207518000Y-123190000D03*
X210058000Y-123190000D03*
D15*
X182753000Y-93345000D03*
D16*
X182753000Y-95885000D03*
X182753000Y-98425000D03*
X182753000Y-100965000D03*
D11*
X194818000Y-118110000D03*
X197358000Y-118110000D03*
X199898000Y-118110000D03*
X202438000Y-118110000D03*
X204978000Y-118110000D03*
X207518000Y-118110000D03*
X210058000Y-118110000D03*
X212598000Y-118110000D03*
X215138000Y-118110000D03*
X217678000Y-118110000D03*
X220218000Y-118110000D03*
X222758000Y-118110000D03*
X225298000Y-118110000D03*
X227838000Y-118110000D03*
X230378000Y-118110000D03*
X230378000Y-102870000D03*
X227838000Y-102870000D03*
X225298000Y-102870000D03*
X222758000Y-102870000D03*
X220218000Y-102870000D03*
X217678000Y-102870000D03*
X215138000Y-102870000D03*
X212598000Y-102870000D03*
X210058000Y-102870000D03*
X207518000Y-102870000D03*
X204978000Y-102870000D03*
X202438000Y-102870000D03*
X199898000Y-102870000D03*
X197358000Y-102870000D03*
X194818000Y-102870000D03*
D12*
X232664000Y-102743000D03*
X192532000Y-102743000D03*
X192532000Y-118237000D03*
X232664000Y-118237000D03*
D17*
X182753000Y-121920000D03*
D18*
X187833000Y-121920000D03*
D19*
X189103000Y-109855000D03*
X189103000Y-93345000D03*
D20*
X174498000Y-95885000D03*
X174498000Y-98425000D03*
X210058000Y-80645000D03*
D21*
X189103000Y-109855000D02*
X154178000Y-109855000D01*
X149098000Y-114935000D02*
X149098000Y-123825000D01*
X154178000Y-109855000D02*
X149098000Y-114935000D01*
X189103000Y-109855000D02*
X189103000Y-118745000D01*
X193548000Y-123190000D02*
X202438000Y-123190000D01*
X189103000Y-118745000D02*
X193548000Y-123190000D01*
X182753000Y-93345000D02*
X189103000Y-93345000D01*
X189103000Y-93345000D02*
X189103000Y-93345000D01*
X189103000Y-93345000D02*
X192913000Y-97155000D01*
X192913000Y-97155000D02*
X202438000Y-97155000D01*
D22*
X182753000Y-95885000D02*
X184658000Y-95885000D01*
X209423000Y-99695000D02*
X212598000Y-102870000D01*
X188468000Y-99695000D02*
X209423000Y-99695000D01*
X184658000Y-95885000D02*
X188468000Y-99695000D01*
X182753000Y-95885000D02*
X174498000Y-95885000D01*
X136144000Y-79375000D02*
X132334000Y-75565000D01*
X157988000Y-79375000D02*
X136144000Y-79375000D01*
X174498000Y-95885000D02*
X157988000Y-79375000D01*
X210058000Y-80645000D02*
X210058000Y-76200000D01*
X182753000Y-98425000D02*
X184658000Y-98425000D01*
X207518000Y-100330000D02*
X210058000Y-102870000D01*
X186563000Y-100330000D02*
X207518000Y-100330000D01*
X184658000Y-98425000D02*
X186563000Y-100330000D01*
X182753000Y-98425000D02*
X174498000Y-98425000D01*
X135509000Y-81280000D02*
X129794000Y-75565000D01*
X157353000Y-81280000D02*
X135509000Y-81280000D01*
X174498000Y-98425000D02*
X157353000Y-81280000D01*
X204978000Y-91440000D02*
X204978000Y-97155000D01*
X207518000Y-97155000D02*
X207518000Y-91440000D01*
X204978000Y-123190000D02*
X204978000Y-118110000D01*
X207518000Y-123190000D02*
X207518000Y-118110000D01*
D21*
X182753000Y-121920000D02*
X182753000Y-116840000D01*
X156718000Y-118110000D02*
X156718000Y-123825000D01*
X161798000Y-113030000D02*
X156718000Y-118110000D01*
X178943000Y-113030000D02*
X161798000Y-113030000D01*
X182753000Y-116840000D02*
X178943000Y-113030000D01*
M02*
