<?xml version="1.0" standalone="no"?>
 <!DOCTYPE svg PUBLIC "-//W3C//DTD SVG 1.1//EN" 
 "http://www.w3.org/Graphics/SVG/1.1/DTD/svg11.dtd"> 
<svg xmlns="http://www.w3.org/2000/svg" version="1.1" 
    width="29.7002cm" height="21.0007cm" viewBox="0 0 116930 82680 ">
<title>SVG Picture created as Motor-Cmts.User.svg date 2018/03/31 16:11:18 </title>
  <desc>Picture generated by PCBNEW </desc>
<g style="fill:#000000; fill-opacity:1;stroke:#000000; stroke-opacity:1;
stroke-linecap:round; stroke-linejoin:round; "
 transform="translate(0 0) scale(1 1)">
</g>
<g style="fill:#000000; fill-opacity:0.0; 
stroke:#000000; stroke-width:-0.000393701; stroke-opacity:1; 
stroke-linecap:round; stroke-linejoin:round;">
</g>
<g style="fill:#000000; fill-opacity:0.0; 
stroke:#000000; stroke-width:160; stroke-opacity:1; 
stroke-linecap:round; stroke-linejoin:round;">
<path d="M68200 39300
L68200 34700
" />
<path d="M69200 39300
L68200 39300
" />
<path d="M69200 34700
L69200 39300
" />
<path d="M68200 34700
L69200 34700
" />
<path d="M72652 40046
L73147 40046
" />
<path d="M72900 40294
L72900 39798
" />
<path d="M72653 38953
L72746 38984
L72777 39015
L72808 39077
L72808 39170
L72777 39232
L72746 39263
L72684 39294
L72436 39294
L72436 38644
L72653 38644
L72715 38675
L72746 38705
L72777 38767
L72777 38829
L72746 38891
L72715 38922
L72653 38953
L72436 38953
" />
<path d="M73365 39294
L73365 38953
L73334 38891
L73272 38860
L73148 38860
L73086 38891
" />
<path d="M73365 39263
L73303 39294
L73148 39294
L73086 39263
L73055 39201
L73055 39139
L73086 39077
L73148 39046
L73303 39046
L73365 39015
" />
<path d="M73582 38860
L73829 38860
" />
<path d="M73674 38644
L73674 39201
L73705 39263
L73767 39294
L73829 39294
" />
<path d="M73953 38860
L74201 38860
" />
<path d="M74046 38644
L74046 39201
L74077 39263
L74139 39294
L74201 39294
" />
<path d="M74665 39263
L74603 39294
L74479 39294
L74417 39263
L74386 39201
L74386 38953
L74417 38891
L74479 38860
L74603 38860
L74665 38891
L74696 38953
L74696 39015
L74386 39077
" />
<path d="M74975 39294
L74975 38860
" />
<path d="M74975 38984
L75005 38922
L75036 38891
L75098 38860
L75160 38860
" />
<path d="M75315 38860
L75470 39294
" />
<path d="M75625 38860
L75470 39294
L75408 39448
L75377 39479
L75315 39510
" />
<path d="M75932 31273
L75963 31304
L75994 31397
L75994 31459
L75963 31552
L75901 31614
L75839 31645
L75715 31676
L75622 31676
L75498 31645
L75436 31614
L75375 31552
L75344 31459
L75344 31397
L75375 31304
L75405 31273
" />
<path d="M75994 30902
L75963 30964
L75901 30995
L75344 30995
" />
<path d="M75994 30561
L75963 30623
L75932 30654
L75870 30685
L75684 30685
L75622 30654
L75591 30623
L75560 30561
L75560 30469
L75591 30407
L75622 30376
L75684 30345
L75870 30345
L75932 30376
L75963 30407
L75994 30469
L75994 30561
" />
<path d="M75963 29788
L75994 29849
L75994 29973
L75963 30035
L75932 30066
L75870 30097
L75684 30097
L75622 30066
L75591 30035
L75560 29973
L75560 29849
L75591 29788
" />
<path d="M75994 29509
L75344 29509
" />
<path d="M75746 29447
L75994 29261
" />
<path d="M75560 29261
L75808 29509
" />
<path d="M74994 31645
L74344 31645
L74344 31490
L74375 31397
L74436 31335
L74498 31304
L74622 31273
L74715 31273
L74839 31304
L74901 31335
L74963 31397
L74994 31490
L74994 31645
" />
<path d="M74994 30716
L74653 30716
L74591 30747
L74560 30809
L74560 30933
L74591 30995
" />
<path d="M74963 30716
L74994 30778
L74994 30933
L74963 30995
L74901 31026
L74839 31026
L74777 30995
L74746 30933
L74746 30778
L74715 30716
" />
<path d="M74560 30500
L74560 30252
" />
<path d="M74344 30407
L74901 30407
L74963 30376
L74994 30314
L74994 30252
" />
<path d="M74994 29757
L74653 29757
L74591 29788
L74560 29849
L74560 29973
L74591 30035
" />
<path d="M74963 29757
L74994 29819
L74994 29973
L74963 30035
L74901 30066
L74839 30066
L74777 30035
L74746 29973
L74746 29819
L74715 29757
" />
<path d="M73746 31745
L73746 31250
" />
<path d="M72746 31745
L72746 31250
" />
<path d="M72994 31497
L72498 31497
" />
<path d="M73665 34294
L73665 33644
" />
<path d="M73944 33705
L73975 33675
L74036 33644
L74191 33644
L74253 33675
L74284 33705
L74315 33767
L74315 33829
L74284 33922
L73913 34294
L74315 34294
" />
<path d="M74965 34232
L74934 34263
L74841 34294
L74779 34294
L74686 34263
L74625 34201
L74594 34139
L74563 34015
L74563 33922
L74594 33798
L74625 33736
L74686 33675
L74779 33644
L74841 33644
L74934 33675
L74965 33705
" />
<path d="M71157 35118
L71373 35118
" />
<path d="M71466 35459
L71157 35459
L71157 34809
L71466 34809
" />
<path d="M71745 35025
L71745 35459
" />
<path d="M71745 35087
L71776 35056
L71838 35025
L71930 35025
L71992 35056
L72023 35118
L72023 35459
" />
<path d="M72611 35428
L72550 35459
L72426 35459
L72364 35428
L72333 35397
L72302 35335
L72302 35149
L72333 35087
L72364 35056
L72426 35025
L72550 35025
L72611 35056
" />
<path d="M72983 35459
L72921 35428
L72890 35397
L72859 35335
L72859 35149
L72890 35087
L72921 35056
L72983 35025
L73076 35025
L73138 35056
L73169 35087
L73200 35149
L73200 35335
L73169 35397
L73138 35428
L73076 35459
L72983 35459
" />
<path d="M73757 35459
L73757 34809
" />
<path d="M73757 35428
L73695 35459
L73571 35459
L73509 35428
L73478 35397
L73447 35335
L73447 35149
L73478 35087
L73509 35056
L73571 35025
L73695 35025
L73757 35056
" />
<path d="M74314 35428
L74252 35459
L74128 35459
L74066 35428
L74035 35366
L74035 35118
L74066 35056
L74128 35025
L74252 35025
L74314 35056
L74345 35118
L74345 35180
L74035 35242
" />
<path d="M74623 35459
L74623 35025
" />
<path d="M74623 35149
L74654 35087
L74685 35056
L74747 35025
L74809 35025
" />
<path d="M74995 35428
L75057 35459
L75180 35459
L75242 35428
L75273 35366
L75273 35335
L75242 35273
L75180 35242
L75088 35242
L75026 35211
L74995 35149
L74995 35118
L75026 35056
L75088 35025
L75180 35025
L75242 35056
" />
<path d="M70569 36594
L70259 36594
L70259 35944
" />
<path d="M70785 36532
L70816 36563
L70785 36594
L70754 36563
L70785 36532
L70785 36594
" />
<path d="M70785 36191
L70816 36222
L70785 36253
L70754 36222
L70785 36191
L70785 36253
" />
<path d="M71559 36408
L71869 36408
" />
<path d="M71497 36594
L71714 35944
L71930 36594
" />
<path d="M72147 36253
L72642 36253
" />
<path d="M72642 36439
L72147 36439
" />
<path d="M72890 35944
L73292 35944
L73076 36191
L73169 36191
L73230 36222
L73261 36253
L73292 36315
L73292 36470
L73261 36532
L73230 36563
L73169 36594
L72983 36594
L72921 36563
L72890 36532
" />
<path d="M73602 36563
L73602 36594
L73571 36655
L73540 36686
" />
<path d="M74592 36253
L74685 36284
L74716 36315
L74747 36377
L74747 36470
L74716 36532
L74685 36563
L74623 36594
L74376 36594
L74376 35944
L74592 35944
L74654 35975
L74685 36005
L74716 36067
L74716 36129
L74685 36191
L74654 36222
L74592 36253
L74376 36253
" />
<path d="M75026 36253
L75521 36253
" />
<path d="M75521 36439
L75026 36439
" />
<path d="M75800 36005
L75830 35975
L75892 35944
L76047 35944
L76109 35975
L76140 36005
L76171 36067
L76171 36129
L76140 36222
L75769 36594
L76171 36594
" />
<path d="M69950 37729
L69733 37419
" />
<path d="M69578 37729
L69578 37079
L69826 37079
L69888 37110
L69919 37140
L69950 37202
L69950 37295
L69919 37357
L69888 37388
L69826 37419
L69578 37419
" />
<path d="M70228 37667
L70259 37698
L70228 37729
L70197 37698
L70228 37667
L70228 37729
" />
<path d="M70228 37326
L70259 37357
L70228 37388
L70197 37357
L70228 37326
L70228 37388
" />
<path d="M71002 37543
L71311 37543
" />
<path d="M70940 37729
L71157 37079
L71373 37729
" />
<path d="M71590 37388
L72085 37388
" />
<path d="M72085 37574
L71590 37574
" />
<path d="M72735 37729
L72364 37729
" />
<path d="M72550 37729
L72550 37079
L72488 37171
L72426 37233
L72364 37264
" />
<path d="M73045 37729
L73169 37729
L73230 37698
L73261 37667
L73323 37574
L73354 37450
L73354 37202
L73323 37140
L73292 37110
L73230 37079
L73107 37079
L73045 37110
L73014 37140
L72983 37202
L72983 37357
L73014 37419
L73045 37450
L73107 37481
L73230 37481
L73292 37450
L73323 37419
L73354 37357
" />
<path d="M73664 37698
L73664 37729
L73633 37790
L73602 37821
" />
<path d="M74654 37388
L74747 37419
L74778 37450
L74809 37512
L74809 37605
L74778 37667
L74747 37698
L74685 37729
L74438 37729
L74438 37079
L74654 37079
L74716 37110
L74747 37140
L74778 37202
L74778 37264
L74747 37326
L74716 37357
L74654 37388
L74438 37388
" />
<path d="M75088 37388
L75583 37388
" />
<path d="M75583 37574
L75088 37574
" />
<path d="M76233 37729
L75861 37729
" />
<path d="M76047 37729
L76047 37079
L75985 37171
L75923 37233
L75861 37264
" />
<path d="M76604 37357
L76542 37326
L76511 37295
L76480 37233
L76480 37202
L76511 37140
L76542 37110
L76604 37079
L76728 37079
L76790 37110
L76821 37140
L76852 37202
L76852 37233
L76821 37295
L76790 37326
L76728 37357
L76604 37357
L76542 37388
L76511 37419
L76480 37481
L76480 37605
L76511 37667
L76542 37698
L76604 37729
L76728 37729
L76790 37698
L76821 37667
L76852 37605
L76852 37481
L76821 37419
L76790 37388
L76728 37357
" />
<path d="M66700 27500
L66100 26900
" />
<path d="M66700 32000
L66700 27500
" />
<path d="M67700 33000
L66700 32000
" />
<path d="M67700 45900
L67700 33000
" />
<path d="M66226 42140
L65576 42140
L66040 41923
L65576 41707
L66226 41707
" />
<path d="M66226 41304
L66195 41366
L66164 41397
L66102 41428
L65917 41428
L65855 41397
L65824 41366
L65793 41304
L65793 41211
L65824 41150
L65855 41119
L65917 41088
L66102 41088
L66164 41119
L66195 41150
L66226 41211
L66226 41304
" />
<path d="M65793 40902
L65793 40654
" />
<path d="M65576 40809
L66133 40809
L66195 40778
L66226 40716
L66226 40654
" />
<path d="M66226 40345
L66195 40407
L66164 40438
L66102 40469
L65917 40469
L65855 40438
L65824 40407
L65793 40345
L65793 40252
L65824 40190
L65855 40159
L65917 40128
L66102 40128
L66164 40159
L66195 40190
L66226 40252
L66226 40345
" />
<path d="M66226 39850
L65793 39850
" />
<path d="M65917 39850
L65855 39819
L65824 39788
L65793 39726
L65793 39664
" />
<path d="M66195 38983
L66226 38890
L66226 38735
L66195 38673
L66164 38642
L66102 38611
L66040 38611
L65978 38642
L65947 38673
L65917 38735
L65886 38859
L65855 38921
L65824 38952
L65762 38983
L65700 38983
L65638 38952
L65607 38921
L65576 38859
L65576 38704
L65607 38611
" />
<path d="M66226 38333
L65576 38333
" />
<path d="M66226 38054
L65886 38054
L65824 38085
L65793 38147
L65793 38240
L65824 38302
L65855 38333
" />
<path d="M66226 37745
L65793 37745
" />
<path d="M65576 37745
L65607 37776
L65638 37745
L65607 37714
L65576 37745
L65638 37745
" />
<path d="M66195 37188
L66226 37249
L66226 37373
L66195 37435
L66133 37466
L65886 37466
L65824 37435
L65793 37373
L65793 37249
L65824 37188
L65886 37157
L65947 37157
L66009 37466
" />
<path d="M66226 36785
L66195 36847
L66133 36878
L65576 36878
" />
<path d="M66226 36259
L65576 36259
" />
<path d="M66195 36259
L66226 36321
L66226 36445
L66195 36507
L66164 36538
L66102 36569
L65917 36569
L65855 36538
L65824 36507
L65793 36445
L65793 36321
L65824 36259
" />
<path d="M67175 40469
L67175 40159
" />
<path d="M67361 40530
L66711 40314
L67361 40097
" />
<path d="M67361 39880
L66711 39880
" />
<path d="M66959 39880
L66928 39819
L66928 39695
L66959 39633
L66990 39602
L67052 39571
L67237 39571
L67299 39602
L67330 39633
L67361 39695
L67361 39819
L67330 39880
" />
<path d="M67361 39200
L67330 39261
L67299 39292
L67237 39323
L67052 39323
L66990 39292
L66959 39261
L66928 39200
L66928 39107
L66959 39045
L66990 39014
L67052 38983
L67237 38983
L67299 39014
L67330 39045
L67361 39107
L67361 39200
" />
<path d="M66928 38766
L67361 38611
L66928 38457
" />
<path d="M67330 37961
L67361 38023
L67361 38147
L67330 38209
L67268 38240
L67021 38240
L66959 38209
L66928 38147
L66928 38023
L66959 37961
L67021 37930
L67082 37930
L67144 38240
" />
<path d="M68452 38746
L68947 38746
" />
<path d="M68700 38994
L68700 38498
" />
<path d="M68452 37646
L68947 37646
" />
<path d="M68545 36608
L68854 36608
" />
<path d="M68483 36794
L68700 36144
L68916 36794
" />
<path d="M49190 33638
L49221 33607
L49283 33576
L49438 33576
L49500 33607
L49530 33638
L49561 33700
L49561 33762
L49530 33855
L49159 34226
L49561 34226
" />
<path d="M49964 33576
L50026 33576
L50088 33607
L50119 33638
L50150 33700
L50180 33824
L50180 33978
L50150 34102
L50119 34164
L50088 34195
L50026 34226
L49964 34226
L49902 34195
L49871 34164
L49840 34102
L49809 33978
L49809 33824
L49840 33700
L49871 33638
L49902 33607
L49964 33576
" />
<path d="M50800 34226
L50428 34226
" />
<path d="M50614 34226
L50614 33576
L50552 33669
L50490 33731
L50428 33762
" />
<path d="M51171 33855
L51109 33824
L51078 33793
L51047 33731
L51047 33700
L51078 33638
L51109 33607
L51171 33576
L51295 33576
L51357 33607
L51388 33638
L51419 33700
L51419 33731
L51388 33793
L51357 33824
L51295 33855
L51171 33855
L51109 33886
L51078 33917
L51047 33978
L51047 34102
L51078 34164
L51109 34195
L51171 34226
L51295 34226
L51357 34195
L51388 34164
L51419 34102
L51419 33978
L51388 33917
L51357 33886
L51295 33855
" />
<path d="M52564 34226
L52347 33917
" />
<path d="M52192 34226
L52192 33576
L52440 33576
L52502 33607
L52533 33638
L52564 33700
L52564 33793
L52533 33855
L52502 33886
L52440 33917
L52192 33917
" />
<path d="M53090 34195
L53028 34226
L52904 34226
L52842 34195
L52811 34133
L52811 33886
L52842 33824
L52904 33793
L53028 33793
L53090 33824
L53121 33886
L53121 33947
L52811 34009
" />
<path d="M53678 33793
L53678 34319
L53647 34381
L53616 34412
L53554 34443
L53461 34443
L53400 34412
" />
<path d="M53678 34195
L53616 34226
L53492 34226
L53430 34195
L53400 34164
L53369 34102
L53369 33917
L53400 33855
L53430 33824
L53492 33793
L53616 33793
L53678 33824
" />
<path d="M53988 34226
L53988 33793
" />
<path d="M53988 33576
L53957 33607
L53988 33638
L54019 33607
L53988 33576
L53988 33638
" />
<path d="M54390 34226
L54328 34195
L54297 34164
L54266 34102
L54266 33917
L54297 33855
L54328 33824
L54390 33793
L54483 33793
L54545 33824
L54576 33855
L54607 33917
L54607 34102
L54576 34164
L54545 34195
L54483 34226
L54390 34226
" />
<path d="M54885 33793
L54885 34226
" />
<path d="M54885 33855
L54916 33824
L54978 33793
L55071 33793
L55133 33824
L55164 33886
L55164 34226
" />
<path d="M56278 33576
L55969 33576
L55938 33886
L55969 33855
L56030 33824
L56185 33824
L56247 33855
L56278 33886
L56309 33947
L56309 34102
L56278 34164
L56247 34195
L56185 34226
L56030 34226
L55969 34195
L55938 34164
" />
<path d="M48045 35361
L47828 35052
" />
<path d="M47673 35361
L47673 34711
L47921 34711
L47983 34742
L48014 34773
L48045 34835
L48045 34928
L48014 34990
L47983 35021
L47921 35052
L47673 35052
" />
<path d="M48416 35361
L48354 35330
L48323 35299
L48292 35237
L48292 35052
L48323 34990
L48354 34959
L48416 34928
L48509 34928
L48571 34959
L48602 34990
L48633 35052
L48633 35237
L48602 35299
L48571 35330
L48509 35361
L48416 35361
" />
<path d="M48911 35361
L48911 34711
" />
<path d="M48911 34959
L48973 34928
L49097 34928
L49159 34959
L49190 34990
L49221 35052
L49221 35237
L49190 35299
L49159 35330
L49097 35361
L48973 35361
L48911 35330
" />
<path d="M49592 35361
L49530 35330
L49500 35299
L49469 35237
L49469 35052
L49500 34990
L49530 34959
L49592 34928
L49685 34928
L49747 34959
L49778 34990
L49809 35052
L49809 35237
L49778 35299
L49747 35330
L49685 35361
L49592 35361
" />
<path d="M49995 34928
L50242 34928
" />
<path d="M50088 34711
L50088 35268
L50119 35330
L50180 35361
L50242 35361
" />
<path d="M50459 35361
L50459 34928
" />
<path d="M50459 34711
L50428 34742
L50459 34773
L50490 34742
L50459 34711
L50459 34773
" />
<path d="M51047 35330
L50985 35361
L50861 35361
L50800 35330
L50769 35299
L50738 35237
L50738 35052
L50769 34990
L50800 34959
L50861 34928
L50985 34928
L51047 34959
" />
<path d="M51295 35330
L51357 35361
L51480 35361
L51542 35330
L51573 35268
L51573 35237
L51542 35175
L51480 35144
L51388 35144
L51326 35113
L51295 35052
L51295 35021
L51326 34959
L51388 34928
L51480 34928
L51542 34959
" />
<path d="M52719 35299
L52688 35330
L52595 35361
L52533 35361
L52440 35330
L52378 35268
L52347 35206
L52316 35082
L52316 34990
L52347 34866
L52378 34804
L52440 34742
L52533 34711
L52595 34711
L52688 34742
L52719 34773
" />
<path d="M53090 35361
L53028 35330
L52997 35299
L52966 35237
L52966 35052
L52997 34990
L53028 34959
L53090 34928
L53183 34928
L53245 34959
L53276 34990
L53307 35052
L53307 35237
L53276 35299
L53245 35330
L53183 35361
L53090 35361
" />
<path d="M53585 35361
L53585 34928
" />
<path d="M53585 34990
L53616 34959
L53678 34928
L53771 34928
L53833 34959
L53864 35021
L53864 35361
" />
<path d="M53864 35021
L53895 34959
L53957 34928
L54050 34928
L54111 34959
L54142 35021
L54142 35361
" />
<path d="M54452 34928
L54452 35578
" />
<path d="M54452 34959
L54514 34928
L54638 34928
L54700 34959
L54730 34990
L54761 35052
L54761 35237
L54730 35299
L54700 35330
L54638 35361
L54514 35361
L54452 35330
" />
<path d="M55288 35330
L55226 35361
L55102 35361
L55040 35330
L55009 35268
L55009 35021
L55040 34959
L55102 34928
L55226 34928
L55288 34959
L55319 35021
L55319 35082
L55009 35144
" />
<path d="M55504 34928
L55752 34928
" />
<path d="M55597 34711
L55597 35268
L55628 35330
L55690 35361
L55752 35361
" />
<path d="M55969 35361
L55969 34928
" />
<path d="M55969 34711
L55938 34742
L55969 34773
L56000 34742
L55969 34711
L55969 34773
" />
<path d="M56185 34928
L56433 34928
" />
<path d="M56278 34711
L56278 35268
L56309 35330
L56371 35361
L56433 35361
" />
<path d="M56650 35361
L56650 34928
" />
<path d="M56650 34711
L56619 34742
L56650 34773
L56680 34742
L56650 34711
L56650 34773
" />
<path d="M57052 35361
L56990 35330
L56959 35299
L56928 35237
L56928 35052
L56959 34990
L56990 34959
L57052 34928
L57145 34928
L57207 34959
L57238 34990
L57269 35052
L57269 35237
L57238 35299
L57207 35330
L57145 35361
L57052 35361
" />
<path d="M57547 34928
L57547 35361
" />
<path d="M57547 34990
L57578 34959
L57640 34928
L57733 34928
L57795 34959
L57826 35021
L57826 35361
" />
<path d="M79750 26900
L79750 47900
" />
<path d="M74652 40046
L75147 40046
" />
<path d="M71001 34194
L70784 33884
" />
<path d="M70629 34194
L70629 33544
L70877 33544
L70939 33575
L70970 33605
L71001 33667
L71001 33760
L70970 33822
L70939 33853
L70877 33884
L70629 33884
" />
<path d="M68901 34194
L68591 34194
L68591 33544
" />
<path d="M68746 35353
L68839 35384
L68870 35415
L68901 35477
L68901 35570
L68870 35632
L68839 35663
L68777 35694
L68529 35694
L68529 35044
L68746 35044
L68808 35075
L68839 35105
L68870 35167
L68870 35229
L68839 35291
L68808 35322
L68746 35353
L68529 35353
" />
<path d="M79750 47900
L45700 47900
" />
<path d="M45700 26900
L79750 26900
" />
<path d="M45700 47900
L45700 26900
" />
</g> 
</svg>
