G04 #@! TF.FileFunction,Copper,L2,Bot,Signal*
%FSLAX46Y46*%
G04 Gerber Fmt 4.6, Leading zero omitted, Abs format (unit mm)*
G04 Created by KiCad (PCBNEW 4.0.7) date 03/26/18 14:03:09*
%MOMM*%
%LPD*%
G01*
G04 APERTURE LIST*
%ADD10C,0.100000*%
%ADD11C,1.727200*%
%ADD12O,1.727200X1.727200*%
%ADD13O,1.727200X2.032000*%
%ADD14C,4.064000*%
%ADD15R,2.000000X2.000000*%
%ADD16C,2.000000*%
%ADD17R,3.000000X3.000000*%
%ADD18C,3.000000*%
%ADD19C,0.762000*%
%ADD20C,0.250000*%
%ADD21C,0.254000*%
G04 APERTURE END LIST*
D10*
D11*
X197358000Y-114046000D03*
D12*
X199898000Y-114046000D03*
X197358000Y-111506000D03*
X199898000Y-111506000D03*
X197358000Y-108966000D03*
X199898000Y-108966000D03*
X197358000Y-106426000D03*
X199898000Y-106426000D03*
X197358000Y-103886000D03*
X199898000Y-103886000D03*
X197358000Y-101346000D03*
X199898000Y-101346000D03*
X197358000Y-98806000D03*
X199898000Y-98806000D03*
X197358000Y-96266000D03*
X199898000Y-96266000D03*
X197358000Y-93726000D03*
X199898000Y-93726000D03*
X197358000Y-91186000D03*
X199898000Y-91186000D03*
X197358000Y-88646000D03*
X199898000Y-88646000D03*
X197358000Y-86106000D03*
X199898000Y-86106000D03*
X197358000Y-83566000D03*
X199898000Y-83566000D03*
X197358000Y-81026000D03*
X199898000Y-81026000D03*
X197358000Y-78486000D03*
X199898000Y-78486000D03*
X197358000Y-75946000D03*
X199898000Y-75946000D03*
X197358000Y-73406000D03*
X199898000Y-73406000D03*
X197358000Y-70866000D03*
X199898000Y-70866000D03*
D13*
X131318000Y-119126000D03*
X133858000Y-119126000D03*
X136398000Y-119126000D03*
X138938000Y-119126000D03*
X141478000Y-119126000D03*
X144018000Y-119126000D03*
X146558000Y-119126000D03*
X149098000Y-119126000D03*
X154178000Y-119126000D03*
X156718000Y-119126000D03*
X159258000Y-119126000D03*
X161798000Y-119126000D03*
X164338000Y-119126000D03*
X166878000Y-119126000D03*
X169418000Y-119126000D03*
X171958000Y-119126000D03*
X177038000Y-119126000D03*
X179578000Y-119126000D03*
X182118000Y-119126000D03*
X184658000Y-119126000D03*
X187198000Y-119126000D03*
X189738000Y-119126000D03*
X192278000Y-119126000D03*
X194818000Y-119126000D03*
X122174000Y-70866000D03*
X124714000Y-70866000D03*
X127254000Y-70866000D03*
X129794000Y-70866000D03*
X132334000Y-70866000D03*
X134874000Y-70866000D03*
X137414000Y-70866000D03*
X139954000Y-70866000D03*
X142494000Y-70866000D03*
X145034000Y-70866000D03*
X149098000Y-70866000D03*
X151638000Y-70866000D03*
X154178000Y-70866000D03*
X156718000Y-70866000D03*
X159258000Y-70866000D03*
X161798000Y-70866000D03*
X164338000Y-70866000D03*
X166878000Y-70866000D03*
X171958000Y-70866000D03*
X174498000Y-70866000D03*
X177038000Y-70866000D03*
X179578000Y-70866000D03*
X182118000Y-70866000D03*
X184658000Y-70866000D03*
X187198000Y-70866000D03*
X189738000Y-70866000D03*
D14*
X117348000Y-119126000D03*
X169418000Y-114046000D03*
X199898000Y-119126000D03*
X118618000Y-70866000D03*
X169418000Y-86106000D03*
X193548000Y-70866000D03*
D15*
X174498000Y-83058000D03*
D16*
X174498000Y-80518000D03*
X174498000Y-77978000D03*
X174498000Y-75438000D03*
D15*
X179832000Y-83058000D03*
D16*
X179832000Y-80518000D03*
X179832000Y-77978000D03*
X179832000Y-75438000D03*
D17*
X185166000Y-106934000D03*
D18*
X190246000Y-106934000D03*
D15*
X184658000Y-83058000D03*
D16*
X187198000Y-83058000D03*
X189738000Y-83058000D03*
X192278000Y-83058000D03*
D19*
X174498000Y-83058000D02*
X174498000Y-88900000D01*
X141478000Y-112522000D02*
X141478000Y-119126000D01*
X162560000Y-91440000D02*
X141478000Y-112522000D01*
X171958000Y-91440000D02*
X162560000Y-91440000D01*
X174498000Y-88900000D02*
X171958000Y-91440000D01*
X184658000Y-83058000D02*
X179832000Y-83058000D01*
X179832000Y-83058000D02*
X174498000Y-83058000D01*
D20*
X174498000Y-77978000D02*
X166370000Y-77978000D01*
X166370000Y-77978000D02*
X159258000Y-70866000D01*
X174498000Y-75438000D02*
X166370000Y-75438000D01*
X166370000Y-75438000D02*
X161798000Y-70866000D01*
X187198000Y-70866000D02*
X187198000Y-74930000D01*
X189738000Y-77470000D02*
X189738000Y-83058000D01*
X187198000Y-74930000D02*
X189738000Y-77470000D01*
X192278000Y-83058000D02*
X192278000Y-77470000D01*
X189738000Y-74930000D02*
X189738000Y-70866000D01*
X192278000Y-77470000D02*
X189738000Y-74930000D01*
X179832000Y-75438000D02*
X182118000Y-73152000D01*
X182118000Y-73152000D02*
X182118000Y-70866000D01*
X179832000Y-77978000D02*
X184658000Y-73152000D01*
X184658000Y-73152000D02*
X184658000Y-70866000D01*
D19*
X185166000Y-106934000D02*
X161290000Y-106934000D01*
X161290000Y-106934000D02*
X149098000Y-119126000D01*
D21*
G36*
X115857825Y-69174577D02*
X115420651Y-70359603D01*
X115470245Y-71621722D01*
X115857825Y-72557423D01*
X116359146Y-72765644D01*
X118258790Y-70866000D01*
X118244648Y-70851858D01*
X118603858Y-70492648D01*
X118618000Y-70506790D01*
X118632143Y-70492648D01*
X118991353Y-70851858D01*
X118977210Y-70866000D01*
X120876854Y-72765644D01*
X121378175Y-72557423D01*
X121458295Y-72340245D01*
X121600511Y-72435271D01*
X122174000Y-72549345D01*
X122747489Y-72435271D01*
X123233670Y-72110415D01*
X123444000Y-71795634D01*
X123654330Y-72110415D01*
X124140511Y-72435271D01*
X124714000Y-72549345D01*
X125287489Y-72435271D01*
X125773670Y-72110415D01*
X125984000Y-71795634D01*
X126194330Y-72110415D01*
X126680511Y-72435271D01*
X127254000Y-72549345D01*
X127827489Y-72435271D01*
X128187386Y-72194795D01*
X128700529Y-72696287D01*
X129231751Y-72944619D01*
X129540000Y-72720401D01*
X129540000Y-71120000D01*
X129520000Y-71120000D01*
X129520000Y-70612000D01*
X129540000Y-70612000D01*
X129540000Y-70592000D01*
X130048000Y-70592000D01*
X130048000Y-70612000D01*
X130068000Y-70612000D01*
X130068000Y-71120000D01*
X130048000Y-71120000D01*
X130048000Y-72720401D01*
X130356249Y-72944619D01*
X130887471Y-72696287D01*
X131400614Y-72194795D01*
X131760511Y-72435271D01*
X132334000Y-72549345D01*
X132907489Y-72435271D01*
X133393670Y-72110415D01*
X133604000Y-71795634D01*
X133814330Y-72110415D01*
X134300511Y-72435271D01*
X134874000Y-72549345D01*
X135447489Y-72435271D01*
X135933670Y-72110415D01*
X136144000Y-71795634D01*
X136354330Y-72110415D01*
X136840511Y-72435271D01*
X137414000Y-72549345D01*
X137987489Y-72435271D01*
X138473670Y-72110415D01*
X138684000Y-71795634D01*
X138894330Y-72110415D01*
X139380511Y-72435271D01*
X139954000Y-72549345D01*
X140527489Y-72435271D01*
X141013670Y-72110415D01*
X141224000Y-71795634D01*
X141434330Y-72110415D01*
X141920511Y-72435271D01*
X142494000Y-72549345D01*
X143067489Y-72435271D01*
X143553670Y-72110415D01*
X143764000Y-71795634D01*
X143974330Y-72110415D01*
X144460511Y-72435271D01*
X145034000Y-72549345D01*
X145607489Y-72435271D01*
X146093670Y-72110415D01*
X146418526Y-71624234D01*
X146532600Y-71050745D01*
X146532600Y-70681255D01*
X147599400Y-70681255D01*
X147599400Y-71050745D01*
X147713474Y-71624234D01*
X148038330Y-72110415D01*
X148524511Y-72435271D01*
X149098000Y-72549345D01*
X149671489Y-72435271D01*
X150157670Y-72110415D01*
X150368000Y-71795634D01*
X150578330Y-72110415D01*
X151064511Y-72435271D01*
X151638000Y-72549345D01*
X152211489Y-72435271D01*
X152697670Y-72110415D01*
X152908000Y-71795634D01*
X153118330Y-72110415D01*
X153604511Y-72435271D01*
X154178000Y-72549345D01*
X154751489Y-72435271D01*
X155237670Y-72110415D01*
X155448000Y-71795634D01*
X155658330Y-72110415D01*
X156144511Y-72435271D01*
X156718000Y-72549345D01*
X157291489Y-72435271D01*
X157777670Y-72110415D01*
X157988000Y-71795634D01*
X158198330Y-72110415D01*
X158684511Y-72435271D01*
X159258000Y-72549345D01*
X159765579Y-72448381D01*
X165832599Y-78515401D01*
X166079161Y-78680148D01*
X166370000Y-78738000D01*
X173042953Y-78738000D01*
X173111106Y-78902943D01*
X173570637Y-79363278D01*
X173796114Y-79456904D01*
X174498000Y-80158790D01*
X175199621Y-79457169D01*
X175422943Y-79364894D01*
X175883278Y-78905363D01*
X176132716Y-78304648D01*
X176133284Y-77654205D01*
X175884894Y-77053057D01*
X175540241Y-76707801D01*
X175883278Y-76365363D01*
X176132716Y-75764648D01*
X176133284Y-75114205D01*
X175884894Y-74513057D01*
X175425363Y-74052722D01*
X174824648Y-73803284D01*
X174174205Y-73802716D01*
X173573057Y-74051106D01*
X173112722Y-74510637D01*
X173043227Y-74678000D01*
X166684802Y-74678000D01*
X164519954Y-72513152D01*
X164911489Y-72435271D01*
X165397670Y-72110415D01*
X165608000Y-71795634D01*
X165818330Y-72110415D01*
X166304511Y-72435271D01*
X166878000Y-72549345D01*
X167451489Y-72435271D01*
X167937670Y-72110415D01*
X168262526Y-71624234D01*
X168376600Y-71050745D01*
X168376600Y-70681255D01*
X168262526Y-70107766D01*
X167937670Y-69621585D01*
X167451489Y-69296729D01*
X166878000Y-69182655D01*
X166304511Y-69296729D01*
X165818330Y-69621585D01*
X165608000Y-69936366D01*
X165397670Y-69621585D01*
X164911489Y-69296729D01*
X164338000Y-69182655D01*
X163764511Y-69296729D01*
X163278330Y-69621585D01*
X163068000Y-69936366D01*
X162857670Y-69621585D01*
X162371489Y-69296729D01*
X161798000Y-69182655D01*
X161224511Y-69296729D01*
X160738330Y-69621585D01*
X160528000Y-69936366D01*
X160317670Y-69621585D01*
X159831489Y-69296729D01*
X159258000Y-69182655D01*
X158684511Y-69296729D01*
X158198330Y-69621585D01*
X157988000Y-69936366D01*
X157777670Y-69621585D01*
X157291489Y-69296729D01*
X156718000Y-69182655D01*
X156144511Y-69296729D01*
X155658330Y-69621585D01*
X155448000Y-69936366D01*
X155237670Y-69621585D01*
X154751489Y-69296729D01*
X154178000Y-69182655D01*
X153604511Y-69296729D01*
X153118330Y-69621585D01*
X152908000Y-69936366D01*
X152697670Y-69621585D01*
X152211489Y-69296729D01*
X151638000Y-69182655D01*
X151064511Y-69296729D01*
X150578330Y-69621585D01*
X150368000Y-69936366D01*
X150157670Y-69621585D01*
X149671489Y-69296729D01*
X149098000Y-69182655D01*
X148524511Y-69296729D01*
X148038330Y-69621585D01*
X147713474Y-70107766D01*
X147599400Y-70681255D01*
X146532600Y-70681255D01*
X146418526Y-70107766D01*
X146093670Y-69621585D01*
X145607489Y-69296729D01*
X145034000Y-69182655D01*
X144460511Y-69296729D01*
X143974330Y-69621585D01*
X143764000Y-69936366D01*
X143553670Y-69621585D01*
X143067489Y-69296729D01*
X142494000Y-69182655D01*
X141920511Y-69296729D01*
X141434330Y-69621585D01*
X141224000Y-69936366D01*
X141013670Y-69621585D01*
X140527489Y-69296729D01*
X139954000Y-69182655D01*
X139380511Y-69296729D01*
X138894330Y-69621585D01*
X138684000Y-69936366D01*
X138473670Y-69621585D01*
X137987489Y-69296729D01*
X137414000Y-69182655D01*
X136840511Y-69296729D01*
X136354330Y-69621585D01*
X136144000Y-69936366D01*
X135933670Y-69621585D01*
X135447489Y-69296729D01*
X134874000Y-69182655D01*
X134300511Y-69296729D01*
X133814330Y-69621585D01*
X133604000Y-69936366D01*
X133393670Y-69621585D01*
X132907489Y-69296729D01*
X132334000Y-69182655D01*
X131760511Y-69296729D01*
X131400614Y-69537205D01*
X130887765Y-69036000D01*
X191121468Y-69036000D01*
X190787825Y-69174577D01*
X190657475Y-69527910D01*
X190311489Y-69296729D01*
X189738000Y-69182655D01*
X189164511Y-69296729D01*
X188678330Y-69621585D01*
X188468000Y-69936366D01*
X188257670Y-69621585D01*
X187771489Y-69296729D01*
X187198000Y-69182655D01*
X186624511Y-69296729D01*
X186138330Y-69621585D01*
X185928000Y-69936366D01*
X185717670Y-69621585D01*
X185231489Y-69296729D01*
X184658000Y-69182655D01*
X184084511Y-69296729D01*
X183598330Y-69621585D01*
X183388000Y-69936366D01*
X183177670Y-69621585D01*
X182691489Y-69296729D01*
X182118000Y-69182655D01*
X181544511Y-69296729D01*
X181058330Y-69621585D01*
X180848000Y-69936366D01*
X180637670Y-69621585D01*
X180151489Y-69296729D01*
X179578000Y-69182655D01*
X179004511Y-69296729D01*
X178518330Y-69621585D01*
X178308000Y-69936366D01*
X178097670Y-69621585D01*
X177611489Y-69296729D01*
X177038000Y-69182655D01*
X176464511Y-69296729D01*
X175978330Y-69621585D01*
X175768000Y-69936366D01*
X175557670Y-69621585D01*
X175071489Y-69296729D01*
X174498000Y-69182655D01*
X173924511Y-69296729D01*
X173438330Y-69621585D01*
X173228000Y-69936366D01*
X173017670Y-69621585D01*
X172531489Y-69296729D01*
X171958000Y-69182655D01*
X171384511Y-69296729D01*
X170898330Y-69621585D01*
X170573474Y-70107766D01*
X170459400Y-70681255D01*
X170459400Y-71050745D01*
X170573474Y-71624234D01*
X170898330Y-72110415D01*
X171384511Y-72435271D01*
X171958000Y-72549345D01*
X172531489Y-72435271D01*
X173017670Y-72110415D01*
X173228000Y-71795634D01*
X173438330Y-72110415D01*
X173924511Y-72435271D01*
X174498000Y-72549345D01*
X175071489Y-72435271D01*
X175557670Y-72110415D01*
X175768000Y-71795634D01*
X175978330Y-72110415D01*
X176464511Y-72435271D01*
X177038000Y-72549345D01*
X177611489Y-72435271D01*
X178097670Y-72110415D01*
X178308000Y-71795634D01*
X178518330Y-72110415D01*
X179004511Y-72435271D01*
X179578000Y-72549345D01*
X180151489Y-72435271D01*
X180637670Y-72110415D01*
X180848000Y-71795634D01*
X181058330Y-72110415D01*
X181358000Y-72310648D01*
X181358000Y-72837198D01*
X180323473Y-73871725D01*
X180158648Y-73803284D01*
X179508205Y-73802716D01*
X178907057Y-74051106D01*
X178446722Y-74510637D01*
X178197284Y-75111352D01*
X178196716Y-75761795D01*
X178445106Y-76362943D01*
X178789759Y-76708199D01*
X178446722Y-77050637D01*
X178197284Y-77651352D01*
X178196716Y-78301795D01*
X178445106Y-78902943D01*
X178904637Y-79363278D01*
X179130114Y-79456904D01*
X179832000Y-80158790D01*
X180533621Y-79457169D01*
X180756943Y-79364894D01*
X181217278Y-78905363D01*
X181466716Y-78304648D01*
X181467284Y-77654205D01*
X181398081Y-77486721D01*
X185195401Y-73689401D01*
X185360148Y-73442839D01*
X185418000Y-73152000D01*
X185418000Y-72310648D01*
X185717670Y-72110415D01*
X185928000Y-71795634D01*
X186138330Y-72110415D01*
X186438000Y-72310648D01*
X186438000Y-74930000D01*
X186495852Y-75220839D01*
X186660599Y-75467401D01*
X188978000Y-77784802D01*
X188978000Y-81602953D01*
X188813057Y-81671106D01*
X188352722Y-82130637D01*
X188259096Y-82356114D01*
X187557210Y-83058000D01*
X188258831Y-83759621D01*
X188351106Y-83982943D01*
X188810637Y-84443278D01*
X189411352Y-84692716D01*
X190061795Y-84693284D01*
X190662943Y-84444894D01*
X191008199Y-84100241D01*
X191350637Y-84443278D01*
X191951352Y-84692716D01*
X192601795Y-84693284D01*
X193202943Y-84444894D01*
X193663278Y-83985363D01*
X193912716Y-83384648D01*
X193913284Y-82734205D01*
X193664894Y-82133057D01*
X193205363Y-81672722D01*
X193038000Y-81603227D01*
X193038000Y-77470000D01*
X192980148Y-77179161D01*
X192980148Y-77179160D01*
X192815401Y-76932599D01*
X190498000Y-74615198D01*
X190498000Y-73124854D01*
X191648356Y-73124854D01*
X191856577Y-73626175D01*
X193041603Y-74063349D01*
X194303722Y-74013755D01*
X195239423Y-73626175D01*
X195447644Y-73124854D01*
X193548000Y-71225210D01*
X191648356Y-73124854D01*
X190498000Y-73124854D01*
X190498000Y-72310648D01*
X190644939Y-72212466D01*
X190787825Y-72557423D01*
X191289146Y-72765644D01*
X193188790Y-70866000D01*
X193174648Y-70851858D01*
X193533858Y-70492648D01*
X193548000Y-70506790D01*
X193562143Y-70492648D01*
X193921353Y-70851858D01*
X193907210Y-70866000D01*
X195806854Y-72765644D01*
X196072167Y-72655448D01*
X195973474Y-72803152D01*
X195859400Y-73376641D01*
X195859400Y-73435359D01*
X195973474Y-74008848D01*
X196298330Y-74495029D01*
X196569172Y-74676000D01*
X196298330Y-74856971D01*
X195973474Y-75343152D01*
X195859400Y-75916641D01*
X195859400Y-75975359D01*
X195973474Y-76548848D01*
X196298330Y-77035029D01*
X196569172Y-77216000D01*
X196298330Y-77396971D01*
X195973474Y-77883152D01*
X195859400Y-78456641D01*
X195859400Y-78515359D01*
X195973474Y-79088848D01*
X196298330Y-79575029D01*
X196569172Y-79756000D01*
X196298330Y-79936971D01*
X195973474Y-80423152D01*
X195859400Y-80996641D01*
X195859400Y-81055359D01*
X195973474Y-81628848D01*
X196298330Y-82115029D01*
X196569172Y-82296000D01*
X196298330Y-82476971D01*
X195973474Y-82963152D01*
X195859400Y-83536641D01*
X195859400Y-83595359D01*
X195973474Y-84168848D01*
X196298330Y-84655029D01*
X196569172Y-84836000D01*
X196298330Y-85016971D01*
X195973474Y-85503152D01*
X195859400Y-86076641D01*
X195859400Y-86135359D01*
X195973474Y-86708848D01*
X196298330Y-87195029D01*
X196569172Y-87376000D01*
X196298330Y-87556971D01*
X195973474Y-88043152D01*
X195859400Y-88616641D01*
X195859400Y-88675359D01*
X195973474Y-89248848D01*
X196298330Y-89735029D01*
X196569172Y-89916000D01*
X196298330Y-90096971D01*
X195973474Y-90583152D01*
X195859400Y-91156641D01*
X195859400Y-91215359D01*
X195973474Y-91788848D01*
X196298330Y-92275029D01*
X196569172Y-92456000D01*
X196298330Y-92636971D01*
X195973474Y-93123152D01*
X195859400Y-93696641D01*
X195859400Y-93755359D01*
X195973474Y-94328848D01*
X196298330Y-94815029D01*
X196569172Y-94996000D01*
X196298330Y-95176971D01*
X195973474Y-95663152D01*
X195859400Y-96236641D01*
X195859400Y-96295359D01*
X195973474Y-96868848D01*
X196298330Y-97355029D01*
X196569172Y-97536000D01*
X196298330Y-97716971D01*
X195973474Y-98203152D01*
X195859400Y-98776641D01*
X195859400Y-98835359D01*
X195973474Y-99408848D01*
X196298330Y-99895029D01*
X196569172Y-100076000D01*
X196298330Y-100256971D01*
X195973474Y-100743152D01*
X195859400Y-101316641D01*
X195859400Y-101375359D01*
X195973474Y-101948848D01*
X196298330Y-102435029D01*
X196569172Y-102616000D01*
X196298330Y-102796971D01*
X195973474Y-103283152D01*
X195859400Y-103856641D01*
X195859400Y-103915359D01*
X195973474Y-104488848D01*
X196298330Y-104975029D01*
X196569172Y-105156000D01*
X196298330Y-105336971D01*
X195973474Y-105823152D01*
X195859400Y-106396641D01*
X195859400Y-106455359D01*
X195973474Y-107028848D01*
X196298330Y-107515029D01*
X196569172Y-107696000D01*
X196298330Y-107876971D01*
X195973474Y-108363152D01*
X195859400Y-108936641D01*
X195859400Y-108995359D01*
X195973474Y-109568848D01*
X196298330Y-110055029D01*
X196569172Y-110236000D01*
X196298330Y-110416971D01*
X195973474Y-110903152D01*
X195859400Y-111476641D01*
X195859400Y-111535359D01*
X195973474Y-112108848D01*
X196298330Y-112595029D01*
X196311265Y-112603672D01*
X196306010Y-112634799D01*
X197358000Y-113686790D01*
X197372142Y-113672647D01*
X197731353Y-114031858D01*
X197717210Y-114046000D01*
X197731353Y-114060142D01*
X197372142Y-114419353D01*
X197358000Y-114405210D01*
X196306010Y-115457201D01*
X196370237Y-115837670D01*
X197131068Y-116079288D01*
X197926448Y-116011356D01*
X198345763Y-115837670D01*
X198409990Y-115457203D01*
X198623312Y-115670526D01*
X198691300Y-115602538D01*
X198933519Y-115805624D01*
X199332275Y-115970779D01*
X199142278Y-115978245D01*
X198206577Y-116365825D01*
X197998356Y-116867146D01*
X199898000Y-118766790D01*
X201797644Y-116867146D01*
X201589423Y-116365825D01*
X200489573Y-115960074D01*
X200862481Y-115805624D01*
X201462443Y-115302590D01*
X201824233Y-114608251D01*
X201602723Y-114300000D01*
X200152000Y-114300000D01*
X200152000Y-114320000D01*
X199644000Y-114320000D01*
X199644000Y-114300000D01*
X199624000Y-114300000D01*
X199624000Y-113792000D01*
X199644000Y-113792000D01*
X199644000Y-113772000D01*
X200152000Y-113772000D01*
X200152000Y-113792000D01*
X201602723Y-113792000D01*
X201824233Y-113483749D01*
X201462443Y-112789410D01*
X201055673Y-112448357D01*
X201282526Y-112108848D01*
X201396600Y-111535359D01*
X201396600Y-111476641D01*
X201282526Y-110903152D01*
X200957670Y-110416971D01*
X200686828Y-110236000D01*
X200957670Y-110055029D01*
X201282526Y-109568848D01*
X201396600Y-108995359D01*
X201396600Y-108936641D01*
X201282526Y-108363152D01*
X200957670Y-107876971D01*
X200686828Y-107696000D01*
X200957670Y-107515029D01*
X201282526Y-107028848D01*
X201396600Y-106455359D01*
X201396600Y-106396641D01*
X201282526Y-105823152D01*
X200957670Y-105336971D01*
X200686828Y-105156000D01*
X200957670Y-104975029D01*
X201282526Y-104488848D01*
X201396600Y-103915359D01*
X201396600Y-103856641D01*
X201282526Y-103283152D01*
X200957670Y-102796971D01*
X200686828Y-102616000D01*
X200957670Y-102435029D01*
X201282526Y-101948848D01*
X201396600Y-101375359D01*
X201396600Y-101316641D01*
X201282526Y-100743152D01*
X200957670Y-100256971D01*
X200686828Y-100076000D01*
X200957670Y-99895029D01*
X201282526Y-99408848D01*
X201396600Y-98835359D01*
X201396600Y-98776641D01*
X201282526Y-98203152D01*
X200957670Y-97716971D01*
X200686828Y-97536000D01*
X200957670Y-97355029D01*
X201282526Y-96868848D01*
X201396600Y-96295359D01*
X201396600Y-96236641D01*
X201282526Y-95663152D01*
X200957670Y-95176971D01*
X200686828Y-94996000D01*
X200957670Y-94815029D01*
X201282526Y-94328848D01*
X201396600Y-93755359D01*
X201396600Y-93696641D01*
X201282526Y-93123152D01*
X200957670Y-92636971D01*
X200686828Y-92456000D01*
X200957670Y-92275029D01*
X201282526Y-91788848D01*
X201396600Y-91215359D01*
X201396600Y-91156641D01*
X201282526Y-90583152D01*
X200957670Y-90096971D01*
X200686828Y-89916000D01*
X200957670Y-89735029D01*
X201282526Y-89248848D01*
X201396600Y-88675359D01*
X201396600Y-88616641D01*
X201282526Y-88043152D01*
X200957670Y-87556971D01*
X200686828Y-87376000D01*
X200957670Y-87195029D01*
X201282526Y-86708848D01*
X201396600Y-86135359D01*
X201396600Y-86076641D01*
X201282526Y-85503152D01*
X200957670Y-85016971D01*
X200686828Y-84836000D01*
X200957670Y-84655029D01*
X201282526Y-84168848D01*
X201396600Y-83595359D01*
X201396600Y-83536641D01*
X201282526Y-82963152D01*
X200957670Y-82476971D01*
X200686828Y-82296000D01*
X200957670Y-82115029D01*
X201282526Y-81628848D01*
X201396600Y-81055359D01*
X201396600Y-80996641D01*
X201282526Y-80423152D01*
X200957670Y-79936971D01*
X200686828Y-79756000D01*
X200957670Y-79575029D01*
X201282526Y-79088848D01*
X201396600Y-78515359D01*
X201396600Y-78456641D01*
X201282526Y-77883152D01*
X200957670Y-77396971D01*
X200686828Y-77216000D01*
X200957670Y-77035029D01*
X201282526Y-76548848D01*
X201396600Y-75975359D01*
X201396600Y-75916641D01*
X201282526Y-75343152D01*
X200957670Y-74856971D01*
X200686828Y-74676000D01*
X200957670Y-74495029D01*
X201282526Y-74008848D01*
X201396600Y-73435359D01*
X201396600Y-73376641D01*
X201282526Y-72803152D01*
X200957670Y-72316971D01*
X200686828Y-72136000D01*
X200957670Y-71955029D01*
X201282526Y-71468848D01*
X201396600Y-70895359D01*
X201396600Y-70836641D01*
X201394626Y-70826717D01*
X201728000Y-71160091D01*
X201728000Y-81026000D01*
X201782046Y-81297705D01*
X201935954Y-81528046D01*
X204268000Y-83860091D01*
X204268000Y-117561909D01*
X203061403Y-118768505D01*
X203045755Y-118370278D01*
X202658175Y-117434577D01*
X202156854Y-117226356D01*
X200257210Y-119126000D01*
X200271353Y-119140143D01*
X199912143Y-119499353D01*
X199898000Y-119485210D01*
X199883858Y-119499353D01*
X199524648Y-119140143D01*
X199538790Y-119126000D01*
X197639146Y-117226356D01*
X197137825Y-117434577D01*
X196700651Y-118619603D01*
X196750245Y-119881722D01*
X197137825Y-120817423D01*
X197471468Y-120956000D01*
X147651765Y-120956000D01*
X148164614Y-120454795D01*
X148524511Y-120695271D01*
X149098000Y-120809345D01*
X149671489Y-120695271D01*
X150157670Y-120370415D01*
X150482526Y-119884234D01*
X150596600Y-119310745D01*
X150596600Y-119064240D01*
X150719585Y-118941255D01*
X152679400Y-118941255D01*
X152679400Y-119310745D01*
X152793474Y-119884234D01*
X153118330Y-120370415D01*
X153604511Y-120695271D01*
X154178000Y-120809345D01*
X154751489Y-120695271D01*
X155237670Y-120370415D01*
X155448000Y-120055634D01*
X155658330Y-120370415D01*
X156144511Y-120695271D01*
X156718000Y-120809345D01*
X157291489Y-120695271D01*
X157777670Y-120370415D01*
X157988000Y-120055634D01*
X158198330Y-120370415D01*
X158684511Y-120695271D01*
X159258000Y-120809345D01*
X159831489Y-120695271D01*
X160317670Y-120370415D01*
X160528000Y-120055634D01*
X160738330Y-120370415D01*
X161224511Y-120695271D01*
X161798000Y-120809345D01*
X162371489Y-120695271D01*
X162857670Y-120370415D01*
X163068000Y-120055634D01*
X163278330Y-120370415D01*
X163764511Y-120695271D01*
X164338000Y-120809345D01*
X164911489Y-120695271D01*
X165397670Y-120370415D01*
X165608000Y-120055634D01*
X165818330Y-120370415D01*
X166304511Y-120695271D01*
X166878000Y-120809345D01*
X167451489Y-120695271D01*
X167937670Y-120370415D01*
X168148000Y-120055634D01*
X168358330Y-120370415D01*
X168844511Y-120695271D01*
X169418000Y-120809345D01*
X169991489Y-120695271D01*
X170477670Y-120370415D01*
X170688000Y-120055634D01*
X170898330Y-120370415D01*
X171384511Y-120695271D01*
X171958000Y-120809345D01*
X172531489Y-120695271D01*
X173017670Y-120370415D01*
X173342526Y-119884234D01*
X173456600Y-119310745D01*
X173456600Y-118941255D01*
X175539400Y-118941255D01*
X175539400Y-119310745D01*
X175653474Y-119884234D01*
X175978330Y-120370415D01*
X176464511Y-120695271D01*
X177038000Y-120809345D01*
X177611489Y-120695271D01*
X178097670Y-120370415D01*
X178308000Y-120055634D01*
X178518330Y-120370415D01*
X179004511Y-120695271D01*
X179578000Y-120809345D01*
X180151489Y-120695271D01*
X180637670Y-120370415D01*
X180848000Y-120055634D01*
X181058330Y-120370415D01*
X181544511Y-120695271D01*
X182118000Y-120809345D01*
X182691489Y-120695271D01*
X183177670Y-120370415D01*
X183388000Y-120055634D01*
X183598330Y-120370415D01*
X184084511Y-120695271D01*
X184658000Y-120809345D01*
X185231489Y-120695271D01*
X185717670Y-120370415D01*
X185928000Y-120055634D01*
X186138330Y-120370415D01*
X186624511Y-120695271D01*
X187198000Y-120809345D01*
X187771489Y-120695271D01*
X188257670Y-120370415D01*
X188468000Y-120055634D01*
X188678330Y-120370415D01*
X189164511Y-120695271D01*
X189738000Y-120809345D01*
X190311489Y-120695271D01*
X190797670Y-120370415D01*
X191008000Y-120055634D01*
X191218330Y-120370415D01*
X191704511Y-120695271D01*
X192278000Y-120809345D01*
X192851489Y-120695271D01*
X193337670Y-120370415D01*
X193548000Y-120055634D01*
X193758330Y-120370415D01*
X194244511Y-120695271D01*
X194818000Y-120809345D01*
X195391489Y-120695271D01*
X195877670Y-120370415D01*
X196202526Y-119884234D01*
X196316600Y-119310745D01*
X196316600Y-118941255D01*
X196202526Y-118367766D01*
X195877670Y-117881585D01*
X195391489Y-117556729D01*
X194818000Y-117442655D01*
X194244511Y-117556729D01*
X193758330Y-117881585D01*
X193548000Y-118196366D01*
X193337670Y-117881585D01*
X192851489Y-117556729D01*
X192278000Y-117442655D01*
X191704511Y-117556729D01*
X191218330Y-117881585D01*
X191008000Y-118196366D01*
X190797670Y-117881585D01*
X190311489Y-117556729D01*
X189738000Y-117442655D01*
X189164511Y-117556729D01*
X188678330Y-117881585D01*
X188468000Y-118196366D01*
X188257670Y-117881585D01*
X187771489Y-117556729D01*
X187198000Y-117442655D01*
X186624511Y-117556729D01*
X186138330Y-117881585D01*
X185928000Y-118196366D01*
X185717670Y-117881585D01*
X185231489Y-117556729D01*
X184658000Y-117442655D01*
X184084511Y-117556729D01*
X183598330Y-117881585D01*
X183388000Y-118196366D01*
X183177670Y-117881585D01*
X182691489Y-117556729D01*
X182118000Y-117442655D01*
X181544511Y-117556729D01*
X181058330Y-117881585D01*
X180848000Y-118196366D01*
X180637670Y-117881585D01*
X180151489Y-117556729D01*
X179578000Y-117442655D01*
X179004511Y-117556729D01*
X178518330Y-117881585D01*
X178308000Y-118196366D01*
X178097670Y-117881585D01*
X177611489Y-117556729D01*
X177038000Y-117442655D01*
X176464511Y-117556729D01*
X175978330Y-117881585D01*
X175653474Y-118367766D01*
X175539400Y-118941255D01*
X173456600Y-118941255D01*
X173342526Y-118367766D01*
X173017670Y-117881585D01*
X172531489Y-117556729D01*
X171958000Y-117442655D01*
X171384511Y-117556729D01*
X170898330Y-117881585D01*
X170688000Y-118196366D01*
X170477670Y-117881585D01*
X169991489Y-117556729D01*
X169418000Y-117442655D01*
X168844511Y-117556729D01*
X168358330Y-117881585D01*
X168148000Y-118196366D01*
X167937670Y-117881585D01*
X167451489Y-117556729D01*
X166878000Y-117442655D01*
X166304511Y-117556729D01*
X165818330Y-117881585D01*
X165608000Y-118196366D01*
X165397670Y-117881585D01*
X164911489Y-117556729D01*
X164338000Y-117442655D01*
X163764511Y-117556729D01*
X163278330Y-117881585D01*
X163068000Y-118196366D01*
X162857670Y-117881585D01*
X162371489Y-117556729D01*
X161798000Y-117442655D01*
X161224511Y-117556729D01*
X160738330Y-117881585D01*
X160528000Y-118196366D01*
X160317670Y-117881585D01*
X159831489Y-117556729D01*
X159258000Y-117442655D01*
X158684511Y-117556729D01*
X158198330Y-117881585D01*
X157988000Y-118196366D01*
X157777670Y-117881585D01*
X157291489Y-117556729D01*
X156718000Y-117442655D01*
X156144511Y-117556729D01*
X155658330Y-117881585D01*
X155448000Y-118196366D01*
X155237670Y-117881585D01*
X154751489Y-117556729D01*
X154178000Y-117442655D01*
X153604511Y-117556729D01*
X153118330Y-117881585D01*
X152793474Y-118367766D01*
X152679400Y-118941255D01*
X150719585Y-118941255D01*
X153355986Y-116304854D01*
X167518356Y-116304854D01*
X167726577Y-116806175D01*
X168911603Y-117243349D01*
X170173722Y-117193755D01*
X171109423Y-116806175D01*
X171317644Y-116304854D01*
X169418000Y-114405210D01*
X167518356Y-116304854D01*
X153355986Y-116304854D01*
X156121237Y-113539603D01*
X166220651Y-113539603D01*
X166270245Y-114801722D01*
X166657825Y-115737423D01*
X167159146Y-115945644D01*
X169058790Y-114046000D01*
X169777210Y-114046000D01*
X171676854Y-115945644D01*
X172178175Y-115737423D01*
X172615349Y-114552397D01*
X172586534Y-113819068D01*
X195324712Y-113819068D01*
X195392644Y-114614448D01*
X195566330Y-115033763D01*
X195946799Y-115097990D01*
X196998790Y-114046000D01*
X195946799Y-112994010D01*
X195566330Y-113058237D01*
X195324712Y-113819068D01*
X172586534Y-113819068D01*
X172565755Y-113290278D01*
X172178175Y-112354577D01*
X171676854Y-112146356D01*
X169777210Y-114046000D01*
X169058790Y-114046000D01*
X167159146Y-112146356D01*
X166657825Y-112354577D01*
X166220651Y-113539603D01*
X156121237Y-113539603D01*
X157873694Y-111787146D01*
X167518356Y-111787146D01*
X169418000Y-113686790D01*
X171317644Y-111787146D01*
X171109423Y-111285825D01*
X169924397Y-110848651D01*
X168662278Y-110898245D01*
X167726577Y-111285825D01*
X167518356Y-111787146D01*
X157873694Y-111787146D01*
X161710841Y-107950000D01*
X183018560Y-107950000D01*
X183018560Y-108434000D01*
X183062838Y-108669317D01*
X183201910Y-108885441D01*
X183414110Y-109030431D01*
X183666000Y-109081440D01*
X186666000Y-109081440D01*
X186901317Y-109037162D01*
X187117441Y-108898090D01*
X187179303Y-108807551D01*
X188731659Y-108807551D01*
X188874590Y-109253713D01*
X189866699Y-109601951D01*
X190916552Y-109544017D01*
X191617410Y-109253713D01*
X191760341Y-108807551D01*
X190246000Y-107293210D01*
X188731659Y-108807551D01*
X187179303Y-108807551D01*
X187262431Y-108685890D01*
X187313440Y-108434000D01*
X187313440Y-106554699D01*
X187578049Y-106554699D01*
X187635983Y-107604552D01*
X187926287Y-108305410D01*
X188372449Y-108448341D01*
X189886790Y-106934000D01*
X190605210Y-106934000D01*
X192119551Y-108448341D01*
X192565713Y-108305410D01*
X192913951Y-107313301D01*
X192856017Y-106263448D01*
X192565713Y-105562590D01*
X192119551Y-105419659D01*
X190605210Y-106934000D01*
X189886790Y-106934000D01*
X188372449Y-105419659D01*
X187926287Y-105562590D01*
X187578049Y-106554699D01*
X187313440Y-106554699D01*
X187313440Y-105434000D01*
X187269162Y-105198683D01*
X187180211Y-105060449D01*
X188731659Y-105060449D01*
X190246000Y-106574790D01*
X191760341Y-105060449D01*
X191617410Y-104614287D01*
X190625301Y-104266049D01*
X189575448Y-104323983D01*
X188874590Y-104614287D01*
X188731659Y-105060449D01*
X187180211Y-105060449D01*
X187130090Y-104982559D01*
X186917890Y-104837569D01*
X186666000Y-104786560D01*
X183666000Y-104786560D01*
X183430683Y-104830838D01*
X183214559Y-104969910D01*
X183069569Y-105182110D01*
X183018560Y-105434000D01*
X183018560Y-105918000D01*
X161290000Y-105918000D01*
X160965700Y-105982507D01*
X160901193Y-105995338D01*
X160571580Y-106215579D01*
X149303607Y-117483553D01*
X149098000Y-117442655D01*
X148524511Y-117556729D01*
X148164614Y-117797205D01*
X147651471Y-117295713D01*
X147120249Y-117047381D01*
X146812000Y-117271599D01*
X146812000Y-118872000D01*
X146832000Y-118872000D01*
X146832000Y-119380000D01*
X146812000Y-119380000D01*
X146812000Y-119400000D01*
X146304000Y-119400000D01*
X146304000Y-119380000D01*
X144272000Y-119380000D01*
X144272000Y-119400000D01*
X143764000Y-119400000D01*
X143764000Y-119380000D01*
X143744000Y-119380000D01*
X143744000Y-118872000D01*
X143764000Y-118872000D01*
X143764000Y-117271599D01*
X144272000Y-117271599D01*
X144272000Y-118872000D01*
X146304000Y-118872000D01*
X146304000Y-117271599D01*
X145995751Y-117047381D01*
X145464529Y-117295713D01*
X145288000Y-117468234D01*
X145111471Y-117295713D01*
X144580249Y-117047381D01*
X144272000Y-117271599D01*
X143764000Y-117271599D01*
X143455751Y-117047381D01*
X142924529Y-117295713D01*
X142494000Y-117716467D01*
X142494000Y-112942840D01*
X162980841Y-92456000D01*
X171958000Y-92456000D01*
X172282300Y-92391493D01*
X172346807Y-92378662D01*
X172676420Y-92158420D01*
X175216420Y-89618421D01*
X175363581Y-89398179D01*
X175436662Y-89288806D01*
X175514000Y-88900000D01*
X175514000Y-84702429D01*
X175733317Y-84661162D01*
X175949441Y-84522090D01*
X176094431Y-84309890D01*
X176142200Y-84074000D01*
X178187571Y-84074000D01*
X178228838Y-84293317D01*
X178367910Y-84509441D01*
X178580110Y-84654431D01*
X178832000Y-84705440D01*
X180832000Y-84705440D01*
X181067317Y-84661162D01*
X181283441Y-84522090D01*
X181428431Y-84309890D01*
X181476200Y-84074000D01*
X183013571Y-84074000D01*
X183054838Y-84293317D01*
X183193910Y-84509441D01*
X183406110Y-84654431D01*
X183658000Y-84705440D01*
X185658000Y-84705440D01*
X185742942Y-84689457D01*
X185834349Y-84780864D01*
X186046709Y-84568504D01*
X186127896Y-84963002D01*
X186938366Y-85227503D01*
X187788362Y-85161716D01*
X188268104Y-84963002D01*
X188349292Y-84568502D01*
X187198000Y-83417210D01*
X187183858Y-83431353D01*
X186824648Y-83072143D01*
X186838790Y-83058000D01*
X186824648Y-83043858D01*
X187183858Y-82684648D01*
X187198000Y-82698790D01*
X188349292Y-81547498D01*
X188268104Y-81152998D01*
X187457634Y-80888497D01*
X186607638Y-80954284D01*
X186127896Y-81152998D01*
X186046709Y-81547496D01*
X185834349Y-81335136D01*
X185741929Y-81427556D01*
X185658000Y-81410560D01*
X183658000Y-81410560D01*
X183422683Y-81454838D01*
X183206559Y-81593910D01*
X183061569Y-81806110D01*
X183013800Y-82042000D01*
X181476429Y-82042000D01*
X181463457Y-81973058D01*
X181554864Y-81881651D01*
X181342504Y-81669291D01*
X181737002Y-81588104D01*
X182001503Y-80777634D01*
X181935716Y-79927638D01*
X181737002Y-79447896D01*
X181342502Y-79366708D01*
X180191210Y-80518000D01*
X180205353Y-80532143D01*
X179846143Y-80891353D01*
X179832000Y-80877210D01*
X179817858Y-80891353D01*
X179458648Y-80532143D01*
X179472790Y-80518000D01*
X178321498Y-79366708D01*
X177926998Y-79447896D01*
X177662497Y-80258366D01*
X177728284Y-81108362D01*
X177926998Y-81588104D01*
X178321496Y-81669291D01*
X178109136Y-81881651D01*
X178201556Y-81974071D01*
X178187800Y-82042000D01*
X176142429Y-82042000D01*
X176129457Y-81973058D01*
X176220864Y-81881651D01*
X176008504Y-81669291D01*
X176403002Y-81588104D01*
X176667503Y-80777634D01*
X176601716Y-79927638D01*
X176403002Y-79447896D01*
X176008502Y-79366708D01*
X174857210Y-80518000D01*
X174871353Y-80532143D01*
X174512143Y-80891353D01*
X174498000Y-80877210D01*
X174483858Y-80891353D01*
X174124648Y-80532143D01*
X174138790Y-80518000D01*
X172987498Y-79366708D01*
X172592998Y-79447896D01*
X172328497Y-80258366D01*
X172394284Y-81108362D01*
X172592998Y-81588104D01*
X172987496Y-81669291D01*
X172775136Y-81881651D01*
X172867556Y-81974071D01*
X172850560Y-82058000D01*
X172850560Y-84058000D01*
X172894838Y-84293317D01*
X173033910Y-84509441D01*
X173246110Y-84654431D01*
X173482000Y-84702200D01*
X173482000Y-88479159D01*
X171537160Y-90424000D01*
X162560000Y-90424000D01*
X162171194Y-90501338D01*
X162171192Y-90501339D01*
X162171193Y-90501339D01*
X161841579Y-90721580D01*
X140759580Y-111803580D01*
X140539338Y-112133193D01*
X140539338Y-112133194D01*
X140462000Y-112522000D01*
X140462000Y-117852406D01*
X140418330Y-117881585D01*
X140208000Y-118196366D01*
X139997670Y-117881585D01*
X139511489Y-117556729D01*
X138938000Y-117442655D01*
X138364511Y-117556729D01*
X137878330Y-117881585D01*
X137668000Y-118196366D01*
X137457670Y-117881585D01*
X136971489Y-117556729D01*
X136398000Y-117442655D01*
X135824511Y-117556729D01*
X135338330Y-117881585D01*
X135128000Y-118196366D01*
X134917670Y-117881585D01*
X134431489Y-117556729D01*
X133858000Y-117442655D01*
X133284511Y-117556729D01*
X132798330Y-117881585D01*
X132588000Y-118196366D01*
X132377670Y-117881585D01*
X131891489Y-117556729D01*
X131318000Y-117442655D01*
X130744511Y-117556729D01*
X130258330Y-117881585D01*
X129933474Y-118367766D01*
X129819400Y-118941255D01*
X129819400Y-119310745D01*
X129933474Y-119884234D01*
X130258330Y-120370415D01*
X130744511Y-120695271D01*
X131318000Y-120809345D01*
X131891489Y-120695271D01*
X132377670Y-120370415D01*
X132588000Y-120055634D01*
X132798330Y-120370415D01*
X133284511Y-120695271D01*
X133858000Y-120809345D01*
X134431489Y-120695271D01*
X134917670Y-120370415D01*
X135128000Y-120055634D01*
X135338330Y-120370415D01*
X135824511Y-120695271D01*
X136398000Y-120809345D01*
X136971489Y-120695271D01*
X137457670Y-120370415D01*
X137668000Y-120055634D01*
X137878330Y-120370415D01*
X138364511Y-120695271D01*
X138938000Y-120809345D01*
X139511489Y-120695271D01*
X139997670Y-120370415D01*
X140208000Y-120055634D01*
X140418330Y-120370415D01*
X140904511Y-120695271D01*
X141478000Y-120809345D01*
X142051489Y-120695271D01*
X142411386Y-120454795D01*
X142924235Y-120956000D01*
X119774532Y-120956000D01*
X120108175Y-120817423D01*
X120545349Y-119632397D01*
X120495755Y-118370278D01*
X120108175Y-117434577D01*
X119606854Y-117226356D01*
X117707210Y-119126000D01*
X117721353Y-119140143D01*
X117362143Y-119499353D01*
X117348000Y-119485210D01*
X117333858Y-119499353D01*
X116974648Y-119140143D01*
X116988790Y-119126000D01*
X115089146Y-117226356D01*
X114587825Y-117434577D01*
X114150651Y-118619603D01*
X114200245Y-119881722D01*
X114587825Y-120817423D01*
X114921468Y-120956000D01*
X104088000Y-120956000D01*
X104088000Y-116867146D01*
X115448356Y-116867146D01*
X117348000Y-118766790D01*
X119247644Y-116867146D01*
X119039423Y-116365825D01*
X117854397Y-115928651D01*
X116592278Y-115978245D01*
X115656577Y-116365825D01*
X115448356Y-116867146D01*
X104088000Y-116867146D01*
X104088000Y-88364854D01*
X167518356Y-88364854D01*
X167726577Y-88866175D01*
X168911603Y-89303349D01*
X170173722Y-89253755D01*
X171109423Y-88866175D01*
X171317644Y-88364854D01*
X169418000Y-86465210D01*
X167518356Y-88364854D01*
X104088000Y-88364854D01*
X104088000Y-85599603D01*
X166220651Y-85599603D01*
X166270245Y-86861722D01*
X166657825Y-87797423D01*
X167159146Y-88005644D01*
X169058790Y-86106000D01*
X169777210Y-86106000D01*
X171676854Y-88005644D01*
X172178175Y-87797423D01*
X172615349Y-86612397D01*
X172565755Y-85350278D01*
X172178175Y-84414577D01*
X171676854Y-84206356D01*
X169777210Y-86106000D01*
X169058790Y-86106000D01*
X167159146Y-84206356D01*
X166657825Y-84414577D01*
X166220651Y-85599603D01*
X104088000Y-85599603D01*
X104088000Y-83847146D01*
X167518356Y-83847146D01*
X169418000Y-85746790D01*
X171317644Y-83847146D01*
X171109423Y-83345825D01*
X169924397Y-82908651D01*
X168662278Y-82958245D01*
X167726577Y-83345825D01*
X167518356Y-83847146D01*
X104088000Y-83847146D01*
X104088000Y-73124854D01*
X116718356Y-73124854D01*
X116926577Y-73626175D01*
X118111603Y-74063349D01*
X119373722Y-74013755D01*
X120309423Y-73626175D01*
X120517644Y-73124854D01*
X118618000Y-71225210D01*
X116718356Y-73124854D01*
X104088000Y-73124854D01*
X104088000Y-69036000D01*
X116191468Y-69036000D01*
X115857825Y-69174577D01*
X115857825Y-69174577D01*
G37*
X115857825Y-69174577D02*
X115420651Y-70359603D01*
X115470245Y-71621722D01*
X115857825Y-72557423D01*
X116359146Y-72765644D01*
X118258790Y-70866000D01*
X118244648Y-70851858D01*
X118603858Y-70492648D01*
X118618000Y-70506790D01*
X118632143Y-70492648D01*
X118991353Y-70851858D01*
X118977210Y-70866000D01*
X120876854Y-72765644D01*
X121378175Y-72557423D01*
X121458295Y-72340245D01*
X121600511Y-72435271D01*
X122174000Y-72549345D01*
X122747489Y-72435271D01*
X123233670Y-72110415D01*
X123444000Y-71795634D01*
X123654330Y-72110415D01*
X124140511Y-72435271D01*
X124714000Y-72549345D01*
X125287489Y-72435271D01*
X125773670Y-72110415D01*
X125984000Y-71795634D01*
X126194330Y-72110415D01*
X126680511Y-72435271D01*
X127254000Y-72549345D01*
X127827489Y-72435271D01*
X128187386Y-72194795D01*
X128700529Y-72696287D01*
X129231751Y-72944619D01*
X129540000Y-72720401D01*
X129540000Y-71120000D01*
X129520000Y-71120000D01*
X129520000Y-70612000D01*
X129540000Y-70612000D01*
X129540000Y-70592000D01*
X130048000Y-70592000D01*
X130048000Y-70612000D01*
X130068000Y-70612000D01*
X130068000Y-71120000D01*
X130048000Y-71120000D01*
X130048000Y-72720401D01*
X130356249Y-72944619D01*
X130887471Y-72696287D01*
X131400614Y-72194795D01*
X131760511Y-72435271D01*
X132334000Y-72549345D01*
X132907489Y-72435271D01*
X133393670Y-72110415D01*
X133604000Y-71795634D01*
X133814330Y-72110415D01*
X134300511Y-72435271D01*
X134874000Y-72549345D01*
X135447489Y-72435271D01*
X135933670Y-72110415D01*
X136144000Y-71795634D01*
X136354330Y-72110415D01*
X136840511Y-72435271D01*
X137414000Y-72549345D01*
X137987489Y-72435271D01*
X138473670Y-72110415D01*
X138684000Y-71795634D01*
X138894330Y-72110415D01*
X139380511Y-72435271D01*
X139954000Y-72549345D01*
X140527489Y-72435271D01*
X141013670Y-72110415D01*
X141224000Y-71795634D01*
X141434330Y-72110415D01*
X141920511Y-72435271D01*
X142494000Y-72549345D01*
X143067489Y-72435271D01*
X143553670Y-72110415D01*
X143764000Y-71795634D01*
X143974330Y-72110415D01*
X144460511Y-72435271D01*
X145034000Y-72549345D01*
X145607489Y-72435271D01*
X146093670Y-72110415D01*
X146418526Y-71624234D01*
X146532600Y-71050745D01*
X146532600Y-70681255D01*
X147599400Y-70681255D01*
X147599400Y-71050745D01*
X147713474Y-71624234D01*
X148038330Y-72110415D01*
X148524511Y-72435271D01*
X149098000Y-72549345D01*
X149671489Y-72435271D01*
X150157670Y-72110415D01*
X150368000Y-71795634D01*
X150578330Y-72110415D01*
X151064511Y-72435271D01*
X151638000Y-72549345D01*
X152211489Y-72435271D01*
X152697670Y-72110415D01*
X152908000Y-71795634D01*
X153118330Y-72110415D01*
X153604511Y-72435271D01*
X154178000Y-72549345D01*
X154751489Y-72435271D01*
X155237670Y-72110415D01*
X155448000Y-71795634D01*
X155658330Y-72110415D01*
X156144511Y-72435271D01*
X156718000Y-72549345D01*
X157291489Y-72435271D01*
X157777670Y-72110415D01*
X157988000Y-71795634D01*
X158198330Y-72110415D01*
X158684511Y-72435271D01*
X159258000Y-72549345D01*
X159765579Y-72448381D01*
X165832599Y-78515401D01*
X166079161Y-78680148D01*
X166370000Y-78738000D01*
X173042953Y-78738000D01*
X173111106Y-78902943D01*
X173570637Y-79363278D01*
X173796114Y-79456904D01*
X174498000Y-80158790D01*
X175199621Y-79457169D01*
X175422943Y-79364894D01*
X175883278Y-78905363D01*
X176132716Y-78304648D01*
X176133284Y-77654205D01*
X175884894Y-77053057D01*
X175540241Y-76707801D01*
X175883278Y-76365363D01*
X176132716Y-75764648D01*
X176133284Y-75114205D01*
X175884894Y-74513057D01*
X175425363Y-74052722D01*
X174824648Y-73803284D01*
X174174205Y-73802716D01*
X173573057Y-74051106D01*
X173112722Y-74510637D01*
X173043227Y-74678000D01*
X166684802Y-74678000D01*
X164519954Y-72513152D01*
X164911489Y-72435271D01*
X165397670Y-72110415D01*
X165608000Y-71795634D01*
X165818330Y-72110415D01*
X166304511Y-72435271D01*
X166878000Y-72549345D01*
X167451489Y-72435271D01*
X167937670Y-72110415D01*
X168262526Y-71624234D01*
X168376600Y-71050745D01*
X168376600Y-70681255D01*
X168262526Y-70107766D01*
X167937670Y-69621585D01*
X167451489Y-69296729D01*
X166878000Y-69182655D01*
X166304511Y-69296729D01*
X165818330Y-69621585D01*
X165608000Y-69936366D01*
X165397670Y-69621585D01*
X164911489Y-69296729D01*
X164338000Y-69182655D01*
X163764511Y-69296729D01*
X163278330Y-69621585D01*
X163068000Y-69936366D01*
X162857670Y-69621585D01*
X162371489Y-69296729D01*
X161798000Y-69182655D01*
X161224511Y-69296729D01*
X160738330Y-69621585D01*
X160528000Y-69936366D01*
X160317670Y-69621585D01*
X159831489Y-69296729D01*
X159258000Y-69182655D01*
X158684511Y-69296729D01*
X158198330Y-69621585D01*
X157988000Y-69936366D01*
X157777670Y-69621585D01*
X157291489Y-69296729D01*
X156718000Y-69182655D01*
X156144511Y-69296729D01*
X155658330Y-69621585D01*
X155448000Y-69936366D01*
X155237670Y-69621585D01*
X154751489Y-69296729D01*
X154178000Y-69182655D01*
X153604511Y-69296729D01*
X153118330Y-69621585D01*
X152908000Y-69936366D01*
X152697670Y-69621585D01*
X152211489Y-69296729D01*
X151638000Y-69182655D01*
X151064511Y-69296729D01*
X150578330Y-69621585D01*
X150368000Y-69936366D01*
X150157670Y-69621585D01*
X149671489Y-69296729D01*
X149098000Y-69182655D01*
X148524511Y-69296729D01*
X148038330Y-69621585D01*
X147713474Y-70107766D01*
X147599400Y-70681255D01*
X146532600Y-70681255D01*
X146418526Y-70107766D01*
X146093670Y-69621585D01*
X145607489Y-69296729D01*
X145034000Y-69182655D01*
X144460511Y-69296729D01*
X143974330Y-69621585D01*
X143764000Y-69936366D01*
X143553670Y-69621585D01*
X143067489Y-69296729D01*
X142494000Y-69182655D01*
X141920511Y-69296729D01*
X141434330Y-69621585D01*
X141224000Y-69936366D01*
X141013670Y-69621585D01*
X140527489Y-69296729D01*
X139954000Y-69182655D01*
X139380511Y-69296729D01*
X138894330Y-69621585D01*
X138684000Y-69936366D01*
X138473670Y-69621585D01*
X137987489Y-69296729D01*
X137414000Y-69182655D01*
X136840511Y-69296729D01*
X136354330Y-69621585D01*
X136144000Y-69936366D01*
X135933670Y-69621585D01*
X135447489Y-69296729D01*
X134874000Y-69182655D01*
X134300511Y-69296729D01*
X133814330Y-69621585D01*
X133604000Y-69936366D01*
X133393670Y-69621585D01*
X132907489Y-69296729D01*
X132334000Y-69182655D01*
X131760511Y-69296729D01*
X131400614Y-69537205D01*
X130887765Y-69036000D01*
X191121468Y-69036000D01*
X190787825Y-69174577D01*
X190657475Y-69527910D01*
X190311489Y-69296729D01*
X189738000Y-69182655D01*
X189164511Y-69296729D01*
X188678330Y-69621585D01*
X188468000Y-69936366D01*
X188257670Y-69621585D01*
X187771489Y-69296729D01*
X187198000Y-69182655D01*
X186624511Y-69296729D01*
X186138330Y-69621585D01*
X185928000Y-69936366D01*
X185717670Y-69621585D01*
X185231489Y-69296729D01*
X184658000Y-69182655D01*
X184084511Y-69296729D01*
X183598330Y-69621585D01*
X183388000Y-69936366D01*
X183177670Y-69621585D01*
X182691489Y-69296729D01*
X182118000Y-69182655D01*
X181544511Y-69296729D01*
X181058330Y-69621585D01*
X180848000Y-69936366D01*
X180637670Y-69621585D01*
X180151489Y-69296729D01*
X179578000Y-69182655D01*
X179004511Y-69296729D01*
X178518330Y-69621585D01*
X178308000Y-69936366D01*
X178097670Y-69621585D01*
X177611489Y-69296729D01*
X177038000Y-69182655D01*
X176464511Y-69296729D01*
X175978330Y-69621585D01*
X175768000Y-69936366D01*
X175557670Y-69621585D01*
X175071489Y-69296729D01*
X174498000Y-69182655D01*
X173924511Y-69296729D01*
X173438330Y-69621585D01*
X173228000Y-69936366D01*
X173017670Y-69621585D01*
X172531489Y-69296729D01*
X171958000Y-69182655D01*
X171384511Y-69296729D01*
X170898330Y-69621585D01*
X170573474Y-70107766D01*
X170459400Y-70681255D01*
X170459400Y-71050745D01*
X170573474Y-71624234D01*
X170898330Y-72110415D01*
X171384511Y-72435271D01*
X171958000Y-72549345D01*
X172531489Y-72435271D01*
X173017670Y-72110415D01*
X173228000Y-71795634D01*
X173438330Y-72110415D01*
X173924511Y-72435271D01*
X174498000Y-72549345D01*
X175071489Y-72435271D01*
X175557670Y-72110415D01*
X175768000Y-71795634D01*
X175978330Y-72110415D01*
X176464511Y-72435271D01*
X177038000Y-72549345D01*
X177611489Y-72435271D01*
X178097670Y-72110415D01*
X178308000Y-71795634D01*
X178518330Y-72110415D01*
X179004511Y-72435271D01*
X179578000Y-72549345D01*
X180151489Y-72435271D01*
X180637670Y-72110415D01*
X180848000Y-71795634D01*
X181058330Y-72110415D01*
X181358000Y-72310648D01*
X181358000Y-72837198D01*
X180323473Y-73871725D01*
X180158648Y-73803284D01*
X179508205Y-73802716D01*
X178907057Y-74051106D01*
X178446722Y-74510637D01*
X178197284Y-75111352D01*
X178196716Y-75761795D01*
X178445106Y-76362943D01*
X178789759Y-76708199D01*
X178446722Y-77050637D01*
X178197284Y-77651352D01*
X178196716Y-78301795D01*
X178445106Y-78902943D01*
X178904637Y-79363278D01*
X179130114Y-79456904D01*
X179832000Y-80158790D01*
X180533621Y-79457169D01*
X180756943Y-79364894D01*
X181217278Y-78905363D01*
X181466716Y-78304648D01*
X181467284Y-77654205D01*
X181398081Y-77486721D01*
X185195401Y-73689401D01*
X185360148Y-73442839D01*
X185418000Y-73152000D01*
X185418000Y-72310648D01*
X185717670Y-72110415D01*
X185928000Y-71795634D01*
X186138330Y-72110415D01*
X186438000Y-72310648D01*
X186438000Y-74930000D01*
X186495852Y-75220839D01*
X186660599Y-75467401D01*
X188978000Y-77784802D01*
X188978000Y-81602953D01*
X188813057Y-81671106D01*
X188352722Y-82130637D01*
X188259096Y-82356114D01*
X187557210Y-83058000D01*
X188258831Y-83759621D01*
X188351106Y-83982943D01*
X188810637Y-84443278D01*
X189411352Y-84692716D01*
X190061795Y-84693284D01*
X190662943Y-84444894D01*
X191008199Y-84100241D01*
X191350637Y-84443278D01*
X191951352Y-84692716D01*
X192601795Y-84693284D01*
X193202943Y-84444894D01*
X193663278Y-83985363D01*
X193912716Y-83384648D01*
X193913284Y-82734205D01*
X193664894Y-82133057D01*
X193205363Y-81672722D01*
X193038000Y-81603227D01*
X193038000Y-77470000D01*
X192980148Y-77179161D01*
X192980148Y-77179160D01*
X192815401Y-76932599D01*
X190498000Y-74615198D01*
X190498000Y-73124854D01*
X191648356Y-73124854D01*
X191856577Y-73626175D01*
X193041603Y-74063349D01*
X194303722Y-74013755D01*
X195239423Y-73626175D01*
X195447644Y-73124854D01*
X193548000Y-71225210D01*
X191648356Y-73124854D01*
X190498000Y-73124854D01*
X190498000Y-72310648D01*
X190644939Y-72212466D01*
X190787825Y-72557423D01*
X191289146Y-72765644D01*
X193188790Y-70866000D01*
X193174648Y-70851858D01*
X193533858Y-70492648D01*
X193548000Y-70506790D01*
X193562143Y-70492648D01*
X193921353Y-70851858D01*
X193907210Y-70866000D01*
X195806854Y-72765644D01*
X196072167Y-72655448D01*
X195973474Y-72803152D01*
X195859400Y-73376641D01*
X195859400Y-73435359D01*
X195973474Y-74008848D01*
X196298330Y-74495029D01*
X196569172Y-74676000D01*
X196298330Y-74856971D01*
X195973474Y-75343152D01*
X195859400Y-75916641D01*
X195859400Y-75975359D01*
X195973474Y-76548848D01*
X196298330Y-77035029D01*
X196569172Y-77216000D01*
X196298330Y-77396971D01*
X195973474Y-77883152D01*
X195859400Y-78456641D01*
X195859400Y-78515359D01*
X195973474Y-79088848D01*
X196298330Y-79575029D01*
X196569172Y-79756000D01*
X196298330Y-79936971D01*
X195973474Y-80423152D01*
X195859400Y-80996641D01*
X195859400Y-81055359D01*
X195973474Y-81628848D01*
X196298330Y-82115029D01*
X196569172Y-82296000D01*
X196298330Y-82476971D01*
X195973474Y-82963152D01*
X195859400Y-83536641D01*
X195859400Y-83595359D01*
X195973474Y-84168848D01*
X196298330Y-84655029D01*
X196569172Y-84836000D01*
X196298330Y-85016971D01*
X195973474Y-85503152D01*
X195859400Y-86076641D01*
X195859400Y-86135359D01*
X195973474Y-86708848D01*
X196298330Y-87195029D01*
X196569172Y-87376000D01*
X196298330Y-87556971D01*
X195973474Y-88043152D01*
X195859400Y-88616641D01*
X195859400Y-88675359D01*
X195973474Y-89248848D01*
X196298330Y-89735029D01*
X196569172Y-89916000D01*
X196298330Y-90096971D01*
X195973474Y-90583152D01*
X195859400Y-91156641D01*
X195859400Y-91215359D01*
X195973474Y-91788848D01*
X196298330Y-92275029D01*
X196569172Y-92456000D01*
X196298330Y-92636971D01*
X195973474Y-93123152D01*
X195859400Y-93696641D01*
X195859400Y-93755359D01*
X195973474Y-94328848D01*
X196298330Y-94815029D01*
X196569172Y-94996000D01*
X196298330Y-95176971D01*
X195973474Y-95663152D01*
X195859400Y-96236641D01*
X195859400Y-96295359D01*
X195973474Y-96868848D01*
X196298330Y-97355029D01*
X196569172Y-97536000D01*
X196298330Y-97716971D01*
X195973474Y-98203152D01*
X195859400Y-98776641D01*
X195859400Y-98835359D01*
X195973474Y-99408848D01*
X196298330Y-99895029D01*
X196569172Y-100076000D01*
X196298330Y-100256971D01*
X195973474Y-100743152D01*
X195859400Y-101316641D01*
X195859400Y-101375359D01*
X195973474Y-101948848D01*
X196298330Y-102435029D01*
X196569172Y-102616000D01*
X196298330Y-102796971D01*
X195973474Y-103283152D01*
X195859400Y-103856641D01*
X195859400Y-103915359D01*
X195973474Y-104488848D01*
X196298330Y-104975029D01*
X196569172Y-105156000D01*
X196298330Y-105336971D01*
X195973474Y-105823152D01*
X195859400Y-106396641D01*
X195859400Y-106455359D01*
X195973474Y-107028848D01*
X196298330Y-107515029D01*
X196569172Y-107696000D01*
X196298330Y-107876971D01*
X195973474Y-108363152D01*
X195859400Y-108936641D01*
X195859400Y-108995359D01*
X195973474Y-109568848D01*
X196298330Y-110055029D01*
X196569172Y-110236000D01*
X196298330Y-110416971D01*
X195973474Y-110903152D01*
X195859400Y-111476641D01*
X195859400Y-111535359D01*
X195973474Y-112108848D01*
X196298330Y-112595029D01*
X196311265Y-112603672D01*
X196306010Y-112634799D01*
X197358000Y-113686790D01*
X197372142Y-113672647D01*
X197731353Y-114031858D01*
X197717210Y-114046000D01*
X197731353Y-114060142D01*
X197372142Y-114419353D01*
X197358000Y-114405210D01*
X196306010Y-115457201D01*
X196370237Y-115837670D01*
X197131068Y-116079288D01*
X197926448Y-116011356D01*
X198345763Y-115837670D01*
X198409990Y-115457203D01*
X198623312Y-115670526D01*
X198691300Y-115602538D01*
X198933519Y-115805624D01*
X199332275Y-115970779D01*
X199142278Y-115978245D01*
X198206577Y-116365825D01*
X197998356Y-116867146D01*
X199898000Y-118766790D01*
X201797644Y-116867146D01*
X201589423Y-116365825D01*
X200489573Y-115960074D01*
X200862481Y-115805624D01*
X201462443Y-115302590D01*
X201824233Y-114608251D01*
X201602723Y-114300000D01*
X200152000Y-114300000D01*
X200152000Y-114320000D01*
X199644000Y-114320000D01*
X199644000Y-114300000D01*
X199624000Y-114300000D01*
X199624000Y-113792000D01*
X199644000Y-113792000D01*
X199644000Y-113772000D01*
X200152000Y-113772000D01*
X200152000Y-113792000D01*
X201602723Y-113792000D01*
X201824233Y-113483749D01*
X201462443Y-112789410D01*
X201055673Y-112448357D01*
X201282526Y-112108848D01*
X201396600Y-111535359D01*
X201396600Y-111476641D01*
X201282526Y-110903152D01*
X200957670Y-110416971D01*
X200686828Y-110236000D01*
X200957670Y-110055029D01*
X201282526Y-109568848D01*
X201396600Y-108995359D01*
X201396600Y-108936641D01*
X201282526Y-108363152D01*
X200957670Y-107876971D01*
X200686828Y-107696000D01*
X200957670Y-107515029D01*
X201282526Y-107028848D01*
X201396600Y-106455359D01*
X201396600Y-106396641D01*
X201282526Y-105823152D01*
X200957670Y-105336971D01*
X200686828Y-105156000D01*
X200957670Y-104975029D01*
X201282526Y-104488848D01*
X201396600Y-103915359D01*
X201396600Y-103856641D01*
X201282526Y-103283152D01*
X200957670Y-102796971D01*
X200686828Y-102616000D01*
X200957670Y-102435029D01*
X201282526Y-101948848D01*
X201396600Y-101375359D01*
X201396600Y-101316641D01*
X201282526Y-100743152D01*
X200957670Y-100256971D01*
X200686828Y-100076000D01*
X200957670Y-99895029D01*
X201282526Y-99408848D01*
X201396600Y-98835359D01*
X201396600Y-98776641D01*
X201282526Y-98203152D01*
X200957670Y-97716971D01*
X200686828Y-97536000D01*
X200957670Y-97355029D01*
X201282526Y-96868848D01*
X201396600Y-96295359D01*
X201396600Y-96236641D01*
X201282526Y-95663152D01*
X200957670Y-95176971D01*
X200686828Y-94996000D01*
X200957670Y-94815029D01*
X201282526Y-94328848D01*
X201396600Y-93755359D01*
X201396600Y-93696641D01*
X201282526Y-93123152D01*
X200957670Y-92636971D01*
X200686828Y-92456000D01*
X200957670Y-92275029D01*
X201282526Y-91788848D01*
X201396600Y-91215359D01*
X201396600Y-91156641D01*
X201282526Y-90583152D01*
X200957670Y-90096971D01*
X200686828Y-89916000D01*
X200957670Y-89735029D01*
X201282526Y-89248848D01*
X201396600Y-88675359D01*
X201396600Y-88616641D01*
X201282526Y-88043152D01*
X200957670Y-87556971D01*
X200686828Y-87376000D01*
X200957670Y-87195029D01*
X201282526Y-86708848D01*
X201396600Y-86135359D01*
X201396600Y-86076641D01*
X201282526Y-85503152D01*
X200957670Y-85016971D01*
X200686828Y-84836000D01*
X200957670Y-84655029D01*
X201282526Y-84168848D01*
X201396600Y-83595359D01*
X201396600Y-83536641D01*
X201282526Y-82963152D01*
X200957670Y-82476971D01*
X200686828Y-82296000D01*
X200957670Y-82115029D01*
X201282526Y-81628848D01*
X201396600Y-81055359D01*
X201396600Y-80996641D01*
X201282526Y-80423152D01*
X200957670Y-79936971D01*
X200686828Y-79756000D01*
X200957670Y-79575029D01*
X201282526Y-79088848D01*
X201396600Y-78515359D01*
X201396600Y-78456641D01*
X201282526Y-77883152D01*
X200957670Y-77396971D01*
X200686828Y-77216000D01*
X200957670Y-77035029D01*
X201282526Y-76548848D01*
X201396600Y-75975359D01*
X201396600Y-75916641D01*
X201282526Y-75343152D01*
X200957670Y-74856971D01*
X200686828Y-74676000D01*
X200957670Y-74495029D01*
X201282526Y-74008848D01*
X201396600Y-73435359D01*
X201396600Y-73376641D01*
X201282526Y-72803152D01*
X200957670Y-72316971D01*
X200686828Y-72136000D01*
X200957670Y-71955029D01*
X201282526Y-71468848D01*
X201396600Y-70895359D01*
X201396600Y-70836641D01*
X201394626Y-70826717D01*
X201728000Y-71160091D01*
X201728000Y-81026000D01*
X201782046Y-81297705D01*
X201935954Y-81528046D01*
X204268000Y-83860091D01*
X204268000Y-117561909D01*
X203061403Y-118768505D01*
X203045755Y-118370278D01*
X202658175Y-117434577D01*
X202156854Y-117226356D01*
X200257210Y-119126000D01*
X200271353Y-119140143D01*
X199912143Y-119499353D01*
X199898000Y-119485210D01*
X199883858Y-119499353D01*
X199524648Y-119140143D01*
X199538790Y-119126000D01*
X197639146Y-117226356D01*
X197137825Y-117434577D01*
X196700651Y-118619603D01*
X196750245Y-119881722D01*
X197137825Y-120817423D01*
X197471468Y-120956000D01*
X147651765Y-120956000D01*
X148164614Y-120454795D01*
X148524511Y-120695271D01*
X149098000Y-120809345D01*
X149671489Y-120695271D01*
X150157670Y-120370415D01*
X150482526Y-119884234D01*
X150596600Y-119310745D01*
X150596600Y-119064240D01*
X150719585Y-118941255D01*
X152679400Y-118941255D01*
X152679400Y-119310745D01*
X152793474Y-119884234D01*
X153118330Y-120370415D01*
X153604511Y-120695271D01*
X154178000Y-120809345D01*
X154751489Y-120695271D01*
X155237670Y-120370415D01*
X155448000Y-120055634D01*
X155658330Y-120370415D01*
X156144511Y-120695271D01*
X156718000Y-120809345D01*
X157291489Y-120695271D01*
X157777670Y-120370415D01*
X157988000Y-120055634D01*
X158198330Y-120370415D01*
X158684511Y-120695271D01*
X159258000Y-120809345D01*
X159831489Y-120695271D01*
X160317670Y-120370415D01*
X160528000Y-120055634D01*
X160738330Y-120370415D01*
X161224511Y-120695271D01*
X161798000Y-120809345D01*
X162371489Y-120695271D01*
X162857670Y-120370415D01*
X163068000Y-120055634D01*
X163278330Y-120370415D01*
X163764511Y-120695271D01*
X164338000Y-120809345D01*
X164911489Y-120695271D01*
X165397670Y-120370415D01*
X165608000Y-120055634D01*
X165818330Y-120370415D01*
X166304511Y-120695271D01*
X166878000Y-120809345D01*
X167451489Y-120695271D01*
X167937670Y-120370415D01*
X168148000Y-120055634D01*
X168358330Y-120370415D01*
X168844511Y-120695271D01*
X169418000Y-120809345D01*
X169991489Y-120695271D01*
X170477670Y-120370415D01*
X170688000Y-120055634D01*
X170898330Y-120370415D01*
X171384511Y-120695271D01*
X171958000Y-120809345D01*
X172531489Y-120695271D01*
X173017670Y-120370415D01*
X173342526Y-119884234D01*
X173456600Y-119310745D01*
X173456600Y-118941255D01*
X175539400Y-118941255D01*
X175539400Y-119310745D01*
X175653474Y-119884234D01*
X175978330Y-120370415D01*
X176464511Y-120695271D01*
X177038000Y-120809345D01*
X177611489Y-120695271D01*
X178097670Y-120370415D01*
X178308000Y-120055634D01*
X178518330Y-120370415D01*
X179004511Y-120695271D01*
X179578000Y-120809345D01*
X180151489Y-120695271D01*
X180637670Y-120370415D01*
X180848000Y-120055634D01*
X181058330Y-120370415D01*
X181544511Y-120695271D01*
X182118000Y-120809345D01*
X182691489Y-120695271D01*
X183177670Y-120370415D01*
X183388000Y-120055634D01*
X183598330Y-120370415D01*
X184084511Y-120695271D01*
X184658000Y-120809345D01*
X185231489Y-120695271D01*
X185717670Y-120370415D01*
X185928000Y-120055634D01*
X186138330Y-120370415D01*
X186624511Y-120695271D01*
X187198000Y-120809345D01*
X187771489Y-120695271D01*
X188257670Y-120370415D01*
X188468000Y-120055634D01*
X188678330Y-120370415D01*
X189164511Y-120695271D01*
X189738000Y-120809345D01*
X190311489Y-120695271D01*
X190797670Y-120370415D01*
X191008000Y-120055634D01*
X191218330Y-120370415D01*
X191704511Y-120695271D01*
X192278000Y-120809345D01*
X192851489Y-120695271D01*
X193337670Y-120370415D01*
X193548000Y-120055634D01*
X193758330Y-120370415D01*
X194244511Y-120695271D01*
X194818000Y-120809345D01*
X195391489Y-120695271D01*
X195877670Y-120370415D01*
X196202526Y-119884234D01*
X196316600Y-119310745D01*
X196316600Y-118941255D01*
X196202526Y-118367766D01*
X195877670Y-117881585D01*
X195391489Y-117556729D01*
X194818000Y-117442655D01*
X194244511Y-117556729D01*
X193758330Y-117881585D01*
X193548000Y-118196366D01*
X193337670Y-117881585D01*
X192851489Y-117556729D01*
X192278000Y-117442655D01*
X191704511Y-117556729D01*
X191218330Y-117881585D01*
X191008000Y-118196366D01*
X190797670Y-117881585D01*
X190311489Y-117556729D01*
X189738000Y-117442655D01*
X189164511Y-117556729D01*
X188678330Y-117881585D01*
X188468000Y-118196366D01*
X188257670Y-117881585D01*
X187771489Y-117556729D01*
X187198000Y-117442655D01*
X186624511Y-117556729D01*
X186138330Y-117881585D01*
X185928000Y-118196366D01*
X185717670Y-117881585D01*
X185231489Y-117556729D01*
X184658000Y-117442655D01*
X184084511Y-117556729D01*
X183598330Y-117881585D01*
X183388000Y-118196366D01*
X183177670Y-117881585D01*
X182691489Y-117556729D01*
X182118000Y-117442655D01*
X181544511Y-117556729D01*
X181058330Y-117881585D01*
X180848000Y-118196366D01*
X180637670Y-117881585D01*
X180151489Y-117556729D01*
X179578000Y-117442655D01*
X179004511Y-117556729D01*
X178518330Y-117881585D01*
X178308000Y-118196366D01*
X178097670Y-117881585D01*
X177611489Y-117556729D01*
X177038000Y-117442655D01*
X176464511Y-117556729D01*
X175978330Y-117881585D01*
X175653474Y-118367766D01*
X175539400Y-118941255D01*
X173456600Y-118941255D01*
X173342526Y-118367766D01*
X173017670Y-117881585D01*
X172531489Y-117556729D01*
X171958000Y-117442655D01*
X171384511Y-117556729D01*
X170898330Y-117881585D01*
X170688000Y-118196366D01*
X170477670Y-117881585D01*
X169991489Y-117556729D01*
X169418000Y-117442655D01*
X168844511Y-117556729D01*
X168358330Y-117881585D01*
X168148000Y-118196366D01*
X167937670Y-117881585D01*
X167451489Y-117556729D01*
X166878000Y-117442655D01*
X166304511Y-117556729D01*
X165818330Y-117881585D01*
X165608000Y-118196366D01*
X165397670Y-117881585D01*
X164911489Y-117556729D01*
X164338000Y-117442655D01*
X163764511Y-117556729D01*
X163278330Y-117881585D01*
X163068000Y-118196366D01*
X162857670Y-117881585D01*
X162371489Y-117556729D01*
X161798000Y-117442655D01*
X161224511Y-117556729D01*
X160738330Y-117881585D01*
X160528000Y-118196366D01*
X160317670Y-117881585D01*
X159831489Y-117556729D01*
X159258000Y-117442655D01*
X158684511Y-117556729D01*
X158198330Y-117881585D01*
X157988000Y-118196366D01*
X157777670Y-117881585D01*
X157291489Y-117556729D01*
X156718000Y-117442655D01*
X156144511Y-117556729D01*
X155658330Y-117881585D01*
X155448000Y-118196366D01*
X155237670Y-117881585D01*
X154751489Y-117556729D01*
X154178000Y-117442655D01*
X153604511Y-117556729D01*
X153118330Y-117881585D01*
X152793474Y-118367766D01*
X152679400Y-118941255D01*
X150719585Y-118941255D01*
X153355986Y-116304854D01*
X167518356Y-116304854D01*
X167726577Y-116806175D01*
X168911603Y-117243349D01*
X170173722Y-117193755D01*
X171109423Y-116806175D01*
X171317644Y-116304854D01*
X169418000Y-114405210D01*
X167518356Y-116304854D01*
X153355986Y-116304854D01*
X156121237Y-113539603D01*
X166220651Y-113539603D01*
X166270245Y-114801722D01*
X166657825Y-115737423D01*
X167159146Y-115945644D01*
X169058790Y-114046000D01*
X169777210Y-114046000D01*
X171676854Y-115945644D01*
X172178175Y-115737423D01*
X172615349Y-114552397D01*
X172586534Y-113819068D01*
X195324712Y-113819068D01*
X195392644Y-114614448D01*
X195566330Y-115033763D01*
X195946799Y-115097990D01*
X196998790Y-114046000D01*
X195946799Y-112994010D01*
X195566330Y-113058237D01*
X195324712Y-113819068D01*
X172586534Y-113819068D01*
X172565755Y-113290278D01*
X172178175Y-112354577D01*
X171676854Y-112146356D01*
X169777210Y-114046000D01*
X169058790Y-114046000D01*
X167159146Y-112146356D01*
X166657825Y-112354577D01*
X166220651Y-113539603D01*
X156121237Y-113539603D01*
X157873694Y-111787146D01*
X167518356Y-111787146D01*
X169418000Y-113686790D01*
X171317644Y-111787146D01*
X171109423Y-111285825D01*
X169924397Y-110848651D01*
X168662278Y-110898245D01*
X167726577Y-111285825D01*
X167518356Y-111787146D01*
X157873694Y-111787146D01*
X161710841Y-107950000D01*
X183018560Y-107950000D01*
X183018560Y-108434000D01*
X183062838Y-108669317D01*
X183201910Y-108885441D01*
X183414110Y-109030431D01*
X183666000Y-109081440D01*
X186666000Y-109081440D01*
X186901317Y-109037162D01*
X187117441Y-108898090D01*
X187179303Y-108807551D01*
X188731659Y-108807551D01*
X188874590Y-109253713D01*
X189866699Y-109601951D01*
X190916552Y-109544017D01*
X191617410Y-109253713D01*
X191760341Y-108807551D01*
X190246000Y-107293210D01*
X188731659Y-108807551D01*
X187179303Y-108807551D01*
X187262431Y-108685890D01*
X187313440Y-108434000D01*
X187313440Y-106554699D01*
X187578049Y-106554699D01*
X187635983Y-107604552D01*
X187926287Y-108305410D01*
X188372449Y-108448341D01*
X189886790Y-106934000D01*
X190605210Y-106934000D01*
X192119551Y-108448341D01*
X192565713Y-108305410D01*
X192913951Y-107313301D01*
X192856017Y-106263448D01*
X192565713Y-105562590D01*
X192119551Y-105419659D01*
X190605210Y-106934000D01*
X189886790Y-106934000D01*
X188372449Y-105419659D01*
X187926287Y-105562590D01*
X187578049Y-106554699D01*
X187313440Y-106554699D01*
X187313440Y-105434000D01*
X187269162Y-105198683D01*
X187180211Y-105060449D01*
X188731659Y-105060449D01*
X190246000Y-106574790D01*
X191760341Y-105060449D01*
X191617410Y-104614287D01*
X190625301Y-104266049D01*
X189575448Y-104323983D01*
X188874590Y-104614287D01*
X188731659Y-105060449D01*
X187180211Y-105060449D01*
X187130090Y-104982559D01*
X186917890Y-104837569D01*
X186666000Y-104786560D01*
X183666000Y-104786560D01*
X183430683Y-104830838D01*
X183214559Y-104969910D01*
X183069569Y-105182110D01*
X183018560Y-105434000D01*
X183018560Y-105918000D01*
X161290000Y-105918000D01*
X160965700Y-105982507D01*
X160901193Y-105995338D01*
X160571580Y-106215579D01*
X149303607Y-117483553D01*
X149098000Y-117442655D01*
X148524511Y-117556729D01*
X148164614Y-117797205D01*
X147651471Y-117295713D01*
X147120249Y-117047381D01*
X146812000Y-117271599D01*
X146812000Y-118872000D01*
X146832000Y-118872000D01*
X146832000Y-119380000D01*
X146812000Y-119380000D01*
X146812000Y-119400000D01*
X146304000Y-119400000D01*
X146304000Y-119380000D01*
X144272000Y-119380000D01*
X144272000Y-119400000D01*
X143764000Y-119400000D01*
X143764000Y-119380000D01*
X143744000Y-119380000D01*
X143744000Y-118872000D01*
X143764000Y-118872000D01*
X143764000Y-117271599D01*
X144272000Y-117271599D01*
X144272000Y-118872000D01*
X146304000Y-118872000D01*
X146304000Y-117271599D01*
X145995751Y-117047381D01*
X145464529Y-117295713D01*
X145288000Y-117468234D01*
X145111471Y-117295713D01*
X144580249Y-117047381D01*
X144272000Y-117271599D01*
X143764000Y-117271599D01*
X143455751Y-117047381D01*
X142924529Y-117295713D01*
X142494000Y-117716467D01*
X142494000Y-112942840D01*
X162980841Y-92456000D01*
X171958000Y-92456000D01*
X172282300Y-92391493D01*
X172346807Y-92378662D01*
X172676420Y-92158420D01*
X175216420Y-89618421D01*
X175363581Y-89398179D01*
X175436662Y-89288806D01*
X175514000Y-88900000D01*
X175514000Y-84702429D01*
X175733317Y-84661162D01*
X175949441Y-84522090D01*
X176094431Y-84309890D01*
X176142200Y-84074000D01*
X178187571Y-84074000D01*
X178228838Y-84293317D01*
X178367910Y-84509441D01*
X178580110Y-84654431D01*
X178832000Y-84705440D01*
X180832000Y-84705440D01*
X181067317Y-84661162D01*
X181283441Y-84522090D01*
X181428431Y-84309890D01*
X181476200Y-84074000D01*
X183013571Y-84074000D01*
X183054838Y-84293317D01*
X183193910Y-84509441D01*
X183406110Y-84654431D01*
X183658000Y-84705440D01*
X185658000Y-84705440D01*
X185742942Y-84689457D01*
X185834349Y-84780864D01*
X186046709Y-84568504D01*
X186127896Y-84963002D01*
X186938366Y-85227503D01*
X187788362Y-85161716D01*
X188268104Y-84963002D01*
X188349292Y-84568502D01*
X187198000Y-83417210D01*
X187183858Y-83431353D01*
X186824648Y-83072143D01*
X186838790Y-83058000D01*
X186824648Y-83043858D01*
X187183858Y-82684648D01*
X187198000Y-82698790D01*
X188349292Y-81547498D01*
X188268104Y-81152998D01*
X187457634Y-80888497D01*
X186607638Y-80954284D01*
X186127896Y-81152998D01*
X186046709Y-81547496D01*
X185834349Y-81335136D01*
X185741929Y-81427556D01*
X185658000Y-81410560D01*
X183658000Y-81410560D01*
X183422683Y-81454838D01*
X183206559Y-81593910D01*
X183061569Y-81806110D01*
X183013800Y-82042000D01*
X181476429Y-82042000D01*
X181463457Y-81973058D01*
X181554864Y-81881651D01*
X181342504Y-81669291D01*
X181737002Y-81588104D01*
X182001503Y-80777634D01*
X181935716Y-79927638D01*
X181737002Y-79447896D01*
X181342502Y-79366708D01*
X180191210Y-80518000D01*
X180205353Y-80532143D01*
X179846143Y-80891353D01*
X179832000Y-80877210D01*
X179817858Y-80891353D01*
X179458648Y-80532143D01*
X179472790Y-80518000D01*
X178321498Y-79366708D01*
X177926998Y-79447896D01*
X177662497Y-80258366D01*
X177728284Y-81108362D01*
X177926998Y-81588104D01*
X178321496Y-81669291D01*
X178109136Y-81881651D01*
X178201556Y-81974071D01*
X178187800Y-82042000D01*
X176142429Y-82042000D01*
X176129457Y-81973058D01*
X176220864Y-81881651D01*
X176008504Y-81669291D01*
X176403002Y-81588104D01*
X176667503Y-80777634D01*
X176601716Y-79927638D01*
X176403002Y-79447896D01*
X176008502Y-79366708D01*
X174857210Y-80518000D01*
X174871353Y-80532143D01*
X174512143Y-80891353D01*
X174498000Y-80877210D01*
X174483858Y-80891353D01*
X174124648Y-80532143D01*
X174138790Y-80518000D01*
X172987498Y-79366708D01*
X172592998Y-79447896D01*
X172328497Y-80258366D01*
X172394284Y-81108362D01*
X172592998Y-81588104D01*
X172987496Y-81669291D01*
X172775136Y-81881651D01*
X172867556Y-81974071D01*
X172850560Y-82058000D01*
X172850560Y-84058000D01*
X172894838Y-84293317D01*
X173033910Y-84509441D01*
X173246110Y-84654431D01*
X173482000Y-84702200D01*
X173482000Y-88479159D01*
X171537160Y-90424000D01*
X162560000Y-90424000D01*
X162171194Y-90501338D01*
X162171192Y-90501339D01*
X162171193Y-90501339D01*
X161841579Y-90721580D01*
X140759580Y-111803580D01*
X140539338Y-112133193D01*
X140539338Y-112133194D01*
X140462000Y-112522000D01*
X140462000Y-117852406D01*
X140418330Y-117881585D01*
X140208000Y-118196366D01*
X139997670Y-117881585D01*
X139511489Y-117556729D01*
X138938000Y-117442655D01*
X138364511Y-117556729D01*
X137878330Y-117881585D01*
X137668000Y-118196366D01*
X137457670Y-117881585D01*
X136971489Y-117556729D01*
X136398000Y-117442655D01*
X135824511Y-117556729D01*
X135338330Y-117881585D01*
X135128000Y-118196366D01*
X134917670Y-117881585D01*
X134431489Y-117556729D01*
X133858000Y-117442655D01*
X133284511Y-117556729D01*
X132798330Y-117881585D01*
X132588000Y-118196366D01*
X132377670Y-117881585D01*
X131891489Y-117556729D01*
X131318000Y-117442655D01*
X130744511Y-117556729D01*
X130258330Y-117881585D01*
X129933474Y-118367766D01*
X129819400Y-118941255D01*
X129819400Y-119310745D01*
X129933474Y-119884234D01*
X130258330Y-120370415D01*
X130744511Y-120695271D01*
X131318000Y-120809345D01*
X131891489Y-120695271D01*
X132377670Y-120370415D01*
X132588000Y-120055634D01*
X132798330Y-120370415D01*
X133284511Y-120695271D01*
X133858000Y-120809345D01*
X134431489Y-120695271D01*
X134917670Y-120370415D01*
X135128000Y-120055634D01*
X135338330Y-120370415D01*
X135824511Y-120695271D01*
X136398000Y-120809345D01*
X136971489Y-120695271D01*
X137457670Y-120370415D01*
X137668000Y-120055634D01*
X137878330Y-120370415D01*
X138364511Y-120695271D01*
X138938000Y-120809345D01*
X139511489Y-120695271D01*
X139997670Y-120370415D01*
X140208000Y-120055634D01*
X140418330Y-120370415D01*
X140904511Y-120695271D01*
X141478000Y-120809345D01*
X142051489Y-120695271D01*
X142411386Y-120454795D01*
X142924235Y-120956000D01*
X119774532Y-120956000D01*
X120108175Y-120817423D01*
X120545349Y-119632397D01*
X120495755Y-118370278D01*
X120108175Y-117434577D01*
X119606854Y-117226356D01*
X117707210Y-119126000D01*
X117721353Y-119140143D01*
X117362143Y-119499353D01*
X117348000Y-119485210D01*
X117333858Y-119499353D01*
X116974648Y-119140143D01*
X116988790Y-119126000D01*
X115089146Y-117226356D01*
X114587825Y-117434577D01*
X114150651Y-118619603D01*
X114200245Y-119881722D01*
X114587825Y-120817423D01*
X114921468Y-120956000D01*
X104088000Y-120956000D01*
X104088000Y-116867146D01*
X115448356Y-116867146D01*
X117348000Y-118766790D01*
X119247644Y-116867146D01*
X119039423Y-116365825D01*
X117854397Y-115928651D01*
X116592278Y-115978245D01*
X115656577Y-116365825D01*
X115448356Y-116867146D01*
X104088000Y-116867146D01*
X104088000Y-88364854D01*
X167518356Y-88364854D01*
X167726577Y-88866175D01*
X168911603Y-89303349D01*
X170173722Y-89253755D01*
X171109423Y-88866175D01*
X171317644Y-88364854D01*
X169418000Y-86465210D01*
X167518356Y-88364854D01*
X104088000Y-88364854D01*
X104088000Y-85599603D01*
X166220651Y-85599603D01*
X166270245Y-86861722D01*
X166657825Y-87797423D01*
X167159146Y-88005644D01*
X169058790Y-86106000D01*
X169777210Y-86106000D01*
X171676854Y-88005644D01*
X172178175Y-87797423D01*
X172615349Y-86612397D01*
X172565755Y-85350278D01*
X172178175Y-84414577D01*
X171676854Y-84206356D01*
X169777210Y-86106000D01*
X169058790Y-86106000D01*
X167159146Y-84206356D01*
X166657825Y-84414577D01*
X166220651Y-85599603D01*
X104088000Y-85599603D01*
X104088000Y-83847146D01*
X167518356Y-83847146D01*
X169418000Y-85746790D01*
X171317644Y-83847146D01*
X171109423Y-83345825D01*
X169924397Y-82908651D01*
X168662278Y-82958245D01*
X167726577Y-83345825D01*
X167518356Y-83847146D01*
X104088000Y-83847146D01*
X104088000Y-73124854D01*
X116718356Y-73124854D01*
X116926577Y-73626175D01*
X118111603Y-74063349D01*
X119373722Y-74013755D01*
X120309423Y-73626175D01*
X120517644Y-73124854D01*
X118618000Y-71225210D01*
X116718356Y-73124854D01*
X104088000Y-73124854D01*
X104088000Y-69036000D01*
X116191468Y-69036000D01*
X115857825Y-69174577D01*
M02*
