M48
;DRILL file {KiCad 4.0.7} date 03/31/18 16:11:38
;FORMAT={-:-/ absolute / inch / decimal}
FMAT,2
INCH,TZ
T1C0.037
T2C0.040
T3C0.060
T4C0.120
%
G90
G05
M72
T1
X6.87Y-2.97
X6.87Y-3.07
X6.87Y-3.17
X6.87Y-3.27
X7.08Y-2.97
X7.08Y-3.07
X7.08Y-3.17
X7.08Y-3.27
X7.27Y-3.27
X7.37Y-3.27
X7.47Y-3.27
X7.57Y-3.27
T2
X4.81Y-2.79
X4.91Y-2.79
X5.01Y-2.79
X5.11Y-2.79
X5.17Y-4.69
X5.21Y-2.79
X5.27Y-4.69
X5.31Y-2.79
X5.37Y-4.69
X5.41Y-2.79
X5.47Y-4.69
X5.51Y-2.79
X5.57Y-4.69
X5.61Y-2.79
X5.67Y-4.69
X5.71Y-2.79
X5.77Y-4.69
X5.87Y-2.79
X5.87Y-4.69
X5.97Y-2.79
X6.07Y-2.79
X6.07Y-4.69
X6.17Y-2.79
X6.17Y-4.69
X6.27Y-2.79
X6.27Y-4.69
X6.37Y-2.79
X6.37Y-4.69
X6.47Y-2.79
X6.47Y-4.69
X6.57Y-2.79
X6.57Y-4.69
X6.67Y-4.69
X6.77Y-2.79
X6.77Y-4.69
X6.87Y-2.79
X6.97Y-2.79
X6.97Y-4.69
X7.07Y-2.79
X7.07Y-4.69
X7.17Y-2.79
X7.17Y-4.69
X7.27Y-2.79
X7.27Y-4.69
X7.37Y-2.79
X7.37Y-4.69
X7.47Y-2.79
X7.47Y-4.69
X7.57Y-4.69
X7.67Y-4.69
X7.77Y-2.79
X7.77Y-2.89
X7.77Y-2.99
X7.77Y-3.09
X7.77Y-3.19
X7.77Y-3.29
X7.77Y-3.39
X7.77Y-3.49
X7.77Y-3.59
X7.77Y-3.69
X7.77Y-3.79
X7.77Y-3.89
X7.77Y-3.99
X7.77Y-4.09
X7.77Y-4.19
X7.77Y-4.29
X7.77Y-4.39
X7.77Y-4.49
X7.87Y-2.79
X7.87Y-2.89
X7.87Y-2.99
X7.87Y-3.09
X7.87Y-3.19
X7.87Y-3.29
X7.87Y-3.39
X7.87Y-3.49
X7.87Y-3.59
X7.87Y-3.69
X7.87Y-3.79
X7.87Y-3.89
X7.87Y-3.99
X7.87Y-4.09
X7.87Y-4.19
X7.87Y-4.29
X7.87Y-4.39
X7.87Y-4.49
T3
X7.29Y-4.21
X7.49Y-4.21
T4
X4.67Y-2.79
X6.67Y-3.39
X6.67Y-4.49
X7.62Y-2.79
X7.87Y-4.69
T0
M30
