G04 #@! TF.FileFunction,Legend,Top*
%FSLAX46Y46*%
G04 Gerber Fmt 4.6, Leading zero omitted, Abs format (unit mm)*
G04 Created by KiCad (PCBNEW 4.0.7) date 03/21/18 23:26:52*
%MOMM*%
%LPD*%
G01*
G04 APERTURE LIST*
%ADD10C,0.100000*%
%ADD11C,0.150000*%
%ADD12C,0.300000*%
%ADD13C,0.190500*%
%ADD14C,0.120000*%
G04 APERTURE END LIST*
D10*
D11*
X175768000Y-88646000D02*
X173228000Y-88646000D01*
X175768000Y-99568000D02*
X175768000Y-88646000D01*
X173228000Y-99568000D02*
X175768000Y-99568000D01*
X173228000Y-88646000D02*
X173228000Y-99568000D01*
X175768000Y-98298000D02*
G75*
G03X175768000Y-98298000I-1270000J0D01*
G01*
X175768000Y-95504000D02*
G75*
G03X175768000Y-95504000I-1270000J0D01*
G01*
X175768000Y-92710000D02*
G75*
G03X175768000Y-92710000I-1270000J0D01*
G01*
X175768000Y-89916000D02*
G75*
G03X175768000Y-89916000I-1270000J0D01*
G01*
D12*
X170858571Y-110647428D02*
X169358571Y-110647428D01*
X170430000Y-110147428D01*
X169358571Y-109647428D01*
X170858571Y-109647428D01*
X170858571Y-108718856D02*
X170787143Y-108861714D01*
X170715714Y-108933142D01*
X170572857Y-109004571D01*
X170144286Y-109004571D01*
X170001429Y-108933142D01*
X169930000Y-108861714D01*
X169858571Y-108718856D01*
X169858571Y-108504571D01*
X169930000Y-108361714D01*
X170001429Y-108290285D01*
X170144286Y-108218856D01*
X170572857Y-108218856D01*
X170715714Y-108290285D01*
X170787143Y-108361714D01*
X170858571Y-108504571D01*
X170858571Y-108718856D01*
X169858571Y-107790285D02*
X169858571Y-107218856D01*
X169358571Y-107575999D02*
X170644286Y-107575999D01*
X170787143Y-107504571D01*
X170858571Y-107361713D01*
X170858571Y-107218856D01*
X170858571Y-106504570D02*
X170787143Y-106647428D01*
X170715714Y-106718856D01*
X170572857Y-106790285D01*
X170144286Y-106790285D01*
X170001429Y-106718856D01*
X169930000Y-106647428D01*
X169858571Y-106504570D01*
X169858571Y-106290285D01*
X169930000Y-106147428D01*
X170001429Y-106075999D01*
X170144286Y-106004570D01*
X170572857Y-106004570D01*
X170715714Y-106075999D01*
X170787143Y-106147428D01*
X170858571Y-106290285D01*
X170858571Y-106504570D01*
X170858571Y-105361713D02*
X169858571Y-105361713D01*
X170144286Y-105361713D02*
X170001429Y-105290285D01*
X169930000Y-105218856D01*
X169858571Y-105075999D01*
X169858571Y-104933142D01*
X170787143Y-103361714D02*
X170858571Y-103147428D01*
X170858571Y-102790285D01*
X170787143Y-102647428D01*
X170715714Y-102575999D01*
X170572857Y-102504571D01*
X170430000Y-102504571D01*
X170287143Y-102575999D01*
X170215714Y-102647428D01*
X170144286Y-102790285D01*
X170072857Y-103075999D01*
X170001429Y-103218857D01*
X169930000Y-103290285D01*
X169787143Y-103361714D01*
X169644286Y-103361714D01*
X169501429Y-103290285D01*
X169430000Y-103218857D01*
X169358571Y-103075999D01*
X169358571Y-102718857D01*
X169430000Y-102504571D01*
X170858571Y-101861714D02*
X169358571Y-101861714D01*
X170858571Y-101218857D02*
X170072857Y-101218857D01*
X169930000Y-101290286D01*
X169858571Y-101433143D01*
X169858571Y-101647428D01*
X169930000Y-101790286D01*
X170001429Y-101861714D01*
X170858571Y-100504571D02*
X169858571Y-100504571D01*
X169358571Y-100504571D02*
X169430000Y-100576000D01*
X169501429Y-100504571D01*
X169430000Y-100433143D01*
X169358571Y-100504571D01*
X169501429Y-100504571D01*
X170787143Y-99218857D02*
X170858571Y-99361714D01*
X170858571Y-99647428D01*
X170787143Y-99790285D01*
X170644286Y-99861714D01*
X170072857Y-99861714D01*
X169930000Y-99790285D01*
X169858571Y-99647428D01*
X169858571Y-99361714D01*
X169930000Y-99218857D01*
X170072857Y-99147428D01*
X170215714Y-99147428D01*
X170358571Y-99861714D01*
X170858571Y-98290285D02*
X170787143Y-98433143D01*
X170644286Y-98504571D01*
X169358571Y-98504571D01*
X170858571Y-97076000D02*
X169358571Y-97076000D01*
X170787143Y-97076000D02*
X170858571Y-97218857D01*
X170858571Y-97504571D01*
X170787143Y-97647429D01*
X170715714Y-97718857D01*
X170572857Y-97790286D01*
X170144286Y-97790286D01*
X170001429Y-97718857D01*
X169930000Y-97647429D01*
X169858571Y-97504571D01*
X169858571Y-97218857D01*
X169930000Y-97076000D01*
X170430000Y-95290286D02*
X170430000Y-94576000D01*
X170858571Y-95433143D02*
X169358571Y-94933143D01*
X170858571Y-94433143D01*
X170858571Y-93933143D02*
X169358571Y-93933143D01*
X169930000Y-93933143D02*
X169858571Y-93790286D01*
X169858571Y-93504572D01*
X169930000Y-93361715D01*
X170001429Y-93290286D01*
X170144286Y-93218857D01*
X170572857Y-93218857D01*
X170715714Y-93290286D01*
X170787143Y-93361715D01*
X170858571Y-93504572D01*
X170858571Y-93790286D01*
X170787143Y-93933143D01*
X170858571Y-92361714D02*
X170787143Y-92504572D01*
X170715714Y-92576000D01*
X170572857Y-92647429D01*
X170144286Y-92647429D01*
X170001429Y-92576000D01*
X169930000Y-92504572D01*
X169858571Y-92361714D01*
X169858571Y-92147429D01*
X169930000Y-92004572D01*
X170001429Y-91933143D01*
X170144286Y-91861714D01*
X170572857Y-91861714D01*
X170715714Y-91933143D01*
X170787143Y-92004572D01*
X170858571Y-92147429D01*
X170858571Y-92361714D01*
X169858571Y-91361714D02*
X170858571Y-91004571D01*
X169858571Y-90647429D01*
X170787143Y-89504572D02*
X170858571Y-89647429D01*
X170858571Y-89933143D01*
X170787143Y-90076000D01*
X170644286Y-90147429D01*
X170072857Y-90147429D01*
X169930000Y-90076000D01*
X169858571Y-89933143D01*
X169858571Y-89647429D01*
X169930000Y-89504572D01*
X170072857Y-89433143D01*
X170215714Y-89433143D01*
X170358571Y-90147429D01*
D11*
X169418000Y-69850000D02*
X167894000Y-68326000D01*
X169418000Y-81280000D02*
X169418000Y-69850000D01*
X171958000Y-83820000D02*
X169418000Y-81280000D01*
X171958000Y-116586000D02*
X171958000Y-83820000D01*
X170688000Y-117856000D02*
X171958000Y-116586000D01*
X169418000Y-121666000D02*
X169418000Y-120396000D01*
X177292000Y-87630000D02*
X179070000Y-89408000D01*
D12*
X184852858Y-98952857D02*
X185067144Y-99024286D01*
X185138572Y-99095714D01*
X185210001Y-99238571D01*
X185210001Y-99452857D01*
X185138572Y-99595714D01*
X185067144Y-99667143D01*
X184924286Y-99738571D01*
X184352858Y-99738571D01*
X184352858Y-98238571D01*
X184852858Y-98238571D01*
X184995715Y-98310000D01*
X185067144Y-98381429D01*
X185138572Y-98524286D01*
X185138572Y-98667143D01*
X185067144Y-98810000D01*
X184995715Y-98881429D01*
X184852858Y-98952857D01*
X184352858Y-98952857D01*
X186495715Y-99738571D02*
X186495715Y-98952857D01*
X186424286Y-98810000D01*
X186281429Y-98738571D01*
X185995715Y-98738571D01*
X185852858Y-98810000D01*
X186495715Y-99667143D02*
X186352858Y-99738571D01*
X185995715Y-99738571D01*
X185852858Y-99667143D01*
X185781429Y-99524286D01*
X185781429Y-99381429D01*
X185852858Y-99238571D01*
X185995715Y-99167143D01*
X186352858Y-99167143D01*
X186495715Y-99095714D01*
X186995715Y-98738571D02*
X187567144Y-98738571D01*
X187210001Y-98238571D02*
X187210001Y-99524286D01*
X187281429Y-99667143D01*
X187424287Y-99738571D01*
X187567144Y-99738571D01*
X187852858Y-98738571D02*
X188424287Y-98738571D01*
X188067144Y-98238571D02*
X188067144Y-99524286D01*
X188138572Y-99667143D01*
X188281430Y-99738571D01*
X188424287Y-99738571D01*
X189495715Y-99667143D02*
X189352858Y-99738571D01*
X189067144Y-99738571D01*
X188924287Y-99667143D01*
X188852858Y-99524286D01*
X188852858Y-98952857D01*
X188924287Y-98810000D01*
X189067144Y-98738571D01*
X189352858Y-98738571D01*
X189495715Y-98810000D01*
X189567144Y-98952857D01*
X189567144Y-99095714D01*
X188852858Y-99238571D01*
X190210001Y-99738571D02*
X190210001Y-98738571D01*
X190210001Y-99024286D02*
X190281429Y-98881429D01*
X190352858Y-98810000D01*
X190495715Y-98738571D01*
X190638572Y-98738571D01*
X190995715Y-98738571D02*
X191352858Y-99738571D01*
X191710000Y-98738571D02*
X191352858Y-99738571D01*
X191210000Y-100095714D01*
X191138572Y-100167143D01*
X190995715Y-100238571D01*
X189674572Y-101707143D02*
X190817429Y-101707143D01*
X184594572Y-101707143D02*
X185737429Y-101707143D01*
X185166000Y-102278571D02*
X185166000Y-101135714D01*
D11*
X180086000Y-90678000D02*
X190246000Y-90678000D01*
D12*
X180451715Y-89544857D02*
X180951715Y-89544857D01*
X181166001Y-90330571D02*
X180451715Y-90330571D01*
X180451715Y-88830571D01*
X181166001Y-88830571D01*
X181808858Y-89330571D02*
X181808858Y-90330571D01*
X181808858Y-89473429D02*
X181880286Y-89402000D01*
X182023144Y-89330571D01*
X182237429Y-89330571D01*
X182380286Y-89402000D01*
X182451715Y-89544857D01*
X182451715Y-90330571D01*
X183808858Y-90259143D02*
X183666001Y-90330571D01*
X183380287Y-90330571D01*
X183237429Y-90259143D01*
X183166001Y-90187714D01*
X183094572Y-90044857D01*
X183094572Y-89616286D01*
X183166001Y-89473429D01*
X183237429Y-89402000D01*
X183380287Y-89330571D01*
X183666001Y-89330571D01*
X183808858Y-89402000D01*
X184666001Y-90330571D02*
X184523143Y-90259143D01*
X184451715Y-90187714D01*
X184380286Y-90044857D01*
X184380286Y-89616286D01*
X184451715Y-89473429D01*
X184523143Y-89402000D01*
X184666001Y-89330571D01*
X184880286Y-89330571D01*
X185023143Y-89402000D01*
X185094572Y-89473429D01*
X185166001Y-89616286D01*
X185166001Y-90044857D01*
X185094572Y-90187714D01*
X185023143Y-90259143D01*
X184880286Y-90330571D01*
X184666001Y-90330571D01*
X186451715Y-90330571D02*
X186451715Y-88830571D01*
X186451715Y-90259143D02*
X186308858Y-90330571D01*
X186023144Y-90330571D01*
X185880286Y-90259143D01*
X185808858Y-90187714D01*
X185737429Y-90044857D01*
X185737429Y-89616286D01*
X185808858Y-89473429D01*
X185880286Y-89402000D01*
X186023144Y-89330571D01*
X186308858Y-89330571D01*
X186451715Y-89402000D01*
X187737429Y-90259143D02*
X187594572Y-90330571D01*
X187308858Y-90330571D01*
X187166001Y-90259143D01*
X187094572Y-90116286D01*
X187094572Y-89544857D01*
X187166001Y-89402000D01*
X187308858Y-89330571D01*
X187594572Y-89330571D01*
X187737429Y-89402000D01*
X187808858Y-89544857D01*
X187808858Y-89687714D01*
X187094572Y-89830571D01*
X188451715Y-90330571D02*
X188451715Y-89330571D01*
X188451715Y-89616286D02*
X188523143Y-89473429D01*
X188594572Y-89402000D01*
X188737429Y-89330571D01*
X188880286Y-89330571D01*
X189308857Y-90259143D02*
X189451714Y-90330571D01*
X189737429Y-90330571D01*
X189880286Y-90259143D01*
X189951714Y-90116286D01*
X189951714Y-90044857D01*
X189880286Y-89902000D01*
X189737429Y-89830571D01*
X189523143Y-89830571D01*
X189380286Y-89759143D01*
X189308857Y-89616286D01*
X189308857Y-89544857D01*
X189380286Y-89402000D01*
X189523143Y-89330571D01*
X189737429Y-89330571D01*
X189880286Y-89402000D01*
X179094572Y-92880571D02*
X178380286Y-92880571D01*
X178380286Y-91380571D01*
X179594572Y-92737714D02*
X179666000Y-92809143D01*
X179594572Y-92880571D01*
X179523143Y-92809143D01*
X179594572Y-92737714D01*
X179594572Y-92880571D01*
X179594572Y-91952000D02*
X179666000Y-92023429D01*
X179594572Y-92094857D01*
X179523143Y-92023429D01*
X179594572Y-91952000D01*
X179594572Y-92094857D01*
X181380286Y-92452000D02*
X182094572Y-92452000D01*
X181237429Y-92880571D02*
X181737429Y-91380571D01*
X182237429Y-92880571D01*
X182737429Y-92094857D02*
X183880286Y-92094857D01*
X183880286Y-92523429D02*
X182737429Y-92523429D01*
X184451715Y-91380571D02*
X185380286Y-91380571D01*
X184880286Y-91952000D01*
X185094572Y-91952000D01*
X185237429Y-92023429D01*
X185308858Y-92094857D01*
X185380286Y-92237714D01*
X185380286Y-92594857D01*
X185308858Y-92737714D01*
X185237429Y-92809143D01*
X185094572Y-92880571D01*
X184666000Y-92880571D01*
X184523143Y-92809143D01*
X184451715Y-92737714D01*
X186094571Y-92809143D02*
X186094571Y-92880571D01*
X186023143Y-93023429D01*
X185951714Y-93094857D01*
X188380286Y-92094857D02*
X188594572Y-92166286D01*
X188666000Y-92237714D01*
X188737429Y-92380571D01*
X188737429Y-92594857D01*
X188666000Y-92737714D01*
X188594572Y-92809143D01*
X188451714Y-92880571D01*
X187880286Y-92880571D01*
X187880286Y-91380571D01*
X188380286Y-91380571D01*
X188523143Y-91452000D01*
X188594572Y-91523429D01*
X188666000Y-91666286D01*
X188666000Y-91809143D01*
X188594572Y-91952000D01*
X188523143Y-92023429D01*
X188380286Y-92094857D01*
X187880286Y-92094857D01*
X189380286Y-92094857D02*
X190523143Y-92094857D01*
X190523143Y-92523429D02*
X189380286Y-92523429D01*
X191166000Y-91523429D02*
X191237429Y-91452000D01*
X191380286Y-91380571D01*
X191737429Y-91380571D01*
X191880286Y-91452000D01*
X191951715Y-91523429D01*
X192023143Y-91666286D01*
X192023143Y-91809143D01*
X191951715Y-92023429D01*
X191094572Y-92880571D01*
X192023143Y-92880571D01*
X177666001Y-95430571D02*
X177166001Y-94716286D01*
X176808858Y-95430571D02*
X176808858Y-93930571D01*
X177380286Y-93930571D01*
X177523144Y-94002000D01*
X177594572Y-94073429D01*
X177666001Y-94216286D01*
X177666001Y-94430571D01*
X177594572Y-94573429D01*
X177523144Y-94644857D01*
X177380286Y-94716286D01*
X176808858Y-94716286D01*
X178308858Y-95287714D02*
X178380286Y-95359143D01*
X178308858Y-95430571D01*
X178237429Y-95359143D01*
X178308858Y-95287714D01*
X178308858Y-95430571D01*
X178308858Y-94502000D02*
X178380286Y-94573429D01*
X178308858Y-94644857D01*
X178237429Y-94573429D01*
X178308858Y-94502000D01*
X178308858Y-94644857D01*
X180094572Y-95002000D02*
X180808858Y-95002000D01*
X179951715Y-95430571D02*
X180451715Y-93930571D01*
X180951715Y-95430571D01*
X181451715Y-94644857D02*
X182594572Y-94644857D01*
X182594572Y-95073429D02*
X181451715Y-95073429D01*
X184094572Y-95430571D02*
X183237429Y-95430571D01*
X183666001Y-95430571D02*
X183666001Y-93930571D01*
X183523144Y-94144857D01*
X183380286Y-94287714D01*
X183237429Y-94359143D01*
X184808857Y-95430571D02*
X185094572Y-95430571D01*
X185237429Y-95359143D01*
X185308857Y-95287714D01*
X185451715Y-95073429D01*
X185523143Y-94787714D01*
X185523143Y-94216286D01*
X185451715Y-94073429D01*
X185380286Y-94002000D01*
X185237429Y-93930571D01*
X184951715Y-93930571D01*
X184808857Y-94002000D01*
X184737429Y-94073429D01*
X184666000Y-94216286D01*
X184666000Y-94573429D01*
X184737429Y-94716286D01*
X184808857Y-94787714D01*
X184951715Y-94859143D01*
X185237429Y-94859143D01*
X185380286Y-94787714D01*
X185451715Y-94716286D01*
X185523143Y-94573429D01*
X186237428Y-95359143D02*
X186237428Y-95430571D01*
X186166000Y-95573429D01*
X186094571Y-95644857D01*
X188523143Y-94644857D02*
X188737429Y-94716286D01*
X188808857Y-94787714D01*
X188880286Y-94930571D01*
X188880286Y-95144857D01*
X188808857Y-95287714D01*
X188737429Y-95359143D01*
X188594571Y-95430571D01*
X188023143Y-95430571D01*
X188023143Y-93930571D01*
X188523143Y-93930571D01*
X188666000Y-94002000D01*
X188737429Y-94073429D01*
X188808857Y-94216286D01*
X188808857Y-94359143D01*
X188737429Y-94502000D01*
X188666000Y-94573429D01*
X188523143Y-94644857D01*
X188023143Y-94644857D01*
X189523143Y-94644857D02*
X190666000Y-94644857D01*
X190666000Y-95073429D02*
X189523143Y-95073429D01*
X192166000Y-95430571D02*
X191308857Y-95430571D01*
X191737429Y-95430571D02*
X191737429Y-93930571D01*
X191594572Y-94144857D01*
X191451714Y-94287714D01*
X191308857Y-94359143D01*
X193023143Y-94573429D02*
X192880285Y-94502000D01*
X192808857Y-94430571D01*
X192737428Y-94287714D01*
X192737428Y-94216286D01*
X192808857Y-94073429D01*
X192880285Y-94002000D01*
X193023143Y-93930571D01*
X193308857Y-93930571D01*
X193451714Y-94002000D01*
X193523143Y-94073429D01*
X193594571Y-94216286D01*
X193594571Y-94287714D01*
X193523143Y-94430571D01*
X193451714Y-94502000D01*
X193308857Y-94573429D01*
X193023143Y-94573429D01*
X192880285Y-94644857D01*
X192808857Y-94716286D01*
X192737428Y-94859143D01*
X192737428Y-95144857D01*
X192808857Y-95287714D01*
X192880285Y-95359143D01*
X193023143Y-95430571D01*
X193308857Y-95430571D01*
X193451714Y-95359143D01*
X193523143Y-95287714D01*
X193594571Y-95144857D01*
X193594571Y-94859143D01*
X193523143Y-94716286D01*
X193451714Y-94644857D01*
X193308857Y-94573429D01*
X187305143Y-80668857D02*
X187305143Y-79526000D01*
D13*
X192550143Y-80155143D02*
X192586429Y-80191429D01*
X192622714Y-80300286D01*
X192622714Y-80372857D01*
X192586429Y-80481714D01*
X192513857Y-80554286D01*
X192441286Y-80590571D01*
X192296143Y-80626857D01*
X192187286Y-80626857D01*
X192042143Y-80590571D01*
X191969571Y-80554286D01*
X191897000Y-80481714D01*
X191860714Y-80372857D01*
X191860714Y-80300286D01*
X191897000Y-80191429D01*
X191933286Y-80155143D01*
X192622714Y-79719714D02*
X192586429Y-79792286D01*
X192513857Y-79828571D01*
X191860714Y-79828571D01*
X192622714Y-79320571D02*
X192586429Y-79393143D01*
X192550143Y-79429428D01*
X192477571Y-79465714D01*
X192259857Y-79465714D01*
X192187286Y-79429428D01*
X192151000Y-79393143D01*
X192114714Y-79320571D01*
X192114714Y-79211714D01*
X192151000Y-79139143D01*
X192187286Y-79102857D01*
X192259857Y-79066571D01*
X192477571Y-79066571D01*
X192550143Y-79102857D01*
X192586429Y-79139143D01*
X192622714Y-79211714D01*
X192622714Y-79320571D01*
X192586429Y-78413428D02*
X192622714Y-78485999D01*
X192622714Y-78631142D01*
X192586429Y-78703714D01*
X192550143Y-78739999D01*
X192477571Y-78776285D01*
X192259857Y-78776285D01*
X192187286Y-78739999D01*
X192151000Y-78703714D01*
X192114714Y-78631142D01*
X192114714Y-78485999D01*
X192151000Y-78413428D01*
X192622714Y-78086856D02*
X191860714Y-78086856D01*
X192332429Y-78014285D02*
X192622714Y-77796571D01*
X192114714Y-77796571D02*
X192405000Y-78086856D01*
X190082714Y-80590571D02*
X189320714Y-80590571D01*
X189320714Y-80409143D01*
X189357000Y-80300286D01*
X189429571Y-80227714D01*
X189502143Y-80191429D01*
X189647286Y-80155143D01*
X189756143Y-80155143D01*
X189901286Y-80191429D01*
X189973857Y-80227714D01*
X190046429Y-80300286D01*
X190082714Y-80409143D01*
X190082714Y-80590571D01*
X190082714Y-79502000D02*
X189683571Y-79502000D01*
X189611000Y-79538286D01*
X189574714Y-79610857D01*
X189574714Y-79756000D01*
X189611000Y-79828571D01*
X190046429Y-79502000D02*
X190082714Y-79574571D01*
X190082714Y-79756000D01*
X190046429Y-79828571D01*
X189973857Y-79864857D01*
X189901286Y-79864857D01*
X189828714Y-79828571D01*
X189792429Y-79756000D01*
X189792429Y-79574571D01*
X189756143Y-79502000D01*
X189574714Y-79248000D02*
X189574714Y-78957714D01*
X189320714Y-79139142D02*
X189973857Y-79139142D01*
X190046429Y-79102857D01*
X190082714Y-79030285D01*
X190082714Y-78957714D01*
X190082714Y-78377142D02*
X189683571Y-78377142D01*
X189611000Y-78413428D01*
X189574714Y-78485999D01*
X189574714Y-78631142D01*
X189611000Y-78703713D01*
X190046429Y-78377142D02*
X190082714Y-78449713D01*
X190082714Y-78631142D01*
X190046429Y-78703713D01*
X189973857Y-78739999D01*
X189901286Y-78739999D01*
X189828714Y-78703713D01*
X189792429Y-78631142D01*
X189792429Y-78449713D01*
X189756143Y-78377142D01*
D12*
X184765143Y-80668857D02*
X184765143Y-79526000D01*
X185336571Y-80097429D02*
X184193714Y-80097429D01*
X187130715Y-87038571D02*
X187130715Y-85538571D01*
X187773572Y-85681429D02*
X187845001Y-85610000D01*
X187987858Y-85538571D01*
X188345001Y-85538571D01*
X188487858Y-85610000D01*
X188559287Y-85681429D01*
X188630715Y-85824286D01*
X188630715Y-85967143D01*
X188559287Y-86181429D01*
X187702144Y-87038571D01*
X188630715Y-87038571D01*
X190130715Y-86895714D02*
X190059286Y-86967143D01*
X189845000Y-87038571D01*
X189702143Y-87038571D01*
X189487858Y-86967143D01*
X189345000Y-86824286D01*
X189273572Y-86681429D01*
X189202143Y-86395714D01*
X189202143Y-86181429D01*
X189273572Y-85895714D01*
X189345000Y-85752857D01*
X189487858Y-85610000D01*
X189702143Y-85538571D01*
X189845000Y-85538571D01*
X190059286Y-85610000D01*
X190130715Y-85681429D01*
X180169286Y-87038571D02*
X179669286Y-86324286D01*
X179312143Y-87038571D02*
X179312143Y-85538571D01*
X179883571Y-85538571D01*
X180026429Y-85610000D01*
X180097857Y-85681429D01*
X180169286Y-85824286D01*
X180169286Y-86038571D01*
X180097857Y-86181429D01*
X180026429Y-86252857D01*
X179883571Y-86324286D01*
X179312143Y-86324286D01*
X175089286Y-87038571D02*
X174375000Y-87038571D01*
X174375000Y-85538571D01*
D11*
X181610000Y-87630000D02*
X181610000Y-86360000D01*
X172720000Y-87630000D02*
X181610000Y-87630000D01*
X172720000Y-86360000D02*
X172720000Y-87630000D01*
D13*
X174352858Y-97880714D02*
X173990001Y-97880714D01*
X173953715Y-98243571D01*
X173990001Y-98207286D01*
X174062572Y-98171000D01*
X174244001Y-98171000D01*
X174316572Y-98207286D01*
X174352858Y-98243571D01*
X174389143Y-98316143D01*
X174389143Y-98497571D01*
X174352858Y-98570143D01*
X174316572Y-98606429D01*
X174244001Y-98642714D01*
X174062572Y-98642714D01*
X173990001Y-98606429D01*
X173953715Y-98570143D01*
X174606857Y-97880714D02*
X174860857Y-98642714D01*
X175114857Y-97880714D01*
X174316572Y-92837000D02*
X174679429Y-92837000D01*
X174244000Y-93054714D02*
X174498000Y-92292714D01*
X174752000Y-93054714D01*
X174552429Y-89861571D02*
X174661286Y-89897857D01*
X174697571Y-89934143D01*
X174733857Y-90006714D01*
X174733857Y-90115571D01*
X174697571Y-90188143D01*
X174661286Y-90224429D01*
X174588714Y-90260714D01*
X174298429Y-90260714D01*
X174298429Y-89498714D01*
X174552429Y-89498714D01*
X174625000Y-89535000D01*
X174661286Y-89571286D01*
X174697571Y-89643857D01*
X174697571Y-89716429D01*
X174661286Y-89789000D01*
X174625000Y-89825286D01*
X174552429Y-89861571D01*
X174298429Y-89861571D01*
X173917428Y-95123000D02*
X173844857Y-95086714D01*
X173736000Y-95086714D01*
X173627143Y-95123000D01*
X173554571Y-95195571D01*
X173518286Y-95268143D01*
X173482000Y-95413286D01*
X173482000Y-95522143D01*
X173518286Y-95667286D01*
X173554571Y-95739857D01*
X173627143Y-95812429D01*
X173736000Y-95848714D01*
X173808571Y-95848714D01*
X173917428Y-95812429D01*
X173953714Y-95776143D01*
X173953714Y-95522143D01*
X173808571Y-95522143D01*
X174280286Y-95848714D02*
X174280286Y-95086714D01*
X174715714Y-95848714D01*
X174715714Y-95086714D01*
X175078572Y-95848714D02*
X175078572Y-95086714D01*
X175260000Y-95086714D01*
X175368857Y-95123000D01*
X175441429Y-95195571D01*
X175477714Y-95268143D01*
X175514000Y-95413286D01*
X175514000Y-95522143D01*
X175477714Y-95667286D01*
X175441429Y-95739857D01*
X175368857Y-95812429D01*
X175260000Y-95848714D01*
X175078572Y-95848714D01*
D11*
X131770381Y-116300285D02*
X131770381Y-116871714D01*
X131770381Y-116586000D02*
X130770381Y-116586000D01*
X130913238Y-116681238D01*
X131008476Y-116776476D01*
X131056095Y-116871714D01*
X201168000Y-115316000D02*
X201168000Y-69596000D01*
X196088000Y-69596000D02*
X196088000Y-112776000D01*
X201168000Y-69596000D02*
X196088000Y-69596000D01*
X201168000Y-115316000D02*
X198628000Y-115316000D01*
X195808000Y-114046000D02*
X195808000Y-115596000D01*
X198628000Y-115316000D02*
X198628000Y-112776000D01*
X198628000Y-112776000D02*
X196088000Y-112776000D01*
X195808000Y-115596000D02*
X197358000Y-115596000D01*
X132588000Y-120396000D02*
X150368000Y-120396000D01*
X150368000Y-120396000D02*
X150368000Y-117856000D01*
X150368000Y-117856000D02*
X132588000Y-117856000D01*
X129768000Y-120676000D02*
X131318000Y-120676000D01*
X132588000Y-120396000D02*
X132588000Y-117856000D01*
X131318000Y-117576000D02*
X129768000Y-117576000D01*
X129768000Y-117576000D02*
X129768000Y-120676000D01*
X155448000Y-120396000D02*
X173228000Y-120396000D01*
X173228000Y-120396000D02*
X173228000Y-117856000D01*
X173228000Y-117856000D02*
X155448000Y-117856000D01*
X152628000Y-120676000D02*
X154178000Y-120676000D01*
X155448000Y-120396000D02*
X155448000Y-117856000D01*
X154178000Y-117576000D02*
X152628000Y-117576000D01*
X152628000Y-117576000D02*
X152628000Y-120676000D01*
X178308000Y-120396000D02*
X196088000Y-120396000D01*
X196088000Y-120396000D02*
X196088000Y-117856000D01*
X196088000Y-117856000D02*
X178308000Y-117856000D01*
X175488000Y-120676000D02*
X177038000Y-120676000D01*
X178308000Y-120396000D02*
X178308000Y-117856000D01*
X177038000Y-117576000D02*
X175488000Y-117576000D01*
X175488000Y-117576000D02*
X175488000Y-120676000D01*
X123444000Y-72136000D02*
X146304000Y-72136000D01*
X146304000Y-72136000D02*
X146304000Y-69596000D01*
X146304000Y-69596000D02*
X123444000Y-69596000D01*
X120624000Y-72416000D02*
X122174000Y-72416000D01*
X123444000Y-72136000D02*
X123444000Y-69596000D01*
X122174000Y-69316000D02*
X120624000Y-69316000D01*
X120624000Y-69316000D02*
X120624000Y-72416000D01*
X150368000Y-72136000D02*
X168148000Y-72136000D01*
X168148000Y-72136000D02*
X168148000Y-69596000D01*
X168148000Y-69596000D02*
X150368000Y-69596000D01*
X147548000Y-72416000D02*
X149098000Y-72416000D01*
X150368000Y-72136000D02*
X150368000Y-69596000D01*
X149098000Y-69316000D02*
X147548000Y-69316000D01*
X147548000Y-69316000D02*
X147548000Y-72416000D01*
X173228000Y-72136000D02*
X191008000Y-72136000D01*
X191008000Y-72136000D02*
X191008000Y-69596000D01*
X191008000Y-69596000D02*
X173228000Y-69596000D01*
X170408000Y-72416000D02*
X171958000Y-72416000D01*
X173228000Y-72136000D02*
X173228000Y-69596000D01*
X171958000Y-69316000D02*
X170408000Y-69316000D01*
X170408000Y-69316000D02*
X170408000Y-72416000D01*
X119634000Y-119126000D02*
G75*
G03X119634000Y-119126000I-2286000J0D01*
G01*
X171704000Y-114046000D02*
G75*
G03X171704000Y-114046000I-2286000J0D01*
G01*
X202184000Y-119126000D02*
G75*
G03X202184000Y-119126000I-2286000J0D01*
G01*
X120904000Y-70866000D02*
G75*
G03X120904000Y-70866000I-2286000J0D01*
G01*
X171704000Y-86106000D02*
G75*
G03X171704000Y-86106000I-2286000J0D01*
G01*
X195834000Y-70866000D02*
G75*
G03X195834000Y-70866000I-2286000J0D01*
G01*
D14*
X174668000Y-84478000D02*
X173078000Y-84478000D01*
X173078000Y-84478000D02*
X173078000Y-74018000D01*
X173078000Y-74018000D02*
X175918000Y-74018000D01*
X175918000Y-74018000D02*
X175918000Y-83228000D01*
X174768000Y-84728000D02*
X176168000Y-84728000D01*
X176168000Y-84728000D02*
X176168000Y-83328000D01*
X180002000Y-84478000D02*
X178412000Y-84478000D01*
X178412000Y-84478000D02*
X178412000Y-74018000D01*
X178412000Y-74018000D02*
X181252000Y-74018000D01*
X181252000Y-74018000D02*
X181252000Y-83228000D01*
X180102000Y-84728000D02*
X181502000Y-84728000D01*
X181502000Y-84728000D02*
X181502000Y-83328000D01*
X192786000Y-109474000D02*
X182626000Y-109474000D01*
X192786000Y-110744000D02*
X192786000Y-103124000D01*
X192786000Y-103124000D02*
X182626000Y-103124000D01*
X182626000Y-103124000D02*
X182626000Y-110744000D01*
X182626000Y-110744000D02*
X192786000Y-110744000D01*
X183238000Y-83228000D02*
X183238000Y-81638000D01*
X183238000Y-81638000D02*
X193698000Y-81638000D01*
X193698000Y-81638000D02*
X193698000Y-84478000D01*
X193698000Y-84478000D02*
X184488000Y-84478000D01*
X182988000Y-83328000D02*
X182988000Y-84728000D01*
X182988000Y-84728000D02*
X184388000Y-84728000D01*
D11*
X171116667Y-74382381D02*
X171116667Y-75096667D01*
X171069047Y-75239524D01*
X170973809Y-75334762D01*
X170830952Y-75382381D01*
X170735714Y-75382381D01*
X172116667Y-75382381D02*
X171545238Y-75382381D01*
X171830952Y-75382381D02*
X171830952Y-74382381D01*
X171735714Y-74525238D01*
X171640476Y-74620476D01*
X171545238Y-74668095D01*
X182546667Y-74382381D02*
X182546667Y-75096667D01*
X182499047Y-75239524D01*
X182403809Y-75334762D01*
X182260952Y-75382381D01*
X182165714Y-75382381D01*
X182975238Y-74477619D02*
X183022857Y-74430000D01*
X183118095Y-74382381D01*
X183356191Y-74382381D01*
X183451429Y-74430000D01*
X183499048Y-74477619D01*
X183546667Y-74572857D01*
X183546667Y-74668095D01*
X183499048Y-74810952D01*
X182927619Y-75382381D01*
X183546667Y-75382381D01*
X193468667Y-103592381D02*
X193468667Y-104306667D01*
X193421047Y-104449524D01*
X193325809Y-104544762D01*
X193182952Y-104592381D01*
X193087714Y-104592381D01*
X193849619Y-103592381D02*
X194468667Y-103592381D01*
X194135333Y-103973333D01*
X194278191Y-103973333D01*
X194373429Y-104020952D01*
X194421048Y-104068571D01*
X194468667Y-104163810D01*
X194468667Y-104401905D01*
X194421048Y-104497143D01*
X194373429Y-104544762D01*
X194278191Y-104592381D01*
X193992476Y-104592381D01*
X193897238Y-104544762D01*
X193849619Y-104497143D01*
X192706667Y-85177381D02*
X192706667Y-85891667D01*
X192659047Y-86034524D01*
X192563809Y-86129762D01*
X192420952Y-86177381D01*
X192325714Y-86177381D01*
X193611429Y-85510714D02*
X193611429Y-86177381D01*
X193373333Y-85129762D02*
X193135238Y-85844048D01*
X193754286Y-85844048D01*
M02*
