<?xml version="1.0" standalone="no"?>
 <!DOCTYPE svg PUBLIC "-//W3C//DTD SVG 1.1//EN" 
 "http://www.w3.org/Graphics/SVG/1.1/DTD/svg11.dtd"> 
<svg xmlns="http://www.w3.org/2000/svg" version="1.1" 
    width="29.7002cm" height="21.0007cm" viewBox="0 0 116930 82680 ">
<title>SVG Picture created as Primary-Cmts.User.svg date 2018/03/31 17:31:27 </title>
  <desc>Picture generated by PCBNEW </desc>
<g style="fill:#000000; fill-opacity:1;stroke:#000000; stroke-opacity:1;
stroke-linecap:round; stroke-linejoin:round; "
 transform="translate(0 0) scale(1 1)">
</g>
<g style="fill:#000000; fill-opacity:0.0; 
stroke:#000000; stroke-width:-0.000393701; stroke-opacity:1; 
stroke-linecap:round; stroke-linejoin:round;">
</g>
<g style="fill:#000000; fill-opacity:0.0; 
stroke:#000000; stroke-width:160; stroke-opacity:1; 
stroke-linecap:round; stroke-linejoin:round;">
<circle cx="57500" cy="32250" r="500" /> 
<path d="M52752 29796
L53247 29796
" />
<path d="M53752 29796
L54247 29796
" />
<path d="M54000 30044
L54000 29548
" />
<path d="M65250 39750
L65250 40750
" />
<path d="M65250 40250
L65750 39750
" />
<path d="M65750 40750
L65250 40250
" />
<path d="M65750 39750
L65750 40750
" />
<path d="M81700 26900
L81700 47900
" />
<path d="M79995 44675
L79933 44644
L79840 44644
L79747 44675
L79685 44736
L79654 44798
L79623 44922
L79623 45015
L79654 45139
L79685 45201
L79747 45263
L79840 45294
L79902 45294
L79995 45263
L80026 45232
L80026 45015
L79902 45015
" />
<path d="M80304 45294
L80304 44644
L80676 45294
L80676 44644
" />
<path d="M80985 45294
L80985 44644
L81140 44644
L81233 44675
L81295 44736
L81326 44798
L81357 44922
L81357 45015
L81326 45139
L81295 45201
L81233 45263
L81140 45294
L80985 45294
" />
<path d="M73796 30095
L73796 29600
" />
<path d="M72796 30095
L72796 29600
" />
<path d="M73044 29847
L72548 29847
" />
<path d="M73796 33095
L73796 32600
" />
<path d="M48363 30271
L48394 30178
L48394 30023
L48363 29961
L48332 29930
L48270 29900
L48208 29900
L48146 29930
L48115 29961
L48084 30023
L48053 30147
L48022 30209
L47991 30240
L47929 30271
L47867 30271
L47805 30240
L47775 30209
L47744 30147
L47744 29992
L47775 29900
" />
<path d="M48332 29250
L48363 29280
L48394 29373
L48394 29435
L48363 29528
L48301 29590
L48239 29621
L48115 29652
L48022 29652
L47898 29621
L47836 29590
L47775 29528
L47744 29435
L47744 29373
L47775 29280
L47805 29250
" />
<path d="M48394 28661
L48394 28971
L47744 28971
" />
<path d="M49363 30302
L49394 30209
L49394 30054
L49363 29992
L49332 29961
L49270 29930
L49208 29930
L49146 29961
L49115 29992
L49084 30054
L49053 30178
L49022 30240
L48991 30271
L48929 30302
L48867 30302
L48805 30271
L48775 30240
L48744 30178
L48744 30023
L48775 29930
" />
<path d="M49394 29652
L48744 29652
L48744 29497
L48775 29404
L48836 29342
L48898 29311
L49022 29280
L49115 29280
L49239 29311
L49301 29342
L49363 29404
L49394 29497
L49394 29652
" />
<path d="M49208 29033
L49208 28723
" />
<path d="M49394 29095
L48744 28878
L49394 28661
" />
<path d="M50208 30828
L50208 30519
" />
<path d="M50394 30890
L49744 30673
L50394 30457
" />
<path d="M50394 29869
L50084 30085
" />
<path d="M50394 30240
L49744 30240
L49744 29992
L49775 29930
L49805 29900
L49867 29869
L49960 29869
L50022 29900
L50053 29930
L50084 29992
L50084 30240
" />
<path d="M50053 29590
L50053 29373
" />
<path d="M50394 29280
L50394 29590
L49744 29590
L49744 29280
" />
<path d="M50053 28785
L50053 29002
" />
<path d="M50394 29002
L49744 29002
L49744 28692
" />
<path d="M50775 30085
L50744 30147
L50744 30240
L50775 30333
L50836 30395
L50898 30426
L51022 30457
L51115 30457
L51239 30426
L51301 30395
L51363 30333
L51394 30240
L51394 30178
L51363 30085
L51332 30054
L51115 30054
L51115 30178
" />
<path d="M51394 29776
L50744 29776
L51394 29404
L50744 29404
" />
<path d="M51394 29095
L50744 29095
L50744 28940
L50775 28847
L50836 28785
L50898 28754
L51022 28723
L51115 28723
L51239 28754
L51301 28785
L51363 28847
L51394 28940
L51394 29095
" />
<path d="M59608 37626
L59608 37316
" />
<path d="M59794 37688
L59144 37471
L59794 37254
" />
<path d="M59205 37069
L59175 37038
L59144 36976
L59144 36821
L59175 36759
L59205 36728
L59267 36697
L59329 36697
L59422 36728
L59794 37100
L59794 36697
" />
<path d="M60608 37626
L60608 37316
" />
<path d="M60794 37688
L60144 37471
L60794 37254
" />
<path d="M60794 36697
L60794 37069
" />
<path d="M60794 36883
L60144 36883
L60236 36945
L60298 37007
L60329 37069
" />
<path d="M61453 37378
L61484 37285
L61515 37254
L61577 37223
L61670 37223
L61732 37254
L61763 37285
L61794 37347
L61794 37595
L61144 37595
L61144 37378
L61175 37316
L61205 37285
L61267 37254
L61329 37254
L61391 37285
L61422 37316
L61453 37378
L61453 37595
" />
<path d="M61794 36604
L61794 36976
" />
<path d="M61794 36790
L61144 36790
L61236 36852
L61298 36914
L61329 36976
" />
<path d="M62453 37378
L62484 37285
L62515 37254
L62577 37223
L62670 37223
L62732 37254
L62763 37285
L62794 37347
L62794 37595
L62144 37595
L62144 37378
L62175 37316
L62205 37285
L62267 37254
L62329 37254
L62391 37285
L62422 37316
L62453 37378
L62453 37595
" />
<path d="M62205 36976
L62175 36945
L62144 36883
L62144 36728
L62175 36666
L62205 36635
L62267 36604
L62329 36604
L62422 36635
L62794 37007
L62794 36604
" />
<path d="M62453 40054
L62484 39961
L62515 39930
L62577 39900
L62670 39900
L62732 39930
L62763 39961
L62794 40023
L62794 40271
L62144 40271
L62144 40054
L62175 39992
L62205 39961
L62267 39930
L62329 39930
L62391 39961
L62422 39992
L62453 40054
L62453 40271
" />
<path d="M62794 39621
L62144 39621
" />
<path d="M62546 39559
L62794 39373
" />
<path d="M62360 39373
L62608 39621
" />
<path d="M61175 39404
L61144 39466
L61144 39559
L61175 39652
L61236 39714
L61298 39745
L61422 39776
L61515 39776
L61639 39745
L61701 39714
L61763 39652
L61794 39559
L61794 39497
L61763 39404
L61732 39373
L61515 39373
L61515 39497
" />
<path d="M60794 39373
L60484 39590
" />
<path d="M60794 39745
L60144 39745
L60144 39497
L60175 39435
L60205 39404
L60267 39373
L60360 39373
L60422 39404
L60453 39435
L60484 39497
L60484 39745
" />
<path d="M59282 41310
L59374 41341
L59529 41341
L59591 41310
L59622 41279
L59653 41217
L59653 41155
L59622 41093
L59591 41062
L59529 41032
L59405 41001
L59344 40970
L59313 40939
L59282 40877
L59282 40815
L59313 40753
L59344 40722
L59405 40691
L59560 40691
L59653 40722
" />
<path d="M59839 40908
L60086 40908
" />
<path d="M59932 40691
L59932 41248
L59963 41310
L60024 41341
L60086 41341
" />
<path d="M60551 41310
L60489 41341
L60365 41341
L60303 41310
L60272 41248
L60272 41001
L60303 40939
L60365 40908
L60489 40908
L60551 40939
L60582 41001
L60582 41062
L60272 41124
" />
<path d="M60860 40908
L60860 41558
" />
<path d="M60860 40939
L60922 40908
L61046 40908
L61108 40939
L61139 40970
L61170 41032
L61170 41217
L61139 41279
L61108 41310
L61046 41341
L60922 41341
L60860 41310
" />
<path d="M61448 40908
L61448 41558
" />
<path d="M61448 40939
L61510 40908
L61634 40908
L61696 40939
L61727 40970
L61758 41032
L61758 41217
L61727 41279
L61696 41310
L61634 41341
L61510 41341
L61448 41310
" />
<path d="M62284 41310
L62222 41341
L62098 41341
L62036 41310
L62005 41248
L62005 41001
L62036 40939
L62098 40908
L62222 40908
L62284 40939
L62315 41001
L62315 41062
L62005 41124
" />
<path d="M62594 41341
L62594 40908
" />
<path d="M62594 41032
L62625 40970
L62655 40939
L62717 40908
L62779 40908
" />
<path d="M59808 42476
L59808 41826
L60025 42290
L60241 41826
L60241 42476
" />
<path d="M60644 42476
L60582 42445
L60551 42414
L60520 42352
L60520 42167
L60551 42105
L60582 42074
L60644 42043
L60736 42043
L60798 42074
L60829 42105
L60860 42167
L60860 42352
L60829 42414
L60798 42445
L60736 42476
L60644 42476
" />
<path d="M61046 42043
L61294 42043
" />
<path d="M61139 41826
L61139 42383
L61170 42445
L61232 42476
L61294 42476
" />
<path d="M61603 42476
L61541 42445
L61510 42414
L61479 42352
L61479 42167
L61510 42105
L61541 42074
L61603 42043
L61696 42043
L61758 42074
L61789 42105
L61820 42167
L61820 42352
L61789 42414
L61758 42445
L61696 42476
L61603 42476
" />
<path d="M62098 42476
L62098 42043
" />
<path d="M62098 42167
L62129 42105
L62160 42074
L62222 42043
L62284 42043
" />
<path d="M59019 43580
L59111 43611
L59266 43611
L59328 43580
L59359 43549
L59390 43487
L59390 43425
L59359 43363
L59328 43332
L59266 43302
L59142 43271
L59080 43240
L59050 43209
L59019 43147
L59019 43085
L59050 43023
L59080 42992
L59142 42961
L59297 42961
L59390 42992
" />
<path d="M59576 43178
L59823 43178
" />
<path d="M59669 42961
L59669 43518
L59700 43580
L59761 43611
L59823 43611
" />
<path d="M60288 43580
L60226 43611
L60102 43611
L60040 43580
L60009 43518
L60009 43271
L60040 43209
L60102 43178
L60226 43178
L60288 43209
L60319 43271
L60319 43332
L60009 43394
" />
<path d="M60597 43178
L60597 43828
" />
<path d="M60597 43209
L60659 43178
L60783 43178
L60845 43209
L60876 43240
L60907 43302
L60907 43487
L60876 43549
L60845 43580
L60783 43611
L60659 43611
L60597 43580
" />
<path d="M61185 43549
L61216 43580
L61185 43611
L61154 43580
L61185 43549
L61185 43611
" />
<path d="M61185 43209
L61216 43240
L61185 43271
L61154 43240
L61185 43209
L61185 43271
" />
<path d="M61990 43611
L61990 42961
L62145 42961
L62238 42992
L62300 43054
L62330 43116
L62361 43240
L62361 43332
L62330 43456
L62300 43518
L62238 43580
L62145 43611
L61990 43611
" />
<path d="M62919 42961
L62795 42961
L62733 42992
L62702 43023
L62640 43116
L62609 43240
L62609 43487
L62640 43549
L62671 43580
L62733 43611
L62857 43611
L62919 43580
L62950 43549
L62980 43487
L62980 43332
L62950 43271
L62919 43240
L62857 43209
L62733 43209
L62671 43240
L62640 43271
L62609 43332
" />
<path d="M59436 44746
L59436 44096
L59591 44096
L59684 44127
L59746 44189
L59777 44251
L59808 44375
L59808 44467
L59777 44591
L59746 44653
L59684 44715
L59591 44746
L59436 44746
" />
<path d="M60086 44746
L60086 44313
" />
<path d="M60086 44096
L60055 44127
L60086 44158
L60117 44127
L60086 44096
L60086 44158
" />
<path d="M60396 44746
L60396 44313
" />
<path d="M60396 44437
L60427 44375
L60458 44344
L60520 44313
L60582 44313
" />
<path d="M60798 44684
L60829 44715
L60798 44746
L60767 44715
L60798 44684
L60798 44746
" />
<path d="M60798 44344
L60829 44375
L60798 44406
L60767 44375
L60798 44344
L60798 44406
" />
<path d="M61603 44746
L61603 44096
L61758 44096
L61851 44127
L61913 44189
L61944 44251
L61975 44375
L61975 44467
L61944 44591
L61913 44653
L61851 44715
L61758 44746
L61603 44746
" />
<path d="M62191 44096
L62625 44096
L62346 44746
" />
<path d="M75044 30095
L74394 30095
L74394 29940
L74425 29847
L74486 29785
L74548 29754
L74672 29723
L74765 29723
L74889 29754
L74951 29785
L75013 29847
L75044 29940
L75044 30095
" />
<path d="M75982 29723
L76013 29754
L76044 29847
L76044 29909
L76013 30002
L75951 30064
L75889 30095
L75765 30126
L75672 30126
L75548 30095
L75486 30064
L75425 30002
L75394 29909
L75394 29847
L75425 29754
L75455 29723
" />
<path d="M72796 33095
L72796 32600
" />
<path d="M73044 32847
L72548 32847
" />
<path d="M75013 33126
L75044 33033
L75044 32878
L75013 32816
L74982 32785
L74920 32754
L74858 32754
L74796 32785
L74765 32816
L74734 32878
L74703 33002
L74672 33064
L74641 33095
L74579 33126
L74517 33126
L74455 33095
L74425 33064
L74394 33002
L74394 32847
L74425 32754
" />
<path d="M75044 32476
L74610 32476
" />
<path d="M74394 32476
L74425 32507
L74455 32476
L74425 32445
L74394 32476
L74455 32476
" />
<path d="M74610 31888
L75136 31888
L75198 31919
L75229 31950
L75260 32011
L75260 32104
L75229 32166
" />
<path d="M75013 31888
L75044 31950
L75044 32073
L75013 32135
L74982 32166
L74920 32197
L74734 32197
L74672 32166
L74641 32135
L74610 32073
L74610 31950
L74641 31888
" />
<path d="M66816 31294
L66816 30644
" />
<path d="M67095 30705
L67126 30675
L67188 30644
L67342 30644
L67404 30675
L67435 30705
L67466 30767
L67466 30829
L67435 30922
L67064 31294
L67466 31294
" />
<path d="M68116 31232
L68085 31263
L67992 31294
L67930 31294
L67838 31263
L67776 31201
L67745 31139
L67714 31015
L67714 30922
L67745 30798
L67776 30736
L67838 30675
L67930 30644
L67992 30644
L68085 30675
L68116 30705
" />
<path d="M69107 30953
L69200 30984
L69230 31015
L69261 31077
L69261 31170
L69230 31232
L69200 31263
L69138 31294
L68890 31294
L68890 30644
L69107 30644
L69169 30675
L69200 30705
L69230 30767
L69230 30829
L69200 30891
L69169 30922
L69107 30953
L68890 30953
" />
<path d="M69819 30860
L69819 31294
" />
<path d="M69540 30860
L69540 31201
L69571 31263
L69633 31294
L69726 31294
L69788 31263
L69819 31232
" />
<path d="M70097 31263
L70159 31294
L70283 31294
L70345 31263
L70376 31201
L70376 31170
L70345 31108
L70283 31077
L70190 31077
L70128 31046
L70097 30984
L70097 30953
L70128 30891
L70190 30860
L70283 30860
L70345 30891
" />
<path d="M69159 40927
L69159 41236
L68509 41236
" />
<path d="M69159 40710
L68725 40710
" />
<path d="M68509 40710
L68540 40741
L68570 40710
L68540 40679
L68509 40710
L68570 40710
" />
<path d="M68725 40401
L69159 40401
" />
<path d="M68787 40401
L68756 40370
L68725 40308
L68725 40215
L68756 40153
L68818 40122
L69159 40122
" />
<path d="M69128 39565
L69159 39627
L69159 39751
L69128 39813
L69066 39844
L68818 39844
L68756 39813
L68725 39751
L68725 39627
L68756 39565
L68818 39534
L68880 39534
L68942 39844
" />
<path d="M69128 38791
L69159 38698
L69159 38544
L69128 38482
L69097 38451
L69035 38420
L68973 38420
L68911 38451
L68880 38482
L68849 38544
L68818 38667
L68787 38729
L68756 38760
L68694 38791
L68632 38791
L68570 38760
L68540 38729
L68509 38667
L68509 38513
L68540 38420
" />
<path d="M69128 37894
L69159 37955
L69159 38079
L69128 38141
L69066 38172
L68818 38172
L68756 38141
L68725 38079
L68725 37955
L68756 37894
L68818 37863
L68880 37863
L68942 38172
" />
<path d="M68725 37584
L69159 37584
" />
<path d="M68787 37584
L68756 37553
L68725 37491
L68725 37398
L68756 37336
L68818 37305
L69159 37305
" />
<path d="M69128 37027
L69159 36965
L69159 36841
L69128 36779
L69066 36748
L69035 36748
L68973 36779
L68942 36841
L68942 36934
L68911 36996
L68849 37027
L68818 37027
L68756 36996
L68725 36934
L68725 36841
L68756 36779
" />
<path d="M69159 36377
L69128 36439
L69097 36470
L69035 36501
L68849 36501
L68787 36470
L68756 36439
L68725 36377
L68725 36284
L68756 36222
L68787 36191
L68849 36160
L69035 36160
L69097 36191
L69128 36222
L69159 36284
L69159 36377
" />
<path d="M69159 35882
L68725 35882
" />
<path d="M68849 35882
L68787 35851
L68756 35820
L68725 35758
L68725 35696
" />
<path d="M69128 35510
L69159 35448
L69159 35325
L69128 35263
L69066 35232
L69035 35232
L68973 35263
L68942 35325
L68942 35417
L68911 35479
L68849 35510
L68818 35510
L68756 35479
L68725 35417
L68725 35325
L68756 35263
" />
<path d="M70294 40076
L70294 40447
" />
<path d="M70294 40261
L69644 40261
L69736 40323
L69798 40385
L69829 40447
" />
<path d="M69860 38807
L70046 39302
L70232 38807
" />
<path d="M70046 38497
L70046 38002
" />
<path d="M69860 37692
L70046 37197
L70232 37692
" />
<path d="M69644 36114
L69644 36238
L69675 36300
L69705 36330
L69798 36392
L69922 36423
L70170 36423
L70232 36392
L70263 36361
L70294 36300
L70294 36176
L70263 36114
L70232 36083
L70170 36052
L70015 36052
L69953 36083
L69922 36114
L69891 36176
L69891 36300
L69922 36361
L69953 36392
L70015 36423
" />
<path d="M71429 42908
L70779 42908
L70779 42753
L70810 42660
L70871 42598
L70933 42567
L71057 42536
L71150 42536
L71274 42567
L71336 42598
L71398 42660
L71429 42753
L71429 42908
" />
<path d="M70995 41979
L71429 41979
" />
<path d="M70748 42134
L71212 42289
L71212 41886
" />
<path d="M70779 41360
L70779 41484
L70810 41546
L70840 41577
L70933 41639
L71057 41670
L71305 41670
L71367 41639
L71398 41608
L71429 41546
L71429 41422
L71398 41360
L71367 41329
L71305 41298
L71150 41298
L71088 41329
L71057 41360
L71026 41422
L71026 41546
L71057 41608
L71088 41639
L71150 41670
" />
<path d="M71398 40989
L71429 40989
L71490 41020
L71521 41051
" />
<path d="M70995 40432
L71429 40432
" />
<path d="M70748 40586
L71212 40741
L71212 40339
" />
<path d="M70995 39813
L71429 39813
" />
<path d="M70748 39967
L71212 40122
L71212 39720
" />
<path d="M71398 39441
L71429 39441
L71490 39472
L71521 39503
" />
<path d="M70995 38884
L71429 38884
" />
<path d="M70748 39039
L71212 39194
L71212 38791
" />
<path d="M70779 38420
L70779 38358
L70810 38296
L70840 38265
L70902 38234
L71026 38203
L71181 38203
L71305 38234
L71367 38265
L71398 38296
L71429 38358
L71429 38420
L71398 38482
L71367 38513
L71305 38544
L71181 38575
L71026 38575
L70902 38544
L70840 38513
L70810 38482
L70779 38420
" />
<path d="M71398 37894
L71429 37894
L71490 37925
L71521 37955
" />
<path d="M70779 37677
L70779 37275
L71026 37491
L71026 37398
L71057 37336
L71088 37305
L71150 37275
L71305 37275
L71367 37305
L71398 37336
L71429 37398
L71429 37584
L71398 37646
L71367 37677
" />
<path d="M71057 36903
L71026 36965
L70995 36996
L70933 37027
L70902 37027
L70840 36996
L70810 36965
L70779 36903
L70779 36779
L70810 36717
L70840 36686
L70902 36655
L70933 36655
L70995 36686
L71026 36717
L71057 36779
L71057 36903
L71088 36965
L71119 36996
L71181 37027
L71305 37027
L71367 36996
L71398 36965
L71429 36903
L71429 36779
L71398 36717
L71367 36686
L71305 36655
L71181 36655
L71119 36686
L71088 36717
L71057 36779
" />
<path d="M71398 36346
L71429 36346
L71490 36377
L71521 36408
" />
<path d="M70779 36129
L70779 35727
L71026 35944
L71026 35851
L71057 35789
L71088 35758
L71150 35727
L71305 35727
L71367 35758
L71398 35789
L71429 35851
L71429 36036
L71398 36098
L71367 36129
" />
<path d="M70995 35170
L71429 35170
" />
<path d="M70748 35325
L71212 35479
L71212 35077
" />
<path d="M71398 34798
L71429 34798
L71490 34829
L71521 34860
" />
<path d="M70779 34582
L70779 34179
L71026 34396
L71026 34303
L71057 34241
L71088 34210
L71150 34179
L71305 34179
L71367 34210
L71398 34241
L71429 34303
L71429 34489
L71398 34551
L71367 34582
" />
<path d="M70779 33777
L70779 33715
L70810 33653
L70840 33622
L70902 33591
L71026 33560
L71181 33560
L71305 33591
L71367 33622
L71398 33653
L71429 33715
L71429 33777
L71398 33839
L71367 33870
L71305 33901
L71181 33932
L71026 33932
L70902 33901
L70840 33870
L70810 33839
L70779 33777
" />
<path d="M65154 36476
L65154 35826
L65371 36290
L65588 35826
L65588 36476
" />
<path d="M66176 36476
L66176 36136
L66145 36074
L66083 36043
L65959 36043
L65897 36074
" />
<path d="M66176 36445
L66114 36476
L65959 36476
L65897 36445
L65866 36383
L65866 36321
L65897 36259
L65959 36228
L66114 36228
L66176 36197
" />
<path d="M66764 36043
L66764 36569
L66733 36631
L66702 36662
L66640 36693
L66547 36693
L66485 36662
" />
<path d="M66764 36445
L66702 36476
L66578 36476
L66516 36445
L66485 36414
L66454 36352
L66454 36167
L66485 36105
L66516 36074
L66578 36043
L66702 36043
L66764 36074
" />
<path d="M67073 36043
L67073 36476
" />
<path d="M67073 36105
L67104 36074
L67166 36043
L67259 36043
L67321 36074
L67352 36136
L67352 36476
" />
<path d="M67909 36445
L67847 36476
L67723 36476
L67661 36445
L67630 36383
L67630 36136
L67661 36074
L67723 36043
L67847 36043
L67909 36074
L67940 36136
L67940 36197
L67630 36259
" />
<path d="M68126 36043
L68373 36043
" />
<path d="M68219 35826
L68219 36383
L68250 36445
L68311 36476
L68373 36476
" />
<path d="M65154 37611
L65154 36961
L65309 36961
L65402 36992
L65464 37054
L65495 37116
L65526 37240
L65526 37332
L65495 37456
L65464 37518
L65402 37580
L65309 37611
L65154 37611
" />
<path d="M66083 37178
L66083 37611
" />
<path d="M65928 36930
L65773 37394
L66176 37394
" />
<path d="M66516 37240
L66454 37209
L66423 37178
L66392 37116
L66392 37085
L66423 37023
L66454 36992
L66516 36961
L66640 36961
L66702 36992
L66733 37023
L66764 37085
L66764 37116
L66733 37178
L66702 37209
L66640 37240
L66516 37240
L66454 37271
L66423 37302
L66392 37363
L66392 37487
L66423 37549
L66454 37580
L66516 37611
L66640 37611
L66702 37580
L66733 37549
L66764 37487
L66764 37363
L66733 37302
L66702 37271
L66640 37240
" />
<path d="M79964 27544
L79654 27544
L79623 27853
L79654 27822
L79716 27791
L79871 27791
L79933 27822
L79964 27853
L79995 27915
L79995 28070
L79964 28132
L79933 28163
L79871 28194
L79716 28194
L79654 28163
L79623 28132
" />
<path d="M80180 27544
L80397 28194
L80614 27544
" />
<path d="M58344 46138
L58994 45921
L58344 45704
" />
<path d="M58994 45488
L58560 45488
" />
<path d="M58344 45488
L58375 45519
L58405 45488
L58375 45457
L58344 45488
L58405 45488
" />
<path d="M58560 45178
L58994 45178
" />
<path d="M58622 45178
L58591 45147
L58560 45085
L58560 44992
L58591 44930
L58653 44900
L58994 44900
" />
<path d="M57375 45704
L57344 45766
L57344 45859
L57375 45952
L57436 46014
L57498 46045
L57622 46076
L57715 46076
L57839 46045
L57901 46014
L57963 45952
L57994 45859
L57994 45797
L57963 45704
L57932 45673
L57715 45673
L57715 45797
" />
<path d="M57994 45395
L57344 45395
L57994 45023
L57344 45023
" />
<path d="M57994 44714
L57344 44714
L57344 44559
L57375 44466
L57436 44404
L57498 44373
L57622 44342
L57715 44342
L57839 44373
L57901 44404
L57963 44466
L57994 44559
L57994 44714
" />
<path d="M56375 45704
L56344 45766
L56344 45859
L56375 45952
L56436 46014
L56498 46045
L56622 46076
L56715 46076
L56839 46045
L56901 46014
L56963 45952
L56994 45859
L56994 45797
L56963 45704
L56932 45673
L56715 45673
L56715 45797
" />
<path d="M56994 45395
L56344 45395
L56994 45023
L56344 45023
" />
<path d="M56994 44714
L56344 44714
L56344 44559
L56375 44466
L56436 44404
L56498 44373
L56622 44342
L56715 44342
L56839 44373
L56901 44404
L56963 44466
L56994 44559
L56994 44714
" />
<path d="M55344 45735
L55344 46045
L55653 46076
L55622 46045
L55591 45983
L55591 45828
L55622 45766
L55653 45735
L55715 45704
L55870 45704
L55932 45735
L55963 45766
L55994 45828
L55994 45983
L55963 46045
L55932 46076
" />
<path d="M55344 45519
L55994 45302
L55344 45085
" />
<path d="M54344 46107
L54344 45704
L54591 45921
L54591 45828
L54622 45766
L54653 45735
L54715 45704
L54870 45704
L54932 45735
L54963 45766
L54994 45828
L54994 46014
L54963 46076
L54932 46107
" />
<path d="M54932 45426
L54963 45395
L54994 45426
L54963 45457
L54932 45426
L54994 45426
" />
<path d="M54344 45178
L54344 44776
L54591 44992
L54591 44900
L54622 44838
L54653 44807
L54715 44776
L54870 44776
L54932 44807
L54963 44838
L54994 44900
L54994 45085
L54963 45147
L54932 45178
" />
<path d="M51016 38576
L51233 39226
L51450 38576
" />
<path d="M51759 39226
L51697 39195
L51666 39164
L51635 39102
L51635 38917
L51666 38855
L51697 38824
L51759 38793
L51852 38793
L51914 38824
L51945 38855
L51976 38917
L51976 39102
L51945 39164
L51914 39195
L51852 39226
L51759 39226
" />
<path d="M52347 39226
L52285 39195
L52254 39133
L52254 38576
" />
<path d="M52502 38793
L52750 38793
" />
<path d="M52595 38576
L52595 39133
L52626 39195
L52688 39226
L52750 39226
" />
<path d="M53245 39226
L53245 38886
L53214 38824
L53152 38793
L53028 38793
L52966 38824
" />
<path d="M53245 39195
L53183 39226
L53028 39226
L52966 39195
L52935 39133
L52935 39071
L52966 39009
L53028 38978
L53183 38978
L53245 38947
" />
<path d="M53833 38793
L53833 39319
L53802 39381
L53771 39412
L53709 39443
L53616 39443
L53554 39412
" />
<path d="M53833 39195
L53771 39226
L53647 39226
L53585 39195
L53554 39164
L53523 39102
L53523 38917
L53554 38855
L53585 38824
L53647 38793
L53771 38793
L53833 38824
" />
<path d="M54390 39195
L54328 39226
L54204 39226
L54142 39195
L54111 39133
L54111 38886
L54142 38824
L54204 38793
L54328 38793
L54390 38824
L54421 38886
L54421 38947
L54111 39009
" />
<path d="M50939 40361
L50722 40052
" />
<path d="M50567 40361
L50567 39711
L50815 39711
L50877 39742
L50908 39773
L50939 39835
L50939 39928
L50908 39990
L50877 40021
L50815 40052
L50567 40052
" />
<path d="M51465 40330
L51403 40361
L51279 40361
L51217 40330
L51186 40268
L51186 40021
L51217 39959
L51279 39928
L51403 39928
L51465 39959
L51496 40021
L51496 40082
L51186 40144
" />
<path d="M52053 39928
L52053 40454
L52022 40516
L51991 40547
L51929 40578
L51836 40578
L51774 40547
" />
<path d="M52053 40330
L51991 40361
L51867 40361
L51805 40330
L51774 40299
L51744 40237
L51744 40052
L51774 39990
L51805 39959
L51867 39928
L51991 39928
L52053 39959
" />
<path d="M52641 39928
L52641 40361
" />
<path d="M52363 39928
L52363 40268
L52394 40330
L52455 40361
L52548 40361
L52610 40330
L52641 40299
" />
<path d="M53044 40361
L52982 40330
L52951 40268
L52951 39711
" />
<path d="M53570 40361
L53570 40021
L53539 39959
L53477 39928
L53353 39928
L53291 39959
" />
<path d="M53570 40330
L53508 40361
L53353 40361
L53291 40330
L53260 40268
L53260 40206
L53291 40144
L53353 40113
L53508 40113
L53570 40082
" />
<path d="M53786 39928
L54034 39928
" />
<path d="M53879 39711
L53879 40268
L53910 40330
L53972 40361
L54034 40361
" />
<path d="M54344 40361
L54282 40330
L54251 40299
L54220 40237
L54220 40052
L54251 39990
L54282 39959
L54344 39928
L54436 39928
L54498 39959
L54529 39990
L54560 40052
L54560 40237
L54529 40299
L54498 40330
L54436 40361
L54344 40361
" />
<path d="M54839 40361
L54839 39928
" />
<path d="M54839 40052
L54870 39990
L54901 39959
L54963 39928
L55025 39928
" />
<path d="M44546 40247
L44546 39752
" />
<path d="M44546 38247
L44546 37752
" />
<path d="M44794 37999
L44298 37999
" />
<path d="M45453 40346
L45484 40253
L45515 40222
L45577 40191
L45670 40191
L45732 40222
L45763 40253
L45794 40315
L45794 40563
L45144 40563
L45144 40346
L45175 40284
L45205 40253
L45267 40222
L45329 40222
L45391 40253
L45422 40284
L45453 40346
L45453 40563
" />
<path d="M45794 39634
L45453 39634
L45391 39665
L45360 39727
L45360 39851
L45391 39913
" />
<path d="M45763 39634
L45794 39696
L45794 39851
L45763 39913
L45701 39944
L45639 39944
L45577 39913
L45546 39851
L45546 39696
L45515 39634
" />
<path d="M45360 39417
L45360 39170
" />
<path d="M45144 39325
L45701 39325
L45763 39294
L45794 39232
L45794 39170
" />
<path d="M45360 39046
L45360 38798
" />
<path d="M45144 38953
L45701 38953
L45763 38922
L45794 38860
L45794 38798
" />
<path d="M45763 38334
L45794 38396
L45794 38520
L45763 38582
L45701 38613
L45453 38613
L45391 38582
L45360 38520
L45360 38396
L45391 38334
L45453 38303
L45515 38303
L45577 38613
" />
<path d="M45794 38025
L45360 38025
" />
<path d="M45484 38025
L45422 37994
L45391 37963
L45360 37901
L45360 37839
" />
<path d="M45360 37684
L45794 37529
" />
<path d="M45360 37374
L45794 37529
L45948 37591
L45979 37622
L46010 37684
" />
<path d="M57688 33945
L57780 33976
L57935 33976
L57997 33945
L58028 33914
L58059 33852
L58059 33790
L58028 33728
L57997 33697
L57935 33667
L57811 33636
L57749 33605
L57719 33574
L57688 33512
L57688 33450
L57719 33388
L57749 33357
L57811 33326
L57966 33326
L58059 33357
" />
<path d="M58245 33543
L58492 33543
" />
<path d="M58338 33326
L58338 33883
L58369 33945
L58430 33976
L58492 33976
" />
<path d="M58957 33945
L58895 33976
L58771 33976
L58709 33945
L58678 33883
L58678 33636
L58709 33574
L58771 33543
L58895 33543
L58957 33574
L58988 33636
L58988 33697
L58678 33759
" />
<path d="M59266 33543
L59266 34193
" />
<path d="M59266 33574
L59328 33543
L59452 33543
L59514 33574
L59545 33605
L59576 33667
L59576 33852
L59545 33914
L59514 33945
L59452 33976
L59328 33976
L59266 33945
" />
<path d="M59854 33543
L59854 34193
" />
<path d="M59854 33574
L59916 33543
L60040 33543
L60102 33574
L60133 33605
L60164 33667
L60164 33852
L60133 33914
L60102 33945
L60040 33976
L59916 33976
L59854 33945
" />
<path d="M60690 33945
L60628 33976
L60504 33976
L60442 33945
L60411 33883
L60411 33636
L60442 33574
L60504 33543
L60628 33543
L60690 33574
L60721 33636
L60721 33697
L60411 33759
" />
<path d="M61000 33976
L61000 33543
" />
<path d="M61000 33667
L61030 33605
L61061 33574
L61123 33543
L61185 33543
" />
<path d="M61897 33976
L61897 33326
L62114 33790
L62330 33326
L62330 33976
" />
<path d="M62733 33976
L62671 33945
L62640 33914
L62609 33852
L62609 33667
L62640 33605
L62671 33574
L62733 33543
L62826 33543
L62888 33574
L62919 33605
L62950 33667
L62950 33852
L62919 33914
L62888 33945
L62826 33976
L62733 33976
" />
<path d="M63135 33543
L63383 33543
" />
<path d="M63228 33326
L63228 33883
L63259 33945
L63321 33976
L63383 33976
" />
<path d="M63692 33976
L63630 33945
L63600 33914
L63569 33852
L63569 33667
L63600 33605
L63630 33574
L63692 33543
L63785 33543
L63847 33574
L63878 33605
L63909 33667
L63909 33852
L63878 33914
L63847 33945
L63785 33976
L63692 33976
" />
<path d="M64188 33976
L64188 33543
" />
<path d="M64188 33667
L64219 33605
L64250 33574
L64311 33543
L64373 33543
" />
<path d="M59111 35049
L59080 35080
L58988 35111
L58926 35111
L58833 35080
L58771 35018
L58740 34956
L58709 34832
L58709 34740
L58740 34616
L58771 34554
L58833 34492
L58926 34461
L58988 34461
L59080 34492
L59111 34523
" />
<path d="M59483 35111
L59421 35080
L59390 35049
L59359 34987
L59359 34802
L59390 34740
L59421 34709
L59483 34678
L59576 34678
L59638 34709
L59669 34740
L59699 34802
L59699 34987
L59669 35049
L59638 35080
L59576 35111
L59483 35111
" />
<path d="M59978 34678
L59978 35111
" />
<path d="M59978 34740
L60009 34709
L60071 34678
L60164 34678
L60226 34709
L60257 34771
L60257 35111
" />
<path d="M60473 34678
L60721 34678
" />
<path d="M60566 34461
L60566 35018
L60597 35080
L60659 35111
L60721 35111
" />
<path d="M60938 35111
L60938 34678
" />
<path d="M60938 34802
L60969 34740
L60999 34709
L61061 34678
L61123 34678
" />
<path d="M61433 35111
L61371 35080
L61340 35049
L61309 34987
L61309 34802
L61340 34740
L61371 34709
L61433 34678
L61526 34678
L61588 34709
L61619 34740
L61650 34802
L61650 34987
L61619 35049
L61588 35080
L61526 35111
L61433 35111
" />
<path d="M62021 35111
L61959 35080
L61928 35018
L61928 34461
" />
<path d="M62361 35111
L62300 35080
L62269 35018
L62269 34461
" />
<path d="M62857 35080
L62795 35111
L62671 35111
L62609 35080
L62578 35018
L62578 34771
L62609 34709
L62671 34678
L62795 34678
L62857 34709
L62888 34771
L62888 34832
L62578 34894
" />
<path d="M63166 35111
L63166 34678
" />
<path d="M63166 34802
L63197 34740
L63228 34709
L63290 34678
L63352 34678
" />
<path d="M51669 32909
L51669 32259
L51916 32259
L51978 32290
L52009 32320
L52040 32382
L52040 32475
L52009 32537
L51978 32568
L51916 32599
L51669 32599
" />
<path d="M52597 32475
L52597 32909
" />
<path d="M52319 32475
L52319 32816
L52349 32878
L52411 32909
L52504 32909
L52566 32878
L52597 32847
" />
<path d="M52999 32909
L52938 32878
L52907 32816
L52907 32259
" />
<path d="M53340 32909
L53278 32878
L53247 32816
L53247 32259
" />
<path d="M53835 32878
L53773 32909
L53650 32909
L53588 32878
L53557 32816
L53557 32568
L53588 32506
L53650 32475
L53773 32475
L53835 32506
L53866 32568
L53866 32630
L53557 32692
" />
<path d="M54083 32475
L54238 32909
" />
<path d="M54392 32475
L54238 32909
L54176 33063
L54145 33094
L54083 33125
" />
<path d="M51792 34013
L51885 34044
L52040 34044
L52102 34013
L52133 33982
L52164 33920
L52164 33858
L52133 33796
L52102 33765
L52040 33734
L51916 33703
L51854 33672
L51823 33641
L51792 33579
L51792 33517
L51823 33455
L51854 33425
L51916 33394
L52071 33394
L52164 33425
" />
<path d="M52690 34013
L52628 34044
L52504 34044
L52442 34013
L52411 33951
L52411 33703
L52442 33641
L52504 33610
L52628 33610
L52690 33641
L52721 33703
L52721 33765
L52411 33827
" />
<path d="M53000 34044
L53000 33610
" />
<path d="M53000 33734
L53030 33672
L53061 33641
L53123 33610
L53185 33610
" />
<path d="M53340 33610
L53495 34044
L53650 33610
" />
<path d="M53990 34044
L53928 34013
L53897 33982
L53866 33920
L53866 33734
L53897 33672
L53928 33641
L53990 33610
L54083 33610
L54145 33641
L54176 33672
L54207 33734
L54207 33920
L54176 33982
L54145 34013
L54083 34044
L53990 34044
" />
<path d="M52210 35179
L52210 34529
L52365 34529
L52458 34560
L52520 34621
L52551 34683
L52582 34807
L52582 34900
L52551 35024
L52520 35086
L52458 35148
L52365 35179
L52210 35179
" />
<path d="M53201 35179
L52829 35179
" />
<path d="M53015 35179
L53015 34529
L52953 34621
L52891 34683
L52829 34714
" />
<path d="M53448 34590
L53479 34560
L53541 34529
L53696 34529
L53758 34560
L53789 34590
L53820 34652
L53820 34714
L53789 34807
L53417 35179
L53820 35179
" />
<path d="M42690 33388
L42721 33357
L42783 33326
L42938 33326
L43000 33357
L43030 33388
L43061 33450
L43061 33512
L43030 33605
L42659 33976
L43061 33976
" />
<path d="M43464 33326
L43526 33326
L43588 33357
L43619 33388
L43650 33450
L43680 33574
L43680 33728
L43650 33852
L43619 33914
L43588 33945
L43526 33976
L43464 33976
L43402 33945
L43371 33914
L43340 33852
L43309 33728
L43309 33574
L43340 33450
L43371 33388
L43402 33357
L43464 33326
" />
<path d="M44300 33976
L43928 33976
" />
<path d="M44114 33976
L44114 33326
L44052 33419
L43990 33481
L43928 33512
" />
<path d="M44671 33605
L44609 33574
L44578 33543
L44547 33481
L44547 33450
L44578 33388
L44609 33357
L44671 33326
L44795 33326
L44857 33357
L44888 33388
L44919 33450
L44919 33481
L44888 33543
L44857 33574
L44795 33605
L44671 33605
L44609 33636
L44578 33667
L44547 33728
L44547 33852
L44578 33914
L44609 33945
L44671 33976
L44795 33976
L44857 33945
L44888 33914
L44919 33852
L44919 33728
L44888 33667
L44857 33636
L44795 33605
" />
<path d="M46064 33976
L45847 33667
" />
<path d="M45692 33976
L45692 33326
L45940 33326
L46002 33357
L46033 33388
L46064 33450
L46064 33543
L46033 33605
L46002 33636
L45940 33667
L45692 33667
" />
<path d="M46590 33945
L46528 33976
L46404 33976
L46342 33945
L46311 33883
L46311 33636
L46342 33574
L46404 33543
L46528 33543
L46590 33574
L46621 33636
L46621 33697
L46311 33759
" />
<path d="M47178 33543
L47178 34069
L47147 34131
L47116 34162
L47054 34193
L46961 34193
L46900 34162
" />
<path d="M47178 33945
L47116 33976
L46992 33976
L46930 33945
L46900 33914
L46869 33852
L46869 33667
L46900 33605
L46930 33574
L46992 33543
L47116 33543
L47178 33574
" />
<path d="M47488 33976
L47488 33543
" />
<path d="M47488 33326
L47457 33357
L47488 33388
L47519 33357
L47488 33326
L47488 33388
" />
<path d="M47890 33976
L47828 33945
L47797 33914
L47766 33852
L47766 33667
L47797 33605
L47828 33574
L47890 33543
L47983 33543
L48045 33574
L48076 33605
L48107 33667
L48107 33852
L48076 33914
L48045 33945
L47983 33976
L47890 33976
" />
<path d="M48385 33543
L48385 33976
" />
<path d="M48385 33605
L48416 33574
L48478 33543
L48571 33543
L48633 33574
L48664 33636
L48664 33976
" />
<path d="M49778 33326
L49469 33326
L49438 33636
L49469 33605
L49530 33574
L49685 33574
L49747 33605
L49778 33636
L49809 33697
L49809 33852
L49778 33914
L49747 33945
L49685 33976
L49530 33976
L49469 33945
L49438 33914
" />
<path d="M41545 35111
L41328 34802
" />
<path d="M41173 35111
L41173 34461
L41421 34461
L41483 34492
L41514 34523
L41545 34585
L41545 34678
L41514 34740
L41483 34771
L41421 34802
L41173 34802
" />
<path d="M41916 35111
L41854 35080
L41823 35049
L41792 34987
L41792 34802
L41823 34740
L41854 34709
L41916 34678
L42009 34678
L42071 34709
L42102 34740
L42133 34802
L42133 34987
L42102 35049
L42071 35080
L42009 35111
L41916 35111
" />
<path d="M42411 35111
L42411 34461
" />
<path d="M42411 34709
L42473 34678
L42597 34678
L42659 34709
L42690 34740
L42721 34802
L42721 34987
L42690 35049
L42659 35080
L42597 35111
L42473 35111
L42411 35080
" />
<path d="M43092 35111
L43030 35080
L43000 35049
L42969 34987
L42969 34802
L43000 34740
L43030 34709
L43092 34678
L43185 34678
L43247 34709
L43278 34740
L43309 34802
L43309 34987
L43278 35049
L43247 35080
L43185 35111
L43092 35111
" />
<path d="M43495 34678
L43742 34678
" />
<path d="M43588 34461
L43588 35018
L43619 35080
L43680 35111
L43742 35111
" />
<path d="M43959 35111
L43959 34678
" />
<path d="M43959 34461
L43928 34492
L43959 34523
L43990 34492
L43959 34461
L43959 34523
" />
<path d="M44547 35080
L44485 35111
L44361 35111
L44300 35080
L44269 35049
L44238 34987
L44238 34802
L44269 34740
L44300 34709
L44361 34678
L44485 34678
L44547 34709
" />
<path d="M44795 35080
L44857 35111
L44980 35111
L45042 35080
L45073 35018
L45073 34987
L45042 34925
L44980 34894
L44888 34894
L44826 34863
L44795 34802
L44795 34771
L44826 34709
L44888 34678
L44980 34678
L45042 34709
" />
<path d="M46219 35049
L46188 35080
L46095 35111
L46033 35111
L45940 35080
L45878 35018
L45847 34956
L45816 34832
L45816 34740
L45847 34616
L45878 34554
L45940 34492
L46033 34461
L46095 34461
L46188 34492
L46219 34523
" />
<path d="M46590 35111
L46528 35080
L46497 35049
L46466 34987
L46466 34802
L46497 34740
L46528 34709
L46590 34678
L46683 34678
L46745 34709
L46776 34740
L46807 34802
L46807 34987
L46776 35049
L46745 35080
L46683 35111
L46590 35111
" />
<path d="M47085 35111
L47085 34678
" />
<path d="M47085 34740
L47116 34709
L47178 34678
L47271 34678
L47333 34709
L47364 34771
L47364 35111
" />
<path d="M47364 34771
L47395 34709
L47457 34678
L47550 34678
L47611 34709
L47642 34771
L47642 35111
" />
<path d="M47952 34678
L47952 35328
" />
<path d="M47952 34709
L48014 34678
L48138 34678
L48200 34709
L48230 34740
L48261 34802
L48261 34987
L48230 35049
L48200 35080
L48138 35111
L48014 35111
L47952 35080
" />
<path d="M48788 35080
L48726 35111
L48602 35111
L48540 35080
L48509 35018
L48509 34771
L48540 34709
L48602 34678
L48726 34678
L48788 34709
L48819 34771
L48819 34832
L48509 34894
" />
<path d="M49004 34678
L49252 34678
" />
<path d="M49097 34461
L49097 35018
L49128 35080
L49190 35111
L49252 35111
" />
<path d="M49469 35111
L49469 34678
" />
<path d="M49469 34461
L49438 34492
L49469 34523
L49500 34492
L49469 34461
L49469 34523
" />
<path d="M49685 34678
L49933 34678
" />
<path d="M49778 34461
L49778 35018
L49809 35080
L49871 35111
L49933 35111
" />
<path d="M50150 35111
L50150 34678
" />
<path d="M50150 34461
L50119 34492
L50150 34523
L50180 34492
L50150 34461
L50150 34523
" />
<path d="M50552 35111
L50490 35080
L50459 35049
L50428 34987
L50428 34802
L50459 34740
L50490 34709
L50552 34678
L50645 34678
L50707 34709
L50738 34740
L50769 34802
L50769 34987
L50738 35049
L50707 35080
L50645 35111
L50552 35111
" />
<path d="M51047 34678
L51047 35111
" />
<path d="M51047 34740
L51078 34709
L51140 34678
L51233 34678
L51295 34709
L51326 34771
L51326 35111
" />
<path d="M59453 39869
L59484 39776
L59515 39745
L59577 39714
L59670 39714
L59732 39745
L59763 39776
L59794 39838
L59794 40085
L59144 40085
L59144 39869
L59175 39807
L59205 39776
L59267 39745
L59329 39745
L59391 39776
L59422 39807
L59453 39869
L59453 40085
" />
<path d="M59794 39342
L59763 39404
L59701 39435
L59144 39435
" />
<path d="M81700 47900
L40700 47900
" />
<path d="M40700 26900
L81700 26900
" />
<path d="M40700 47900
L40700 26900
" />
</g> 
</svg>
