G04 #@! TF.FileFunction,Copper,L2,Bot,Signal*
%FSLAX46Y46*%
G04 Gerber Fmt 4.6, Leading zero omitted, Abs format (unit mm)*
G04 Created by KiCad (PCBNEW 4.0.7) date 03/26/18 14:08:05*
%MOMM*%
%LPD*%
G01*
G04 APERTURE LIST*
%ADD10C,0.100000*%
%ADD11C,1.727200*%
%ADD12O,1.727200X1.727200*%
%ADD13O,1.727200X2.032000*%
%ADD14C,4.064000*%
%ADD15R,2.000000X2.000000*%
%ADD16C,2.000000*%
%ADD17R,3.000000X3.000000*%
%ADD18C,3.000000*%
%ADD19C,1.905000*%
%ADD20C,3.048000*%
%ADD21C,0.762000*%
%ADD22C,0.250000*%
%ADD23C,1.270000*%
%ADD24C,0.254000*%
G04 APERTURE END LIST*
D10*
D11*
X197358000Y-114046000D03*
D12*
X199898000Y-114046000D03*
X197358000Y-111506000D03*
X199898000Y-111506000D03*
X197358000Y-108966000D03*
X199898000Y-108966000D03*
X197358000Y-106426000D03*
X199898000Y-106426000D03*
X197358000Y-103886000D03*
X199898000Y-103886000D03*
X197358000Y-101346000D03*
X199898000Y-101346000D03*
X197358000Y-98806000D03*
X199898000Y-98806000D03*
X197358000Y-96266000D03*
X199898000Y-96266000D03*
X197358000Y-93726000D03*
X199898000Y-93726000D03*
X197358000Y-91186000D03*
X199898000Y-91186000D03*
X197358000Y-88646000D03*
X199898000Y-88646000D03*
X197358000Y-86106000D03*
X199898000Y-86106000D03*
X197358000Y-83566000D03*
X199898000Y-83566000D03*
X197358000Y-81026000D03*
X199898000Y-81026000D03*
X197358000Y-78486000D03*
X199898000Y-78486000D03*
X197358000Y-75946000D03*
X199898000Y-75946000D03*
X197358000Y-73406000D03*
X199898000Y-73406000D03*
X197358000Y-70866000D03*
X199898000Y-70866000D03*
D13*
X131318000Y-119126000D03*
X133858000Y-119126000D03*
X136398000Y-119126000D03*
X138938000Y-119126000D03*
X141478000Y-119126000D03*
X144018000Y-119126000D03*
X146558000Y-119126000D03*
X149098000Y-119126000D03*
X154178000Y-119126000D03*
X156718000Y-119126000D03*
X159258000Y-119126000D03*
X161798000Y-119126000D03*
X164338000Y-119126000D03*
X166878000Y-119126000D03*
X169418000Y-119126000D03*
X171958000Y-119126000D03*
X177038000Y-119126000D03*
X179578000Y-119126000D03*
X182118000Y-119126000D03*
X184658000Y-119126000D03*
X187198000Y-119126000D03*
X189738000Y-119126000D03*
X192278000Y-119126000D03*
X194818000Y-119126000D03*
X122174000Y-70866000D03*
X124714000Y-70866000D03*
X127254000Y-70866000D03*
X129794000Y-70866000D03*
X132334000Y-70866000D03*
X134874000Y-70866000D03*
X137414000Y-70866000D03*
X139954000Y-70866000D03*
X142494000Y-70866000D03*
X145034000Y-70866000D03*
X149098000Y-70866000D03*
X151638000Y-70866000D03*
X154178000Y-70866000D03*
X156718000Y-70866000D03*
X159258000Y-70866000D03*
X161798000Y-70866000D03*
X164338000Y-70866000D03*
X166878000Y-70866000D03*
X171958000Y-70866000D03*
X174498000Y-70866000D03*
X177038000Y-70866000D03*
X179578000Y-70866000D03*
X182118000Y-70866000D03*
X184658000Y-70866000D03*
X187198000Y-70866000D03*
X189738000Y-70866000D03*
D14*
X117348000Y-119126000D03*
X169418000Y-114046000D03*
X199898000Y-119126000D03*
X118618000Y-70866000D03*
X169418000Y-86106000D03*
X193548000Y-70866000D03*
D15*
X184785000Y-108585000D03*
D16*
X187325000Y-108585000D03*
X189865000Y-108585000D03*
D15*
X184785000Y-104140000D03*
D16*
X187325000Y-104140000D03*
X189865000Y-104140000D03*
D15*
X184785000Y-99695000D03*
D16*
X187325000Y-99695000D03*
X189865000Y-99695000D03*
D15*
X184785000Y-95250000D03*
D16*
X187325000Y-95250000D03*
X189865000Y-95250000D03*
D15*
X184785000Y-90805000D03*
D16*
X187325000Y-90805000D03*
X189865000Y-90805000D03*
D15*
X184785000Y-86360000D03*
D16*
X187325000Y-86360000D03*
X189865000Y-86360000D03*
D15*
X137160000Y-78740000D03*
D16*
X134620000Y-78740000D03*
X132080000Y-78740000D03*
D15*
X158750000Y-97790000D03*
D16*
X156210000Y-97790000D03*
X153670000Y-97790000D03*
X151130000Y-97790000D03*
D15*
X184785000Y-78740000D03*
D16*
X187325000Y-78740000D03*
X189865000Y-78740000D03*
X192405000Y-78740000D03*
D17*
X107950000Y-96520000D03*
D18*
X107950000Y-101600000D03*
D15*
X187325000Y-113030000D03*
D16*
X189865000Y-113030000D03*
D19*
X163830000Y-91440000D03*
X163830000Y-78740000D03*
X161290000Y-91440000D03*
X161290000Y-78740000D03*
X158750000Y-91440000D03*
X158750000Y-78740000D03*
X156210000Y-91440000D03*
X156210000Y-78740000D03*
X153670000Y-91440000D03*
X153670000Y-78740000D03*
X151130000Y-91440000D03*
X151130000Y-78740000D03*
X148590000Y-91440000D03*
X148590000Y-78740000D03*
X146050000Y-91440000D03*
X146050000Y-78740000D03*
X130175000Y-110490000D03*
X132715000Y-110490000D03*
X135255000Y-110490000D03*
X137795000Y-110490000D03*
X140335000Y-110490000D03*
D20*
X126619000Y-109601000D03*
X140081000Y-93599000D03*
D21*
X135255000Y-110490000D02*
X137160000Y-112395000D01*
X135255000Y-110490000D02*
X135255000Y-107950000D01*
X137795000Y-110490000D02*
X137795000Y-107950000D01*
X135255000Y-110490000D02*
X137795000Y-110490000D01*
X161290000Y-91440000D02*
X161290000Y-93980000D01*
X197358000Y-114046000D02*
X199898000Y-114046000D01*
D22*
X187325000Y-113030000D02*
X189230000Y-111125000D01*
X192405000Y-111125000D02*
X197104000Y-106426000D01*
X189230000Y-111125000D02*
X192405000Y-111125000D01*
X197104000Y-106426000D02*
X197358000Y-106426000D01*
X189865000Y-108585000D02*
X192405000Y-108585000D01*
X192405000Y-108585000D02*
X197104000Y-103886000D01*
X197104000Y-103886000D02*
X197358000Y-103886000D01*
X189865000Y-104140000D02*
X192405000Y-104140000D01*
X195199000Y-101346000D02*
X197358000Y-101346000D01*
X192405000Y-104140000D02*
X195199000Y-101346000D01*
X189865000Y-99695000D02*
X192405000Y-99695000D01*
X195834000Y-96266000D02*
X197358000Y-96266000D01*
X192405000Y-99695000D02*
X195834000Y-96266000D01*
X189865000Y-95250000D02*
X192405000Y-95250000D01*
X193929000Y-93726000D02*
X197358000Y-93726000D01*
X192405000Y-95250000D02*
X193929000Y-93726000D01*
X189865000Y-90805000D02*
X192405000Y-90805000D01*
X194564000Y-88646000D02*
X197358000Y-88646000D01*
X192405000Y-90805000D02*
X194564000Y-88646000D01*
X189865000Y-86360000D02*
X192405000Y-86360000D01*
X195199000Y-83566000D02*
X197358000Y-83566000D01*
X192405000Y-86360000D02*
X195199000Y-83566000D01*
D23*
X140335000Y-110490000D02*
X146050000Y-104775000D01*
X163830000Y-99695000D02*
X163830000Y-91440000D01*
X158750000Y-104775000D02*
X163830000Y-99695000D01*
X146050000Y-104775000D02*
X158750000Y-104775000D01*
X151130000Y-81915000D02*
X140335000Y-81915000D01*
X140335000Y-81915000D02*
X137160000Y-78740000D01*
X158750000Y-78740000D02*
X158750000Y-81915000D01*
X163830000Y-91440000D02*
X163830000Y-81915000D01*
X151130000Y-81915000D02*
X158750000Y-81915000D01*
X158750000Y-81915000D02*
X163830000Y-81915000D01*
X163830000Y-81915000D02*
X184785000Y-81915000D01*
X184785000Y-81915000D02*
X184785000Y-78740000D01*
X184785000Y-86360000D02*
X184785000Y-81915000D01*
X184785000Y-90805000D02*
X184785000Y-91440000D01*
X184785000Y-91440000D02*
X184785000Y-86360000D01*
X184785000Y-95250000D02*
X184785000Y-90805000D01*
X184785000Y-99695000D02*
X184785000Y-95250000D01*
X184785000Y-104140000D02*
X184785000Y-99695000D01*
X184785000Y-108585000D02*
X184785000Y-104140000D01*
X151130000Y-81915000D02*
X151130000Y-78740000D01*
D22*
X132080000Y-78740000D02*
X132080000Y-77470000D01*
X134874000Y-74676000D02*
X134874000Y-70866000D01*
X132080000Y-77470000D02*
X134874000Y-74676000D01*
X146050000Y-78740000D02*
X146050000Y-76200000D01*
X149098000Y-73152000D02*
X149098000Y-70866000D01*
X146050000Y-76200000D02*
X149098000Y-73152000D01*
X148590000Y-78740000D02*
X148590000Y-76200000D01*
X151638000Y-73152000D02*
X151638000Y-70866000D01*
X148590000Y-76200000D02*
X151638000Y-73152000D01*
X189865000Y-78740000D02*
X189865000Y-76835000D01*
X187198000Y-74168000D02*
X187198000Y-70866000D01*
X189865000Y-76835000D02*
X187198000Y-74168000D01*
X192405000Y-78740000D02*
X192405000Y-76835000D01*
X189738000Y-74168000D02*
X189738000Y-70866000D01*
X192405000Y-76835000D02*
X189738000Y-74168000D01*
X189865000Y-70993000D02*
X189738000Y-70866000D01*
D23*
X132715000Y-110490000D02*
X132715000Y-111760000D01*
X135890000Y-114935000D02*
X146685000Y-114935000D01*
X146685000Y-114935000D02*
X149098000Y-117348000D01*
X149098000Y-117348000D02*
X149098000Y-119126000D01*
X132715000Y-111760000D02*
X135890000Y-114935000D01*
X107950000Y-96520000D02*
X123825000Y-96520000D01*
X132715000Y-105410000D02*
X132715000Y-110490000D01*
X123825000Y-96520000D02*
X132715000Y-105410000D01*
X158750000Y-97790000D02*
X158750000Y-91440000D01*
X156210000Y-91440000D02*
X156210000Y-97790000D01*
X153670000Y-97790000D02*
X153670000Y-91440000D01*
X151130000Y-91440000D02*
X151130000Y-97790000D01*
D24*
G36*
X115857825Y-69174577D02*
X115420651Y-70359603D01*
X115470245Y-71621722D01*
X115857825Y-72557423D01*
X116359146Y-72765644D01*
X118258790Y-70866000D01*
X118244648Y-70851858D01*
X118603858Y-70492648D01*
X118618000Y-70506790D01*
X118632143Y-70492648D01*
X118991353Y-70851858D01*
X118977210Y-70866000D01*
X120876854Y-72765644D01*
X121378175Y-72557423D01*
X121458295Y-72340245D01*
X121600511Y-72435271D01*
X122174000Y-72549345D01*
X122747489Y-72435271D01*
X123233670Y-72110415D01*
X123444000Y-71795634D01*
X123654330Y-72110415D01*
X124140511Y-72435271D01*
X124714000Y-72549345D01*
X125287489Y-72435271D01*
X125773670Y-72110415D01*
X125984000Y-71795634D01*
X126194330Y-72110415D01*
X126680511Y-72435271D01*
X127254000Y-72549345D01*
X127827489Y-72435271D01*
X128187386Y-72194795D01*
X128700529Y-72696287D01*
X129231751Y-72944619D01*
X129540000Y-72720401D01*
X129540000Y-71120000D01*
X129520000Y-71120000D01*
X129520000Y-70612000D01*
X129540000Y-70612000D01*
X129540000Y-70592000D01*
X130048000Y-70592000D01*
X130048000Y-70612000D01*
X130068000Y-70612000D01*
X130068000Y-71120000D01*
X130048000Y-71120000D01*
X130048000Y-72720401D01*
X130356249Y-72944619D01*
X130887471Y-72696287D01*
X131400614Y-72194795D01*
X131760511Y-72435271D01*
X132334000Y-72549345D01*
X132907489Y-72435271D01*
X133393670Y-72110415D01*
X133604000Y-71795634D01*
X133814330Y-72110415D01*
X134114000Y-72310648D01*
X134114000Y-74361198D01*
X131542599Y-76932599D01*
X131377852Y-77179161D01*
X131360105Y-77268382D01*
X131155057Y-77353106D01*
X130694722Y-77812637D01*
X130445284Y-78413352D01*
X130444716Y-79063795D01*
X130693106Y-79664943D01*
X131152637Y-80125278D01*
X131753352Y-80374716D01*
X132403795Y-80375284D01*
X133004943Y-80126894D01*
X133465278Y-79667363D01*
X133558904Y-79441886D01*
X134260790Y-78740000D01*
X134246648Y-78725858D01*
X134605858Y-78366648D01*
X134620000Y-78380790D01*
X134634143Y-78366648D01*
X134993353Y-78725858D01*
X134979210Y-78740000D01*
X134993353Y-78754143D01*
X134634143Y-79113353D01*
X134620000Y-79099210D01*
X133468708Y-80250502D01*
X133549896Y-80645002D01*
X134360366Y-80909503D01*
X135210362Y-80843716D01*
X135690104Y-80645002D01*
X135771291Y-80250504D01*
X135983651Y-80462864D01*
X136076071Y-80370444D01*
X136160000Y-80387440D01*
X137011388Y-80387440D01*
X139436974Y-82813026D01*
X139848992Y-83088327D01*
X140335000Y-83185001D01*
X140335005Y-83185000D01*
X162560000Y-83185000D01*
X162560000Y-89810787D01*
X162406727Y-89964060D01*
X162331438Y-89574453D01*
X161538249Y-89317918D01*
X160707267Y-89384451D01*
X160248562Y-89574453D01*
X160173273Y-89964062D01*
X161290000Y-91080790D01*
X161304142Y-91066647D01*
X161663353Y-91425858D01*
X161649210Y-91440000D01*
X161663353Y-91454142D01*
X161304142Y-91813353D01*
X161290000Y-91799210D01*
X161275858Y-91813353D01*
X160916647Y-91454142D01*
X160930790Y-91440000D01*
X160141585Y-90650796D01*
X160096602Y-90541928D01*
X159650421Y-90094968D01*
X159067159Y-89852776D01*
X158435612Y-89852225D01*
X157851928Y-90093398D01*
X157479743Y-90464935D01*
X157110421Y-90094968D01*
X156527159Y-89852776D01*
X155895612Y-89852225D01*
X155311928Y-90093398D01*
X154939743Y-90464935D01*
X154570421Y-90094968D01*
X153987159Y-89852776D01*
X153355612Y-89852225D01*
X152771928Y-90093398D01*
X152399743Y-90464935D01*
X152030421Y-90094968D01*
X151447159Y-89852776D01*
X150815612Y-89852225D01*
X150231928Y-90093398D01*
X149859743Y-90464935D01*
X149490421Y-90094968D01*
X148907159Y-89852776D01*
X148275612Y-89852225D01*
X147691928Y-90093398D01*
X147244968Y-90539579D01*
X147199051Y-90650160D01*
X146409210Y-91440000D01*
X147198415Y-92229204D01*
X147243398Y-92338072D01*
X147689579Y-92785032D01*
X148272841Y-93027224D01*
X148904388Y-93027775D01*
X149488072Y-92786602D01*
X149860000Y-92415322D01*
X149860000Y-96747560D01*
X149744722Y-96862637D01*
X149495284Y-97463352D01*
X149494716Y-98113795D01*
X149743106Y-98714943D01*
X150202637Y-99175278D01*
X150803352Y-99424716D01*
X151453795Y-99425284D01*
X152054943Y-99176894D01*
X152400199Y-98832241D01*
X152742637Y-99175278D01*
X153343352Y-99424716D01*
X153993795Y-99425284D01*
X154594943Y-99176894D01*
X154940199Y-98832241D01*
X155282637Y-99175278D01*
X155883352Y-99424716D01*
X156533795Y-99425284D01*
X157134943Y-99176894D01*
X157201574Y-99110379D01*
X157285910Y-99241441D01*
X157498110Y-99386431D01*
X157750000Y-99437440D01*
X159750000Y-99437440D01*
X159985317Y-99393162D01*
X160201441Y-99254090D01*
X160346431Y-99041890D01*
X160397440Y-98790000D01*
X160397440Y-96790000D01*
X160353162Y-96554683D01*
X160214090Y-96338559D01*
X160020000Y-96205943D01*
X160020000Y-93069213D01*
X160173273Y-92915940D01*
X160248562Y-93305547D01*
X161041751Y-93562082D01*
X161872733Y-93495549D01*
X162331438Y-93305547D01*
X162406727Y-92915940D01*
X162560000Y-93069213D01*
X162560000Y-99168948D01*
X158223948Y-103505000D01*
X146050005Y-103505000D01*
X146050000Y-103504999D01*
X145596735Y-103595160D01*
X145563992Y-103601673D01*
X145151974Y-103876974D01*
X145151972Y-103876977D01*
X140126631Y-108902317D01*
X140020612Y-108902225D01*
X139436928Y-109143398D01*
X138989968Y-109589579D01*
X138944051Y-109700160D01*
X138154210Y-110490000D01*
X138943415Y-111279204D01*
X138988398Y-111388072D01*
X139434579Y-111835032D01*
X140017841Y-112077224D01*
X140649388Y-112077775D01*
X141233072Y-111836602D01*
X141282614Y-111787146D01*
X167518356Y-111787146D01*
X169418000Y-113686790D01*
X171317644Y-111787146D01*
X171109423Y-111285825D01*
X169924397Y-110848651D01*
X168662278Y-110898245D01*
X167726577Y-111285825D01*
X167518356Y-111787146D01*
X141282614Y-111787146D01*
X141680032Y-111390421D01*
X141922224Y-110807159D01*
X141922319Y-110698733D01*
X146576051Y-106045000D01*
X158749995Y-106045000D01*
X158750000Y-106045001D01*
X159236008Y-105948327D01*
X159648026Y-105673026D01*
X164728026Y-100593026D01*
X165003327Y-100181008D01*
X165100001Y-99695000D01*
X165100000Y-99694995D01*
X165100000Y-92415322D01*
X165175032Y-92340421D01*
X165417224Y-91757159D01*
X165417775Y-91125612D01*
X165176602Y-90541928D01*
X165100000Y-90465192D01*
X165100000Y-88364854D01*
X167518356Y-88364854D01*
X167726577Y-88866175D01*
X168911603Y-89303349D01*
X170173722Y-89253755D01*
X171109423Y-88866175D01*
X171317644Y-88364854D01*
X169418000Y-86465210D01*
X167518356Y-88364854D01*
X165100000Y-88364854D01*
X165100000Y-85599603D01*
X166220651Y-85599603D01*
X166270245Y-86861722D01*
X166657825Y-87797423D01*
X167159146Y-88005644D01*
X169058790Y-86106000D01*
X169777210Y-86106000D01*
X171676854Y-88005644D01*
X172178175Y-87797423D01*
X172615349Y-86612397D01*
X172565755Y-85350278D01*
X172178175Y-84414577D01*
X171676854Y-84206356D01*
X169777210Y-86106000D01*
X169058790Y-86106000D01*
X167159146Y-84206356D01*
X166657825Y-84414577D01*
X166220651Y-85599603D01*
X165100000Y-85599603D01*
X165100000Y-83185000D01*
X168114843Y-83185000D01*
X167726577Y-83345825D01*
X167518356Y-83847146D01*
X169418000Y-85746790D01*
X171317644Y-83847146D01*
X171109423Y-83345825D01*
X170673483Y-83185000D01*
X183515000Y-83185000D01*
X183515000Y-84779156D01*
X183333559Y-84895910D01*
X183188569Y-85108110D01*
X183137560Y-85360000D01*
X183137560Y-87360000D01*
X183181838Y-87595317D01*
X183320910Y-87811441D01*
X183515000Y-87944057D01*
X183515000Y-89224156D01*
X183333559Y-89340910D01*
X183188569Y-89553110D01*
X183137560Y-89805000D01*
X183137560Y-91805000D01*
X183181838Y-92040317D01*
X183320910Y-92256441D01*
X183515000Y-92389057D01*
X183515000Y-93669156D01*
X183333559Y-93785910D01*
X183188569Y-93998110D01*
X183137560Y-94250000D01*
X183137560Y-96250000D01*
X183181838Y-96485317D01*
X183320910Y-96701441D01*
X183515000Y-96834057D01*
X183515000Y-98114156D01*
X183333559Y-98230910D01*
X183188569Y-98443110D01*
X183137560Y-98695000D01*
X183137560Y-100695000D01*
X183181838Y-100930317D01*
X183320910Y-101146441D01*
X183515000Y-101279057D01*
X183515000Y-102559156D01*
X183333559Y-102675910D01*
X183188569Y-102888110D01*
X183137560Y-103140000D01*
X183137560Y-105140000D01*
X183181838Y-105375317D01*
X183320910Y-105591441D01*
X183515000Y-105724057D01*
X183515000Y-107004156D01*
X183333559Y-107120910D01*
X183188569Y-107333110D01*
X183137560Y-107585000D01*
X183137560Y-109585000D01*
X183181838Y-109820317D01*
X183320910Y-110036441D01*
X183533110Y-110181431D01*
X183785000Y-110232440D01*
X185785000Y-110232440D01*
X185869942Y-110216457D01*
X185961349Y-110307864D01*
X186173709Y-110095504D01*
X186254896Y-110490002D01*
X187065366Y-110754503D01*
X187915362Y-110688716D01*
X188395104Y-110490002D01*
X188476292Y-110095502D01*
X187325000Y-108944210D01*
X187310858Y-108958353D01*
X186951648Y-108599143D01*
X186965790Y-108585000D01*
X186951648Y-108570858D01*
X187310858Y-108211648D01*
X187325000Y-108225790D01*
X188476292Y-107074498D01*
X188395104Y-106679998D01*
X187584634Y-106415497D01*
X186734638Y-106481284D01*
X186254896Y-106679998D01*
X186173709Y-107074496D01*
X186055000Y-106955787D01*
X186055000Y-105769213D01*
X186173709Y-105650504D01*
X186254896Y-106045002D01*
X187065366Y-106309503D01*
X187915362Y-106243716D01*
X188395104Y-106045002D01*
X188476292Y-105650502D01*
X187325000Y-104499210D01*
X187310858Y-104513353D01*
X186951648Y-104154143D01*
X186965790Y-104140000D01*
X186951648Y-104125858D01*
X187310858Y-103766648D01*
X187325000Y-103780790D01*
X188476292Y-102629498D01*
X188395104Y-102234998D01*
X187584634Y-101970497D01*
X186734638Y-102036284D01*
X186254896Y-102234998D01*
X186173709Y-102629496D01*
X186055000Y-102510787D01*
X186055000Y-101324213D01*
X186173709Y-101205504D01*
X186254896Y-101600002D01*
X187065366Y-101864503D01*
X187915362Y-101798716D01*
X188395104Y-101600002D01*
X188476292Y-101205502D01*
X187325000Y-100054210D01*
X187310858Y-100068353D01*
X186951648Y-99709143D01*
X186965790Y-99695000D01*
X186951648Y-99680858D01*
X187310858Y-99321648D01*
X187325000Y-99335790D01*
X188476292Y-98184498D01*
X188395104Y-97789998D01*
X187584634Y-97525497D01*
X186734638Y-97591284D01*
X186254896Y-97789998D01*
X186173709Y-98184496D01*
X186055000Y-98065787D01*
X186055000Y-96879213D01*
X186173709Y-96760504D01*
X186254896Y-97155002D01*
X187065366Y-97419503D01*
X187915362Y-97353716D01*
X188395104Y-97155002D01*
X188476292Y-96760502D01*
X187325000Y-95609210D01*
X187310858Y-95623353D01*
X186951648Y-95264143D01*
X186965790Y-95250000D01*
X186951648Y-95235858D01*
X187310858Y-94876648D01*
X187325000Y-94890790D01*
X188476292Y-93739498D01*
X188395104Y-93344998D01*
X187584634Y-93080497D01*
X186734638Y-93146284D01*
X186254896Y-93344998D01*
X186173709Y-93739496D01*
X186055000Y-93620787D01*
X186055000Y-92434213D01*
X186173709Y-92315504D01*
X186254896Y-92710002D01*
X187065366Y-92974503D01*
X187915362Y-92908716D01*
X188395104Y-92710002D01*
X188476292Y-92315502D01*
X187325000Y-91164210D01*
X187310858Y-91178353D01*
X186951648Y-90819143D01*
X186965790Y-90805000D01*
X186951648Y-90790858D01*
X187310858Y-90431648D01*
X187325000Y-90445790D01*
X188476292Y-89294498D01*
X188395104Y-88899998D01*
X187584634Y-88635497D01*
X186734638Y-88701284D01*
X186254896Y-88899998D01*
X186173709Y-89294496D01*
X186055000Y-89175787D01*
X186055000Y-87989213D01*
X186173709Y-87870504D01*
X186254896Y-88265002D01*
X187065366Y-88529503D01*
X187915362Y-88463716D01*
X188395104Y-88265002D01*
X188476292Y-87870502D01*
X187325000Y-86719210D01*
X187310858Y-86733353D01*
X186951648Y-86374143D01*
X186965790Y-86360000D01*
X186951648Y-86345858D01*
X187310858Y-85986648D01*
X187325000Y-86000790D01*
X188476292Y-84849498D01*
X188395104Y-84454998D01*
X187584634Y-84190497D01*
X186734638Y-84256284D01*
X186254896Y-84454998D01*
X186173709Y-84849496D01*
X186055000Y-84730787D01*
X186055000Y-80369213D01*
X186173709Y-80250504D01*
X186254896Y-80645002D01*
X187065366Y-80909503D01*
X187915362Y-80843716D01*
X188395104Y-80645002D01*
X188476292Y-80250502D01*
X187325000Y-79099210D01*
X187310858Y-79113353D01*
X186951648Y-78754143D01*
X186965790Y-78740000D01*
X186951648Y-78725858D01*
X187310858Y-78366648D01*
X187325000Y-78380790D01*
X188476292Y-77229498D01*
X188395104Y-76834998D01*
X187584634Y-76570497D01*
X186734638Y-76636284D01*
X186254896Y-76834998D01*
X186173709Y-77229496D01*
X185961349Y-77017136D01*
X185868929Y-77109556D01*
X185785000Y-77092560D01*
X183785000Y-77092560D01*
X183549683Y-77136838D01*
X183333559Y-77275910D01*
X183188569Y-77488110D01*
X183137560Y-77740000D01*
X183137560Y-79740000D01*
X183181838Y-79975317D01*
X183320910Y-80191441D01*
X183515000Y-80324057D01*
X183515000Y-80645000D01*
X160020000Y-80645000D01*
X160020000Y-79715322D01*
X160020257Y-79715065D01*
X160389579Y-80085032D01*
X160972841Y-80327224D01*
X161604388Y-80327775D01*
X162188072Y-80086602D01*
X162560257Y-79715065D01*
X162929579Y-80085032D01*
X163512841Y-80327224D01*
X164144388Y-80327775D01*
X164728072Y-80086602D01*
X165175032Y-79640421D01*
X165417224Y-79057159D01*
X165417775Y-78425612D01*
X165176602Y-77841928D01*
X164730421Y-77394968D01*
X164147159Y-77152776D01*
X163515612Y-77152225D01*
X162931928Y-77393398D01*
X162559743Y-77764935D01*
X162190421Y-77394968D01*
X161607159Y-77152776D01*
X160975612Y-77152225D01*
X160391928Y-77393398D01*
X160019743Y-77764935D01*
X159650421Y-77394968D01*
X159067159Y-77152776D01*
X158435612Y-77152225D01*
X157851928Y-77393398D01*
X157479743Y-77764935D01*
X157110421Y-77394968D01*
X156527159Y-77152776D01*
X155895612Y-77152225D01*
X155311928Y-77393398D01*
X154939743Y-77764935D01*
X154570421Y-77394968D01*
X153987159Y-77152776D01*
X153355612Y-77152225D01*
X152771928Y-77393398D01*
X152399743Y-77764935D01*
X152030421Y-77394968D01*
X151447159Y-77152776D01*
X150815612Y-77152225D01*
X150231928Y-77393398D01*
X149859743Y-77764935D01*
X149490421Y-77394968D01*
X149350000Y-77336660D01*
X149350000Y-76514802D01*
X152175401Y-73689401D01*
X152340148Y-73442839D01*
X152398000Y-73152000D01*
X152398000Y-72310648D01*
X152697670Y-72110415D01*
X152908000Y-71795634D01*
X153118330Y-72110415D01*
X153604511Y-72435271D01*
X154178000Y-72549345D01*
X154751489Y-72435271D01*
X155237670Y-72110415D01*
X155448000Y-71795634D01*
X155658330Y-72110415D01*
X156144511Y-72435271D01*
X156718000Y-72549345D01*
X157291489Y-72435271D01*
X157777670Y-72110415D01*
X157988000Y-71795634D01*
X158198330Y-72110415D01*
X158684511Y-72435271D01*
X159258000Y-72549345D01*
X159831489Y-72435271D01*
X160317670Y-72110415D01*
X160528000Y-71795634D01*
X160738330Y-72110415D01*
X161224511Y-72435271D01*
X161798000Y-72549345D01*
X162371489Y-72435271D01*
X162857670Y-72110415D01*
X163068000Y-71795634D01*
X163278330Y-72110415D01*
X163764511Y-72435271D01*
X164338000Y-72549345D01*
X164911489Y-72435271D01*
X165397670Y-72110415D01*
X165608000Y-71795634D01*
X165818330Y-72110415D01*
X166304511Y-72435271D01*
X166878000Y-72549345D01*
X167451489Y-72435271D01*
X167937670Y-72110415D01*
X168262526Y-71624234D01*
X168376600Y-71050745D01*
X168376600Y-70681255D01*
X168262526Y-70107766D01*
X167937670Y-69621585D01*
X167451489Y-69296729D01*
X166878000Y-69182655D01*
X166304511Y-69296729D01*
X165818330Y-69621585D01*
X165608000Y-69936366D01*
X165397670Y-69621585D01*
X164911489Y-69296729D01*
X164338000Y-69182655D01*
X163764511Y-69296729D01*
X163278330Y-69621585D01*
X163068000Y-69936366D01*
X162857670Y-69621585D01*
X162371489Y-69296729D01*
X161798000Y-69182655D01*
X161224511Y-69296729D01*
X160738330Y-69621585D01*
X160528000Y-69936366D01*
X160317670Y-69621585D01*
X159831489Y-69296729D01*
X159258000Y-69182655D01*
X158684511Y-69296729D01*
X158198330Y-69621585D01*
X157988000Y-69936366D01*
X157777670Y-69621585D01*
X157291489Y-69296729D01*
X156718000Y-69182655D01*
X156144511Y-69296729D01*
X155658330Y-69621585D01*
X155448000Y-69936366D01*
X155237670Y-69621585D01*
X154751489Y-69296729D01*
X154178000Y-69182655D01*
X153604511Y-69296729D01*
X153118330Y-69621585D01*
X152908000Y-69936366D01*
X152697670Y-69621585D01*
X152211489Y-69296729D01*
X151638000Y-69182655D01*
X151064511Y-69296729D01*
X150578330Y-69621585D01*
X150368000Y-69936366D01*
X150157670Y-69621585D01*
X149671489Y-69296729D01*
X149098000Y-69182655D01*
X148524511Y-69296729D01*
X148038330Y-69621585D01*
X147713474Y-70107766D01*
X147599400Y-70681255D01*
X147599400Y-71050745D01*
X147713474Y-71624234D01*
X148038330Y-72110415D01*
X148338000Y-72310648D01*
X148338000Y-72837198D01*
X145512599Y-75662599D01*
X145347852Y-75909161D01*
X145290000Y-76200000D01*
X145290000Y-77336348D01*
X145151928Y-77393398D01*
X144704968Y-77839579D01*
X144462776Y-78422841D01*
X144462225Y-79054388D01*
X144703398Y-79638072D01*
X145149579Y-80085032D01*
X145732841Y-80327224D01*
X146364388Y-80327775D01*
X146948072Y-80086602D01*
X147320257Y-79715065D01*
X147689579Y-80085032D01*
X148272841Y-80327224D01*
X148904388Y-80327775D01*
X149488072Y-80086602D01*
X149860000Y-79715322D01*
X149860000Y-80645000D01*
X140861052Y-80645000D01*
X138807440Y-78591388D01*
X138807440Y-77740000D01*
X138763162Y-77504683D01*
X138624090Y-77288559D01*
X138411890Y-77143569D01*
X138160000Y-77092560D01*
X136160000Y-77092560D01*
X136075058Y-77108543D01*
X135983651Y-77017136D01*
X135771291Y-77229496D01*
X135690104Y-76834998D01*
X134879634Y-76570497D01*
X134029638Y-76636284D01*
X133959442Y-76665360D01*
X135411401Y-75213401D01*
X135576148Y-74966839D01*
X135634000Y-74676000D01*
X135634000Y-72310648D01*
X135933670Y-72110415D01*
X136144000Y-71795634D01*
X136354330Y-72110415D01*
X136840511Y-72435271D01*
X137414000Y-72549345D01*
X137987489Y-72435271D01*
X138473670Y-72110415D01*
X138684000Y-71795634D01*
X138894330Y-72110415D01*
X139380511Y-72435271D01*
X139954000Y-72549345D01*
X140527489Y-72435271D01*
X141013670Y-72110415D01*
X141224000Y-71795634D01*
X141434330Y-72110415D01*
X141920511Y-72435271D01*
X142494000Y-72549345D01*
X143067489Y-72435271D01*
X143553670Y-72110415D01*
X143764000Y-71795634D01*
X143974330Y-72110415D01*
X144460511Y-72435271D01*
X145034000Y-72549345D01*
X145607489Y-72435271D01*
X146093670Y-72110415D01*
X146418526Y-71624234D01*
X146532600Y-71050745D01*
X146532600Y-70681255D01*
X146418526Y-70107766D01*
X146093670Y-69621585D01*
X145607489Y-69296729D01*
X145034000Y-69182655D01*
X144460511Y-69296729D01*
X143974330Y-69621585D01*
X143764000Y-69936366D01*
X143553670Y-69621585D01*
X143067489Y-69296729D01*
X142494000Y-69182655D01*
X141920511Y-69296729D01*
X141434330Y-69621585D01*
X141224000Y-69936366D01*
X141013670Y-69621585D01*
X140527489Y-69296729D01*
X139954000Y-69182655D01*
X139380511Y-69296729D01*
X138894330Y-69621585D01*
X138684000Y-69936366D01*
X138473670Y-69621585D01*
X137987489Y-69296729D01*
X137414000Y-69182655D01*
X136840511Y-69296729D01*
X136354330Y-69621585D01*
X136144000Y-69936366D01*
X135933670Y-69621585D01*
X135447489Y-69296729D01*
X134874000Y-69182655D01*
X134300511Y-69296729D01*
X133814330Y-69621585D01*
X133604000Y-69936366D01*
X133393670Y-69621585D01*
X132907489Y-69296729D01*
X132334000Y-69182655D01*
X131760511Y-69296729D01*
X131400614Y-69537205D01*
X130887765Y-69036000D01*
X191121468Y-69036000D01*
X190787825Y-69174577D01*
X190657475Y-69527910D01*
X190311489Y-69296729D01*
X189738000Y-69182655D01*
X189164511Y-69296729D01*
X188678330Y-69621585D01*
X188468000Y-69936366D01*
X188257670Y-69621585D01*
X187771489Y-69296729D01*
X187198000Y-69182655D01*
X186624511Y-69296729D01*
X186138330Y-69621585D01*
X185928000Y-69936366D01*
X185717670Y-69621585D01*
X185231489Y-69296729D01*
X184658000Y-69182655D01*
X184084511Y-69296729D01*
X183598330Y-69621585D01*
X183388000Y-69936366D01*
X183177670Y-69621585D01*
X182691489Y-69296729D01*
X182118000Y-69182655D01*
X181544511Y-69296729D01*
X181058330Y-69621585D01*
X180848000Y-69936366D01*
X180637670Y-69621585D01*
X180151489Y-69296729D01*
X179578000Y-69182655D01*
X179004511Y-69296729D01*
X178518330Y-69621585D01*
X178308000Y-69936366D01*
X178097670Y-69621585D01*
X177611489Y-69296729D01*
X177038000Y-69182655D01*
X176464511Y-69296729D01*
X175978330Y-69621585D01*
X175768000Y-69936366D01*
X175557670Y-69621585D01*
X175071489Y-69296729D01*
X174498000Y-69182655D01*
X173924511Y-69296729D01*
X173438330Y-69621585D01*
X173228000Y-69936366D01*
X173017670Y-69621585D01*
X172531489Y-69296729D01*
X171958000Y-69182655D01*
X171384511Y-69296729D01*
X170898330Y-69621585D01*
X170573474Y-70107766D01*
X170459400Y-70681255D01*
X170459400Y-71050745D01*
X170573474Y-71624234D01*
X170898330Y-72110415D01*
X171384511Y-72435271D01*
X171958000Y-72549345D01*
X172531489Y-72435271D01*
X173017670Y-72110415D01*
X173228000Y-71795634D01*
X173438330Y-72110415D01*
X173924511Y-72435271D01*
X174498000Y-72549345D01*
X175071489Y-72435271D01*
X175557670Y-72110415D01*
X175768000Y-71795634D01*
X175978330Y-72110415D01*
X176464511Y-72435271D01*
X177038000Y-72549345D01*
X177611489Y-72435271D01*
X178097670Y-72110415D01*
X178308000Y-71795634D01*
X178518330Y-72110415D01*
X179004511Y-72435271D01*
X179578000Y-72549345D01*
X180151489Y-72435271D01*
X180637670Y-72110415D01*
X180848000Y-71795634D01*
X181058330Y-72110415D01*
X181544511Y-72435271D01*
X182118000Y-72549345D01*
X182691489Y-72435271D01*
X183177670Y-72110415D01*
X183388000Y-71795634D01*
X183598330Y-72110415D01*
X184084511Y-72435271D01*
X184658000Y-72549345D01*
X185231489Y-72435271D01*
X185717670Y-72110415D01*
X185928000Y-71795634D01*
X186138330Y-72110415D01*
X186438000Y-72310648D01*
X186438000Y-74168000D01*
X186495852Y-74458839D01*
X186660599Y-74705401D01*
X189105000Y-77149802D01*
X189105000Y-77284953D01*
X188940057Y-77353106D01*
X188479722Y-77812637D01*
X188386096Y-78038114D01*
X187684210Y-78740000D01*
X188385831Y-79441621D01*
X188478106Y-79664943D01*
X188937637Y-80125278D01*
X189538352Y-80374716D01*
X190188795Y-80375284D01*
X190789943Y-80126894D01*
X191135199Y-79782241D01*
X191477637Y-80125278D01*
X192078352Y-80374716D01*
X192728795Y-80375284D01*
X193329943Y-80126894D01*
X193790278Y-79667363D01*
X194039716Y-79066648D01*
X194040284Y-78416205D01*
X193791894Y-77815057D01*
X193332363Y-77354722D01*
X193165000Y-77285227D01*
X193165000Y-76835000D01*
X193107148Y-76544161D01*
X192942401Y-76297599D01*
X190498000Y-73853198D01*
X190498000Y-73124854D01*
X191648356Y-73124854D01*
X191856577Y-73626175D01*
X193041603Y-74063349D01*
X194303722Y-74013755D01*
X195239423Y-73626175D01*
X195447644Y-73124854D01*
X193548000Y-71225210D01*
X191648356Y-73124854D01*
X190498000Y-73124854D01*
X190498000Y-72310648D01*
X190644939Y-72212466D01*
X190787825Y-72557423D01*
X191289146Y-72765644D01*
X193188790Y-70866000D01*
X193174648Y-70851858D01*
X193533858Y-70492648D01*
X193548000Y-70506790D01*
X193562143Y-70492648D01*
X193921353Y-70851858D01*
X193907210Y-70866000D01*
X195806854Y-72765644D01*
X196072167Y-72655448D01*
X195973474Y-72803152D01*
X195859400Y-73376641D01*
X195859400Y-73435359D01*
X195973474Y-74008848D01*
X196298330Y-74495029D01*
X196569172Y-74676000D01*
X196298330Y-74856971D01*
X195973474Y-75343152D01*
X195859400Y-75916641D01*
X195859400Y-75975359D01*
X195973474Y-76548848D01*
X196298330Y-77035029D01*
X196569172Y-77216000D01*
X196298330Y-77396971D01*
X195973474Y-77883152D01*
X195859400Y-78456641D01*
X195859400Y-78515359D01*
X195973474Y-79088848D01*
X196298330Y-79575029D01*
X196569172Y-79756000D01*
X196298330Y-79936971D01*
X195973474Y-80423152D01*
X195859400Y-80996641D01*
X195859400Y-81055359D01*
X195973474Y-81628848D01*
X196298330Y-82115029D01*
X196569172Y-82296000D01*
X196298330Y-82476971D01*
X196078480Y-82806000D01*
X195199000Y-82806000D01*
X194908161Y-82863852D01*
X194661599Y-83028599D01*
X192090198Y-85600000D01*
X191320047Y-85600000D01*
X191251894Y-85435057D01*
X190792363Y-84974722D01*
X190191648Y-84725284D01*
X189541205Y-84724716D01*
X188940057Y-84973106D01*
X188479722Y-85432637D01*
X188386096Y-85658114D01*
X187684210Y-86360000D01*
X188385831Y-87061621D01*
X188478106Y-87284943D01*
X188937637Y-87745278D01*
X189538352Y-87994716D01*
X190188795Y-87995284D01*
X190789943Y-87746894D01*
X191250278Y-87287363D01*
X191319773Y-87120000D01*
X192405000Y-87120000D01*
X192695839Y-87062148D01*
X192942401Y-86897401D01*
X195513802Y-84326000D01*
X196078480Y-84326000D01*
X196298330Y-84655029D01*
X196569172Y-84836000D01*
X196298330Y-85016971D01*
X195973474Y-85503152D01*
X195859400Y-86076641D01*
X195859400Y-86135359D01*
X195973474Y-86708848D01*
X196298330Y-87195029D01*
X196569172Y-87376000D01*
X196298330Y-87556971D01*
X196078480Y-87886000D01*
X194564000Y-87886000D01*
X194273161Y-87943852D01*
X194026599Y-88108599D01*
X192090198Y-90045000D01*
X191320047Y-90045000D01*
X191251894Y-89880057D01*
X190792363Y-89419722D01*
X190191648Y-89170284D01*
X189541205Y-89169716D01*
X188940057Y-89418106D01*
X188479722Y-89877637D01*
X188386096Y-90103114D01*
X187684210Y-90805000D01*
X188385831Y-91506621D01*
X188478106Y-91729943D01*
X188937637Y-92190278D01*
X189538352Y-92439716D01*
X190188795Y-92440284D01*
X190789943Y-92191894D01*
X191250278Y-91732363D01*
X191319773Y-91565000D01*
X192405000Y-91565000D01*
X192695839Y-91507148D01*
X192942401Y-91342401D01*
X194878802Y-89406000D01*
X196078480Y-89406000D01*
X196298330Y-89735029D01*
X196569172Y-89916000D01*
X196298330Y-90096971D01*
X195973474Y-90583152D01*
X195859400Y-91156641D01*
X195859400Y-91215359D01*
X195973474Y-91788848D01*
X196298330Y-92275029D01*
X196569172Y-92456000D01*
X196298330Y-92636971D01*
X196078480Y-92966000D01*
X193929000Y-92966000D01*
X193686414Y-93014254D01*
X193638160Y-93023852D01*
X193391599Y-93188599D01*
X192090198Y-94490000D01*
X191320047Y-94490000D01*
X191251894Y-94325057D01*
X190792363Y-93864722D01*
X190191648Y-93615284D01*
X189541205Y-93614716D01*
X188940057Y-93863106D01*
X188479722Y-94322637D01*
X188386096Y-94548114D01*
X187684210Y-95250000D01*
X188385831Y-95951621D01*
X188478106Y-96174943D01*
X188937637Y-96635278D01*
X189538352Y-96884716D01*
X190188795Y-96885284D01*
X190789943Y-96636894D01*
X191250278Y-96177363D01*
X191319773Y-96010000D01*
X192405000Y-96010000D01*
X192695839Y-95952148D01*
X192942401Y-95787401D01*
X194243802Y-94486000D01*
X196078480Y-94486000D01*
X196298330Y-94815029D01*
X196569172Y-94996000D01*
X196298330Y-95176971D01*
X196078480Y-95506000D01*
X195834000Y-95506000D01*
X195543160Y-95563852D01*
X195296599Y-95728599D01*
X192090198Y-98935000D01*
X191320047Y-98935000D01*
X191251894Y-98770057D01*
X190792363Y-98309722D01*
X190191648Y-98060284D01*
X189541205Y-98059716D01*
X188940057Y-98308106D01*
X188479722Y-98767637D01*
X188386096Y-98993114D01*
X187684210Y-99695000D01*
X188385831Y-100396621D01*
X188478106Y-100619943D01*
X188937637Y-101080278D01*
X189538352Y-101329716D01*
X190188795Y-101330284D01*
X190789943Y-101081894D01*
X191250278Y-100622363D01*
X191319773Y-100455000D01*
X192405000Y-100455000D01*
X192695839Y-100397148D01*
X192942401Y-100232401D01*
X196106647Y-97068155D01*
X196298330Y-97355029D01*
X196569172Y-97536000D01*
X196298330Y-97716971D01*
X195973474Y-98203152D01*
X195859400Y-98776641D01*
X195859400Y-98835359D01*
X195973474Y-99408848D01*
X196298330Y-99895029D01*
X196569172Y-100076000D01*
X196298330Y-100256971D01*
X196078480Y-100586000D01*
X195199000Y-100586000D01*
X194908161Y-100643852D01*
X194661599Y-100808599D01*
X192090198Y-103380000D01*
X191320047Y-103380000D01*
X191251894Y-103215057D01*
X190792363Y-102754722D01*
X190191648Y-102505284D01*
X189541205Y-102504716D01*
X188940057Y-102753106D01*
X188479722Y-103212637D01*
X188386096Y-103438114D01*
X187684210Y-104140000D01*
X188385831Y-104841621D01*
X188478106Y-105064943D01*
X188937637Y-105525278D01*
X189538352Y-105774716D01*
X190188795Y-105775284D01*
X190789943Y-105526894D01*
X191250278Y-105067363D01*
X191319773Y-104900000D01*
X192405000Y-104900000D01*
X192695839Y-104842148D01*
X192942401Y-104677401D01*
X195513802Y-102106000D01*
X196078480Y-102106000D01*
X196298330Y-102435029D01*
X196569172Y-102616000D01*
X196298330Y-102796971D01*
X195973474Y-103283152D01*
X195859400Y-103856641D01*
X195859400Y-103915359D01*
X195882700Y-104032498D01*
X192090198Y-107825000D01*
X191320047Y-107825000D01*
X191251894Y-107660057D01*
X190792363Y-107199722D01*
X190191648Y-106950284D01*
X189541205Y-106949716D01*
X188940057Y-107198106D01*
X188479722Y-107657637D01*
X188386096Y-107883114D01*
X187684210Y-108585000D01*
X188385831Y-109286621D01*
X188478106Y-109509943D01*
X188937637Y-109970278D01*
X189538352Y-110219716D01*
X190188795Y-110220284D01*
X190789943Y-109971894D01*
X191250278Y-109512363D01*
X191319773Y-109345000D01*
X192405000Y-109345000D01*
X192695839Y-109287148D01*
X192942401Y-109122401D01*
X195906885Y-106157917D01*
X195859400Y-106396641D01*
X195859400Y-106455359D01*
X195882700Y-106572498D01*
X192090198Y-110365000D01*
X189230000Y-110365000D01*
X188939161Y-110422852D01*
X188692599Y-110587599D01*
X187897638Y-111382560D01*
X186325000Y-111382560D01*
X186089683Y-111426838D01*
X185873559Y-111565910D01*
X185728569Y-111778110D01*
X185677560Y-112030000D01*
X185677560Y-114030000D01*
X185721838Y-114265317D01*
X185860910Y-114481441D01*
X186073110Y-114626431D01*
X186325000Y-114677440D01*
X188325000Y-114677440D01*
X188409942Y-114661457D01*
X188501349Y-114752864D01*
X188713709Y-114540504D01*
X188794896Y-114935002D01*
X189605366Y-115199503D01*
X190455362Y-115133716D01*
X190935104Y-114935002D01*
X191016292Y-114540502D01*
X189865000Y-113389210D01*
X189850858Y-113403353D01*
X189491648Y-113044143D01*
X189505790Y-113030000D01*
X189491648Y-113015858D01*
X189850858Y-112656648D01*
X189865000Y-112670790D01*
X189879143Y-112656648D01*
X190238353Y-113015858D01*
X190224210Y-113030000D01*
X191375502Y-114181292D01*
X191770002Y-114100104D01*
X191861719Y-113819068D01*
X195324712Y-113819068D01*
X195392644Y-114614448D01*
X195566330Y-115033763D01*
X195946799Y-115097990D01*
X196998790Y-114046000D01*
X195946799Y-112994010D01*
X195566330Y-113058237D01*
X195324712Y-113819068D01*
X191861719Y-113819068D01*
X192034503Y-113289634D01*
X191968716Y-112439638D01*
X191770002Y-111959896D01*
X191406075Y-111885000D01*
X192405000Y-111885000D01*
X192695839Y-111827148D01*
X192942401Y-111662401D01*
X195906885Y-108697917D01*
X195859400Y-108936641D01*
X195859400Y-108995359D01*
X195973474Y-109568848D01*
X196298330Y-110055029D01*
X196569172Y-110236000D01*
X196298330Y-110416971D01*
X195973474Y-110903152D01*
X195859400Y-111476641D01*
X195859400Y-111535359D01*
X195973474Y-112108848D01*
X196298330Y-112595029D01*
X196311265Y-112603672D01*
X196306010Y-112634799D01*
X197358000Y-113686790D01*
X197372142Y-113672647D01*
X197731353Y-114031858D01*
X197717210Y-114046000D01*
X197731353Y-114060142D01*
X197372142Y-114419353D01*
X197358000Y-114405210D01*
X196306010Y-115457201D01*
X196370237Y-115837670D01*
X197131068Y-116079288D01*
X197926448Y-116011356D01*
X198345763Y-115837670D01*
X198409990Y-115457203D01*
X198623312Y-115670526D01*
X198691300Y-115602538D01*
X198933519Y-115805624D01*
X199332275Y-115970779D01*
X199142278Y-115978245D01*
X198206577Y-116365825D01*
X197998356Y-116867146D01*
X199898000Y-118766790D01*
X201797644Y-116867146D01*
X201589423Y-116365825D01*
X200489573Y-115960074D01*
X200862481Y-115805624D01*
X201462443Y-115302590D01*
X201824233Y-114608251D01*
X201602723Y-114300000D01*
X200152000Y-114300000D01*
X200152000Y-114320000D01*
X199644000Y-114320000D01*
X199644000Y-114300000D01*
X199624000Y-114300000D01*
X199624000Y-113792000D01*
X199644000Y-113792000D01*
X199644000Y-113772000D01*
X200152000Y-113772000D01*
X200152000Y-113792000D01*
X201602723Y-113792000D01*
X201824233Y-113483749D01*
X201462443Y-112789410D01*
X201055673Y-112448357D01*
X201282526Y-112108848D01*
X201396600Y-111535359D01*
X201396600Y-111476641D01*
X201282526Y-110903152D01*
X200957670Y-110416971D01*
X200686828Y-110236000D01*
X200957670Y-110055029D01*
X201282526Y-109568848D01*
X201396600Y-108995359D01*
X201396600Y-108936641D01*
X201282526Y-108363152D01*
X200957670Y-107876971D01*
X200686828Y-107696000D01*
X200957670Y-107515029D01*
X201282526Y-107028848D01*
X201396600Y-106455359D01*
X201396600Y-106396641D01*
X201282526Y-105823152D01*
X200957670Y-105336971D01*
X200686828Y-105156000D01*
X200957670Y-104975029D01*
X201282526Y-104488848D01*
X201396600Y-103915359D01*
X201396600Y-103856641D01*
X201282526Y-103283152D01*
X200957670Y-102796971D01*
X200686828Y-102616000D01*
X200957670Y-102435029D01*
X201282526Y-101948848D01*
X201396600Y-101375359D01*
X201396600Y-101316641D01*
X201282526Y-100743152D01*
X200957670Y-100256971D01*
X200686828Y-100076000D01*
X200957670Y-99895029D01*
X201282526Y-99408848D01*
X201396600Y-98835359D01*
X201396600Y-98776641D01*
X201282526Y-98203152D01*
X200957670Y-97716971D01*
X200686828Y-97536000D01*
X200957670Y-97355029D01*
X201282526Y-96868848D01*
X201396600Y-96295359D01*
X201396600Y-96236641D01*
X201282526Y-95663152D01*
X200957670Y-95176971D01*
X200686828Y-94996000D01*
X200957670Y-94815029D01*
X201282526Y-94328848D01*
X201396600Y-93755359D01*
X201396600Y-93696641D01*
X201282526Y-93123152D01*
X200957670Y-92636971D01*
X200686828Y-92456000D01*
X200957670Y-92275029D01*
X201282526Y-91788848D01*
X201396600Y-91215359D01*
X201396600Y-91156641D01*
X201282526Y-90583152D01*
X200957670Y-90096971D01*
X200686828Y-89916000D01*
X200957670Y-89735029D01*
X201282526Y-89248848D01*
X201396600Y-88675359D01*
X201396600Y-88616641D01*
X201282526Y-88043152D01*
X200957670Y-87556971D01*
X200686828Y-87376000D01*
X200957670Y-87195029D01*
X201282526Y-86708848D01*
X201396600Y-86135359D01*
X201396600Y-86076641D01*
X201282526Y-85503152D01*
X200957670Y-85016971D01*
X200686828Y-84836000D01*
X200957670Y-84655029D01*
X201282526Y-84168848D01*
X201396600Y-83595359D01*
X201396600Y-83536641D01*
X201282526Y-82963152D01*
X200957670Y-82476971D01*
X200686828Y-82296000D01*
X200957670Y-82115029D01*
X201282526Y-81628848D01*
X201396600Y-81055359D01*
X201396600Y-80996641D01*
X201282526Y-80423152D01*
X200957670Y-79936971D01*
X200686828Y-79756000D01*
X200957670Y-79575029D01*
X201282526Y-79088848D01*
X201396600Y-78515359D01*
X201396600Y-78456641D01*
X201282526Y-77883152D01*
X200957670Y-77396971D01*
X200686828Y-77216000D01*
X200957670Y-77035029D01*
X201282526Y-76548848D01*
X201396600Y-75975359D01*
X201396600Y-75916641D01*
X201282526Y-75343152D01*
X200957670Y-74856971D01*
X200686828Y-74676000D01*
X200957670Y-74495029D01*
X201282526Y-74008848D01*
X201396600Y-73435359D01*
X201396600Y-73376641D01*
X201282526Y-72803152D01*
X200957670Y-72316971D01*
X200686828Y-72136000D01*
X200957670Y-71955029D01*
X201282526Y-71468848D01*
X201396600Y-70895359D01*
X201396600Y-70836641D01*
X201282526Y-70263152D01*
X200957670Y-69776971D01*
X200471489Y-69452115D01*
X199898000Y-69338041D01*
X199324511Y-69452115D01*
X198838330Y-69776971D01*
X198628000Y-70091752D01*
X198417670Y-69776971D01*
X197931489Y-69452115D01*
X197358000Y-69338041D01*
X196784511Y-69452115D01*
X196501472Y-69641236D01*
X196308175Y-69174577D01*
X195974532Y-69036000D01*
X204623600Y-69036000D01*
X204623600Y-120956000D01*
X202324532Y-120956000D01*
X202658175Y-120817423D01*
X203095349Y-119632397D01*
X203045755Y-118370278D01*
X202658175Y-117434577D01*
X202156854Y-117226356D01*
X200257210Y-119126000D01*
X200271353Y-119140143D01*
X199912143Y-119499353D01*
X199898000Y-119485210D01*
X199883858Y-119499353D01*
X199524648Y-119140143D01*
X199538790Y-119126000D01*
X197639146Y-117226356D01*
X197137825Y-117434577D01*
X196700651Y-118619603D01*
X196750245Y-119881722D01*
X197137825Y-120817423D01*
X197471468Y-120956000D01*
X147651765Y-120956000D01*
X148164614Y-120454795D01*
X148524511Y-120695271D01*
X149098000Y-120809345D01*
X149671489Y-120695271D01*
X150157670Y-120370415D01*
X150482526Y-119884234D01*
X150596600Y-119310745D01*
X150596600Y-118941255D01*
X152679400Y-118941255D01*
X152679400Y-119310745D01*
X152793474Y-119884234D01*
X153118330Y-120370415D01*
X153604511Y-120695271D01*
X154178000Y-120809345D01*
X154751489Y-120695271D01*
X155237670Y-120370415D01*
X155448000Y-120055634D01*
X155658330Y-120370415D01*
X156144511Y-120695271D01*
X156718000Y-120809345D01*
X157291489Y-120695271D01*
X157777670Y-120370415D01*
X157988000Y-120055634D01*
X158198330Y-120370415D01*
X158684511Y-120695271D01*
X159258000Y-120809345D01*
X159831489Y-120695271D01*
X160317670Y-120370415D01*
X160528000Y-120055634D01*
X160738330Y-120370415D01*
X161224511Y-120695271D01*
X161798000Y-120809345D01*
X162371489Y-120695271D01*
X162857670Y-120370415D01*
X163068000Y-120055634D01*
X163278330Y-120370415D01*
X163764511Y-120695271D01*
X164338000Y-120809345D01*
X164911489Y-120695271D01*
X165397670Y-120370415D01*
X165608000Y-120055634D01*
X165818330Y-120370415D01*
X166304511Y-120695271D01*
X166878000Y-120809345D01*
X167451489Y-120695271D01*
X167937670Y-120370415D01*
X168148000Y-120055634D01*
X168358330Y-120370415D01*
X168844511Y-120695271D01*
X169418000Y-120809345D01*
X169991489Y-120695271D01*
X170477670Y-120370415D01*
X170688000Y-120055634D01*
X170898330Y-120370415D01*
X171384511Y-120695271D01*
X171958000Y-120809345D01*
X172531489Y-120695271D01*
X173017670Y-120370415D01*
X173342526Y-119884234D01*
X173456600Y-119310745D01*
X173456600Y-118941255D01*
X175539400Y-118941255D01*
X175539400Y-119310745D01*
X175653474Y-119884234D01*
X175978330Y-120370415D01*
X176464511Y-120695271D01*
X177038000Y-120809345D01*
X177611489Y-120695271D01*
X178097670Y-120370415D01*
X178308000Y-120055634D01*
X178518330Y-120370415D01*
X179004511Y-120695271D01*
X179578000Y-120809345D01*
X180151489Y-120695271D01*
X180637670Y-120370415D01*
X180848000Y-120055634D01*
X181058330Y-120370415D01*
X181544511Y-120695271D01*
X182118000Y-120809345D01*
X182691489Y-120695271D01*
X183177670Y-120370415D01*
X183388000Y-120055634D01*
X183598330Y-120370415D01*
X184084511Y-120695271D01*
X184658000Y-120809345D01*
X185231489Y-120695271D01*
X185717670Y-120370415D01*
X185928000Y-120055634D01*
X186138330Y-120370415D01*
X186624511Y-120695271D01*
X187198000Y-120809345D01*
X187771489Y-120695271D01*
X188257670Y-120370415D01*
X188468000Y-120055634D01*
X188678330Y-120370415D01*
X189164511Y-120695271D01*
X189738000Y-120809345D01*
X190311489Y-120695271D01*
X190797670Y-120370415D01*
X191008000Y-120055634D01*
X191218330Y-120370415D01*
X191704511Y-120695271D01*
X192278000Y-120809345D01*
X192851489Y-120695271D01*
X193337670Y-120370415D01*
X193548000Y-120055634D01*
X193758330Y-120370415D01*
X194244511Y-120695271D01*
X194818000Y-120809345D01*
X195391489Y-120695271D01*
X195877670Y-120370415D01*
X196202526Y-119884234D01*
X196316600Y-119310745D01*
X196316600Y-118941255D01*
X196202526Y-118367766D01*
X195877670Y-117881585D01*
X195391489Y-117556729D01*
X194818000Y-117442655D01*
X194244511Y-117556729D01*
X193758330Y-117881585D01*
X193548000Y-118196366D01*
X193337670Y-117881585D01*
X192851489Y-117556729D01*
X192278000Y-117442655D01*
X191704511Y-117556729D01*
X191218330Y-117881585D01*
X191008000Y-118196366D01*
X190797670Y-117881585D01*
X190311489Y-117556729D01*
X189738000Y-117442655D01*
X189164511Y-117556729D01*
X188678330Y-117881585D01*
X188468000Y-118196366D01*
X188257670Y-117881585D01*
X187771489Y-117556729D01*
X187198000Y-117442655D01*
X186624511Y-117556729D01*
X186138330Y-117881585D01*
X185928000Y-118196366D01*
X185717670Y-117881585D01*
X185231489Y-117556729D01*
X184658000Y-117442655D01*
X184084511Y-117556729D01*
X183598330Y-117881585D01*
X183388000Y-118196366D01*
X183177670Y-117881585D01*
X182691489Y-117556729D01*
X182118000Y-117442655D01*
X181544511Y-117556729D01*
X181058330Y-117881585D01*
X180848000Y-118196366D01*
X180637670Y-117881585D01*
X180151489Y-117556729D01*
X179578000Y-117442655D01*
X179004511Y-117556729D01*
X178518330Y-117881585D01*
X178308000Y-118196366D01*
X178097670Y-117881585D01*
X177611489Y-117556729D01*
X177038000Y-117442655D01*
X176464511Y-117556729D01*
X175978330Y-117881585D01*
X175653474Y-118367766D01*
X175539400Y-118941255D01*
X173456600Y-118941255D01*
X173342526Y-118367766D01*
X173017670Y-117881585D01*
X172531489Y-117556729D01*
X171958000Y-117442655D01*
X171384511Y-117556729D01*
X170898330Y-117881585D01*
X170688000Y-118196366D01*
X170477670Y-117881585D01*
X169991489Y-117556729D01*
X169418000Y-117442655D01*
X168844511Y-117556729D01*
X168358330Y-117881585D01*
X168148000Y-118196366D01*
X167937670Y-117881585D01*
X167451489Y-117556729D01*
X166878000Y-117442655D01*
X166304511Y-117556729D01*
X165818330Y-117881585D01*
X165608000Y-118196366D01*
X165397670Y-117881585D01*
X164911489Y-117556729D01*
X164338000Y-117442655D01*
X163764511Y-117556729D01*
X163278330Y-117881585D01*
X163068000Y-118196366D01*
X162857670Y-117881585D01*
X162371489Y-117556729D01*
X161798000Y-117442655D01*
X161224511Y-117556729D01*
X160738330Y-117881585D01*
X160528000Y-118196366D01*
X160317670Y-117881585D01*
X159831489Y-117556729D01*
X159258000Y-117442655D01*
X158684511Y-117556729D01*
X158198330Y-117881585D01*
X157988000Y-118196366D01*
X157777670Y-117881585D01*
X157291489Y-117556729D01*
X156718000Y-117442655D01*
X156144511Y-117556729D01*
X155658330Y-117881585D01*
X155448000Y-118196366D01*
X155237670Y-117881585D01*
X154751489Y-117556729D01*
X154178000Y-117442655D01*
X153604511Y-117556729D01*
X153118330Y-117881585D01*
X152793474Y-118367766D01*
X152679400Y-118941255D01*
X150596600Y-118941255D01*
X150482526Y-118367766D01*
X150368000Y-118196366D01*
X150368000Y-117348000D01*
X150271327Y-116861992D01*
X149996026Y-116449974D01*
X149996023Y-116449972D01*
X149850906Y-116304854D01*
X167518356Y-116304854D01*
X167726577Y-116806175D01*
X168911603Y-117243349D01*
X170173722Y-117193755D01*
X171109423Y-116806175D01*
X171317644Y-116304854D01*
X169418000Y-114405210D01*
X167518356Y-116304854D01*
X149850906Y-116304854D01*
X147583026Y-114036974D01*
X147171008Y-113761673D01*
X146685000Y-113664999D01*
X146684995Y-113665000D01*
X136416052Y-113665000D01*
X136290655Y-113539603D01*
X166220651Y-113539603D01*
X166270245Y-114801722D01*
X166657825Y-115737423D01*
X167159146Y-115945644D01*
X169058790Y-114046000D01*
X169777210Y-114046000D01*
X171676854Y-115945644D01*
X172178175Y-115737423D01*
X172615349Y-114552397D01*
X172565755Y-113290278D01*
X172178175Y-112354577D01*
X171676854Y-112146356D01*
X169777210Y-114046000D01*
X169058790Y-114046000D01*
X167159146Y-112146356D01*
X166657825Y-112354577D01*
X166220651Y-113539603D01*
X136290655Y-113539603D01*
X135336715Y-112585663D01*
X135837733Y-112545549D01*
X136296438Y-112355547D01*
X136352486Y-112065509D01*
X136465595Y-112178618D01*
X136525000Y-112119213D01*
X136584405Y-112178618D01*
X136697514Y-112065509D01*
X136753562Y-112355547D01*
X137546751Y-112612082D01*
X138377733Y-112545549D01*
X138836438Y-112355547D01*
X138911727Y-111965938D01*
X137795000Y-110849210D01*
X137780858Y-110863353D01*
X137421648Y-110504143D01*
X137435790Y-110490000D01*
X137421648Y-110475858D01*
X137780858Y-110116648D01*
X137795000Y-110130790D01*
X138911727Y-109014062D01*
X138836438Y-108624453D01*
X138043249Y-108367918D01*
X137212267Y-108434451D01*
X136753562Y-108624453D01*
X136697514Y-108914491D01*
X136584405Y-108801382D01*
X136525000Y-108860787D01*
X136465595Y-108801382D01*
X136352486Y-108914491D01*
X136296438Y-108624453D01*
X135503249Y-108367918D01*
X134672267Y-108434451D01*
X134213562Y-108624453D01*
X134138273Y-109014060D01*
X133985000Y-108860787D01*
X133985000Y-105410005D01*
X133985001Y-105410000D01*
X133888327Y-104923992D01*
X133758948Y-104730362D01*
X133613026Y-104511974D01*
X133613023Y-104511972D01*
X124723026Y-95621974D01*
X124525440Y-95489951D01*
X138549260Y-95489951D01*
X138695143Y-95938599D01*
X139695961Y-96290852D01*
X140755397Y-96233295D01*
X141466857Y-95938599D01*
X141612740Y-95489951D01*
X140081000Y-93958210D01*
X138549260Y-95489951D01*
X124525440Y-95489951D01*
X124311008Y-95346673D01*
X123825000Y-95249999D01*
X123824995Y-95250000D01*
X110097440Y-95250000D01*
X110097440Y-95020000D01*
X110053162Y-94784683D01*
X109914090Y-94568559D01*
X109701890Y-94423569D01*
X109450000Y-94372560D01*
X106450000Y-94372560D01*
X106214683Y-94416838D01*
X105998559Y-94555910D01*
X105853569Y-94768110D01*
X105802560Y-95020000D01*
X105802560Y-98020000D01*
X105846838Y-98255317D01*
X105985910Y-98471441D01*
X106198110Y-98616431D01*
X106450000Y-98667440D01*
X109450000Y-98667440D01*
X109685317Y-98623162D01*
X109901441Y-98484090D01*
X110046431Y-98271890D01*
X110097440Y-98020000D01*
X110097440Y-97790000D01*
X123298948Y-97790000D01*
X131445000Y-105936051D01*
X131445000Y-109514678D01*
X131444743Y-109514935D01*
X131075421Y-109144968D01*
X130492159Y-108902776D01*
X129860612Y-108902225D01*
X129276928Y-109143398D01*
X129265683Y-109154624D01*
X129253295Y-108926603D01*
X128958599Y-108215143D01*
X128509951Y-108069260D01*
X126978210Y-109601000D01*
X128509951Y-111132740D01*
X128697676Y-111071699D01*
X128828398Y-111388072D01*
X129274579Y-111835032D01*
X129857841Y-112077224D01*
X130489388Y-112077775D01*
X131073072Y-111836602D01*
X131445000Y-111465322D01*
X131445000Y-111759995D01*
X131444999Y-111760000D01*
X131541673Y-112246008D01*
X131816974Y-112658026D01*
X134991974Y-115833026D01*
X135403992Y-116108327D01*
X135890000Y-116205001D01*
X135890005Y-116205000D01*
X146158948Y-116205000D01*
X147051406Y-117097457D01*
X146812000Y-117271599D01*
X146812000Y-118872000D01*
X146832000Y-118872000D01*
X146832000Y-119380000D01*
X146812000Y-119380000D01*
X146812000Y-119400000D01*
X146304000Y-119400000D01*
X146304000Y-119380000D01*
X144272000Y-119380000D01*
X144272000Y-119400000D01*
X143764000Y-119400000D01*
X143764000Y-119380000D01*
X143744000Y-119380000D01*
X143744000Y-118872000D01*
X143764000Y-118872000D01*
X143764000Y-117271599D01*
X144272000Y-117271599D01*
X144272000Y-118872000D01*
X146304000Y-118872000D01*
X146304000Y-117271599D01*
X145995751Y-117047381D01*
X145464529Y-117295713D01*
X145288000Y-117468234D01*
X145111471Y-117295713D01*
X144580249Y-117047381D01*
X144272000Y-117271599D01*
X143764000Y-117271599D01*
X143455751Y-117047381D01*
X142924529Y-117295713D01*
X142411386Y-117797205D01*
X142051489Y-117556729D01*
X141478000Y-117442655D01*
X140904511Y-117556729D01*
X140418330Y-117881585D01*
X140208000Y-118196366D01*
X139997670Y-117881585D01*
X139511489Y-117556729D01*
X138938000Y-117442655D01*
X138364511Y-117556729D01*
X137878330Y-117881585D01*
X137668000Y-118196366D01*
X137457670Y-117881585D01*
X136971489Y-117556729D01*
X136398000Y-117442655D01*
X135824511Y-117556729D01*
X135338330Y-117881585D01*
X135128000Y-118196366D01*
X134917670Y-117881585D01*
X134431489Y-117556729D01*
X133858000Y-117442655D01*
X133284511Y-117556729D01*
X132798330Y-117881585D01*
X132588000Y-118196366D01*
X132377670Y-117881585D01*
X131891489Y-117556729D01*
X131318000Y-117442655D01*
X130744511Y-117556729D01*
X130258330Y-117881585D01*
X129933474Y-118367766D01*
X129819400Y-118941255D01*
X129819400Y-119310745D01*
X129933474Y-119884234D01*
X130258330Y-120370415D01*
X130744511Y-120695271D01*
X131318000Y-120809345D01*
X131891489Y-120695271D01*
X132377670Y-120370415D01*
X132588000Y-120055634D01*
X132798330Y-120370415D01*
X133284511Y-120695271D01*
X133858000Y-120809345D01*
X134431489Y-120695271D01*
X134917670Y-120370415D01*
X135128000Y-120055634D01*
X135338330Y-120370415D01*
X135824511Y-120695271D01*
X136398000Y-120809345D01*
X136971489Y-120695271D01*
X137457670Y-120370415D01*
X137668000Y-120055634D01*
X137878330Y-120370415D01*
X138364511Y-120695271D01*
X138938000Y-120809345D01*
X139511489Y-120695271D01*
X139997670Y-120370415D01*
X140208000Y-120055634D01*
X140418330Y-120370415D01*
X140904511Y-120695271D01*
X141478000Y-120809345D01*
X142051489Y-120695271D01*
X142411386Y-120454795D01*
X142924235Y-120956000D01*
X119774532Y-120956000D01*
X120108175Y-120817423D01*
X120545349Y-119632397D01*
X120495755Y-118370278D01*
X120108175Y-117434577D01*
X119606854Y-117226356D01*
X117707210Y-119126000D01*
X117721353Y-119140143D01*
X117362143Y-119499353D01*
X117348000Y-119485210D01*
X117333858Y-119499353D01*
X116974648Y-119140143D01*
X116988790Y-119126000D01*
X115089146Y-117226356D01*
X114587825Y-117434577D01*
X114150651Y-118619603D01*
X114200245Y-119881722D01*
X114587825Y-120817423D01*
X114921468Y-120956000D01*
X104088000Y-120956000D01*
X104088000Y-116867146D01*
X115448356Y-116867146D01*
X117348000Y-118766790D01*
X119247644Y-116867146D01*
X119039423Y-116365825D01*
X117854397Y-115928651D01*
X116592278Y-115978245D01*
X115656577Y-116365825D01*
X115448356Y-116867146D01*
X104088000Y-116867146D01*
X104088000Y-111491951D01*
X125087260Y-111491951D01*
X125233143Y-111940599D01*
X126233961Y-112292852D01*
X127293397Y-112235295D01*
X128004857Y-111940599D01*
X128150740Y-111491951D01*
X126619000Y-109960210D01*
X125087260Y-111491951D01*
X104088000Y-111491951D01*
X104088000Y-109215961D01*
X123927148Y-109215961D01*
X123984705Y-110275397D01*
X124279401Y-110986857D01*
X124728049Y-111132740D01*
X126259790Y-109601000D01*
X124728049Y-108069260D01*
X124279401Y-108215143D01*
X123927148Y-109215961D01*
X104088000Y-109215961D01*
X104088000Y-107710049D01*
X125087260Y-107710049D01*
X126619000Y-109241790D01*
X128150740Y-107710049D01*
X128004857Y-107261401D01*
X127004039Y-106909148D01*
X125944603Y-106966705D01*
X125233143Y-107261401D01*
X125087260Y-107710049D01*
X104088000Y-107710049D01*
X104088000Y-103473551D01*
X106435659Y-103473551D01*
X106578590Y-103919713D01*
X107570699Y-104267951D01*
X108620552Y-104210017D01*
X109321410Y-103919713D01*
X109464341Y-103473551D01*
X107950000Y-101959210D01*
X106435659Y-103473551D01*
X104088000Y-103473551D01*
X104088000Y-101220699D01*
X105282049Y-101220699D01*
X105339983Y-102270552D01*
X105630287Y-102971410D01*
X106076449Y-103114341D01*
X107590790Y-101600000D01*
X108309210Y-101600000D01*
X109823551Y-103114341D01*
X110269713Y-102971410D01*
X110617951Y-101979301D01*
X110560017Y-100929448D01*
X110269713Y-100228590D01*
X109823551Y-100085659D01*
X108309210Y-101600000D01*
X107590790Y-101600000D01*
X106076449Y-100085659D01*
X105630287Y-100228590D01*
X105282049Y-101220699D01*
X104088000Y-101220699D01*
X104088000Y-99726449D01*
X106435659Y-99726449D01*
X107950000Y-101240790D01*
X109464341Y-99726449D01*
X109321410Y-99280287D01*
X108329301Y-98932049D01*
X107279448Y-98989983D01*
X106578590Y-99280287D01*
X106435659Y-99726449D01*
X104088000Y-99726449D01*
X104088000Y-93213961D01*
X137389148Y-93213961D01*
X137446705Y-94273397D01*
X137741401Y-94984857D01*
X138190049Y-95130740D01*
X139721790Y-93599000D01*
X140440210Y-93599000D01*
X141971951Y-95130740D01*
X142420599Y-94984857D01*
X142772852Y-93984039D01*
X142715295Y-92924603D01*
X142711706Y-92915938D01*
X144933273Y-92915938D01*
X145008562Y-93305547D01*
X145801751Y-93562082D01*
X146632733Y-93495549D01*
X147091438Y-93305547D01*
X147166727Y-92915938D01*
X146050000Y-91799210D01*
X144933273Y-92915938D01*
X142711706Y-92915938D01*
X142420599Y-92213143D01*
X141971951Y-92067260D01*
X140440210Y-93599000D01*
X139721790Y-93599000D01*
X138190049Y-92067260D01*
X137741401Y-92213143D01*
X137389148Y-93213961D01*
X104088000Y-93213961D01*
X104088000Y-91708049D01*
X138549260Y-91708049D01*
X140081000Y-93239790D01*
X141612740Y-91708049D01*
X141466857Y-91259401D01*
X141274651Y-91191751D01*
X143927918Y-91191751D01*
X143994451Y-92022733D01*
X144184453Y-92481438D01*
X144574062Y-92556727D01*
X145690790Y-91440000D01*
X144574062Y-90323273D01*
X144184453Y-90398562D01*
X143927918Y-91191751D01*
X141274651Y-91191751D01*
X140466039Y-90907148D01*
X139406603Y-90964705D01*
X138695143Y-91259401D01*
X138549260Y-91708049D01*
X104088000Y-91708049D01*
X104088000Y-89964062D01*
X144933273Y-89964062D01*
X146050000Y-91080790D01*
X147166727Y-89964062D01*
X147091438Y-89574453D01*
X146298249Y-89317918D01*
X145467267Y-89384451D01*
X145008562Y-89574453D01*
X144933273Y-89964062D01*
X104088000Y-89964062D01*
X104088000Y-73124854D01*
X116718356Y-73124854D01*
X116926577Y-73626175D01*
X118111603Y-74063349D01*
X119373722Y-74013755D01*
X120309423Y-73626175D01*
X120517644Y-73124854D01*
X118618000Y-71225210D01*
X116718356Y-73124854D01*
X104088000Y-73124854D01*
X104088000Y-69036000D01*
X116191468Y-69036000D01*
X115857825Y-69174577D01*
X115857825Y-69174577D01*
G37*
X115857825Y-69174577D02*
X115420651Y-70359603D01*
X115470245Y-71621722D01*
X115857825Y-72557423D01*
X116359146Y-72765644D01*
X118258790Y-70866000D01*
X118244648Y-70851858D01*
X118603858Y-70492648D01*
X118618000Y-70506790D01*
X118632143Y-70492648D01*
X118991353Y-70851858D01*
X118977210Y-70866000D01*
X120876854Y-72765644D01*
X121378175Y-72557423D01*
X121458295Y-72340245D01*
X121600511Y-72435271D01*
X122174000Y-72549345D01*
X122747489Y-72435271D01*
X123233670Y-72110415D01*
X123444000Y-71795634D01*
X123654330Y-72110415D01*
X124140511Y-72435271D01*
X124714000Y-72549345D01*
X125287489Y-72435271D01*
X125773670Y-72110415D01*
X125984000Y-71795634D01*
X126194330Y-72110415D01*
X126680511Y-72435271D01*
X127254000Y-72549345D01*
X127827489Y-72435271D01*
X128187386Y-72194795D01*
X128700529Y-72696287D01*
X129231751Y-72944619D01*
X129540000Y-72720401D01*
X129540000Y-71120000D01*
X129520000Y-71120000D01*
X129520000Y-70612000D01*
X129540000Y-70612000D01*
X129540000Y-70592000D01*
X130048000Y-70592000D01*
X130048000Y-70612000D01*
X130068000Y-70612000D01*
X130068000Y-71120000D01*
X130048000Y-71120000D01*
X130048000Y-72720401D01*
X130356249Y-72944619D01*
X130887471Y-72696287D01*
X131400614Y-72194795D01*
X131760511Y-72435271D01*
X132334000Y-72549345D01*
X132907489Y-72435271D01*
X133393670Y-72110415D01*
X133604000Y-71795634D01*
X133814330Y-72110415D01*
X134114000Y-72310648D01*
X134114000Y-74361198D01*
X131542599Y-76932599D01*
X131377852Y-77179161D01*
X131360105Y-77268382D01*
X131155057Y-77353106D01*
X130694722Y-77812637D01*
X130445284Y-78413352D01*
X130444716Y-79063795D01*
X130693106Y-79664943D01*
X131152637Y-80125278D01*
X131753352Y-80374716D01*
X132403795Y-80375284D01*
X133004943Y-80126894D01*
X133465278Y-79667363D01*
X133558904Y-79441886D01*
X134260790Y-78740000D01*
X134246648Y-78725858D01*
X134605858Y-78366648D01*
X134620000Y-78380790D01*
X134634143Y-78366648D01*
X134993353Y-78725858D01*
X134979210Y-78740000D01*
X134993353Y-78754143D01*
X134634143Y-79113353D01*
X134620000Y-79099210D01*
X133468708Y-80250502D01*
X133549896Y-80645002D01*
X134360366Y-80909503D01*
X135210362Y-80843716D01*
X135690104Y-80645002D01*
X135771291Y-80250504D01*
X135983651Y-80462864D01*
X136076071Y-80370444D01*
X136160000Y-80387440D01*
X137011388Y-80387440D01*
X139436974Y-82813026D01*
X139848992Y-83088327D01*
X140335000Y-83185001D01*
X140335005Y-83185000D01*
X162560000Y-83185000D01*
X162560000Y-89810787D01*
X162406727Y-89964060D01*
X162331438Y-89574453D01*
X161538249Y-89317918D01*
X160707267Y-89384451D01*
X160248562Y-89574453D01*
X160173273Y-89964062D01*
X161290000Y-91080790D01*
X161304142Y-91066647D01*
X161663353Y-91425858D01*
X161649210Y-91440000D01*
X161663353Y-91454142D01*
X161304142Y-91813353D01*
X161290000Y-91799210D01*
X161275858Y-91813353D01*
X160916647Y-91454142D01*
X160930790Y-91440000D01*
X160141585Y-90650796D01*
X160096602Y-90541928D01*
X159650421Y-90094968D01*
X159067159Y-89852776D01*
X158435612Y-89852225D01*
X157851928Y-90093398D01*
X157479743Y-90464935D01*
X157110421Y-90094968D01*
X156527159Y-89852776D01*
X155895612Y-89852225D01*
X155311928Y-90093398D01*
X154939743Y-90464935D01*
X154570421Y-90094968D01*
X153987159Y-89852776D01*
X153355612Y-89852225D01*
X152771928Y-90093398D01*
X152399743Y-90464935D01*
X152030421Y-90094968D01*
X151447159Y-89852776D01*
X150815612Y-89852225D01*
X150231928Y-90093398D01*
X149859743Y-90464935D01*
X149490421Y-90094968D01*
X148907159Y-89852776D01*
X148275612Y-89852225D01*
X147691928Y-90093398D01*
X147244968Y-90539579D01*
X147199051Y-90650160D01*
X146409210Y-91440000D01*
X147198415Y-92229204D01*
X147243398Y-92338072D01*
X147689579Y-92785032D01*
X148272841Y-93027224D01*
X148904388Y-93027775D01*
X149488072Y-92786602D01*
X149860000Y-92415322D01*
X149860000Y-96747560D01*
X149744722Y-96862637D01*
X149495284Y-97463352D01*
X149494716Y-98113795D01*
X149743106Y-98714943D01*
X150202637Y-99175278D01*
X150803352Y-99424716D01*
X151453795Y-99425284D01*
X152054943Y-99176894D01*
X152400199Y-98832241D01*
X152742637Y-99175278D01*
X153343352Y-99424716D01*
X153993795Y-99425284D01*
X154594943Y-99176894D01*
X154940199Y-98832241D01*
X155282637Y-99175278D01*
X155883352Y-99424716D01*
X156533795Y-99425284D01*
X157134943Y-99176894D01*
X157201574Y-99110379D01*
X157285910Y-99241441D01*
X157498110Y-99386431D01*
X157750000Y-99437440D01*
X159750000Y-99437440D01*
X159985317Y-99393162D01*
X160201441Y-99254090D01*
X160346431Y-99041890D01*
X160397440Y-98790000D01*
X160397440Y-96790000D01*
X160353162Y-96554683D01*
X160214090Y-96338559D01*
X160020000Y-96205943D01*
X160020000Y-93069213D01*
X160173273Y-92915940D01*
X160248562Y-93305547D01*
X161041751Y-93562082D01*
X161872733Y-93495549D01*
X162331438Y-93305547D01*
X162406727Y-92915940D01*
X162560000Y-93069213D01*
X162560000Y-99168948D01*
X158223948Y-103505000D01*
X146050005Y-103505000D01*
X146050000Y-103504999D01*
X145596735Y-103595160D01*
X145563992Y-103601673D01*
X145151974Y-103876974D01*
X145151972Y-103876977D01*
X140126631Y-108902317D01*
X140020612Y-108902225D01*
X139436928Y-109143398D01*
X138989968Y-109589579D01*
X138944051Y-109700160D01*
X138154210Y-110490000D01*
X138943415Y-111279204D01*
X138988398Y-111388072D01*
X139434579Y-111835032D01*
X140017841Y-112077224D01*
X140649388Y-112077775D01*
X141233072Y-111836602D01*
X141282614Y-111787146D01*
X167518356Y-111787146D01*
X169418000Y-113686790D01*
X171317644Y-111787146D01*
X171109423Y-111285825D01*
X169924397Y-110848651D01*
X168662278Y-110898245D01*
X167726577Y-111285825D01*
X167518356Y-111787146D01*
X141282614Y-111787146D01*
X141680032Y-111390421D01*
X141922224Y-110807159D01*
X141922319Y-110698733D01*
X146576051Y-106045000D01*
X158749995Y-106045000D01*
X158750000Y-106045001D01*
X159236008Y-105948327D01*
X159648026Y-105673026D01*
X164728026Y-100593026D01*
X165003327Y-100181008D01*
X165100001Y-99695000D01*
X165100000Y-99694995D01*
X165100000Y-92415322D01*
X165175032Y-92340421D01*
X165417224Y-91757159D01*
X165417775Y-91125612D01*
X165176602Y-90541928D01*
X165100000Y-90465192D01*
X165100000Y-88364854D01*
X167518356Y-88364854D01*
X167726577Y-88866175D01*
X168911603Y-89303349D01*
X170173722Y-89253755D01*
X171109423Y-88866175D01*
X171317644Y-88364854D01*
X169418000Y-86465210D01*
X167518356Y-88364854D01*
X165100000Y-88364854D01*
X165100000Y-85599603D01*
X166220651Y-85599603D01*
X166270245Y-86861722D01*
X166657825Y-87797423D01*
X167159146Y-88005644D01*
X169058790Y-86106000D01*
X169777210Y-86106000D01*
X171676854Y-88005644D01*
X172178175Y-87797423D01*
X172615349Y-86612397D01*
X172565755Y-85350278D01*
X172178175Y-84414577D01*
X171676854Y-84206356D01*
X169777210Y-86106000D01*
X169058790Y-86106000D01*
X167159146Y-84206356D01*
X166657825Y-84414577D01*
X166220651Y-85599603D01*
X165100000Y-85599603D01*
X165100000Y-83185000D01*
X168114843Y-83185000D01*
X167726577Y-83345825D01*
X167518356Y-83847146D01*
X169418000Y-85746790D01*
X171317644Y-83847146D01*
X171109423Y-83345825D01*
X170673483Y-83185000D01*
X183515000Y-83185000D01*
X183515000Y-84779156D01*
X183333559Y-84895910D01*
X183188569Y-85108110D01*
X183137560Y-85360000D01*
X183137560Y-87360000D01*
X183181838Y-87595317D01*
X183320910Y-87811441D01*
X183515000Y-87944057D01*
X183515000Y-89224156D01*
X183333559Y-89340910D01*
X183188569Y-89553110D01*
X183137560Y-89805000D01*
X183137560Y-91805000D01*
X183181838Y-92040317D01*
X183320910Y-92256441D01*
X183515000Y-92389057D01*
X183515000Y-93669156D01*
X183333559Y-93785910D01*
X183188569Y-93998110D01*
X183137560Y-94250000D01*
X183137560Y-96250000D01*
X183181838Y-96485317D01*
X183320910Y-96701441D01*
X183515000Y-96834057D01*
X183515000Y-98114156D01*
X183333559Y-98230910D01*
X183188569Y-98443110D01*
X183137560Y-98695000D01*
X183137560Y-100695000D01*
X183181838Y-100930317D01*
X183320910Y-101146441D01*
X183515000Y-101279057D01*
X183515000Y-102559156D01*
X183333559Y-102675910D01*
X183188569Y-102888110D01*
X183137560Y-103140000D01*
X183137560Y-105140000D01*
X183181838Y-105375317D01*
X183320910Y-105591441D01*
X183515000Y-105724057D01*
X183515000Y-107004156D01*
X183333559Y-107120910D01*
X183188569Y-107333110D01*
X183137560Y-107585000D01*
X183137560Y-109585000D01*
X183181838Y-109820317D01*
X183320910Y-110036441D01*
X183533110Y-110181431D01*
X183785000Y-110232440D01*
X185785000Y-110232440D01*
X185869942Y-110216457D01*
X185961349Y-110307864D01*
X186173709Y-110095504D01*
X186254896Y-110490002D01*
X187065366Y-110754503D01*
X187915362Y-110688716D01*
X188395104Y-110490002D01*
X188476292Y-110095502D01*
X187325000Y-108944210D01*
X187310858Y-108958353D01*
X186951648Y-108599143D01*
X186965790Y-108585000D01*
X186951648Y-108570858D01*
X187310858Y-108211648D01*
X187325000Y-108225790D01*
X188476292Y-107074498D01*
X188395104Y-106679998D01*
X187584634Y-106415497D01*
X186734638Y-106481284D01*
X186254896Y-106679998D01*
X186173709Y-107074496D01*
X186055000Y-106955787D01*
X186055000Y-105769213D01*
X186173709Y-105650504D01*
X186254896Y-106045002D01*
X187065366Y-106309503D01*
X187915362Y-106243716D01*
X188395104Y-106045002D01*
X188476292Y-105650502D01*
X187325000Y-104499210D01*
X187310858Y-104513353D01*
X186951648Y-104154143D01*
X186965790Y-104140000D01*
X186951648Y-104125858D01*
X187310858Y-103766648D01*
X187325000Y-103780790D01*
X188476292Y-102629498D01*
X188395104Y-102234998D01*
X187584634Y-101970497D01*
X186734638Y-102036284D01*
X186254896Y-102234998D01*
X186173709Y-102629496D01*
X186055000Y-102510787D01*
X186055000Y-101324213D01*
X186173709Y-101205504D01*
X186254896Y-101600002D01*
X187065366Y-101864503D01*
X187915362Y-101798716D01*
X188395104Y-101600002D01*
X188476292Y-101205502D01*
X187325000Y-100054210D01*
X187310858Y-100068353D01*
X186951648Y-99709143D01*
X186965790Y-99695000D01*
X186951648Y-99680858D01*
X187310858Y-99321648D01*
X187325000Y-99335790D01*
X188476292Y-98184498D01*
X188395104Y-97789998D01*
X187584634Y-97525497D01*
X186734638Y-97591284D01*
X186254896Y-97789998D01*
X186173709Y-98184496D01*
X186055000Y-98065787D01*
X186055000Y-96879213D01*
X186173709Y-96760504D01*
X186254896Y-97155002D01*
X187065366Y-97419503D01*
X187915362Y-97353716D01*
X188395104Y-97155002D01*
X188476292Y-96760502D01*
X187325000Y-95609210D01*
X187310858Y-95623353D01*
X186951648Y-95264143D01*
X186965790Y-95250000D01*
X186951648Y-95235858D01*
X187310858Y-94876648D01*
X187325000Y-94890790D01*
X188476292Y-93739498D01*
X188395104Y-93344998D01*
X187584634Y-93080497D01*
X186734638Y-93146284D01*
X186254896Y-93344998D01*
X186173709Y-93739496D01*
X186055000Y-93620787D01*
X186055000Y-92434213D01*
X186173709Y-92315504D01*
X186254896Y-92710002D01*
X187065366Y-92974503D01*
X187915362Y-92908716D01*
X188395104Y-92710002D01*
X188476292Y-92315502D01*
X187325000Y-91164210D01*
X187310858Y-91178353D01*
X186951648Y-90819143D01*
X186965790Y-90805000D01*
X186951648Y-90790858D01*
X187310858Y-90431648D01*
X187325000Y-90445790D01*
X188476292Y-89294498D01*
X188395104Y-88899998D01*
X187584634Y-88635497D01*
X186734638Y-88701284D01*
X186254896Y-88899998D01*
X186173709Y-89294496D01*
X186055000Y-89175787D01*
X186055000Y-87989213D01*
X186173709Y-87870504D01*
X186254896Y-88265002D01*
X187065366Y-88529503D01*
X187915362Y-88463716D01*
X188395104Y-88265002D01*
X188476292Y-87870502D01*
X187325000Y-86719210D01*
X187310858Y-86733353D01*
X186951648Y-86374143D01*
X186965790Y-86360000D01*
X186951648Y-86345858D01*
X187310858Y-85986648D01*
X187325000Y-86000790D01*
X188476292Y-84849498D01*
X188395104Y-84454998D01*
X187584634Y-84190497D01*
X186734638Y-84256284D01*
X186254896Y-84454998D01*
X186173709Y-84849496D01*
X186055000Y-84730787D01*
X186055000Y-80369213D01*
X186173709Y-80250504D01*
X186254896Y-80645002D01*
X187065366Y-80909503D01*
X187915362Y-80843716D01*
X188395104Y-80645002D01*
X188476292Y-80250502D01*
X187325000Y-79099210D01*
X187310858Y-79113353D01*
X186951648Y-78754143D01*
X186965790Y-78740000D01*
X186951648Y-78725858D01*
X187310858Y-78366648D01*
X187325000Y-78380790D01*
X188476292Y-77229498D01*
X188395104Y-76834998D01*
X187584634Y-76570497D01*
X186734638Y-76636284D01*
X186254896Y-76834998D01*
X186173709Y-77229496D01*
X185961349Y-77017136D01*
X185868929Y-77109556D01*
X185785000Y-77092560D01*
X183785000Y-77092560D01*
X183549683Y-77136838D01*
X183333559Y-77275910D01*
X183188569Y-77488110D01*
X183137560Y-77740000D01*
X183137560Y-79740000D01*
X183181838Y-79975317D01*
X183320910Y-80191441D01*
X183515000Y-80324057D01*
X183515000Y-80645000D01*
X160020000Y-80645000D01*
X160020000Y-79715322D01*
X160020257Y-79715065D01*
X160389579Y-80085032D01*
X160972841Y-80327224D01*
X161604388Y-80327775D01*
X162188072Y-80086602D01*
X162560257Y-79715065D01*
X162929579Y-80085032D01*
X163512841Y-80327224D01*
X164144388Y-80327775D01*
X164728072Y-80086602D01*
X165175032Y-79640421D01*
X165417224Y-79057159D01*
X165417775Y-78425612D01*
X165176602Y-77841928D01*
X164730421Y-77394968D01*
X164147159Y-77152776D01*
X163515612Y-77152225D01*
X162931928Y-77393398D01*
X162559743Y-77764935D01*
X162190421Y-77394968D01*
X161607159Y-77152776D01*
X160975612Y-77152225D01*
X160391928Y-77393398D01*
X160019743Y-77764935D01*
X159650421Y-77394968D01*
X159067159Y-77152776D01*
X158435612Y-77152225D01*
X157851928Y-77393398D01*
X157479743Y-77764935D01*
X157110421Y-77394968D01*
X156527159Y-77152776D01*
X155895612Y-77152225D01*
X155311928Y-77393398D01*
X154939743Y-77764935D01*
X154570421Y-77394968D01*
X153987159Y-77152776D01*
X153355612Y-77152225D01*
X152771928Y-77393398D01*
X152399743Y-77764935D01*
X152030421Y-77394968D01*
X151447159Y-77152776D01*
X150815612Y-77152225D01*
X150231928Y-77393398D01*
X149859743Y-77764935D01*
X149490421Y-77394968D01*
X149350000Y-77336660D01*
X149350000Y-76514802D01*
X152175401Y-73689401D01*
X152340148Y-73442839D01*
X152398000Y-73152000D01*
X152398000Y-72310648D01*
X152697670Y-72110415D01*
X152908000Y-71795634D01*
X153118330Y-72110415D01*
X153604511Y-72435271D01*
X154178000Y-72549345D01*
X154751489Y-72435271D01*
X155237670Y-72110415D01*
X155448000Y-71795634D01*
X155658330Y-72110415D01*
X156144511Y-72435271D01*
X156718000Y-72549345D01*
X157291489Y-72435271D01*
X157777670Y-72110415D01*
X157988000Y-71795634D01*
X158198330Y-72110415D01*
X158684511Y-72435271D01*
X159258000Y-72549345D01*
X159831489Y-72435271D01*
X160317670Y-72110415D01*
X160528000Y-71795634D01*
X160738330Y-72110415D01*
X161224511Y-72435271D01*
X161798000Y-72549345D01*
X162371489Y-72435271D01*
X162857670Y-72110415D01*
X163068000Y-71795634D01*
X163278330Y-72110415D01*
X163764511Y-72435271D01*
X164338000Y-72549345D01*
X164911489Y-72435271D01*
X165397670Y-72110415D01*
X165608000Y-71795634D01*
X165818330Y-72110415D01*
X166304511Y-72435271D01*
X166878000Y-72549345D01*
X167451489Y-72435271D01*
X167937670Y-72110415D01*
X168262526Y-71624234D01*
X168376600Y-71050745D01*
X168376600Y-70681255D01*
X168262526Y-70107766D01*
X167937670Y-69621585D01*
X167451489Y-69296729D01*
X166878000Y-69182655D01*
X166304511Y-69296729D01*
X165818330Y-69621585D01*
X165608000Y-69936366D01*
X165397670Y-69621585D01*
X164911489Y-69296729D01*
X164338000Y-69182655D01*
X163764511Y-69296729D01*
X163278330Y-69621585D01*
X163068000Y-69936366D01*
X162857670Y-69621585D01*
X162371489Y-69296729D01*
X161798000Y-69182655D01*
X161224511Y-69296729D01*
X160738330Y-69621585D01*
X160528000Y-69936366D01*
X160317670Y-69621585D01*
X159831489Y-69296729D01*
X159258000Y-69182655D01*
X158684511Y-69296729D01*
X158198330Y-69621585D01*
X157988000Y-69936366D01*
X157777670Y-69621585D01*
X157291489Y-69296729D01*
X156718000Y-69182655D01*
X156144511Y-69296729D01*
X155658330Y-69621585D01*
X155448000Y-69936366D01*
X155237670Y-69621585D01*
X154751489Y-69296729D01*
X154178000Y-69182655D01*
X153604511Y-69296729D01*
X153118330Y-69621585D01*
X152908000Y-69936366D01*
X152697670Y-69621585D01*
X152211489Y-69296729D01*
X151638000Y-69182655D01*
X151064511Y-69296729D01*
X150578330Y-69621585D01*
X150368000Y-69936366D01*
X150157670Y-69621585D01*
X149671489Y-69296729D01*
X149098000Y-69182655D01*
X148524511Y-69296729D01*
X148038330Y-69621585D01*
X147713474Y-70107766D01*
X147599400Y-70681255D01*
X147599400Y-71050745D01*
X147713474Y-71624234D01*
X148038330Y-72110415D01*
X148338000Y-72310648D01*
X148338000Y-72837198D01*
X145512599Y-75662599D01*
X145347852Y-75909161D01*
X145290000Y-76200000D01*
X145290000Y-77336348D01*
X145151928Y-77393398D01*
X144704968Y-77839579D01*
X144462776Y-78422841D01*
X144462225Y-79054388D01*
X144703398Y-79638072D01*
X145149579Y-80085032D01*
X145732841Y-80327224D01*
X146364388Y-80327775D01*
X146948072Y-80086602D01*
X147320257Y-79715065D01*
X147689579Y-80085032D01*
X148272841Y-80327224D01*
X148904388Y-80327775D01*
X149488072Y-80086602D01*
X149860000Y-79715322D01*
X149860000Y-80645000D01*
X140861052Y-80645000D01*
X138807440Y-78591388D01*
X138807440Y-77740000D01*
X138763162Y-77504683D01*
X138624090Y-77288559D01*
X138411890Y-77143569D01*
X138160000Y-77092560D01*
X136160000Y-77092560D01*
X136075058Y-77108543D01*
X135983651Y-77017136D01*
X135771291Y-77229496D01*
X135690104Y-76834998D01*
X134879634Y-76570497D01*
X134029638Y-76636284D01*
X133959442Y-76665360D01*
X135411401Y-75213401D01*
X135576148Y-74966839D01*
X135634000Y-74676000D01*
X135634000Y-72310648D01*
X135933670Y-72110415D01*
X136144000Y-71795634D01*
X136354330Y-72110415D01*
X136840511Y-72435271D01*
X137414000Y-72549345D01*
X137987489Y-72435271D01*
X138473670Y-72110415D01*
X138684000Y-71795634D01*
X138894330Y-72110415D01*
X139380511Y-72435271D01*
X139954000Y-72549345D01*
X140527489Y-72435271D01*
X141013670Y-72110415D01*
X141224000Y-71795634D01*
X141434330Y-72110415D01*
X141920511Y-72435271D01*
X142494000Y-72549345D01*
X143067489Y-72435271D01*
X143553670Y-72110415D01*
X143764000Y-71795634D01*
X143974330Y-72110415D01*
X144460511Y-72435271D01*
X145034000Y-72549345D01*
X145607489Y-72435271D01*
X146093670Y-72110415D01*
X146418526Y-71624234D01*
X146532600Y-71050745D01*
X146532600Y-70681255D01*
X146418526Y-70107766D01*
X146093670Y-69621585D01*
X145607489Y-69296729D01*
X145034000Y-69182655D01*
X144460511Y-69296729D01*
X143974330Y-69621585D01*
X143764000Y-69936366D01*
X143553670Y-69621585D01*
X143067489Y-69296729D01*
X142494000Y-69182655D01*
X141920511Y-69296729D01*
X141434330Y-69621585D01*
X141224000Y-69936366D01*
X141013670Y-69621585D01*
X140527489Y-69296729D01*
X139954000Y-69182655D01*
X139380511Y-69296729D01*
X138894330Y-69621585D01*
X138684000Y-69936366D01*
X138473670Y-69621585D01*
X137987489Y-69296729D01*
X137414000Y-69182655D01*
X136840511Y-69296729D01*
X136354330Y-69621585D01*
X136144000Y-69936366D01*
X135933670Y-69621585D01*
X135447489Y-69296729D01*
X134874000Y-69182655D01*
X134300511Y-69296729D01*
X133814330Y-69621585D01*
X133604000Y-69936366D01*
X133393670Y-69621585D01*
X132907489Y-69296729D01*
X132334000Y-69182655D01*
X131760511Y-69296729D01*
X131400614Y-69537205D01*
X130887765Y-69036000D01*
X191121468Y-69036000D01*
X190787825Y-69174577D01*
X190657475Y-69527910D01*
X190311489Y-69296729D01*
X189738000Y-69182655D01*
X189164511Y-69296729D01*
X188678330Y-69621585D01*
X188468000Y-69936366D01*
X188257670Y-69621585D01*
X187771489Y-69296729D01*
X187198000Y-69182655D01*
X186624511Y-69296729D01*
X186138330Y-69621585D01*
X185928000Y-69936366D01*
X185717670Y-69621585D01*
X185231489Y-69296729D01*
X184658000Y-69182655D01*
X184084511Y-69296729D01*
X183598330Y-69621585D01*
X183388000Y-69936366D01*
X183177670Y-69621585D01*
X182691489Y-69296729D01*
X182118000Y-69182655D01*
X181544511Y-69296729D01*
X181058330Y-69621585D01*
X180848000Y-69936366D01*
X180637670Y-69621585D01*
X180151489Y-69296729D01*
X179578000Y-69182655D01*
X179004511Y-69296729D01*
X178518330Y-69621585D01*
X178308000Y-69936366D01*
X178097670Y-69621585D01*
X177611489Y-69296729D01*
X177038000Y-69182655D01*
X176464511Y-69296729D01*
X175978330Y-69621585D01*
X175768000Y-69936366D01*
X175557670Y-69621585D01*
X175071489Y-69296729D01*
X174498000Y-69182655D01*
X173924511Y-69296729D01*
X173438330Y-69621585D01*
X173228000Y-69936366D01*
X173017670Y-69621585D01*
X172531489Y-69296729D01*
X171958000Y-69182655D01*
X171384511Y-69296729D01*
X170898330Y-69621585D01*
X170573474Y-70107766D01*
X170459400Y-70681255D01*
X170459400Y-71050745D01*
X170573474Y-71624234D01*
X170898330Y-72110415D01*
X171384511Y-72435271D01*
X171958000Y-72549345D01*
X172531489Y-72435271D01*
X173017670Y-72110415D01*
X173228000Y-71795634D01*
X173438330Y-72110415D01*
X173924511Y-72435271D01*
X174498000Y-72549345D01*
X175071489Y-72435271D01*
X175557670Y-72110415D01*
X175768000Y-71795634D01*
X175978330Y-72110415D01*
X176464511Y-72435271D01*
X177038000Y-72549345D01*
X177611489Y-72435271D01*
X178097670Y-72110415D01*
X178308000Y-71795634D01*
X178518330Y-72110415D01*
X179004511Y-72435271D01*
X179578000Y-72549345D01*
X180151489Y-72435271D01*
X180637670Y-72110415D01*
X180848000Y-71795634D01*
X181058330Y-72110415D01*
X181544511Y-72435271D01*
X182118000Y-72549345D01*
X182691489Y-72435271D01*
X183177670Y-72110415D01*
X183388000Y-71795634D01*
X183598330Y-72110415D01*
X184084511Y-72435271D01*
X184658000Y-72549345D01*
X185231489Y-72435271D01*
X185717670Y-72110415D01*
X185928000Y-71795634D01*
X186138330Y-72110415D01*
X186438000Y-72310648D01*
X186438000Y-74168000D01*
X186495852Y-74458839D01*
X186660599Y-74705401D01*
X189105000Y-77149802D01*
X189105000Y-77284953D01*
X188940057Y-77353106D01*
X188479722Y-77812637D01*
X188386096Y-78038114D01*
X187684210Y-78740000D01*
X188385831Y-79441621D01*
X188478106Y-79664943D01*
X188937637Y-80125278D01*
X189538352Y-80374716D01*
X190188795Y-80375284D01*
X190789943Y-80126894D01*
X191135199Y-79782241D01*
X191477637Y-80125278D01*
X192078352Y-80374716D01*
X192728795Y-80375284D01*
X193329943Y-80126894D01*
X193790278Y-79667363D01*
X194039716Y-79066648D01*
X194040284Y-78416205D01*
X193791894Y-77815057D01*
X193332363Y-77354722D01*
X193165000Y-77285227D01*
X193165000Y-76835000D01*
X193107148Y-76544161D01*
X192942401Y-76297599D01*
X190498000Y-73853198D01*
X190498000Y-73124854D01*
X191648356Y-73124854D01*
X191856577Y-73626175D01*
X193041603Y-74063349D01*
X194303722Y-74013755D01*
X195239423Y-73626175D01*
X195447644Y-73124854D01*
X193548000Y-71225210D01*
X191648356Y-73124854D01*
X190498000Y-73124854D01*
X190498000Y-72310648D01*
X190644939Y-72212466D01*
X190787825Y-72557423D01*
X191289146Y-72765644D01*
X193188790Y-70866000D01*
X193174648Y-70851858D01*
X193533858Y-70492648D01*
X193548000Y-70506790D01*
X193562143Y-70492648D01*
X193921353Y-70851858D01*
X193907210Y-70866000D01*
X195806854Y-72765644D01*
X196072167Y-72655448D01*
X195973474Y-72803152D01*
X195859400Y-73376641D01*
X195859400Y-73435359D01*
X195973474Y-74008848D01*
X196298330Y-74495029D01*
X196569172Y-74676000D01*
X196298330Y-74856971D01*
X195973474Y-75343152D01*
X195859400Y-75916641D01*
X195859400Y-75975359D01*
X195973474Y-76548848D01*
X196298330Y-77035029D01*
X196569172Y-77216000D01*
X196298330Y-77396971D01*
X195973474Y-77883152D01*
X195859400Y-78456641D01*
X195859400Y-78515359D01*
X195973474Y-79088848D01*
X196298330Y-79575029D01*
X196569172Y-79756000D01*
X196298330Y-79936971D01*
X195973474Y-80423152D01*
X195859400Y-80996641D01*
X195859400Y-81055359D01*
X195973474Y-81628848D01*
X196298330Y-82115029D01*
X196569172Y-82296000D01*
X196298330Y-82476971D01*
X196078480Y-82806000D01*
X195199000Y-82806000D01*
X194908161Y-82863852D01*
X194661599Y-83028599D01*
X192090198Y-85600000D01*
X191320047Y-85600000D01*
X191251894Y-85435057D01*
X190792363Y-84974722D01*
X190191648Y-84725284D01*
X189541205Y-84724716D01*
X188940057Y-84973106D01*
X188479722Y-85432637D01*
X188386096Y-85658114D01*
X187684210Y-86360000D01*
X188385831Y-87061621D01*
X188478106Y-87284943D01*
X188937637Y-87745278D01*
X189538352Y-87994716D01*
X190188795Y-87995284D01*
X190789943Y-87746894D01*
X191250278Y-87287363D01*
X191319773Y-87120000D01*
X192405000Y-87120000D01*
X192695839Y-87062148D01*
X192942401Y-86897401D01*
X195513802Y-84326000D01*
X196078480Y-84326000D01*
X196298330Y-84655029D01*
X196569172Y-84836000D01*
X196298330Y-85016971D01*
X195973474Y-85503152D01*
X195859400Y-86076641D01*
X195859400Y-86135359D01*
X195973474Y-86708848D01*
X196298330Y-87195029D01*
X196569172Y-87376000D01*
X196298330Y-87556971D01*
X196078480Y-87886000D01*
X194564000Y-87886000D01*
X194273161Y-87943852D01*
X194026599Y-88108599D01*
X192090198Y-90045000D01*
X191320047Y-90045000D01*
X191251894Y-89880057D01*
X190792363Y-89419722D01*
X190191648Y-89170284D01*
X189541205Y-89169716D01*
X188940057Y-89418106D01*
X188479722Y-89877637D01*
X188386096Y-90103114D01*
X187684210Y-90805000D01*
X188385831Y-91506621D01*
X188478106Y-91729943D01*
X188937637Y-92190278D01*
X189538352Y-92439716D01*
X190188795Y-92440284D01*
X190789943Y-92191894D01*
X191250278Y-91732363D01*
X191319773Y-91565000D01*
X192405000Y-91565000D01*
X192695839Y-91507148D01*
X192942401Y-91342401D01*
X194878802Y-89406000D01*
X196078480Y-89406000D01*
X196298330Y-89735029D01*
X196569172Y-89916000D01*
X196298330Y-90096971D01*
X195973474Y-90583152D01*
X195859400Y-91156641D01*
X195859400Y-91215359D01*
X195973474Y-91788848D01*
X196298330Y-92275029D01*
X196569172Y-92456000D01*
X196298330Y-92636971D01*
X196078480Y-92966000D01*
X193929000Y-92966000D01*
X193686414Y-93014254D01*
X193638160Y-93023852D01*
X193391599Y-93188599D01*
X192090198Y-94490000D01*
X191320047Y-94490000D01*
X191251894Y-94325057D01*
X190792363Y-93864722D01*
X190191648Y-93615284D01*
X189541205Y-93614716D01*
X188940057Y-93863106D01*
X188479722Y-94322637D01*
X188386096Y-94548114D01*
X187684210Y-95250000D01*
X188385831Y-95951621D01*
X188478106Y-96174943D01*
X188937637Y-96635278D01*
X189538352Y-96884716D01*
X190188795Y-96885284D01*
X190789943Y-96636894D01*
X191250278Y-96177363D01*
X191319773Y-96010000D01*
X192405000Y-96010000D01*
X192695839Y-95952148D01*
X192942401Y-95787401D01*
X194243802Y-94486000D01*
X196078480Y-94486000D01*
X196298330Y-94815029D01*
X196569172Y-94996000D01*
X196298330Y-95176971D01*
X196078480Y-95506000D01*
X195834000Y-95506000D01*
X195543160Y-95563852D01*
X195296599Y-95728599D01*
X192090198Y-98935000D01*
X191320047Y-98935000D01*
X191251894Y-98770057D01*
X190792363Y-98309722D01*
X190191648Y-98060284D01*
X189541205Y-98059716D01*
X188940057Y-98308106D01*
X188479722Y-98767637D01*
X188386096Y-98993114D01*
X187684210Y-99695000D01*
X188385831Y-100396621D01*
X188478106Y-100619943D01*
X188937637Y-101080278D01*
X189538352Y-101329716D01*
X190188795Y-101330284D01*
X190789943Y-101081894D01*
X191250278Y-100622363D01*
X191319773Y-100455000D01*
X192405000Y-100455000D01*
X192695839Y-100397148D01*
X192942401Y-100232401D01*
X196106647Y-97068155D01*
X196298330Y-97355029D01*
X196569172Y-97536000D01*
X196298330Y-97716971D01*
X195973474Y-98203152D01*
X195859400Y-98776641D01*
X195859400Y-98835359D01*
X195973474Y-99408848D01*
X196298330Y-99895029D01*
X196569172Y-100076000D01*
X196298330Y-100256971D01*
X196078480Y-100586000D01*
X195199000Y-100586000D01*
X194908161Y-100643852D01*
X194661599Y-100808599D01*
X192090198Y-103380000D01*
X191320047Y-103380000D01*
X191251894Y-103215057D01*
X190792363Y-102754722D01*
X190191648Y-102505284D01*
X189541205Y-102504716D01*
X188940057Y-102753106D01*
X188479722Y-103212637D01*
X188386096Y-103438114D01*
X187684210Y-104140000D01*
X188385831Y-104841621D01*
X188478106Y-105064943D01*
X188937637Y-105525278D01*
X189538352Y-105774716D01*
X190188795Y-105775284D01*
X190789943Y-105526894D01*
X191250278Y-105067363D01*
X191319773Y-104900000D01*
X192405000Y-104900000D01*
X192695839Y-104842148D01*
X192942401Y-104677401D01*
X195513802Y-102106000D01*
X196078480Y-102106000D01*
X196298330Y-102435029D01*
X196569172Y-102616000D01*
X196298330Y-102796971D01*
X195973474Y-103283152D01*
X195859400Y-103856641D01*
X195859400Y-103915359D01*
X195882700Y-104032498D01*
X192090198Y-107825000D01*
X191320047Y-107825000D01*
X191251894Y-107660057D01*
X190792363Y-107199722D01*
X190191648Y-106950284D01*
X189541205Y-106949716D01*
X188940057Y-107198106D01*
X188479722Y-107657637D01*
X188386096Y-107883114D01*
X187684210Y-108585000D01*
X188385831Y-109286621D01*
X188478106Y-109509943D01*
X188937637Y-109970278D01*
X189538352Y-110219716D01*
X190188795Y-110220284D01*
X190789943Y-109971894D01*
X191250278Y-109512363D01*
X191319773Y-109345000D01*
X192405000Y-109345000D01*
X192695839Y-109287148D01*
X192942401Y-109122401D01*
X195906885Y-106157917D01*
X195859400Y-106396641D01*
X195859400Y-106455359D01*
X195882700Y-106572498D01*
X192090198Y-110365000D01*
X189230000Y-110365000D01*
X188939161Y-110422852D01*
X188692599Y-110587599D01*
X187897638Y-111382560D01*
X186325000Y-111382560D01*
X186089683Y-111426838D01*
X185873559Y-111565910D01*
X185728569Y-111778110D01*
X185677560Y-112030000D01*
X185677560Y-114030000D01*
X185721838Y-114265317D01*
X185860910Y-114481441D01*
X186073110Y-114626431D01*
X186325000Y-114677440D01*
X188325000Y-114677440D01*
X188409942Y-114661457D01*
X188501349Y-114752864D01*
X188713709Y-114540504D01*
X188794896Y-114935002D01*
X189605366Y-115199503D01*
X190455362Y-115133716D01*
X190935104Y-114935002D01*
X191016292Y-114540502D01*
X189865000Y-113389210D01*
X189850858Y-113403353D01*
X189491648Y-113044143D01*
X189505790Y-113030000D01*
X189491648Y-113015858D01*
X189850858Y-112656648D01*
X189865000Y-112670790D01*
X189879143Y-112656648D01*
X190238353Y-113015858D01*
X190224210Y-113030000D01*
X191375502Y-114181292D01*
X191770002Y-114100104D01*
X191861719Y-113819068D01*
X195324712Y-113819068D01*
X195392644Y-114614448D01*
X195566330Y-115033763D01*
X195946799Y-115097990D01*
X196998790Y-114046000D01*
X195946799Y-112994010D01*
X195566330Y-113058237D01*
X195324712Y-113819068D01*
X191861719Y-113819068D01*
X192034503Y-113289634D01*
X191968716Y-112439638D01*
X191770002Y-111959896D01*
X191406075Y-111885000D01*
X192405000Y-111885000D01*
X192695839Y-111827148D01*
X192942401Y-111662401D01*
X195906885Y-108697917D01*
X195859400Y-108936641D01*
X195859400Y-108995359D01*
X195973474Y-109568848D01*
X196298330Y-110055029D01*
X196569172Y-110236000D01*
X196298330Y-110416971D01*
X195973474Y-110903152D01*
X195859400Y-111476641D01*
X195859400Y-111535359D01*
X195973474Y-112108848D01*
X196298330Y-112595029D01*
X196311265Y-112603672D01*
X196306010Y-112634799D01*
X197358000Y-113686790D01*
X197372142Y-113672647D01*
X197731353Y-114031858D01*
X197717210Y-114046000D01*
X197731353Y-114060142D01*
X197372142Y-114419353D01*
X197358000Y-114405210D01*
X196306010Y-115457201D01*
X196370237Y-115837670D01*
X197131068Y-116079288D01*
X197926448Y-116011356D01*
X198345763Y-115837670D01*
X198409990Y-115457203D01*
X198623312Y-115670526D01*
X198691300Y-115602538D01*
X198933519Y-115805624D01*
X199332275Y-115970779D01*
X199142278Y-115978245D01*
X198206577Y-116365825D01*
X197998356Y-116867146D01*
X199898000Y-118766790D01*
X201797644Y-116867146D01*
X201589423Y-116365825D01*
X200489573Y-115960074D01*
X200862481Y-115805624D01*
X201462443Y-115302590D01*
X201824233Y-114608251D01*
X201602723Y-114300000D01*
X200152000Y-114300000D01*
X200152000Y-114320000D01*
X199644000Y-114320000D01*
X199644000Y-114300000D01*
X199624000Y-114300000D01*
X199624000Y-113792000D01*
X199644000Y-113792000D01*
X199644000Y-113772000D01*
X200152000Y-113772000D01*
X200152000Y-113792000D01*
X201602723Y-113792000D01*
X201824233Y-113483749D01*
X201462443Y-112789410D01*
X201055673Y-112448357D01*
X201282526Y-112108848D01*
X201396600Y-111535359D01*
X201396600Y-111476641D01*
X201282526Y-110903152D01*
X200957670Y-110416971D01*
X200686828Y-110236000D01*
X200957670Y-110055029D01*
X201282526Y-109568848D01*
X201396600Y-108995359D01*
X201396600Y-108936641D01*
X201282526Y-108363152D01*
X200957670Y-107876971D01*
X200686828Y-107696000D01*
X200957670Y-107515029D01*
X201282526Y-107028848D01*
X201396600Y-106455359D01*
X201396600Y-106396641D01*
X201282526Y-105823152D01*
X200957670Y-105336971D01*
X200686828Y-105156000D01*
X200957670Y-104975029D01*
X201282526Y-104488848D01*
X201396600Y-103915359D01*
X201396600Y-103856641D01*
X201282526Y-103283152D01*
X200957670Y-102796971D01*
X200686828Y-102616000D01*
X200957670Y-102435029D01*
X201282526Y-101948848D01*
X201396600Y-101375359D01*
X201396600Y-101316641D01*
X201282526Y-100743152D01*
X200957670Y-100256971D01*
X200686828Y-100076000D01*
X200957670Y-99895029D01*
X201282526Y-99408848D01*
X201396600Y-98835359D01*
X201396600Y-98776641D01*
X201282526Y-98203152D01*
X200957670Y-97716971D01*
X200686828Y-97536000D01*
X200957670Y-97355029D01*
X201282526Y-96868848D01*
X201396600Y-96295359D01*
X201396600Y-96236641D01*
X201282526Y-95663152D01*
X200957670Y-95176971D01*
X200686828Y-94996000D01*
X200957670Y-94815029D01*
X201282526Y-94328848D01*
X201396600Y-93755359D01*
X201396600Y-93696641D01*
X201282526Y-93123152D01*
X200957670Y-92636971D01*
X200686828Y-92456000D01*
X200957670Y-92275029D01*
X201282526Y-91788848D01*
X201396600Y-91215359D01*
X201396600Y-91156641D01*
X201282526Y-90583152D01*
X200957670Y-90096971D01*
X200686828Y-89916000D01*
X200957670Y-89735029D01*
X201282526Y-89248848D01*
X201396600Y-88675359D01*
X201396600Y-88616641D01*
X201282526Y-88043152D01*
X200957670Y-87556971D01*
X200686828Y-87376000D01*
X200957670Y-87195029D01*
X201282526Y-86708848D01*
X201396600Y-86135359D01*
X201396600Y-86076641D01*
X201282526Y-85503152D01*
X200957670Y-85016971D01*
X200686828Y-84836000D01*
X200957670Y-84655029D01*
X201282526Y-84168848D01*
X201396600Y-83595359D01*
X201396600Y-83536641D01*
X201282526Y-82963152D01*
X200957670Y-82476971D01*
X200686828Y-82296000D01*
X200957670Y-82115029D01*
X201282526Y-81628848D01*
X201396600Y-81055359D01*
X201396600Y-80996641D01*
X201282526Y-80423152D01*
X200957670Y-79936971D01*
X200686828Y-79756000D01*
X200957670Y-79575029D01*
X201282526Y-79088848D01*
X201396600Y-78515359D01*
X201396600Y-78456641D01*
X201282526Y-77883152D01*
X200957670Y-77396971D01*
X200686828Y-77216000D01*
X200957670Y-77035029D01*
X201282526Y-76548848D01*
X201396600Y-75975359D01*
X201396600Y-75916641D01*
X201282526Y-75343152D01*
X200957670Y-74856971D01*
X200686828Y-74676000D01*
X200957670Y-74495029D01*
X201282526Y-74008848D01*
X201396600Y-73435359D01*
X201396600Y-73376641D01*
X201282526Y-72803152D01*
X200957670Y-72316971D01*
X200686828Y-72136000D01*
X200957670Y-71955029D01*
X201282526Y-71468848D01*
X201396600Y-70895359D01*
X201396600Y-70836641D01*
X201282526Y-70263152D01*
X200957670Y-69776971D01*
X200471489Y-69452115D01*
X199898000Y-69338041D01*
X199324511Y-69452115D01*
X198838330Y-69776971D01*
X198628000Y-70091752D01*
X198417670Y-69776971D01*
X197931489Y-69452115D01*
X197358000Y-69338041D01*
X196784511Y-69452115D01*
X196501472Y-69641236D01*
X196308175Y-69174577D01*
X195974532Y-69036000D01*
X204623600Y-69036000D01*
X204623600Y-120956000D01*
X202324532Y-120956000D01*
X202658175Y-120817423D01*
X203095349Y-119632397D01*
X203045755Y-118370278D01*
X202658175Y-117434577D01*
X202156854Y-117226356D01*
X200257210Y-119126000D01*
X200271353Y-119140143D01*
X199912143Y-119499353D01*
X199898000Y-119485210D01*
X199883858Y-119499353D01*
X199524648Y-119140143D01*
X199538790Y-119126000D01*
X197639146Y-117226356D01*
X197137825Y-117434577D01*
X196700651Y-118619603D01*
X196750245Y-119881722D01*
X197137825Y-120817423D01*
X197471468Y-120956000D01*
X147651765Y-120956000D01*
X148164614Y-120454795D01*
X148524511Y-120695271D01*
X149098000Y-120809345D01*
X149671489Y-120695271D01*
X150157670Y-120370415D01*
X150482526Y-119884234D01*
X150596600Y-119310745D01*
X150596600Y-118941255D01*
X152679400Y-118941255D01*
X152679400Y-119310745D01*
X152793474Y-119884234D01*
X153118330Y-120370415D01*
X153604511Y-120695271D01*
X154178000Y-120809345D01*
X154751489Y-120695271D01*
X155237670Y-120370415D01*
X155448000Y-120055634D01*
X155658330Y-120370415D01*
X156144511Y-120695271D01*
X156718000Y-120809345D01*
X157291489Y-120695271D01*
X157777670Y-120370415D01*
X157988000Y-120055634D01*
X158198330Y-120370415D01*
X158684511Y-120695271D01*
X159258000Y-120809345D01*
X159831489Y-120695271D01*
X160317670Y-120370415D01*
X160528000Y-120055634D01*
X160738330Y-120370415D01*
X161224511Y-120695271D01*
X161798000Y-120809345D01*
X162371489Y-120695271D01*
X162857670Y-120370415D01*
X163068000Y-120055634D01*
X163278330Y-120370415D01*
X163764511Y-120695271D01*
X164338000Y-120809345D01*
X164911489Y-120695271D01*
X165397670Y-120370415D01*
X165608000Y-120055634D01*
X165818330Y-120370415D01*
X166304511Y-120695271D01*
X166878000Y-120809345D01*
X167451489Y-120695271D01*
X167937670Y-120370415D01*
X168148000Y-120055634D01*
X168358330Y-120370415D01*
X168844511Y-120695271D01*
X169418000Y-120809345D01*
X169991489Y-120695271D01*
X170477670Y-120370415D01*
X170688000Y-120055634D01*
X170898330Y-120370415D01*
X171384511Y-120695271D01*
X171958000Y-120809345D01*
X172531489Y-120695271D01*
X173017670Y-120370415D01*
X173342526Y-119884234D01*
X173456600Y-119310745D01*
X173456600Y-118941255D01*
X175539400Y-118941255D01*
X175539400Y-119310745D01*
X175653474Y-119884234D01*
X175978330Y-120370415D01*
X176464511Y-120695271D01*
X177038000Y-120809345D01*
X177611489Y-120695271D01*
X178097670Y-120370415D01*
X178308000Y-120055634D01*
X178518330Y-120370415D01*
X179004511Y-120695271D01*
X179578000Y-120809345D01*
X180151489Y-120695271D01*
X180637670Y-120370415D01*
X180848000Y-120055634D01*
X181058330Y-120370415D01*
X181544511Y-120695271D01*
X182118000Y-120809345D01*
X182691489Y-120695271D01*
X183177670Y-120370415D01*
X183388000Y-120055634D01*
X183598330Y-120370415D01*
X184084511Y-120695271D01*
X184658000Y-120809345D01*
X185231489Y-120695271D01*
X185717670Y-120370415D01*
X185928000Y-120055634D01*
X186138330Y-120370415D01*
X186624511Y-120695271D01*
X187198000Y-120809345D01*
X187771489Y-120695271D01*
X188257670Y-120370415D01*
X188468000Y-120055634D01*
X188678330Y-120370415D01*
X189164511Y-120695271D01*
X189738000Y-120809345D01*
X190311489Y-120695271D01*
X190797670Y-120370415D01*
X191008000Y-120055634D01*
X191218330Y-120370415D01*
X191704511Y-120695271D01*
X192278000Y-120809345D01*
X192851489Y-120695271D01*
X193337670Y-120370415D01*
X193548000Y-120055634D01*
X193758330Y-120370415D01*
X194244511Y-120695271D01*
X194818000Y-120809345D01*
X195391489Y-120695271D01*
X195877670Y-120370415D01*
X196202526Y-119884234D01*
X196316600Y-119310745D01*
X196316600Y-118941255D01*
X196202526Y-118367766D01*
X195877670Y-117881585D01*
X195391489Y-117556729D01*
X194818000Y-117442655D01*
X194244511Y-117556729D01*
X193758330Y-117881585D01*
X193548000Y-118196366D01*
X193337670Y-117881585D01*
X192851489Y-117556729D01*
X192278000Y-117442655D01*
X191704511Y-117556729D01*
X191218330Y-117881585D01*
X191008000Y-118196366D01*
X190797670Y-117881585D01*
X190311489Y-117556729D01*
X189738000Y-117442655D01*
X189164511Y-117556729D01*
X188678330Y-117881585D01*
X188468000Y-118196366D01*
X188257670Y-117881585D01*
X187771489Y-117556729D01*
X187198000Y-117442655D01*
X186624511Y-117556729D01*
X186138330Y-117881585D01*
X185928000Y-118196366D01*
X185717670Y-117881585D01*
X185231489Y-117556729D01*
X184658000Y-117442655D01*
X184084511Y-117556729D01*
X183598330Y-117881585D01*
X183388000Y-118196366D01*
X183177670Y-117881585D01*
X182691489Y-117556729D01*
X182118000Y-117442655D01*
X181544511Y-117556729D01*
X181058330Y-117881585D01*
X180848000Y-118196366D01*
X180637670Y-117881585D01*
X180151489Y-117556729D01*
X179578000Y-117442655D01*
X179004511Y-117556729D01*
X178518330Y-117881585D01*
X178308000Y-118196366D01*
X178097670Y-117881585D01*
X177611489Y-117556729D01*
X177038000Y-117442655D01*
X176464511Y-117556729D01*
X175978330Y-117881585D01*
X175653474Y-118367766D01*
X175539400Y-118941255D01*
X173456600Y-118941255D01*
X173342526Y-118367766D01*
X173017670Y-117881585D01*
X172531489Y-117556729D01*
X171958000Y-117442655D01*
X171384511Y-117556729D01*
X170898330Y-117881585D01*
X170688000Y-118196366D01*
X170477670Y-117881585D01*
X169991489Y-117556729D01*
X169418000Y-117442655D01*
X168844511Y-117556729D01*
X168358330Y-117881585D01*
X168148000Y-118196366D01*
X167937670Y-117881585D01*
X167451489Y-117556729D01*
X166878000Y-117442655D01*
X166304511Y-117556729D01*
X165818330Y-117881585D01*
X165608000Y-118196366D01*
X165397670Y-117881585D01*
X164911489Y-117556729D01*
X164338000Y-117442655D01*
X163764511Y-117556729D01*
X163278330Y-117881585D01*
X163068000Y-118196366D01*
X162857670Y-117881585D01*
X162371489Y-117556729D01*
X161798000Y-117442655D01*
X161224511Y-117556729D01*
X160738330Y-117881585D01*
X160528000Y-118196366D01*
X160317670Y-117881585D01*
X159831489Y-117556729D01*
X159258000Y-117442655D01*
X158684511Y-117556729D01*
X158198330Y-117881585D01*
X157988000Y-118196366D01*
X157777670Y-117881585D01*
X157291489Y-117556729D01*
X156718000Y-117442655D01*
X156144511Y-117556729D01*
X155658330Y-117881585D01*
X155448000Y-118196366D01*
X155237670Y-117881585D01*
X154751489Y-117556729D01*
X154178000Y-117442655D01*
X153604511Y-117556729D01*
X153118330Y-117881585D01*
X152793474Y-118367766D01*
X152679400Y-118941255D01*
X150596600Y-118941255D01*
X150482526Y-118367766D01*
X150368000Y-118196366D01*
X150368000Y-117348000D01*
X150271327Y-116861992D01*
X149996026Y-116449974D01*
X149996023Y-116449972D01*
X149850906Y-116304854D01*
X167518356Y-116304854D01*
X167726577Y-116806175D01*
X168911603Y-117243349D01*
X170173722Y-117193755D01*
X171109423Y-116806175D01*
X171317644Y-116304854D01*
X169418000Y-114405210D01*
X167518356Y-116304854D01*
X149850906Y-116304854D01*
X147583026Y-114036974D01*
X147171008Y-113761673D01*
X146685000Y-113664999D01*
X146684995Y-113665000D01*
X136416052Y-113665000D01*
X136290655Y-113539603D01*
X166220651Y-113539603D01*
X166270245Y-114801722D01*
X166657825Y-115737423D01*
X167159146Y-115945644D01*
X169058790Y-114046000D01*
X169777210Y-114046000D01*
X171676854Y-115945644D01*
X172178175Y-115737423D01*
X172615349Y-114552397D01*
X172565755Y-113290278D01*
X172178175Y-112354577D01*
X171676854Y-112146356D01*
X169777210Y-114046000D01*
X169058790Y-114046000D01*
X167159146Y-112146356D01*
X166657825Y-112354577D01*
X166220651Y-113539603D01*
X136290655Y-113539603D01*
X135336715Y-112585663D01*
X135837733Y-112545549D01*
X136296438Y-112355547D01*
X136352486Y-112065509D01*
X136465595Y-112178618D01*
X136525000Y-112119213D01*
X136584405Y-112178618D01*
X136697514Y-112065509D01*
X136753562Y-112355547D01*
X137546751Y-112612082D01*
X138377733Y-112545549D01*
X138836438Y-112355547D01*
X138911727Y-111965938D01*
X137795000Y-110849210D01*
X137780858Y-110863353D01*
X137421648Y-110504143D01*
X137435790Y-110490000D01*
X137421648Y-110475858D01*
X137780858Y-110116648D01*
X137795000Y-110130790D01*
X138911727Y-109014062D01*
X138836438Y-108624453D01*
X138043249Y-108367918D01*
X137212267Y-108434451D01*
X136753562Y-108624453D01*
X136697514Y-108914491D01*
X136584405Y-108801382D01*
X136525000Y-108860787D01*
X136465595Y-108801382D01*
X136352486Y-108914491D01*
X136296438Y-108624453D01*
X135503249Y-108367918D01*
X134672267Y-108434451D01*
X134213562Y-108624453D01*
X134138273Y-109014060D01*
X133985000Y-108860787D01*
X133985000Y-105410005D01*
X133985001Y-105410000D01*
X133888327Y-104923992D01*
X133758948Y-104730362D01*
X133613026Y-104511974D01*
X133613023Y-104511972D01*
X124723026Y-95621974D01*
X124525440Y-95489951D01*
X138549260Y-95489951D01*
X138695143Y-95938599D01*
X139695961Y-96290852D01*
X140755397Y-96233295D01*
X141466857Y-95938599D01*
X141612740Y-95489951D01*
X140081000Y-93958210D01*
X138549260Y-95489951D01*
X124525440Y-95489951D01*
X124311008Y-95346673D01*
X123825000Y-95249999D01*
X123824995Y-95250000D01*
X110097440Y-95250000D01*
X110097440Y-95020000D01*
X110053162Y-94784683D01*
X109914090Y-94568559D01*
X109701890Y-94423569D01*
X109450000Y-94372560D01*
X106450000Y-94372560D01*
X106214683Y-94416838D01*
X105998559Y-94555910D01*
X105853569Y-94768110D01*
X105802560Y-95020000D01*
X105802560Y-98020000D01*
X105846838Y-98255317D01*
X105985910Y-98471441D01*
X106198110Y-98616431D01*
X106450000Y-98667440D01*
X109450000Y-98667440D01*
X109685317Y-98623162D01*
X109901441Y-98484090D01*
X110046431Y-98271890D01*
X110097440Y-98020000D01*
X110097440Y-97790000D01*
X123298948Y-97790000D01*
X131445000Y-105936051D01*
X131445000Y-109514678D01*
X131444743Y-109514935D01*
X131075421Y-109144968D01*
X130492159Y-108902776D01*
X129860612Y-108902225D01*
X129276928Y-109143398D01*
X129265683Y-109154624D01*
X129253295Y-108926603D01*
X128958599Y-108215143D01*
X128509951Y-108069260D01*
X126978210Y-109601000D01*
X128509951Y-111132740D01*
X128697676Y-111071699D01*
X128828398Y-111388072D01*
X129274579Y-111835032D01*
X129857841Y-112077224D01*
X130489388Y-112077775D01*
X131073072Y-111836602D01*
X131445000Y-111465322D01*
X131445000Y-111759995D01*
X131444999Y-111760000D01*
X131541673Y-112246008D01*
X131816974Y-112658026D01*
X134991974Y-115833026D01*
X135403992Y-116108327D01*
X135890000Y-116205001D01*
X135890005Y-116205000D01*
X146158948Y-116205000D01*
X147051406Y-117097457D01*
X146812000Y-117271599D01*
X146812000Y-118872000D01*
X146832000Y-118872000D01*
X146832000Y-119380000D01*
X146812000Y-119380000D01*
X146812000Y-119400000D01*
X146304000Y-119400000D01*
X146304000Y-119380000D01*
X144272000Y-119380000D01*
X144272000Y-119400000D01*
X143764000Y-119400000D01*
X143764000Y-119380000D01*
X143744000Y-119380000D01*
X143744000Y-118872000D01*
X143764000Y-118872000D01*
X143764000Y-117271599D01*
X144272000Y-117271599D01*
X144272000Y-118872000D01*
X146304000Y-118872000D01*
X146304000Y-117271599D01*
X145995751Y-117047381D01*
X145464529Y-117295713D01*
X145288000Y-117468234D01*
X145111471Y-117295713D01*
X144580249Y-117047381D01*
X144272000Y-117271599D01*
X143764000Y-117271599D01*
X143455751Y-117047381D01*
X142924529Y-117295713D01*
X142411386Y-117797205D01*
X142051489Y-117556729D01*
X141478000Y-117442655D01*
X140904511Y-117556729D01*
X140418330Y-117881585D01*
X140208000Y-118196366D01*
X139997670Y-117881585D01*
X139511489Y-117556729D01*
X138938000Y-117442655D01*
X138364511Y-117556729D01*
X137878330Y-117881585D01*
X137668000Y-118196366D01*
X137457670Y-117881585D01*
X136971489Y-117556729D01*
X136398000Y-117442655D01*
X135824511Y-117556729D01*
X135338330Y-117881585D01*
X135128000Y-118196366D01*
X134917670Y-117881585D01*
X134431489Y-117556729D01*
X133858000Y-117442655D01*
X133284511Y-117556729D01*
X132798330Y-117881585D01*
X132588000Y-118196366D01*
X132377670Y-117881585D01*
X131891489Y-117556729D01*
X131318000Y-117442655D01*
X130744511Y-117556729D01*
X130258330Y-117881585D01*
X129933474Y-118367766D01*
X129819400Y-118941255D01*
X129819400Y-119310745D01*
X129933474Y-119884234D01*
X130258330Y-120370415D01*
X130744511Y-120695271D01*
X131318000Y-120809345D01*
X131891489Y-120695271D01*
X132377670Y-120370415D01*
X132588000Y-120055634D01*
X132798330Y-120370415D01*
X133284511Y-120695271D01*
X133858000Y-120809345D01*
X134431489Y-120695271D01*
X134917670Y-120370415D01*
X135128000Y-120055634D01*
X135338330Y-120370415D01*
X135824511Y-120695271D01*
X136398000Y-120809345D01*
X136971489Y-120695271D01*
X137457670Y-120370415D01*
X137668000Y-120055634D01*
X137878330Y-120370415D01*
X138364511Y-120695271D01*
X138938000Y-120809345D01*
X139511489Y-120695271D01*
X139997670Y-120370415D01*
X140208000Y-120055634D01*
X140418330Y-120370415D01*
X140904511Y-120695271D01*
X141478000Y-120809345D01*
X142051489Y-120695271D01*
X142411386Y-120454795D01*
X142924235Y-120956000D01*
X119774532Y-120956000D01*
X120108175Y-120817423D01*
X120545349Y-119632397D01*
X120495755Y-118370278D01*
X120108175Y-117434577D01*
X119606854Y-117226356D01*
X117707210Y-119126000D01*
X117721353Y-119140143D01*
X117362143Y-119499353D01*
X117348000Y-119485210D01*
X117333858Y-119499353D01*
X116974648Y-119140143D01*
X116988790Y-119126000D01*
X115089146Y-117226356D01*
X114587825Y-117434577D01*
X114150651Y-118619603D01*
X114200245Y-119881722D01*
X114587825Y-120817423D01*
X114921468Y-120956000D01*
X104088000Y-120956000D01*
X104088000Y-116867146D01*
X115448356Y-116867146D01*
X117348000Y-118766790D01*
X119247644Y-116867146D01*
X119039423Y-116365825D01*
X117854397Y-115928651D01*
X116592278Y-115978245D01*
X115656577Y-116365825D01*
X115448356Y-116867146D01*
X104088000Y-116867146D01*
X104088000Y-111491951D01*
X125087260Y-111491951D01*
X125233143Y-111940599D01*
X126233961Y-112292852D01*
X127293397Y-112235295D01*
X128004857Y-111940599D01*
X128150740Y-111491951D01*
X126619000Y-109960210D01*
X125087260Y-111491951D01*
X104088000Y-111491951D01*
X104088000Y-109215961D01*
X123927148Y-109215961D01*
X123984705Y-110275397D01*
X124279401Y-110986857D01*
X124728049Y-111132740D01*
X126259790Y-109601000D01*
X124728049Y-108069260D01*
X124279401Y-108215143D01*
X123927148Y-109215961D01*
X104088000Y-109215961D01*
X104088000Y-107710049D01*
X125087260Y-107710049D01*
X126619000Y-109241790D01*
X128150740Y-107710049D01*
X128004857Y-107261401D01*
X127004039Y-106909148D01*
X125944603Y-106966705D01*
X125233143Y-107261401D01*
X125087260Y-107710049D01*
X104088000Y-107710049D01*
X104088000Y-103473551D01*
X106435659Y-103473551D01*
X106578590Y-103919713D01*
X107570699Y-104267951D01*
X108620552Y-104210017D01*
X109321410Y-103919713D01*
X109464341Y-103473551D01*
X107950000Y-101959210D01*
X106435659Y-103473551D01*
X104088000Y-103473551D01*
X104088000Y-101220699D01*
X105282049Y-101220699D01*
X105339983Y-102270552D01*
X105630287Y-102971410D01*
X106076449Y-103114341D01*
X107590790Y-101600000D01*
X108309210Y-101600000D01*
X109823551Y-103114341D01*
X110269713Y-102971410D01*
X110617951Y-101979301D01*
X110560017Y-100929448D01*
X110269713Y-100228590D01*
X109823551Y-100085659D01*
X108309210Y-101600000D01*
X107590790Y-101600000D01*
X106076449Y-100085659D01*
X105630287Y-100228590D01*
X105282049Y-101220699D01*
X104088000Y-101220699D01*
X104088000Y-99726449D01*
X106435659Y-99726449D01*
X107950000Y-101240790D01*
X109464341Y-99726449D01*
X109321410Y-99280287D01*
X108329301Y-98932049D01*
X107279448Y-98989983D01*
X106578590Y-99280287D01*
X106435659Y-99726449D01*
X104088000Y-99726449D01*
X104088000Y-93213961D01*
X137389148Y-93213961D01*
X137446705Y-94273397D01*
X137741401Y-94984857D01*
X138190049Y-95130740D01*
X139721790Y-93599000D01*
X140440210Y-93599000D01*
X141971951Y-95130740D01*
X142420599Y-94984857D01*
X142772852Y-93984039D01*
X142715295Y-92924603D01*
X142711706Y-92915938D01*
X144933273Y-92915938D01*
X145008562Y-93305547D01*
X145801751Y-93562082D01*
X146632733Y-93495549D01*
X147091438Y-93305547D01*
X147166727Y-92915938D01*
X146050000Y-91799210D01*
X144933273Y-92915938D01*
X142711706Y-92915938D01*
X142420599Y-92213143D01*
X141971951Y-92067260D01*
X140440210Y-93599000D01*
X139721790Y-93599000D01*
X138190049Y-92067260D01*
X137741401Y-92213143D01*
X137389148Y-93213961D01*
X104088000Y-93213961D01*
X104088000Y-91708049D01*
X138549260Y-91708049D01*
X140081000Y-93239790D01*
X141612740Y-91708049D01*
X141466857Y-91259401D01*
X141274651Y-91191751D01*
X143927918Y-91191751D01*
X143994451Y-92022733D01*
X144184453Y-92481438D01*
X144574062Y-92556727D01*
X145690790Y-91440000D01*
X144574062Y-90323273D01*
X144184453Y-90398562D01*
X143927918Y-91191751D01*
X141274651Y-91191751D01*
X140466039Y-90907148D01*
X139406603Y-90964705D01*
X138695143Y-91259401D01*
X138549260Y-91708049D01*
X104088000Y-91708049D01*
X104088000Y-89964062D01*
X144933273Y-89964062D01*
X146050000Y-91080790D01*
X147166727Y-89964062D01*
X147091438Y-89574453D01*
X146298249Y-89317918D01*
X145467267Y-89384451D01*
X145008562Y-89574453D01*
X144933273Y-89964062D01*
X104088000Y-89964062D01*
X104088000Y-73124854D01*
X116718356Y-73124854D01*
X116926577Y-73626175D01*
X118111603Y-74063349D01*
X119373722Y-74013755D01*
X120309423Y-73626175D01*
X120517644Y-73124854D01*
X118618000Y-71225210D01*
X116718356Y-73124854D01*
X104088000Y-73124854D01*
X104088000Y-69036000D01*
X116191468Y-69036000D01*
X115857825Y-69174577D01*
G36*
X135255000Y-110130790D02*
X135269143Y-110116648D01*
X135628353Y-110475858D01*
X135614210Y-110490000D01*
X135628353Y-110504143D01*
X135269143Y-110863353D01*
X135255000Y-110849210D01*
X135240858Y-110863353D01*
X134881647Y-110504142D01*
X134895790Y-110490000D01*
X134881647Y-110475858D01*
X135240858Y-110116647D01*
X135255000Y-110130790D01*
X135255000Y-110130790D01*
G37*
X135255000Y-110130790D02*
X135269143Y-110116648D01*
X135628353Y-110475858D01*
X135614210Y-110490000D01*
X135628353Y-110504143D01*
X135269143Y-110863353D01*
X135255000Y-110849210D01*
X135240858Y-110863353D01*
X134881647Y-110504142D01*
X134895790Y-110490000D01*
X134881647Y-110475858D01*
X135240858Y-110116647D01*
X135255000Y-110130790D01*
M02*
