<?xml version="1.0" standalone="no"?>
 <!DOCTYPE svg PUBLIC "-//W3C//DTD SVG 1.1//EN" 
 "http://www.w3.org/Graphics/SVG/1.1/DTD/svg11.dtd"> 
<svg xmlns="http://www.w3.org/2000/svg" version="1.1" 
    width="29.7002cm" height="21.0007cm" viewBox="0 0 116930 82680 ">
<title>SVG Picture created as Primary-Cmts.User.svg date 2018/03/31 15:15:37 </title>
  <desc>Picture generated by PCBNEW </desc>
<g style="fill:#000000; fill-opacity:1;stroke:#000000; stroke-opacity:1;
stroke-linecap:round; stroke-linejoin:round; "
 transform="translate(0 0) scale(1 1)">
</g>
<g style="fill:#000000; fill-opacity:0.0; 
stroke:#000000; stroke-width:-0.000393701; stroke-opacity:1; 
stroke-linecap:round; stroke-linejoin:round;">
</g>
<g style="fill:#000000; fill-opacity:0.0; 
stroke:#000000; stroke-width:160; stroke-opacity:1; 
stroke-linecap:round; stroke-linejoin:round;">
<path d="M79995 44675
L79933 44644
L79840 44644
L79747 44675
L79685 44736
L79654 44798
L79623 44922
L79623 45015
L79654 45139
L79685 45201
L79747 45263
L79840 45294
L79902 45294
L79995 45263
L80026 45232
L80026 45015
L79902 45015
" />
<path d="M80304 45294
L80304 44644
L80676 45294
L80676 44644
" />
<path d="M80985 45294
L80985 44644
L81140 44644
L81233 44675
L81295 44736
L81326 44798
L81357 44922
L81357 45015
L81326 45139
L81295 45201
L81233 45263
L81140 45294
L80985 45294
" />
<path d="M73796 30095
L73796 29600
" />
<path d="M72796 30095
L72796 29600
" />
<path d="M73044 29847
L72548 29847
" />
<path d="M73796 33095
L73796 32600
" />
<path d="M48363 30271
L48394 30178
L48394 30023
L48363 29961
L48332 29930
L48270 29900
L48208 29900
L48146 29930
L48115 29961
L48084 30023
L48053 30147
L48022 30209
L47991 30240
L47929 30271
L47867 30271
L47805 30240
L47775 30209
L47744 30147
L47744 29992
L47775 29900
" />
<path d="M48332 29250
L48363 29280
L48394 29373
L48394 29435
L48363 29528
L48301 29590
L48239 29621
L48115 29652
L48022 29652
L47898 29621
L47836 29590
L47775 29528
L47744 29435
L47744 29373
L47775 29280
L47805 29250
" />
<path d="M48394 28661
L48394 28971
L47744 28971
" />
<path d="M49363 30302
L49394 30209
L49394 30054
L49363 29992
L49332 29961
L49270 29930
L49208 29930
L49146 29961
L49115 29992
L49084 30054
L49053 30178
L49022 30240
L48991 30271
L48929 30302
L48867 30302
L48805 30271
L48775 30240
L48744 30178
L48744 30023
L48775 29930
" />
<path d="M49394 29652
L48744 29652
L48744 29497
L48775 29404
L48836 29342
L48898 29311
L49022 29280
L49115 29280
L49239 29311
L49301 29342
L49363 29404
L49394 29497
L49394 29652
" />
<path d="M49208 29033
L49208 28723
" />
<path d="M49394 29095
L48744 28878
L49394 28661
" />
<path d="M50208 30828
L50208 30519
" />
<path d="M50394 30890
L49744 30673
L50394 30457
" />
<path d="M50394 29869
L50084 30085
" />
<path d="M50394 30240
L49744 30240
L49744 29992
L49775 29930
L49805 29900
L49867 29869
L49960 29869
L50022 29900
L50053 29930
L50084 29992
L50084 30240
" />
<path d="M50053 29590
L50053 29373
" />
<path d="M50394 29280
L50394 29590
L49744 29590
L49744 29280
" />
<path d="M50053 28785
L50053 29002
" />
<path d="M50394 29002
L49744 29002
L49744 28692
" />
<path d="M50775 30085
L50744 30147
L50744 30240
L50775 30333
L50836 30395
L50898 30426
L51022 30457
L51115 30457
L51239 30426
L51301 30395
L51363 30333
L51394 30240
L51394 30178
L51363 30085
L51332 30054
L51115 30054
L51115 30178
" />
<path d="M51394 29776
L50744 29776
L51394 29404
L50744 29404
" />
<path d="M51394 29095
L50744 29095
L50744 28940
L50775 28847
L50836 28785
L50898 28754
L51022 28723
L51115 28723
L51239 28754
L51301 28785
L51363 28847
L51394 28940
L51394 29095
" />
<path d="M59608 37626
L59608 37316
" />
<path d="M59794 37688
L59144 37471
L59794 37254
" />
<path d="M59205 37069
L59175 37038
L59144 36976
L59144 36821
L59175 36759
L59205 36728
L59267 36697
L59329 36697
L59422 36728
L59794 37100
L59794 36697
" />
<path d="M60608 37626
L60608 37316
" />
<path d="M60794 37688
L60144 37471
L60794 37254
" />
<path d="M60794 36697
L60794 37069
" />
<path d="M60794 36883
L60144 36883
L60236 36945
L60298 37007
L60329 37069
" />
<path d="M61453 37378
L61484 37285
L61515 37254
L61577 37223
L61670 37223
L61732 37254
L61763 37285
L61794 37347
L61794 37595
L61144 37595
L61144 37378
L61175 37316
L61205 37285
L61267 37254
L61329 37254
L61391 37285
L61422 37316
L61453 37378
L61453 37595
" />
<path d="M61794 36604
L61794 36976
" />
<path d="M61794 36790
L61144 36790
L61236 36852
L61298 36914
L61329 36976
" />
<path d="M62453 37378
L62484 37285
L62515 37254
L62577 37223
L62670 37223
L62732 37254
L62763 37285
L62794 37347
L62794 37595
L62144 37595
L62144 37378
L62175 37316
L62205 37285
L62267 37254
L62329 37254
L62391 37285
L62422 37316
L62453 37378
L62453 37595
" />
<path d="M62205 36976
L62175 36945
L62144 36883
L62144 36728
L62175 36666
L62205 36635
L62267 36604
L62329 36604
L62422 36635
L62794 37007
L62794 36604
" />
<path d="M62453 40054
L62484 39961
L62515 39930
L62577 39900
L62670 39900
L62732 39930
L62763 39961
L62794 40023
L62794 40271
L62144 40271
L62144 40054
L62175 39992
L62205 39961
L62267 39930
L62329 39930
L62391 39961
L62422 39992
L62453 40054
L62453 40271
" />
<path d="M62794 39621
L62144 39621
" />
<path d="M62546 39559
L62794 39373
" />
<path d="M62360 39373
L62608 39621
" />
<path d="M61175 39404
L61144 39466
L61144 39559
L61175 39652
L61236 39714
L61298 39745
L61422 39776
L61515 39776
L61639 39745
L61701 39714
L61763 39652
L61794 39559
L61794 39497
L61763 39404
L61732 39373
L61515 39373
L61515 39497
" />
<path d="M60794 39373
L60484 39590
" />
<path d="M60794 39745
L60144 39745
L60144 39497
L60175 39435
L60205 39404
L60267 39373
L60360 39373
L60422 39404
L60453 39435
L60484 39497
L60484 39745
" />
<path d="M59282 41310
L59374 41341
L59529 41341
L59591 41310
L59622 41279
L59653 41217
L59653 41155
L59622 41093
L59591 41062
L59529 41032
L59405 41001
L59344 40970
L59313 40939
L59282 40877
L59282 40815
L59313 40753
L59344 40722
L59405 40691
L59560 40691
L59653 40722
" />
<path d="M59839 40908
L60086 40908
" />
<path d="M59932 40691
L59932 41248
L59963 41310
L60024 41341
L60086 41341
" />
<path d="M60551 41310
L60489 41341
L60365 41341
L60303 41310
L60272 41248
L60272 41001
L60303 40939
L60365 40908
L60489 40908
L60551 40939
L60582 41001
L60582 41062
L60272 41124
" />
<path d="M60860 40908
L60860 41558
" />
<path d="M60860 40939
L60922 40908
L61046 40908
L61108 40939
L61139 40970
L61170 41032
L61170 41217
L61139 41279
L61108 41310
L61046 41341
L60922 41341
L60860 41310
" />
<path d="M61448 40908
L61448 41558
" />
<path d="M61448 40939
L61510 40908
L61634 40908
L61696 40939
L61727 40970
L61758 41032
L61758 41217
L61727 41279
L61696 41310
L61634 41341
L61510 41341
L61448 41310
" />
<path d="M62284 41310
L62222 41341
L62098 41341
L62036 41310
L62005 41248
L62005 41001
L62036 40939
L62098 40908
L62222 40908
L62284 40939
L62315 41001
L62315 41062
L62005 41124
" />
<path d="M62594 41341
L62594 40908
" />
<path d="M62594 41032
L62625 40970
L62655 40939
L62717 40908
L62779 40908
" />
<path d="M59808 42476
L59808 41826
L60025 42290
L60241 41826
L60241 42476
" />
<path d="M60644 42476
L60582 42445
L60551 42414
L60520 42352
L60520 42167
L60551 42105
L60582 42074
L60644 42043
L60736 42043
L60798 42074
L60829 42105
L60860 42167
L60860 42352
L60829 42414
L60798 42445
L60736 42476
L60644 42476
" />
<path d="M61046 42043
L61294 42043
" />
<path d="M61139 41826
L61139 42383
L61170 42445
L61232 42476
L61294 42476
" />
<path d="M61603 42476
L61541 42445
L61510 42414
L61479 42352
L61479 42167
L61510 42105
L61541 42074
L61603 42043
L61696 42043
L61758 42074
L61789 42105
L61820 42167
L61820 42352
L61789 42414
L61758 42445
L61696 42476
L61603 42476
" />
<path d="M62098 42476
L62098 42043
" />
<path d="M62098 42167
L62129 42105
L62160 42074
L62222 42043
L62284 42043
" />
<path d="M59019 43580
L59111 43611
L59266 43611
L59328 43580
L59359 43549
L59390 43487
L59390 43425
L59359 43363
L59328 43332
L59266 43302
L59142 43271
L59080 43240
L59050 43209
L59019 43147
L59019 43085
L59050 43023
L59080 42992
L59142 42961
L59297 42961
L59390 42992
" />
<path d="M59576 43178
L59823 43178
" />
<path d="M59669 42961
L59669 43518
L59700 43580
L59761 43611
L59823 43611
" />
<path d="M60288 43580
L60226 43611
L60102 43611
L60040 43580
L60009 43518
L60009 43271
L60040 43209
L60102 43178
L60226 43178
L60288 43209
L60319 43271
L60319 43332
L60009 43394
" />
<path d="M60597 43178
L60597 43828
" />
<path d="M60597 43209
L60659 43178
L60783 43178
L60845 43209
L60876 43240
L60907 43302
L60907 43487
L60876 43549
L60845 43580
L60783 43611
L60659 43611
L60597 43580
" />
<path d="M61185 43549
L61216 43580
L61185 43611
L61154 43580
L61185 43549
L61185 43611
" />
<path d="M61185 43209
L61216 43240
L61185 43271
L61154 43240
L61185 43209
L61185 43271
" />
<path d="M61990 43611
L61990 42961
L62145 42961
L62238 42992
L62300 43054
L62330 43116
L62361 43240
L62361 43332
L62330 43456
L62300 43518
L62238 43580
L62145 43611
L61990 43611
" />
<path d="M62919 42961
L62795 42961
L62733 42992
L62702 43023
L62640 43116
L62609 43240
L62609 43487
L62640 43549
L62671 43580
L62733 43611
L62857 43611
L62919 43580
L62950 43549
L62980 43487
L62980 43332
L62950 43271
L62919 43240
L62857 43209
L62733 43209
L62671 43240
L62640 43271
L62609 43332
" />
<path d="M59436 44746
L59436 44096
L59591 44096
L59684 44127
L59746 44189
L59777 44251
L59808 44375
L59808 44467
L59777 44591
L59746 44653
L59684 44715
L59591 44746
L59436 44746
" />
<path d="M60086 44746
L60086 44313
" />
<path d="M60086 44096
L60055 44127
L60086 44158
L60117 44127
L60086 44096
L60086 44158
" />
<path d="M60396 44746
L60396 44313
" />
<path d="M60396 44437
L60427 44375
L60458 44344
L60520 44313
L60582 44313
" />
<path d="M60798 44684
L60829 44715
L60798 44746
L60767 44715
L60798 44684
L60798 44746
" />
<path d="M60798 44344
L60829 44375
L60798 44406
L60767 44375
L60798 44344
L60798 44406
" />
<path d="M61603 44746
L61603 44096
L61758 44096
L61851 44127
L61913 44189
L61944 44251
L61975 44375
L61975 44467
L61944 44591
L61913 44653
L61851 44715
L61758 44746
L61603 44746
" />
<path d="M62191 44096
L62625 44096
L62346 44746
" />
<path d="M75044 30095
L74394 30095
L74394 29940
L74425 29847
L74486 29785
L74548 29754
L74672 29723
L74765 29723
L74889 29754
L74951 29785
L75013 29847
L75044 29940
L75044 30095
" />
<path d="M75982 29723
L76013 29754
L76044 29847
L76044 29909
L76013 30002
L75951 30064
L75889 30095
L75765 30126
L75672 30126
L75548 30095
L75486 30064
L75425 30002
L75394 29909
L75394 29847
L75425 29754
L75455 29723
" />
<path d="M72796 33095
L72796 32600
" />
<path d="M73044 32847
L72548 32847
" />
<path d="M75013 33126
L75044 33033
L75044 32878
L75013 32816
L74982 32785
L74920 32754
L74858 32754
L74796 32785
L74765 32816
L74734 32878
L74703 33002
L74672 33064
L74641 33095
L74579 33126
L74517 33126
L74455 33095
L74425 33064
L74394 33002
L74394 32847
L74425 32754
" />
<path d="M75044 32476
L74610 32476
" />
<path d="M74394 32476
L74425 32507
L74455 32476
L74425 32445
L74394 32476
L74455 32476
" />
<path d="M74610 31888
L75136 31888
L75198 31919
L75229 31950
L75260 32011
L75260 32104
L75229 32166
" />
<path d="M75013 31888
L75044 31950
L75044 32073
L75013 32135
L74982 32166
L74920 32197
L74734 32197
L74672 32166
L74641 32135
L74610 32073
L74610 31950
L74641 31888
" />
<path d="M66816 31294
L66816 30644
" />
<path d="M67095 30705
L67126 30675
L67188 30644
L67342 30644
L67404 30675
L67435 30705
L67466 30767
L67466 30829
L67435 30922
L67064 31294
L67466 31294
" />
<path d="M68116 31232
L68085 31263
L67992 31294
L67930 31294
L67838 31263
L67776 31201
L67745 31139
L67714 31015
L67714 30922
L67745 30798
L67776 30736
L67838 30675
L67930 30644
L67992 30644
L68085 30675
L68116 30705
" />
<path d="M69107 30953
L69200 30984
L69230 31015
L69261 31077
L69261 31170
L69230 31232
L69200 31263
L69138 31294
L68890 31294
L68890 30644
L69107 30644
L69169 30675
L69200 30705
L69230 30767
L69230 30829
L69200 30891
L69169 30922
L69107 30953
L68890 30953
" />
<path d="M69819 30860
L69819 31294
" />
<path d="M69540 30860
L69540 31201
L69571 31263
L69633 31294
L69726 31294
L69788 31263
L69819 31232
" />
<path d="M70097 31263
L70159 31294
L70283 31294
L70345 31263
L70376 31201
L70376 31170
L70345 31108
L70283 31077
L70190 31077
L70128 31046
L70097 30984
L70097 30953
L70128 30891
L70190 30860
L70283 30860
L70345 30891
" />
<path d="M68159 41177
L68159 41486
L67509 41486
" />
<path d="M68159 40960
L67725 40960
" />
<path d="M67509 40960
L67540 40991
L67570 40960
L67540 40929
L67509 40960
L67570 40960
" />
<path d="M67725 40651
L68159 40651
" />
<path d="M67787 40651
L67756 40620
L67725 40558
L67725 40465
L67756 40403
L67818 40372
L68159 40372
" />
<path d="M68128 39815
L68159 39877
L68159 40001
L68128 40063
L68066 40094
L67818 40094
L67756 40063
L67725 40001
L67725 39877
L67756 39815
L67818 39784
L67880 39784
L67942 40094
" />
<path d="M68128 39041
L68159 38948
L68159 38794
L68128 38732
L68097 38701
L68035 38670
L67973 38670
L67911 38701
L67880 38732
L67849 38794
L67818 38917
L67787 38979
L67756 39010
L67694 39041
L67632 39041
L67570 39010
L67540 38979
L67509 38917
L67509 38763
L67540 38670
" />
<path d="M68128 38144
L68159 38205
L68159 38329
L68128 38391
L68066 38422
L67818 38422
L67756 38391
L67725 38329
L67725 38205
L67756 38144
L67818 38113
L67880 38113
L67942 38422
" />
<path d="M67725 37834
L68159 37834
" />
<path d="M67787 37834
L67756 37803
L67725 37741
L67725 37648
L67756 37586
L67818 37555
L68159 37555
" />
<path d="M68128 37277
L68159 37215
L68159 37091
L68128 37029
L68066 36998
L68035 36998
L67973 37029
L67942 37091
L67942 37184
L67911 37246
L67849 37277
L67818 37277
L67756 37246
L67725 37184
L67725 37091
L67756 37029
" />
<path d="M68159 36627
L68128 36689
L68097 36720
L68035 36751
L67849 36751
L67787 36720
L67756 36689
L67725 36627
L67725 36534
L67756 36472
L67787 36441
L67849 36410
L68035 36410
L68097 36441
L68128 36472
L68159 36534
L68159 36627
" />
<path d="M68159 36132
L67725 36132
" />
<path d="M67849 36132
L67787 36101
L67756 36070
L67725 36008
L67725 35946
" />
<path d="M68128 35760
L68159 35698
L68159 35575
L68128 35513
L68066 35482
L68035 35482
L67973 35513
L67942 35575
L67942 35667
L67911 35729
L67849 35760
L67818 35760
L67756 35729
L67725 35667
L67725 35575
L67756 35513
" />
<path d="M69294 40326
L69294 40697
" />
<path d="M69294 40511
L68644 40511
L68736 40573
L68798 40635
L68829 40697
" />
<path d="M68860 39057
L69046 39552
L69232 39057
" />
<path d="M69046 38747
L69046 38252
" />
<path d="M68860 37942
L69046 37447
L69232 37942
" />
<path d="M68644 36364
L68644 36488
L68675 36550
L68705 36580
L68798 36642
L68922 36673
L69170 36673
L69232 36642
L69263 36611
L69294 36550
L69294 36426
L69263 36364
L69232 36333
L69170 36302
L69015 36302
L68953 36333
L68922 36364
L68891 36426
L68891 36550
L68922 36611
L68953 36642
L69015 36673
" />
<path d="M70429 43158
L69779 43158
L69779 43003
L69810 42910
L69871 42848
L69933 42817
L70057 42786
L70150 42786
L70274 42817
L70336 42848
L70398 42910
L70429 43003
L70429 43158
" />
<path d="M69995 42229
L70429 42229
" />
<path d="M69748 42384
L70212 42539
L70212 42136
" />
<path d="M69779 41610
L69779 41734
L69810 41796
L69840 41827
L69933 41889
L70057 41920
L70305 41920
L70367 41889
L70398 41858
L70429 41796
L70429 41672
L70398 41610
L70367 41579
L70305 41548
L70150 41548
L70088 41579
L70057 41610
L70026 41672
L70026 41796
L70057 41858
L70088 41889
L70150 41920
" />
<path d="M70398 41239
L70429 41239
L70490 41270
L70521 41301
" />
<path d="M69995 40682
L70429 40682
" />
<path d="M69748 40836
L70212 40991
L70212 40589
" />
<path d="M69995 40063
L70429 40063
" />
<path d="M69748 40217
L70212 40372
L70212 39970
" />
<path d="M70398 39691
L70429 39691
L70490 39722
L70521 39753
" />
<path d="M69995 39134
L70429 39134
" />
<path d="M69748 39289
L70212 39444
L70212 39041
" />
<path d="M69779 38670
L69779 38608
L69810 38546
L69840 38515
L69902 38484
L70026 38453
L70181 38453
L70305 38484
L70367 38515
L70398 38546
L70429 38608
L70429 38670
L70398 38732
L70367 38763
L70305 38794
L70181 38825
L70026 38825
L69902 38794
L69840 38763
L69810 38732
L69779 38670
" />
<path d="M70398 38144
L70429 38144
L70490 38175
L70521 38205
" />
<path d="M69779 37927
L69779 37525
L70026 37741
L70026 37648
L70057 37586
L70088 37555
L70150 37525
L70305 37525
L70367 37555
L70398 37586
L70429 37648
L70429 37834
L70398 37896
L70367 37927
" />
<path d="M70057 37153
L70026 37215
L69995 37246
L69933 37277
L69902 37277
L69840 37246
L69810 37215
L69779 37153
L69779 37029
L69810 36967
L69840 36936
L69902 36905
L69933 36905
L69995 36936
L70026 36967
L70057 37029
L70057 37153
L70088 37215
L70119 37246
L70181 37277
L70305 37277
L70367 37246
L70398 37215
L70429 37153
L70429 37029
L70398 36967
L70367 36936
L70305 36905
L70181 36905
L70119 36936
L70088 36967
L70057 37029
" />
<path d="M70398 36596
L70429 36596
L70490 36627
L70521 36658
" />
<path d="M69779 36379
L69779 35977
L70026 36194
L70026 36101
L70057 36039
L70088 36008
L70150 35977
L70305 35977
L70367 36008
L70398 36039
L70429 36101
L70429 36286
L70398 36348
L70367 36379
" />
<path d="M69995 35420
L70429 35420
" />
<path d="M69748 35575
L70212 35729
L70212 35327
" />
<path d="M70398 35048
L70429 35048
L70490 35079
L70521 35110
" />
<path d="M69779 34832
L69779 34429
L70026 34646
L70026 34553
L70057 34491
L70088 34460
L70150 34429
L70305 34429
L70367 34460
L70398 34491
L70429 34553
L70429 34739
L70398 34801
L70367 34832
" />
<path d="M69779 34027
L69779 33965
L69810 33903
L69840 33872
L69902 33841
L70026 33810
L70181 33810
L70305 33841
L70367 33872
L70398 33903
L70429 33965
L70429 34027
L70398 34089
L70367 34120
L70305 34151
L70181 34182
L70026 34182
L69902 34151
L69840 34120
L69810 34089
L69779 34027
" />
<path d="M68219 44476
L68219 43826
L68435 44290
L68652 43826
L68652 44476
" />
<path d="M69240 44476
L69240 44136
L69209 44074
L69147 44043
L69023 44043
L68961 44074
" />
<path d="M69240 44445
L69178 44476
L69023 44476
L68961 44445
L68930 44383
L68930 44321
L68961 44259
L69023 44228
L69178 44228
L69240 44197
" />
<path d="M69828 44043
L69828 44569
L69797 44631
L69766 44662
L69704 44693
L69611 44693
L69549 44662
" />
<path d="M69828 44445
L69766 44476
L69642 44476
L69580 44445
L69549 44414
L69519 44352
L69519 44167
L69549 44105
L69580 44074
L69642 44043
L69766 44043
L69828 44074
" />
<path d="M70138 44043
L70138 44476
" />
<path d="M70138 44105
L70169 44074
L70230 44043
L70323 44043
L70385 44074
L70416 44136
L70416 44476
" />
<path d="M70973 44445
L70911 44476
L70788 44476
L70726 44445
L70695 44383
L70695 44136
L70726 44074
L70788 44043
L70911 44043
L70973 44074
L71004 44136
L71004 44197
L70695 44259
" />
<path d="M71190 44043
L71438 44043
" />
<path d="M71283 43826
L71283 44383
L71314 44445
L71376 44476
L71438 44476
" />
<path d="M69766 45611
L69766 44961
L69921 44961
L70014 44992
L70076 45054
L70107 45116
L70138 45240
L70138 45332
L70107 45456
L70076 45518
L70014 45580
L69921 45611
L69766 45611
" />
<path d="M70695 45178
L70695 45611
" />
<path d="M70540 44930
L70385 45394
L70788 45394
" />
<path d="M71128 45240
L71066 45209
L71035 45178
L71004 45116
L71004 45085
L71035 45023
L71066 44992
L71128 44961
L71252 44961
L71314 44992
L71345 45023
L71376 45085
L71376 45116
L71345 45178
L71314 45209
L71252 45240
L71128 45240
L71066 45271
L71035 45302
L71004 45363
L71004 45487
L71035 45549
L71066 45580
L71128 45611
L71252 45611
L71314 45580
L71345 45549
L71376 45487
L71376 45363
L71345 45302
L71314 45271
L71252 45240
" />
<path d="M75796 44747
L75796 44252
" />
<path d="M79964 27544
L79654 27544
L79623 27853
L79654 27822
L79716 27791
L79871 27791
L79933 27822
L79964 27853
L79995 27915
L79995 28070
L79964 28132
L79933 28163
L79871 28194
L79716 28194
L79654 28163
L79623 28132
" />
<path d="M80180 27544
L80397 28194
L80614 27544
" />
<path d="M58344 46138
L58994 45921
L58344 45704
" />
<path d="M58994 45488
L58560 45488
" />
<path d="M58344 45488
L58375 45519
L58405 45488
L58375 45457
L58344 45488
L58405 45488
" />
<path d="M58560 45178
L58994 45178
" />
<path d="M58622 45178
L58591 45147
L58560 45085
L58560 44992
L58591 44930
L58653 44900
L58994 44900
" />
<path d="M57375 45704
L57344 45766
L57344 45859
L57375 45952
L57436 46014
L57498 46045
L57622 46076
L57715 46076
L57839 46045
L57901 46014
L57963 45952
L57994 45859
L57994 45797
L57963 45704
L57932 45673
L57715 45673
L57715 45797
" />
<path d="M57994 45395
L57344 45395
L57994 45023
L57344 45023
" />
<path d="M57994 44714
L57344 44714
L57344 44559
L57375 44466
L57436 44404
L57498 44373
L57622 44342
L57715 44342
L57839 44373
L57901 44404
L57963 44466
L57994 44559
L57994 44714
" />
<path d="M56375 45704
L56344 45766
L56344 45859
L56375 45952
L56436 46014
L56498 46045
L56622 46076
L56715 46076
L56839 46045
L56901 46014
L56963 45952
L56994 45859
L56994 45797
L56963 45704
L56932 45673
L56715 45673
L56715 45797
" />
<path d="M56994 45395
L56344 45395
L56994 45023
L56344 45023
" />
<path d="M56994 44714
L56344 44714
L56344 44559
L56375 44466
L56436 44404
L56498 44373
L56622 44342
L56715 44342
L56839 44373
L56901 44404
L56963 44466
L56994 44559
L56994 44714
" />
<path d="M55344 45735
L55344 46045
L55653 46076
L55622 46045
L55591 45983
L55591 45828
L55622 45766
L55653 45735
L55715 45704
L55870 45704
L55932 45735
L55963 45766
L55994 45828
L55994 45983
L55963 46045
L55932 46076
" />
<path d="M55344 45519
L55994 45302
L55344 45085
" />
<path d="M54344 46107
L54344 45704
L54591 45921
L54591 45828
L54622 45766
L54653 45735
L54715 45704
L54870 45704
L54932 45735
L54963 45766
L54994 45828
L54994 46014
L54963 46076
L54932 46107
" />
<path d="M54932 45426
L54963 45395
L54994 45426
L54963 45457
L54932 45426
L54994 45426
" />
<path d="M54344 45178
L54344 44776
L54591 44992
L54591 44900
L54622 44838
L54653 44807
L54715 44776
L54870 44776
L54932 44807
L54963 44838
L54994 44900
L54994 45085
L54963 45147
L54932 45178
" />
<path d="M51016 38576
L51233 39226
L51450 38576
" />
<path d="M51759 39226
L51697 39195
L51666 39164
L51635 39102
L51635 38917
L51666 38855
L51697 38824
L51759 38793
L51852 38793
L51914 38824
L51945 38855
L51976 38917
L51976 39102
L51945 39164
L51914 39195
L51852 39226
L51759 39226
" />
<path d="M52347 39226
L52285 39195
L52254 39133
L52254 38576
" />
<path d="M52502 38793
L52750 38793
" />
<path d="M52595 38576
L52595 39133
L52626 39195
L52688 39226
L52750 39226
" />
<path d="M53245 39226
L53245 38886
L53214 38824
L53152 38793
L53028 38793
L52966 38824
" />
<path d="M53245 39195
L53183 39226
L53028 39226
L52966 39195
L52935 39133
L52935 39071
L52966 39009
L53028 38978
L53183 38978
L53245 38947
" />
<path d="M53833 38793
L53833 39319
L53802 39381
L53771 39412
L53709 39443
L53616 39443
L53554 39412
" />
<path d="M53833 39195
L53771 39226
L53647 39226
L53585 39195
L53554 39164
L53523 39102
L53523 38917
L53554 38855
L53585 38824
L53647 38793
L53771 38793
L53833 38824
" />
<path d="M54390 39195
L54328 39226
L54204 39226
L54142 39195
L54111 39133
L54111 38886
L54142 38824
L54204 38793
L54328 38793
L54390 38824
L54421 38886
L54421 38947
L54111 39009
" />
<path d="M50939 40361
L50722 40052
" />
<path d="M50567 40361
L50567 39711
L50815 39711
L50877 39742
L50908 39773
L50939 39835
L50939 39928
L50908 39990
L50877 40021
L50815 40052
L50567 40052
" />
<path d="M51465 40330
L51403 40361
L51279 40361
L51217 40330
L51186 40268
L51186 40021
L51217 39959
L51279 39928
L51403 39928
L51465 39959
L51496 40021
L51496 40082
L51186 40144
" />
<path d="M52053 39928
L52053 40454
L52022 40516
L51991 40547
L51929 40578
L51836 40578
L51774 40547
" />
<path d="M52053 40330
L51991 40361
L51867 40361
L51805 40330
L51774 40299
L51744 40237
L51744 40052
L51774 39990
L51805 39959
L51867 39928
L51991 39928
L52053 39959
" />
<path d="M52641 39928
L52641 40361
" />
<path d="M52363 39928
L52363 40268
L52394 40330
L52455 40361
L52548 40361
L52610 40330
L52641 40299
" />
<path d="M53044 40361
L52982 40330
L52951 40268
L52951 39711
" />
<path d="M53570 40361
L53570 40021
L53539 39959
L53477 39928
L53353 39928
L53291 39959
" />
<path d="M53570 40330
L53508 40361
L53353 40361
L53291 40330
L53260 40268
L53260 40206
L53291 40144
L53353 40113
L53508 40113
L53570 40082
" />
<path d="M53786 39928
L54034 39928
" />
<path d="M53879 39711
L53879 40268
L53910 40330
L53972 40361
L54034 40361
" />
<path d="M54344 40361
L54282 40330
L54251 40299
L54220 40237
L54220 40052
L54251 39990
L54282 39959
L54344 39928
L54436 39928
L54498 39959
L54529 39990
L54560 40052
L54560 40237
L54529 40299
L54498 40330
L54436 40361
L54344 40361
" />
<path d="M54839 40361
L54839 39928
" />
<path d="M54839 40052
L54870 39990
L54901 39959
L54963 39928
L55025 39928
" />
<path d="M44546 40247
L44546 39752
" />
<path d="M44546 38247
L44546 37752
" />
<path d="M44794 37999
L44298 37999
" />
<path d="M45453 40346
L45484 40253
L45515 40222
L45577 40191
L45670 40191
L45732 40222
L45763 40253
L45794 40315
L45794 40563
L45144 40563
L45144 40346
L45175 40284
L45205 40253
L45267 40222
L45329 40222
L45391 40253
L45422 40284
L45453 40346
L45453 40563
" />
<path d="M45794 39634
L45453 39634
L45391 39665
L45360 39727
L45360 39851
L45391 39913
" />
<path d="M45763 39634
L45794 39696
L45794 39851
L45763 39913
L45701 39944
L45639 39944
L45577 39913
L45546 39851
L45546 39696
L45515 39634
" />
<path d="M45360 39417
L45360 39170
" />
<path d="M45144 39325
L45701 39325
L45763 39294
L45794 39232
L45794 39170
" />
<path d="M45360 39046
L45360 38798
" />
<path d="M45144 38953
L45701 38953
L45763 38922
L45794 38860
L45794 38798
" />
<path d="M45763 38334
L45794 38396
L45794 38520
L45763 38582
L45701 38613
L45453 38613
L45391 38582
L45360 38520
L45360 38396
L45391 38334
L45453 38303
L45515 38303
L45577 38613
" />
<path d="M45794 38025
L45360 38025
" />
<path d="M45484 38025
L45422 37994
L45391 37963
L45360 37901
L45360 37839
" />
<path d="M45360 37684
L45794 37529
" />
<path d="M45360 37374
L45794 37529
L45948 37591
L45979 37622
L46010 37684
" />
<path d="M57688 33195
L57780 33226
L57935 33226
L57997 33195
L58028 33164
L58059 33102
L58059 33040
L58028 32978
L57997 32947
L57935 32917
L57811 32886
L57749 32855
L57719 32824
L57688 32762
L57688 32700
L57719 32638
L57749 32607
L57811 32576
L57966 32576
L58059 32607
" />
<path d="M58245 32793
L58492 32793
" />
<path d="M58338 32576
L58338 33133
L58369 33195
L58430 33226
L58492 33226
" />
<path d="M58957 33195
L58895 33226
L58771 33226
L58709 33195
L58678 33133
L58678 32886
L58709 32824
L58771 32793
L58895 32793
L58957 32824
L58988 32886
L58988 32947
L58678 33009
" />
<path d="M59266 32793
L59266 33443
" />
<path d="M59266 32824
L59328 32793
L59452 32793
L59514 32824
L59545 32855
L59576 32917
L59576 33102
L59545 33164
L59514 33195
L59452 33226
L59328 33226
L59266 33195
" />
<path d="M59854 32793
L59854 33443
" />
<path d="M59854 32824
L59916 32793
L60040 32793
L60102 32824
L60133 32855
L60164 32917
L60164 33102
L60133 33164
L60102 33195
L60040 33226
L59916 33226
L59854 33195
" />
<path d="M60690 33195
L60628 33226
L60504 33226
L60442 33195
L60411 33133
L60411 32886
L60442 32824
L60504 32793
L60628 32793
L60690 32824
L60721 32886
L60721 32947
L60411 33009
" />
<path d="M61000 33226
L61000 32793
" />
<path d="M61000 32917
L61030 32855
L61061 32824
L61123 32793
L61185 32793
" />
<path d="M61897 33226
L61897 32576
L62114 33040
L62330 32576
L62330 33226
" />
<path d="M62733 33226
L62671 33195
L62640 33164
L62609 33102
L62609 32917
L62640 32855
L62671 32824
L62733 32793
L62826 32793
L62888 32824
L62919 32855
L62950 32917
L62950 33102
L62919 33164
L62888 33195
L62826 33226
L62733 33226
" />
<path d="M63135 32793
L63383 32793
" />
<path d="M63228 32576
L63228 33133
L63259 33195
L63321 33226
L63383 33226
" />
<path d="M63692 33226
L63630 33195
L63600 33164
L63569 33102
L63569 32917
L63600 32855
L63630 32824
L63692 32793
L63785 32793
L63847 32824
L63878 32855
L63909 32917
L63909 33102
L63878 33164
L63847 33195
L63785 33226
L63692 33226
" />
<path d="M64188 33226
L64188 32793
" />
<path d="M64188 32917
L64219 32855
L64250 32824
L64311 32793
L64373 32793
" />
<path d="M59111 34299
L59080 34330
L58988 34361
L58926 34361
L58833 34330
L58771 34268
L58740 34206
L58709 34082
L58709 33990
L58740 33866
L58771 33804
L58833 33742
L58926 33711
L58988 33711
L59080 33742
L59111 33773
" />
<path d="M59483 34361
L59421 34330
L59390 34299
L59359 34237
L59359 34052
L59390 33990
L59421 33959
L59483 33928
L59576 33928
L59638 33959
L59669 33990
L59699 34052
L59699 34237
L59669 34299
L59638 34330
L59576 34361
L59483 34361
" />
<path d="M59978 33928
L59978 34361
" />
<path d="M59978 33990
L60009 33959
L60071 33928
L60164 33928
L60226 33959
L60257 34021
L60257 34361
" />
<path d="M60473 33928
L60721 33928
" />
<path d="M60566 33711
L60566 34268
L60597 34330
L60659 34361
L60721 34361
" />
<path d="M60938 34361
L60938 33928
" />
<path d="M60938 34052
L60969 33990
L60999 33959
L61061 33928
L61123 33928
" />
<path d="M61433 34361
L61371 34330
L61340 34299
L61309 34237
L61309 34052
L61340 33990
L61371 33959
L61433 33928
L61526 33928
L61588 33959
L61619 33990
L61650 34052
L61650 34237
L61619 34299
L61588 34330
L61526 34361
L61433 34361
" />
<path d="M62021 34361
L61959 34330
L61928 34268
L61928 33711
" />
<path d="M62361 34361
L62300 34330
L62269 34268
L62269 33711
" />
<path d="M62857 34330
L62795 34361
L62671 34361
L62609 34330
L62578 34268
L62578 34021
L62609 33959
L62671 33928
L62795 33928
L62857 33959
L62888 34021
L62888 34082
L62578 34144
" />
<path d="M63166 34361
L63166 33928
" />
<path d="M63166 34052
L63197 33990
L63228 33959
L63290 33928
L63352 33928
" />
<path d="M51669 32909
L51669 32259
L51916 32259
L51978 32290
L52009 32320
L52040 32382
L52040 32475
L52009 32537
L51978 32568
L51916 32599
L51669 32599
" />
<path d="M52597 32475
L52597 32909
" />
<path d="M52319 32475
L52319 32816
L52349 32878
L52411 32909
L52504 32909
L52566 32878
L52597 32847
" />
<path d="M52999 32909
L52938 32878
L52907 32816
L52907 32259
" />
<path d="M53340 32909
L53278 32878
L53247 32816
L53247 32259
" />
<path d="M53835 32878
L53773 32909
L53650 32909
L53588 32878
L53557 32816
L53557 32568
L53588 32506
L53650 32475
L53773 32475
L53835 32506
L53866 32568
L53866 32630
L53557 32692
" />
<path d="M54083 32475
L54238 32909
" />
<path d="M54392 32475
L54238 32909
L54176 33063
L54145 33094
L54083 33125
" />
<path d="M51792 34013
L51885 34044
L52040 34044
L52102 34013
L52133 33982
L52164 33920
L52164 33858
L52133 33796
L52102 33765
L52040 33734
L51916 33703
L51854 33672
L51823 33641
L51792 33579
L51792 33517
L51823 33455
L51854 33425
L51916 33394
L52071 33394
L52164 33425
" />
<path d="M52690 34013
L52628 34044
L52504 34044
L52442 34013
L52411 33951
L52411 33703
L52442 33641
L52504 33610
L52628 33610
L52690 33641
L52721 33703
L52721 33765
L52411 33827
" />
<path d="M53000 34044
L53000 33610
" />
<path d="M53000 33734
L53030 33672
L53061 33641
L53123 33610
L53185 33610
" />
<path d="M53340 33610
L53495 34044
L53650 33610
" />
<path d="M53990 34044
L53928 34013
L53897 33982
L53866 33920
L53866 33734
L53897 33672
L53928 33641
L53990 33610
L54083 33610
L54145 33641
L54176 33672
L54207 33734
L54207 33920
L54176 33982
L54145 34013
L54083 34044
L53990 34044
" />
<path d="M52210 35179
L52210 34529
L52365 34529
L52458 34560
L52520 34621
L52551 34683
L52582 34807
L52582 34900
L52551 35024
L52520 35086
L52458 35148
L52365 35179
L52210 35179
" />
<path d="M53201 35179
L52829 35179
" />
<path d="M53015 35179
L53015 34529
L52953 34621
L52891 34683
L52829 34714
" />
<path d="M53448 34590
L53479 34560
L53541 34529
L53696 34529
L53758 34560
L53789 34590
L53820 34652
L53820 34714
L53789 34807
L53417 35179
L53820 35179
" />
<path d="M42690 33388
L42721 33357
L42783 33326
L42938 33326
L43000 33357
L43030 33388
L43061 33450
L43061 33512
L43030 33605
L42659 33976
L43061 33976
" />
<path d="M43464 33326
L43526 33326
L43588 33357
L43619 33388
L43650 33450
L43680 33574
L43680 33728
L43650 33852
L43619 33914
L43588 33945
L43526 33976
L43464 33976
L43402 33945
L43371 33914
L43340 33852
L43309 33728
L43309 33574
L43340 33450
L43371 33388
L43402 33357
L43464 33326
" />
<path d="M44300 33976
L43928 33976
" />
<path d="M44114 33976
L44114 33326
L44052 33419
L43990 33481
L43928 33512
" />
<path d="M44671 33605
L44609 33574
L44578 33543
L44547 33481
L44547 33450
L44578 33388
L44609 33357
L44671 33326
L44795 33326
L44857 33357
L44888 33388
L44919 33450
L44919 33481
L44888 33543
L44857 33574
L44795 33605
L44671 33605
L44609 33636
L44578 33667
L44547 33728
L44547 33852
L44578 33914
L44609 33945
L44671 33976
L44795 33976
L44857 33945
L44888 33914
L44919 33852
L44919 33728
L44888 33667
L44857 33636
L44795 33605
" />
<path d="M46064 33976
L45847 33667
" />
<path d="M45692 33976
L45692 33326
L45940 33326
L46002 33357
L46033 33388
L46064 33450
L46064 33543
L46033 33605
L46002 33636
L45940 33667
L45692 33667
" />
<path d="M46590 33945
L46528 33976
L46404 33976
L46342 33945
L46311 33883
L46311 33636
L46342 33574
L46404 33543
L46528 33543
L46590 33574
L46621 33636
L46621 33697
L46311 33759
" />
<path d="M47178 33543
L47178 34069
L47147 34131
L47116 34162
L47054 34193
L46961 34193
L46900 34162
" />
<path d="M47178 33945
L47116 33976
L46992 33976
L46930 33945
L46900 33914
L46869 33852
L46869 33667
L46900 33605
L46930 33574
L46992 33543
L47116 33543
L47178 33574
" />
<path d="M47488 33976
L47488 33543
" />
<path d="M47488 33326
L47457 33357
L47488 33388
L47519 33357
L47488 33326
L47488 33388
" />
<path d="M47890 33976
L47828 33945
L47797 33914
L47766 33852
L47766 33667
L47797 33605
L47828 33574
L47890 33543
L47983 33543
L48045 33574
L48076 33605
L48107 33667
L48107 33852
L48076 33914
L48045 33945
L47983 33976
L47890 33976
" />
<path d="M48385 33543
L48385 33976
" />
<path d="M48385 33605
L48416 33574
L48478 33543
L48571 33543
L48633 33574
L48664 33636
L48664 33976
" />
<path d="M49778 33326
L49469 33326
L49438 33636
L49469 33605
L49530 33574
L49685 33574
L49747 33605
L49778 33636
L49809 33697
L49809 33852
L49778 33914
L49747 33945
L49685 33976
L49530 33976
L49469 33945
L49438 33914
" />
<path d="M41545 35111
L41328 34802
" />
<path d="M41173 35111
L41173 34461
L41421 34461
L41483 34492
L41514 34523
L41545 34585
L41545 34678
L41514 34740
L41483 34771
L41421 34802
L41173 34802
" />
<path d="M41916 35111
L41854 35080
L41823 35049
L41792 34987
L41792 34802
L41823 34740
L41854 34709
L41916 34678
L42009 34678
L42071 34709
L42102 34740
L42133 34802
L42133 34987
L42102 35049
L42071 35080
L42009 35111
L41916 35111
" />
<path d="M42411 35111
L42411 34461
" />
<path d="M42411 34709
L42473 34678
L42597 34678
L42659 34709
L42690 34740
L42721 34802
L42721 34987
L42690 35049
L42659 35080
L42597 35111
L42473 35111
L42411 35080
" />
<path d="M43092 35111
L43030 35080
L43000 35049
L42969 34987
L42969 34802
L43000 34740
L43030 34709
L43092 34678
L43185 34678
L43247 34709
L43278 34740
L43309 34802
L43309 34987
L43278 35049
L43247 35080
L43185 35111
L43092 35111
" />
<path d="M43495 34678
L43742 34678
" />
<path d="M43588 34461
L43588 35018
L43619 35080
L43680 35111
L43742 35111
" />
<path d="M43959 35111
L43959 34678
" />
<path d="M43959 34461
L43928 34492
L43959 34523
L43990 34492
L43959 34461
L43959 34523
" />
<path d="M44547 35080
L44485 35111
L44361 35111
L44300 35080
L44269 35049
L44238 34987
L44238 34802
L44269 34740
L44300 34709
L44361 34678
L44485 34678
L44547 34709
" />
<path d="M44795 35080
L44857 35111
L44980 35111
L45042 35080
L45073 35018
L45073 34987
L45042 34925
L44980 34894
L44888 34894
L44826 34863
L44795 34802
L44795 34771
L44826 34709
L44888 34678
L44980 34678
L45042 34709
" />
<path d="M46219 35049
L46188 35080
L46095 35111
L46033 35111
L45940 35080
L45878 35018
L45847 34956
L45816 34832
L45816 34740
L45847 34616
L45878 34554
L45940 34492
L46033 34461
L46095 34461
L46188 34492
L46219 34523
" />
<path d="M46590 35111
L46528 35080
L46497 35049
L46466 34987
L46466 34802
L46497 34740
L46528 34709
L46590 34678
L46683 34678
L46745 34709
L46776 34740
L46807 34802
L46807 34987
L46776 35049
L46745 35080
L46683 35111
L46590 35111
" />
<path d="M47085 35111
L47085 34678
" />
<path d="M47085 34740
L47116 34709
L47178 34678
L47271 34678
L47333 34709
L47364 34771
L47364 35111
" />
<path d="M47364 34771
L47395 34709
L47457 34678
L47550 34678
L47611 34709
L47642 34771
L47642 35111
" />
<path d="M47952 34678
L47952 35328
" />
<path d="M47952 34709
L48014 34678
L48138 34678
L48200 34709
L48230 34740
L48261 34802
L48261 34987
L48230 35049
L48200 35080
L48138 35111
L48014 35111
L47952 35080
" />
<path d="M48788 35080
L48726 35111
L48602 35111
L48540 35080
L48509 35018
L48509 34771
L48540 34709
L48602 34678
L48726 34678
L48788 34709
L48819 34771
L48819 34832
L48509 34894
" />
<path d="M49004 34678
L49252 34678
" />
<path d="M49097 34461
L49097 35018
L49128 35080
L49190 35111
L49252 35111
" />
<path d="M49469 35111
L49469 34678
" />
<path d="M49469 34461
L49438 34492
L49469 34523
L49500 34492
L49469 34461
L49469 34523
" />
<path d="M49685 34678
L49933 34678
" />
<path d="M49778 34461
L49778 35018
L49809 35080
L49871 35111
L49933 35111
" />
<path d="M50150 35111
L50150 34678
" />
<path d="M50150 34461
L50119 34492
L50150 34523
L50180 34492
L50150 34461
L50150 34523
" />
<path d="M50552 35111
L50490 35080
L50459 35049
L50428 34987
L50428 34802
L50459 34740
L50490 34709
L50552 34678
L50645 34678
L50707 34709
L50738 34740
L50769 34802
L50769 34987
L50738 35049
L50707 35080
L50645 35111
L50552 35111
" />
<path d="M51047 34678
L51047 35111
" />
<path d="M51047 34740
L51078 34709
L51140 34678
L51233 34678
L51295 34709
L51326 34771
L51326 35111
" />
<path d="M59453 39869
L59484 39776
L59515 39745
L59577 39714
L59670 39714
L59732 39745
L59763 39776
L59794 39838
L59794 40085
L59144 40085
L59144 39869
L59175 39807
L59205 39776
L59267 39745
L59329 39745
L59391 39776
L59422 39807
L59453 39869
L59453 40085
" />
<path d="M59794 39342
L59763 39404
L59701 39435
L59144 39435
" />
</g> 
</svg>
