G04 #@! TF.FileFunction,Soldermask,Bot*
%FSLAX46Y46*%
G04 Gerber Fmt 4.6, Leading zero omitted, Abs format (unit mm)*
G04 Created by KiCad (PCBNEW 4.0.7) date 04/01/18 22:28:44*
%MOMM*%
%LPD*%
G01*
G04 APERTURE LIST*
%ADD10C,0.100000*%
%ADD11C,1.727200*%
%ADD12O,1.727200X1.727200*%
%ADD13O,1.727200X2.032000*%
%ADD14C,4.064000*%
%ADD15R,2.000000X2.000000*%
%ADD16C,2.000000*%
%ADD17R,3.000000X3.000000*%
%ADD18C,3.000000*%
%ADD19C,1.905000*%
%ADD20C,3.048000*%
%ADD21C,1.600000*%
%ADD22O,1.600000X1.600000*%
%ADD23R,2.400000X2.400000*%
%ADD24O,2.400000X2.400000*%
%ADD25O,1.200000X1.600000*%
%ADD26O,1.200000X1.200000*%
G04 APERTURE END LIST*
D10*
D11*
X197358000Y-114046000D03*
D12*
X199898000Y-114046000D03*
X197358000Y-111506000D03*
X199898000Y-111506000D03*
X197358000Y-108966000D03*
X199898000Y-108966000D03*
X197358000Y-106426000D03*
X199898000Y-106426000D03*
X197358000Y-103886000D03*
X199898000Y-103886000D03*
X197358000Y-101346000D03*
X199898000Y-101346000D03*
X197358000Y-98806000D03*
X199898000Y-98806000D03*
X197358000Y-96266000D03*
X199898000Y-96266000D03*
X197358000Y-93726000D03*
X199898000Y-93726000D03*
X197358000Y-91186000D03*
X199898000Y-91186000D03*
X197358000Y-88646000D03*
X199898000Y-88646000D03*
X197358000Y-86106000D03*
X199898000Y-86106000D03*
X197358000Y-83566000D03*
X199898000Y-83566000D03*
X197358000Y-81026000D03*
X199898000Y-81026000D03*
X197358000Y-78486000D03*
X199898000Y-78486000D03*
X197358000Y-75946000D03*
X199898000Y-75946000D03*
X197358000Y-73406000D03*
X199898000Y-73406000D03*
X197358000Y-70866000D03*
X199898000Y-70866000D03*
D13*
X131318000Y-119126000D03*
X133858000Y-119126000D03*
X136398000Y-119126000D03*
X138938000Y-119126000D03*
X141478000Y-119126000D03*
X144018000Y-119126000D03*
X146558000Y-119126000D03*
X149098000Y-119126000D03*
X154178000Y-119126000D03*
X156718000Y-119126000D03*
X159258000Y-119126000D03*
X161798000Y-119126000D03*
X164338000Y-119126000D03*
X166878000Y-119126000D03*
X169418000Y-119126000D03*
X171958000Y-119126000D03*
X177038000Y-119126000D03*
X179578000Y-119126000D03*
X182118000Y-119126000D03*
X184658000Y-119126000D03*
X187198000Y-119126000D03*
X189738000Y-119126000D03*
X192278000Y-119126000D03*
X194818000Y-119126000D03*
X122174000Y-70866000D03*
X124714000Y-70866000D03*
X127254000Y-70866000D03*
X129794000Y-70866000D03*
X132334000Y-70866000D03*
X134874000Y-70866000D03*
X137414000Y-70866000D03*
X139954000Y-70866000D03*
X142494000Y-70866000D03*
X145034000Y-70866000D03*
X149098000Y-70866000D03*
X151638000Y-70866000D03*
X154178000Y-70866000D03*
X156718000Y-70866000D03*
X159258000Y-70866000D03*
X161798000Y-70866000D03*
X164338000Y-70866000D03*
X166878000Y-70866000D03*
X171958000Y-70866000D03*
X174498000Y-70866000D03*
X177038000Y-70866000D03*
X179578000Y-70866000D03*
X182118000Y-70866000D03*
X184658000Y-70866000D03*
X187198000Y-70866000D03*
X189738000Y-70866000D03*
D14*
X117348000Y-119126000D03*
X169418000Y-114046000D03*
X199898000Y-119126000D03*
X118618000Y-70866000D03*
X169418000Y-86106000D03*
X193548000Y-70866000D03*
D15*
X184785000Y-108585000D03*
D16*
X187325000Y-108585000D03*
X189865000Y-108585000D03*
D15*
X184785000Y-104140000D03*
D16*
X187325000Y-104140000D03*
X189865000Y-104140000D03*
D15*
X184785000Y-99695000D03*
D16*
X187325000Y-99695000D03*
X189865000Y-99695000D03*
D15*
X184785000Y-95250000D03*
D16*
X187325000Y-95250000D03*
X189865000Y-95250000D03*
D15*
X184785000Y-90805000D03*
D16*
X187325000Y-90805000D03*
X189865000Y-90805000D03*
D15*
X184785000Y-86360000D03*
D16*
X187325000Y-86360000D03*
X189865000Y-86360000D03*
D15*
X137160000Y-78740000D03*
D16*
X134620000Y-78740000D03*
X132080000Y-78740000D03*
D15*
X158750000Y-97790000D03*
D16*
X156210000Y-97790000D03*
X153670000Y-97790000D03*
X151130000Y-97790000D03*
D15*
X184785000Y-78740000D03*
D16*
X187325000Y-78740000D03*
X189865000Y-78740000D03*
X192405000Y-78740000D03*
D17*
X107950000Y-96520000D03*
D18*
X107950000Y-101600000D03*
D15*
X163830000Y-97790000D03*
D16*
X166370000Y-97790000D03*
D19*
X163830000Y-91440000D03*
X163830000Y-78740000D03*
X161290000Y-91440000D03*
X161290000Y-78740000D03*
X158750000Y-91440000D03*
X158750000Y-78740000D03*
X156210000Y-91440000D03*
X156210000Y-78740000D03*
X153670000Y-91440000D03*
X153670000Y-78740000D03*
X151130000Y-91440000D03*
X151130000Y-78740000D03*
X148590000Y-91440000D03*
X148590000Y-78740000D03*
X146050000Y-91440000D03*
X146050000Y-78740000D03*
X130175000Y-110490000D03*
X132715000Y-110490000D03*
X135255000Y-110490000D03*
X137795000Y-110490000D03*
X140335000Y-110490000D03*
D20*
X126619000Y-109601000D03*
X140081000Y-93599000D03*
D21*
X175260000Y-107950000D03*
D22*
X175260000Y-113030000D03*
D23*
X163830000Y-102235000D03*
D24*
X168910000Y-102235000D03*
D25*
X168910000Y-109220000D03*
D26*
X170180000Y-107950000D03*
X168910000Y-106680000D03*
D16*
X113030000Y-113720000D03*
X113030000Y-109220000D03*
X119530000Y-113720000D03*
X119530000Y-109220000D03*
M02*
