G04 #@! TF.FileFunction,Legend,Top*
%FSLAX46Y46*%
G04 Gerber Fmt 4.6, Leading zero omitted, Abs format (unit mm)*
G04 Created by KiCad (PCBNEW 4.0.7) date 03/20/18 22:31:40*
%MOMM*%
%LPD*%
G01*
G04 APERTURE LIST*
%ADD10C,0.100000*%
%ADD11C,0.190500*%
%ADD12C,0.203200*%
%ADD13C,0.300000*%
%ADD14C,0.150000*%
%ADD15C,0.120000*%
G04 APERTURE END LIST*
D10*
D11*
X187633429Y-84309857D02*
X187669714Y-84201000D01*
X187669714Y-84019571D01*
X187633429Y-83947000D01*
X187597143Y-83910714D01*
X187524571Y-83874429D01*
X187452000Y-83874429D01*
X187379429Y-83910714D01*
X187343143Y-83947000D01*
X187306857Y-84019571D01*
X187270571Y-84164714D01*
X187234286Y-84237286D01*
X187198000Y-84273571D01*
X187125429Y-84309857D01*
X187052857Y-84309857D01*
X186980286Y-84273571D01*
X186944000Y-84237286D01*
X186907714Y-84164714D01*
X186907714Y-83983286D01*
X186944000Y-83874429D01*
X187669714Y-83547857D02*
X187161714Y-83547857D01*
X186907714Y-83547857D02*
X186944000Y-83584143D01*
X186980286Y-83547857D01*
X186944000Y-83511572D01*
X186907714Y-83547857D01*
X186980286Y-83547857D01*
X187161714Y-82858429D02*
X187778571Y-82858429D01*
X187851143Y-82894715D01*
X187887429Y-82931000D01*
X187923714Y-83003572D01*
X187923714Y-83112429D01*
X187887429Y-83185000D01*
X187633429Y-82858429D02*
X187669714Y-82931000D01*
X187669714Y-83076143D01*
X187633429Y-83148715D01*
X187597143Y-83185000D01*
X187524571Y-83221286D01*
X187306857Y-83221286D01*
X187234286Y-83185000D01*
X187198000Y-83148715D01*
X187161714Y-83076143D01*
X187161714Y-82931000D01*
X187198000Y-82858429D01*
X187161714Y-82495571D02*
X187669714Y-82495571D01*
X187234286Y-82495571D02*
X187198000Y-82459286D01*
X187161714Y-82386714D01*
X187161714Y-82277857D01*
X187198000Y-82205286D01*
X187270571Y-82169000D01*
X187669714Y-82169000D01*
X187669714Y-81479571D02*
X187270571Y-81479571D01*
X187198000Y-81515857D01*
X187161714Y-81588428D01*
X187161714Y-81733571D01*
X187198000Y-81806142D01*
X187633429Y-81479571D02*
X187669714Y-81552142D01*
X187669714Y-81733571D01*
X187633429Y-81806142D01*
X187560857Y-81842428D01*
X187488286Y-81842428D01*
X187415714Y-81806142D01*
X187379429Y-81733571D01*
X187379429Y-81552142D01*
X187343143Y-81479571D01*
X187669714Y-81007856D02*
X187633429Y-81080428D01*
X187560857Y-81116713D01*
X186907714Y-81116713D01*
D12*
X151299333Y-95691476D02*
X151299333Y-95207667D01*
X151589619Y-95788238D02*
X150573619Y-95449571D01*
X151589619Y-95110905D01*
X150670381Y-94820619D02*
X150622000Y-94772238D01*
X150573619Y-94675476D01*
X150573619Y-94433572D01*
X150622000Y-94336810D01*
X150670381Y-94288429D01*
X150767143Y-94240048D01*
X150863905Y-94240048D01*
X151009048Y-94288429D01*
X151589619Y-94869000D01*
X151589619Y-94240048D01*
X153839333Y-95691476D02*
X153839333Y-95207667D01*
X154129619Y-95788238D02*
X153113619Y-95449571D01*
X154129619Y-95110905D01*
X154129619Y-94240048D02*
X154129619Y-94820619D01*
X154129619Y-94530333D02*
X153113619Y-94530333D01*
X153258762Y-94627095D01*
X153355524Y-94723857D01*
X153403905Y-94820619D01*
X156137429Y-95304429D02*
X156185810Y-95159286D01*
X156234190Y-95110905D01*
X156330952Y-95062524D01*
X156476095Y-95062524D01*
X156572857Y-95110905D01*
X156621238Y-95159286D01*
X156669619Y-95256048D01*
X156669619Y-95643095D01*
X155653619Y-95643095D01*
X155653619Y-95304429D01*
X155702000Y-95207667D01*
X155750381Y-95159286D01*
X155847143Y-95110905D01*
X155943905Y-95110905D01*
X156040667Y-95159286D01*
X156089048Y-95207667D01*
X156137429Y-95304429D01*
X156137429Y-95643095D01*
X156669619Y-94094905D02*
X156669619Y-94675476D01*
X156669619Y-94385190D02*
X155653619Y-94385190D01*
X155798762Y-94481952D01*
X155895524Y-94578714D01*
X155943905Y-94675476D01*
X158677429Y-95304429D02*
X158725810Y-95159286D01*
X158774190Y-95110905D01*
X158870952Y-95062524D01*
X159016095Y-95062524D01*
X159112857Y-95110905D01*
X159161238Y-95159286D01*
X159209619Y-95256048D01*
X159209619Y-95643095D01*
X158193619Y-95643095D01*
X158193619Y-95304429D01*
X158242000Y-95207667D01*
X158290381Y-95159286D01*
X158387143Y-95110905D01*
X158483905Y-95110905D01*
X158580667Y-95159286D01*
X158629048Y-95207667D01*
X158677429Y-95304429D01*
X158677429Y-95643095D01*
X158290381Y-94675476D02*
X158242000Y-94627095D01*
X158193619Y-94530333D01*
X158193619Y-94288429D01*
X158242000Y-94191667D01*
X158290381Y-94143286D01*
X158387143Y-94094905D01*
X158483905Y-94094905D01*
X158629048Y-94143286D01*
X159209619Y-94723857D01*
X159209619Y-94094905D01*
D13*
X184892143Y-84097857D02*
X184892143Y-82955000D01*
X185463571Y-83526429D02*
X184320714Y-83526429D01*
X147297143Y-84422143D02*
X147511429Y-84493571D01*
X147868572Y-84493571D01*
X148011429Y-84422143D01*
X148082858Y-84350714D01*
X148154286Y-84207857D01*
X148154286Y-84065000D01*
X148082858Y-83922143D01*
X148011429Y-83850714D01*
X147868572Y-83779286D01*
X147582858Y-83707857D01*
X147440000Y-83636429D01*
X147368572Y-83565000D01*
X147297143Y-83422143D01*
X147297143Y-83279286D01*
X147368572Y-83136429D01*
X147440000Y-83065000D01*
X147582858Y-82993571D01*
X147940000Y-82993571D01*
X148154286Y-83065000D01*
X148582857Y-83493571D02*
X149154286Y-83493571D01*
X148797143Y-82993571D02*
X148797143Y-84279286D01*
X148868571Y-84422143D01*
X149011429Y-84493571D01*
X149154286Y-84493571D01*
X150225714Y-84422143D02*
X150082857Y-84493571D01*
X149797143Y-84493571D01*
X149654286Y-84422143D01*
X149582857Y-84279286D01*
X149582857Y-83707857D01*
X149654286Y-83565000D01*
X149797143Y-83493571D01*
X150082857Y-83493571D01*
X150225714Y-83565000D01*
X150297143Y-83707857D01*
X150297143Y-83850714D01*
X149582857Y-83993571D01*
X150940000Y-83493571D02*
X150940000Y-84993571D01*
X150940000Y-83565000D02*
X151082857Y-83493571D01*
X151368571Y-83493571D01*
X151511428Y-83565000D01*
X151582857Y-83636429D01*
X151654286Y-83779286D01*
X151654286Y-84207857D01*
X151582857Y-84350714D01*
X151511428Y-84422143D01*
X151368571Y-84493571D01*
X151082857Y-84493571D01*
X150940000Y-84422143D01*
X152297143Y-83493571D02*
X152297143Y-84993571D01*
X152297143Y-83565000D02*
X152440000Y-83493571D01*
X152725714Y-83493571D01*
X152868571Y-83565000D01*
X152940000Y-83636429D01*
X153011429Y-83779286D01*
X153011429Y-84207857D01*
X152940000Y-84350714D01*
X152868571Y-84422143D01*
X152725714Y-84493571D01*
X152440000Y-84493571D01*
X152297143Y-84422143D01*
X154225714Y-84422143D02*
X154082857Y-84493571D01*
X153797143Y-84493571D01*
X153654286Y-84422143D01*
X153582857Y-84279286D01*
X153582857Y-83707857D01*
X153654286Y-83565000D01*
X153797143Y-83493571D01*
X154082857Y-83493571D01*
X154225714Y-83565000D01*
X154297143Y-83707857D01*
X154297143Y-83850714D01*
X153582857Y-83993571D01*
X154940000Y-84493571D02*
X154940000Y-83493571D01*
X154940000Y-83779286D02*
X155011428Y-83636429D01*
X155082857Y-83565000D01*
X155225714Y-83493571D01*
X155368571Y-83493571D01*
X157011428Y-84493571D02*
X157011428Y-82993571D01*
X157511428Y-84065000D01*
X158011428Y-82993571D01*
X158011428Y-84493571D01*
X158940000Y-84493571D02*
X158797142Y-84422143D01*
X158725714Y-84350714D01*
X158654285Y-84207857D01*
X158654285Y-83779286D01*
X158725714Y-83636429D01*
X158797142Y-83565000D01*
X158940000Y-83493571D01*
X159154285Y-83493571D01*
X159297142Y-83565000D01*
X159368571Y-83636429D01*
X159440000Y-83779286D01*
X159440000Y-84207857D01*
X159368571Y-84350714D01*
X159297142Y-84422143D01*
X159154285Y-84493571D01*
X158940000Y-84493571D01*
X159868571Y-83493571D02*
X160440000Y-83493571D01*
X160082857Y-82993571D02*
X160082857Y-84279286D01*
X160154285Y-84422143D01*
X160297143Y-84493571D01*
X160440000Y-84493571D01*
X161154286Y-84493571D02*
X161011428Y-84422143D01*
X160940000Y-84350714D01*
X160868571Y-84207857D01*
X160868571Y-83779286D01*
X160940000Y-83636429D01*
X161011428Y-83565000D01*
X161154286Y-83493571D01*
X161368571Y-83493571D01*
X161511428Y-83565000D01*
X161582857Y-83636429D01*
X161654286Y-83779286D01*
X161654286Y-84207857D01*
X161582857Y-84350714D01*
X161511428Y-84422143D01*
X161368571Y-84493571D01*
X161154286Y-84493571D01*
X162297143Y-84493571D02*
X162297143Y-83493571D01*
X162297143Y-83779286D02*
X162368571Y-83636429D01*
X162440000Y-83565000D01*
X162582857Y-83493571D01*
X162725714Y-83493571D01*
X150582858Y-86900714D02*
X150511429Y-86972143D01*
X150297143Y-87043571D01*
X150154286Y-87043571D01*
X149940001Y-86972143D01*
X149797143Y-86829286D01*
X149725715Y-86686429D01*
X149654286Y-86400714D01*
X149654286Y-86186429D01*
X149725715Y-85900714D01*
X149797143Y-85757857D01*
X149940001Y-85615000D01*
X150154286Y-85543571D01*
X150297143Y-85543571D01*
X150511429Y-85615000D01*
X150582858Y-85686429D01*
X151440001Y-87043571D02*
X151297143Y-86972143D01*
X151225715Y-86900714D01*
X151154286Y-86757857D01*
X151154286Y-86329286D01*
X151225715Y-86186429D01*
X151297143Y-86115000D01*
X151440001Y-86043571D01*
X151654286Y-86043571D01*
X151797143Y-86115000D01*
X151868572Y-86186429D01*
X151940001Y-86329286D01*
X151940001Y-86757857D01*
X151868572Y-86900714D01*
X151797143Y-86972143D01*
X151654286Y-87043571D01*
X151440001Y-87043571D01*
X152582858Y-86043571D02*
X152582858Y-87043571D01*
X152582858Y-86186429D02*
X152654286Y-86115000D01*
X152797144Y-86043571D01*
X153011429Y-86043571D01*
X153154286Y-86115000D01*
X153225715Y-86257857D01*
X153225715Y-87043571D01*
X153725715Y-86043571D02*
X154297144Y-86043571D01*
X153940001Y-85543571D02*
X153940001Y-86829286D01*
X154011429Y-86972143D01*
X154154287Y-87043571D01*
X154297144Y-87043571D01*
X154797144Y-87043571D02*
X154797144Y-86043571D01*
X154797144Y-86329286D02*
X154868572Y-86186429D01*
X154940001Y-86115000D01*
X155082858Y-86043571D01*
X155225715Y-86043571D01*
X155940001Y-87043571D02*
X155797143Y-86972143D01*
X155725715Y-86900714D01*
X155654286Y-86757857D01*
X155654286Y-86329286D01*
X155725715Y-86186429D01*
X155797143Y-86115000D01*
X155940001Y-86043571D01*
X156154286Y-86043571D01*
X156297143Y-86115000D01*
X156368572Y-86186429D01*
X156440001Y-86329286D01*
X156440001Y-86757857D01*
X156368572Y-86900714D01*
X156297143Y-86972143D01*
X156154286Y-87043571D01*
X155940001Y-87043571D01*
X157297144Y-87043571D02*
X157154286Y-86972143D01*
X157082858Y-86829286D01*
X157082858Y-85543571D01*
X158082858Y-87043571D02*
X157940000Y-86972143D01*
X157868572Y-86829286D01*
X157868572Y-85543571D01*
X159225714Y-86972143D02*
X159082857Y-87043571D01*
X158797143Y-87043571D01*
X158654286Y-86972143D01*
X158582857Y-86829286D01*
X158582857Y-86257857D01*
X158654286Y-86115000D01*
X158797143Y-86043571D01*
X159082857Y-86043571D01*
X159225714Y-86115000D01*
X159297143Y-86257857D01*
X159297143Y-86400714D01*
X158582857Y-86543571D01*
X159940000Y-87043571D02*
X159940000Y-86043571D01*
X159940000Y-86329286D02*
X160011428Y-86186429D01*
X160082857Y-86115000D01*
X160225714Y-86043571D01*
X160368571Y-86043571D01*
X134430000Y-102678571D02*
X134930000Y-104178571D01*
X135430000Y-102678571D01*
X136144286Y-104178571D02*
X136001428Y-104107143D01*
X135930000Y-104035714D01*
X135858571Y-103892857D01*
X135858571Y-103464286D01*
X135930000Y-103321429D01*
X136001428Y-103250000D01*
X136144286Y-103178571D01*
X136358571Y-103178571D01*
X136501428Y-103250000D01*
X136572857Y-103321429D01*
X136644286Y-103464286D01*
X136644286Y-103892857D01*
X136572857Y-104035714D01*
X136501428Y-104107143D01*
X136358571Y-104178571D01*
X136144286Y-104178571D01*
X137501429Y-104178571D02*
X137358571Y-104107143D01*
X137287143Y-103964286D01*
X137287143Y-102678571D01*
X137858571Y-103178571D02*
X138430000Y-103178571D01*
X138072857Y-102678571D02*
X138072857Y-103964286D01*
X138144285Y-104107143D01*
X138287143Y-104178571D01*
X138430000Y-104178571D01*
X139572857Y-104178571D02*
X139572857Y-103392857D01*
X139501428Y-103250000D01*
X139358571Y-103178571D01*
X139072857Y-103178571D01*
X138930000Y-103250000D01*
X139572857Y-104107143D02*
X139430000Y-104178571D01*
X139072857Y-104178571D01*
X138930000Y-104107143D01*
X138858571Y-103964286D01*
X138858571Y-103821429D01*
X138930000Y-103678571D01*
X139072857Y-103607143D01*
X139430000Y-103607143D01*
X139572857Y-103535714D01*
X140930000Y-103178571D02*
X140930000Y-104392857D01*
X140858571Y-104535714D01*
X140787143Y-104607143D01*
X140644286Y-104678571D01*
X140430000Y-104678571D01*
X140287143Y-104607143D01*
X140930000Y-104107143D02*
X140787143Y-104178571D01*
X140501429Y-104178571D01*
X140358571Y-104107143D01*
X140287143Y-104035714D01*
X140215714Y-103892857D01*
X140215714Y-103464286D01*
X140287143Y-103321429D01*
X140358571Y-103250000D01*
X140501429Y-103178571D01*
X140787143Y-103178571D01*
X140930000Y-103250000D01*
X142215714Y-104107143D02*
X142072857Y-104178571D01*
X141787143Y-104178571D01*
X141644286Y-104107143D01*
X141572857Y-103964286D01*
X141572857Y-103392857D01*
X141644286Y-103250000D01*
X141787143Y-103178571D01*
X142072857Y-103178571D01*
X142215714Y-103250000D01*
X142287143Y-103392857D01*
X142287143Y-103535714D01*
X141572857Y-103678571D01*
X134251429Y-106728571D02*
X133751429Y-106014286D01*
X133394286Y-106728571D02*
X133394286Y-105228571D01*
X133965714Y-105228571D01*
X134108572Y-105300000D01*
X134180000Y-105371429D01*
X134251429Y-105514286D01*
X134251429Y-105728571D01*
X134180000Y-105871429D01*
X134108572Y-105942857D01*
X133965714Y-106014286D01*
X133394286Y-106014286D01*
X135465714Y-106657143D02*
X135322857Y-106728571D01*
X135037143Y-106728571D01*
X134894286Y-106657143D01*
X134822857Y-106514286D01*
X134822857Y-105942857D01*
X134894286Y-105800000D01*
X135037143Y-105728571D01*
X135322857Y-105728571D01*
X135465714Y-105800000D01*
X135537143Y-105942857D01*
X135537143Y-106085714D01*
X134822857Y-106228571D01*
X136822857Y-105728571D02*
X136822857Y-106942857D01*
X136751428Y-107085714D01*
X136680000Y-107157143D01*
X136537143Y-107228571D01*
X136322857Y-107228571D01*
X136180000Y-107157143D01*
X136822857Y-106657143D02*
X136680000Y-106728571D01*
X136394286Y-106728571D01*
X136251428Y-106657143D01*
X136180000Y-106585714D01*
X136108571Y-106442857D01*
X136108571Y-106014286D01*
X136180000Y-105871429D01*
X136251428Y-105800000D01*
X136394286Y-105728571D01*
X136680000Y-105728571D01*
X136822857Y-105800000D01*
X138180000Y-105728571D02*
X138180000Y-106728571D01*
X137537143Y-105728571D02*
X137537143Y-106514286D01*
X137608571Y-106657143D01*
X137751429Y-106728571D01*
X137965714Y-106728571D01*
X138108571Y-106657143D01*
X138180000Y-106585714D01*
X139108572Y-106728571D02*
X138965714Y-106657143D01*
X138894286Y-106514286D01*
X138894286Y-105228571D01*
X140322857Y-106728571D02*
X140322857Y-105942857D01*
X140251428Y-105800000D01*
X140108571Y-105728571D01*
X139822857Y-105728571D01*
X139680000Y-105800000D01*
X140322857Y-106657143D02*
X140180000Y-106728571D01*
X139822857Y-106728571D01*
X139680000Y-106657143D01*
X139608571Y-106514286D01*
X139608571Y-106371429D01*
X139680000Y-106228571D01*
X139822857Y-106157143D01*
X140180000Y-106157143D01*
X140322857Y-106085714D01*
X140822857Y-105728571D02*
X141394286Y-105728571D01*
X141037143Y-105228571D02*
X141037143Y-106514286D01*
X141108571Y-106657143D01*
X141251429Y-106728571D01*
X141394286Y-106728571D01*
X142108572Y-106728571D02*
X141965714Y-106657143D01*
X141894286Y-106585714D01*
X141822857Y-106442857D01*
X141822857Y-106014286D01*
X141894286Y-105871429D01*
X141965714Y-105800000D01*
X142108572Y-105728571D01*
X142322857Y-105728571D01*
X142465714Y-105800000D01*
X142537143Y-105871429D01*
X142608572Y-106014286D01*
X142608572Y-106442857D01*
X142537143Y-106585714D01*
X142465714Y-106657143D01*
X142322857Y-106728571D01*
X142108572Y-106728571D01*
X143251429Y-106728571D02*
X143251429Y-105728571D01*
X143251429Y-106014286D02*
X143322857Y-105871429D01*
X143394286Y-105800000D01*
X143537143Y-105728571D01*
X143680000Y-105728571D01*
X150975715Y-108552143D02*
X151190001Y-108623571D01*
X151547144Y-108623571D01*
X151690001Y-108552143D01*
X151761430Y-108480714D01*
X151832858Y-108337857D01*
X151832858Y-108195000D01*
X151761430Y-108052143D01*
X151690001Y-107980714D01*
X151547144Y-107909286D01*
X151261430Y-107837857D01*
X151118572Y-107766429D01*
X151047144Y-107695000D01*
X150975715Y-107552143D01*
X150975715Y-107409286D01*
X151047144Y-107266429D01*
X151118572Y-107195000D01*
X151261430Y-107123571D01*
X151618572Y-107123571D01*
X151832858Y-107195000D01*
X152261429Y-107623571D02*
X152832858Y-107623571D01*
X152475715Y-107123571D02*
X152475715Y-108409286D01*
X152547143Y-108552143D01*
X152690001Y-108623571D01*
X152832858Y-108623571D01*
X153904286Y-108552143D02*
X153761429Y-108623571D01*
X153475715Y-108623571D01*
X153332858Y-108552143D01*
X153261429Y-108409286D01*
X153261429Y-107837857D01*
X153332858Y-107695000D01*
X153475715Y-107623571D01*
X153761429Y-107623571D01*
X153904286Y-107695000D01*
X153975715Y-107837857D01*
X153975715Y-107980714D01*
X153261429Y-108123571D01*
X154618572Y-107623571D02*
X154618572Y-109123571D01*
X154618572Y-107695000D02*
X154761429Y-107623571D01*
X155047143Y-107623571D01*
X155190000Y-107695000D01*
X155261429Y-107766429D01*
X155332858Y-107909286D01*
X155332858Y-108337857D01*
X155261429Y-108480714D01*
X155190000Y-108552143D01*
X155047143Y-108623571D01*
X154761429Y-108623571D01*
X154618572Y-108552143D01*
X155975715Y-107623571D02*
X155975715Y-109123571D01*
X155975715Y-107695000D02*
X156118572Y-107623571D01*
X156404286Y-107623571D01*
X156547143Y-107695000D01*
X156618572Y-107766429D01*
X156690001Y-107909286D01*
X156690001Y-108337857D01*
X156618572Y-108480714D01*
X156547143Y-108552143D01*
X156404286Y-108623571D01*
X156118572Y-108623571D01*
X155975715Y-108552143D01*
X157904286Y-108552143D02*
X157761429Y-108623571D01*
X157475715Y-108623571D01*
X157332858Y-108552143D01*
X157261429Y-108409286D01*
X157261429Y-107837857D01*
X157332858Y-107695000D01*
X157475715Y-107623571D01*
X157761429Y-107623571D01*
X157904286Y-107695000D01*
X157975715Y-107837857D01*
X157975715Y-107980714D01*
X157261429Y-108123571D01*
X158618572Y-108623571D02*
X158618572Y-107623571D01*
X158618572Y-107909286D02*
X158690000Y-107766429D01*
X158761429Y-107695000D01*
X158904286Y-107623571D01*
X159047143Y-107623571D01*
X152190000Y-111173571D02*
X152190000Y-109673571D01*
X152690000Y-110745000D01*
X153190000Y-109673571D01*
X153190000Y-111173571D01*
X154118572Y-111173571D02*
X153975714Y-111102143D01*
X153904286Y-111030714D01*
X153832857Y-110887857D01*
X153832857Y-110459286D01*
X153904286Y-110316429D01*
X153975714Y-110245000D01*
X154118572Y-110173571D01*
X154332857Y-110173571D01*
X154475714Y-110245000D01*
X154547143Y-110316429D01*
X154618572Y-110459286D01*
X154618572Y-110887857D01*
X154547143Y-111030714D01*
X154475714Y-111102143D01*
X154332857Y-111173571D01*
X154118572Y-111173571D01*
X155047143Y-110173571D02*
X155618572Y-110173571D01*
X155261429Y-109673571D02*
X155261429Y-110959286D01*
X155332857Y-111102143D01*
X155475715Y-111173571D01*
X155618572Y-111173571D01*
X156332858Y-111173571D02*
X156190000Y-111102143D01*
X156118572Y-111030714D01*
X156047143Y-110887857D01*
X156047143Y-110459286D01*
X156118572Y-110316429D01*
X156190000Y-110245000D01*
X156332858Y-110173571D01*
X156547143Y-110173571D01*
X156690000Y-110245000D01*
X156761429Y-110316429D01*
X156832858Y-110459286D01*
X156832858Y-110887857D01*
X156761429Y-111030714D01*
X156690000Y-111102143D01*
X156547143Y-111173571D01*
X156332858Y-111173571D01*
X157475715Y-111173571D02*
X157475715Y-110173571D01*
X157475715Y-110459286D02*
X157547143Y-110316429D01*
X157618572Y-110245000D01*
X157761429Y-110173571D01*
X157904286Y-110173571D01*
X151022857Y-104401428D02*
X151094286Y-104187142D01*
X151165714Y-104115714D01*
X151308571Y-104044285D01*
X151522857Y-104044285D01*
X151665714Y-104115714D01*
X151737143Y-104187142D01*
X151808571Y-104330000D01*
X151808571Y-104901428D01*
X150308571Y-104901428D01*
X150308571Y-104401428D01*
X150380000Y-104258571D01*
X150451429Y-104187142D01*
X150594286Y-104115714D01*
X150737143Y-104115714D01*
X150880000Y-104187142D01*
X150951429Y-104258571D01*
X151022857Y-104401428D01*
X151022857Y-104901428D01*
X151808571Y-103187142D02*
X151737143Y-103330000D01*
X151594286Y-103401428D01*
X150308571Y-103401428D01*
X150808571Y-101972857D02*
X151808571Y-101972857D01*
X150808571Y-102615714D02*
X151594286Y-102615714D01*
X151737143Y-102544286D01*
X151808571Y-102401428D01*
X151808571Y-102187143D01*
X151737143Y-102044286D01*
X151665714Y-101972857D01*
X151737143Y-100687143D02*
X151808571Y-100830000D01*
X151808571Y-101115714D01*
X151737143Y-101258571D01*
X151594286Y-101330000D01*
X151022857Y-101330000D01*
X150880000Y-101258571D01*
X150808571Y-101115714D01*
X150808571Y-100830000D01*
X150880000Y-100687143D01*
X151022857Y-100615714D01*
X151165714Y-100615714D01*
X151308571Y-101330000D01*
X154348571Y-103258571D02*
X153634286Y-103758571D01*
X154348571Y-104115714D02*
X152848571Y-104115714D01*
X152848571Y-103544286D01*
X152920000Y-103401428D01*
X152991429Y-103330000D01*
X153134286Y-103258571D01*
X153348571Y-103258571D01*
X153491429Y-103330000D01*
X153562857Y-103401428D01*
X153634286Y-103544286D01*
X153634286Y-104115714D01*
X154277143Y-102044286D02*
X154348571Y-102187143D01*
X154348571Y-102472857D01*
X154277143Y-102615714D01*
X154134286Y-102687143D01*
X153562857Y-102687143D01*
X153420000Y-102615714D01*
X153348571Y-102472857D01*
X153348571Y-102187143D01*
X153420000Y-102044286D01*
X153562857Y-101972857D01*
X153705714Y-101972857D01*
X153848571Y-102687143D01*
X154348571Y-100687143D02*
X152848571Y-100687143D01*
X154277143Y-100687143D02*
X154348571Y-100830000D01*
X154348571Y-101115714D01*
X154277143Y-101258572D01*
X154205714Y-101330000D01*
X154062857Y-101401429D01*
X153634286Y-101401429D01*
X153491429Y-101330000D01*
X153420000Y-101258572D01*
X153348571Y-101115714D01*
X153348571Y-100830000D01*
X153420000Y-100687143D01*
X155460000Y-105544285D02*
X155388571Y-105687142D01*
X155388571Y-105901428D01*
X155460000Y-106115713D01*
X155602857Y-106258571D01*
X155745714Y-106329999D01*
X156031429Y-106401428D01*
X156245714Y-106401428D01*
X156531429Y-106329999D01*
X156674286Y-106258571D01*
X156817143Y-106115713D01*
X156888571Y-105901428D01*
X156888571Y-105758571D01*
X156817143Y-105544285D01*
X156745714Y-105472856D01*
X156245714Y-105472856D01*
X156245714Y-105758571D01*
X156888571Y-104829999D02*
X155888571Y-104829999D01*
X156174286Y-104829999D02*
X156031429Y-104758571D01*
X155960000Y-104687142D01*
X155888571Y-104544285D01*
X155888571Y-104401428D01*
X156817143Y-103330000D02*
X156888571Y-103472857D01*
X156888571Y-103758571D01*
X156817143Y-103901428D01*
X156674286Y-103972857D01*
X156102857Y-103972857D01*
X155960000Y-103901428D01*
X155888571Y-103758571D01*
X155888571Y-103472857D01*
X155960000Y-103330000D01*
X156102857Y-103258571D01*
X156245714Y-103258571D01*
X156388571Y-103972857D01*
X156817143Y-102044286D02*
X156888571Y-102187143D01*
X156888571Y-102472857D01*
X156817143Y-102615714D01*
X156674286Y-102687143D01*
X156102857Y-102687143D01*
X155960000Y-102615714D01*
X155888571Y-102472857D01*
X155888571Y-102187143D01*
X155960000Y-102044286D01*
X156102857Y-101972857D01*
X156245714Y-101972857D01*
X156388571Y-102687143D01*
X155888571Y-101330000D02*
X156888571Y-101330000D01*
X156031429Y-101330000D02*
X155960000Y-101258572D01*
X155888571Y-101115714D01*
X155888571Y-100901429D01*
X155960000Y-100758572D01*
X156102857Y-100687143D01*
X156888571Y-100687143D01*
X158642857Y-105615714D02*
X158714286Y-105401428D01*
X158785714Y-105330000D01*
X158928571Y-105258571D01*
X159142857Y-105258571D01*
X159285714Y-105330000D01*
X159357143Y-105401428D01*
X159428571Y-105544286D01*
X159428571Y-106115714D01*
X157928571Y-106115714D01*
X157928571Y-105615714D01*
X158000000Y-105472857D01*
X158071429Y-105401428D01*
X158214286Y-105330000D01*
X158357143Y-105330000D01*
X158500000Y-105401428D01*
X158571429Y-105472857D01*
X158642857Y-105615714D01*
X158642857Y-106115714D01*
X159428571Y-104401428D02*
X159357143Y-104544286D01*
X159214286Y-104615714D01*
X157928571Y-104615714D01*
X159428571Y-103187143D02*
X158642857Y-103187143D01*
X158500000Y-103258572D01*
X158428571Y-103401429D01*
X158428571Y-103687143D01*
X158500000Y-103830000D01*
X159357143Y-103187143D02*
X159428571Y-103330000D01*
X159428571Y-103687143D01*
X159357143Y-103830000D01*
X159214286Y-103901429D01*
X159071429Y-103901429D01*
X158928571Y-103830000D01*
X158857143Y-103687143D01*
X158857143Y-103330000D01*
X158785714Y-103187143D01*
X159357143Y-101830000D02*
X159428571Y-101972857D01*
X159428571Y-102258571D01*
X159357143Y-102401429D01*
X159285714Y-102472857D01*
X159142857Y-102544286D01*
X158714286Y-102544286D01*
X158571429Y-102472857D01*
X158500000Y-102401429D01*
X158428571Y-102258571D01*
X158428571Y-101972857D01*
X158500000Y-101830000D01*
X159428571Y-101187143D02*
X157928571Y-101187143D01*
X158857143Y-101044286D02*
X159428571Y-100615715D01*
X158428571Y-100615715D02*
X159000000Y-101187143D01*
X131548572Y-83858571D02*
X131548572Y-82358571D01*
X132120000Y-82358571D01*
X132262858Y-82430000D01*
X132334286Y-82501429D01*
X132405715Y-82644286D01*
X132405715Y-82858571D01*
X132334286Y-83001429D01*
X132262858Y-83072857D01*
X132120000Y-83144286D01*
X131548572Y-83144286D01*
X133691429Y-82858571D02*
X133691429Y-83858571D01*
X133048572Y-82858571D02*
X133048572Y-83644286D01*
X133120000Y-83787143D01*
X133262858Y-83858571D01*
X133477143Y-83858571D01*
X133620000Y-83787143D01*
X133691429Y-83715714D01*
X134620001Y-83858571D02*
X134477143Y-83787143D01*
X134405715Y-83644286D01*
X134405715Y-82358571D01*
X135405715Y-83858571D02*
X135262857Y-83787143D01*
X135191429Y-83644286D01*
X135191429Y-82358571D01*
X136548571Y-83787143D02*
X136405714Y-83858571D01*
X136120000Y-83858571D01*
X135977143Y-83787143D01*
X135905714Y-83644286D01*
X135905714Y-83072857D01*
X135977143Y-82930000D01*
X136120000Y-82858571D01*
X136405714Y-82858571D01*
X136548571Y-82930000D01*
X136620000Y-83072857D01*
X136620000Y-83215714D01*
X135905714Y-83358571D01*
X137120000Y-82858571D02*
X137477143Y-83858571D01*
X137834285Y-82858571D02*
X137477143Y-83858571D01*
X137334285Y-84215714D01*
X137262857Y-84287143D01*
X137120000Y-84358571D01*
X131834286Y-86337143D02*
X132048572Y-86408571D01*
X132405715Y-86408571D01*
X132548572Y-86337143D01*
X132620001Y-86265714D01*
X132691429Y-86122857D01*
X132691429Y-85980000D01*
X132620001Y-85837143D01*
X132548572Y-85765714D01*
X132405715Y-85694286D01*
X132120001Y-85622857D01*
X131977143Y-85551429D01*
X131905715Y-85480000D01*
X131834286Y-85337143D01*
X131834286Y-85194286D01*
X131905715Y-85051429D01*
X131977143Y-84980000D01*
X132120001Y-84908571D01*
X132477143Y-84908571D01*
X132691429Y-84980000D01*
X133905714Y-86337143D02*
X133762857Y-86408571D01*
X133477143Y-86408571D01*
X133334286Y-86337143D01*
X133262857Y-86194286D01*
X133262857Y-85622857D01*
X133334286Y-85480000D01*
X133477143Y-85408571D01*
X133762857Y-85408571D01*
X133905714Y-85480000D01*
X133977143Y-85622857D01*
X133977143Y-85765714D01*
X133262857Y-85908571D01*
X134620000Y-86408571D02*
X134620000Y-85408571D01*
X134620000Y-85694286D02*
X134691428Y-85551429D01*
X134762857Y-85480000D01*
X134905714Y-85408571D01*
X135048571Y-85408571D01*
X135405714Y-85408571D02*
X135762857Y-86408571D01*
X136119999Y-85408571D01*
X136905714Y-86408571D02*
X136762856Y-86337143D01*
X136691428Y-86265714D01*
X136619999Y-86122857D01*
X136619999Y-85694286D01*
X136691428Y-85551429D01*
X136762856Y-85480000D01*
X136905714Y-85408571D01*
X137119999Y-85408571D01*
X137262856Y-85480000D01*
X137334285Y-85551429D01*
X137405714Y-85694286D01*
X137405714Y-86122857D01*
X137334285Y-86265714D01*
X137262856Y-86337143D01*
X137119999Y-86408571D01*
X136905714Y-86408571D01*
X131508572Y-81387143D02*
X132651429Y-81387143D01*
X136588572Y-81387143D02*
X137731429Y-81387143D01*
X137160000Y-81958571D02*
X137160000Y-80815714D01*
X115462857Y-102167142D02*
X115534286Y-101952856D01*
X115605714Y-101881428D01*
X115748571Y-101809999D01*
X115962857Y-101809999D01*
X116105714Y-101881428D01*
X116177143Y-101952856D01*
X116248571Y-102095714D01*
X116248571Y-102667142D01*
X114748571Y-102667142D01*
X114748571Y-102167142D01*
X114820000Y-102024285D01*
X114891429Y-101952856D01*
X115034286Y-101881428D01*
X115177143Y-101881428D01*
X115320000Y-101952856D01*
X115391429Y-102024285D01*
X115462857Y-102167142D01*
X115462857Y-102667142D01*
X116248571Y-100524285D02*
X115462857Y-100524285D01*
X115320000Y-100595714D01*
X115248571Y-100738571D01*
X115248571Y-101024285D01*
X115320000Y-101167142D01*
X116177143Y-100524285D02*
X116248571Y-100667142D01*
X116248571Y-101024285D01*
X116177143Y-101167142D01*
X116034286Y-101238571D01*
X115891429Y-101238571D01*
X115748571Y-101167142D01*
X115677143Y-101024285D01*
X115677143Y-100667142D01*
X115605714Y-100524285D01*
X115248571Y-100024285D02*
X115248571Y-99452856D01*
X114748571Y-99809999D02*
X116034286Y-99809999D01*
X116177143Y-99738571D01*
X116248571Y-99595713D01*
X116248571Y-99452856D01*
X115248571Y-99167142D02*
X115248571Y-98595713D01*
X114748571Y-98952856D02*
X116034286Y-98952856D01*
X116177143Y-98881428D01*
X116248571Y-98738570D01*
X116248571Y-98595713D01*
X116177143Y-97524285D02*
X116248571Y-97667142D01*
X116248571Y-97952856D01*
X116177143Y-98095713D01*
X116034286Y-98167142D01*
X115462857Y-98167142D01*
X115320000Y-98095713D01*
X115248571Y-97952856D01*
X115248571Y-97667142D01*
X115320000Y-97524285D01*
X115462857Y-97452856D01*
X115605714Y-97452856D01*
X115748571Y-98167142D01*
X116248571Y-96809999D02*
X115248571Y-96809999D01*
X115534286Y-96809999D02*
X115391429Y-96738571D01*
X115320000Y-96667142D01*
X115248571Y-96524285D01*
X115248571Y-96381428D01*
X115248571Y-96024285D02*
X116248571Y-95667142D01*
X115248571Y-95310000D02*
X116248571Y-95667142D01*
X116605714Y-95810000D01*
X116677143Y-95881428D01*
X116748571Y-96024285D01*
X113137143Y-97091428D02*
X113137143Y-95948571D01*
X113708571Y-96520000D02*
X112565714Y-96520000D01*
X113137143Y-102171428D02*
X113137143Y-101028571D01*
X174038571Y-113708571D02*
X174038571Y-112208571D01*
X174538571Y-113280000D01*
X175038571Y-112208571D01*
X175038571Y-113708571D01*
X176395714Y-113708571D02*
X176395714Y-112922857D01*
X176324285Y-112780000D01*
X176181428Y-112708571D01*
X175895714Y-112708571D01*
X175752857Y-112780000D01*
X176395714Y-113637143D02*
X176252857Y-113708571D01*
X175895714Y-113708571D01*
X175752857Y-113637143D01*
X175681428Y-113494286D01*
X175681428Y-113351429D01*
X175752857Y-113208571D01*
X175895714Y-113137143D01*
X176252857Y-113137143D01*
X176395714Y-113065714D01*
X177752857Y-112708571D02*
X177752857Y-113922857D01*
X177681428Y-114065714D01*
X177610000Y-114137143D01*
X177467143Y-114208571D01*
X177252857Y-114208571D01*
X177110000Y-114137143D01*
X177752857Y-113637143D02*
X177610000Y-113708571D01*
X177324286Y-113708571D01*
X177181428Y-113637143D01*
X177110000Y-113565714D01*
X177038571Y-113422857D01*
X177038571Y-112994286D01*
X177110000Y-112851429D01*
X177181428Y-112780000D01*
X177324286Y-112708571D01*
X177610000Y-112708571D01*
X177752857Y-112780000D01*
X178467143Y-112708571D02*
X178467143Y-113708571D01*
X178467143Y-112851429D02*
X178538571Y-112780000D01*
X178681429Y-112708571D01*
X178895714Y-112708571D01*
X179038571Y-112780000D01*
X179110000Y-112922857D01*
X179110000Y-113708571D01*
X180395714Y-113637143D02*
X180252857Y-113708571D01*
X179967143Y-113708571D01*
X179824286Y-113637143D01*
X179752857Y-113494286D01*
X179752857Y-112922857D01*
X179824286Y-112780000D01*
X179967143Y-112708571D01*
X180252857Y-112708571D01*
X180395714Y-112780000D01*
X180467143Y-112922857D01*
X180467143Y-113065714D01*
X179752857Y-113208571D01*
X180895714Y-112708571D02*
X181467143Y-112708571D01*
X181110000Y-112208571D02*
X181110000Y-113494286D01*
X181181428Y-113637143D01*
X181324286Y-113708571D01*
X181467143Y-113708571D01*
X175933571Y-103968571D02*
X175933571Y-104682857D01*
X174433571Y-104682857D01*
X175933571Y-103468571D02*
X174933571Y-103468571D01*
X174433571Y-103468571D02*
X174505000Y-103540000D01*
X174576429Y-103468571D01*
X174505000Y-103397143D01*
X174433571Y-103468571D01*
X174576429Y-103468571D01*
X174933571Y-102754285D02*
X175933571Y-102754285D01*
X175076429Y-102754285D02*
X175005000Y-102682857D01*
X174933571Y-102539999D01*
X174933571Y-102325714D01*
X175005000Y-102182857D01*
X175147857Y-102111428D01*
X175933571Y-102111428D01*
X175862143Y-100825714D02*
X175933571Y-100968571D01*
X175933571Y-101254285D01*
X175862143Y-101397142D01*
X175719286Y-101468571D01*
X175147857Y-101468571D01*
X175005000Y-101397142D01*
X174933571Y-101254285D01*
X174933571Y-100968571D01*
X175005000Y-100825714D01*
X175147857Y-100754285D01*
X175290714Y-100754285D01*
X175433571Y-101468571D01*
X175862143Y-99040000D02*
X175933571Y-98825714D01*
X175933571Y-98468571D01*
X175862143Y-98325714D01*
X175790714Y-98254285D01*
X175647857Y-98182857D01*
X175505000Y-98182857D01*
X175362143Y-98254285D01*
X175290714Y-98325714D01*
X175219286Y-98468571D01*
X175147857Y-98754285D01*
X175076429Y-98897143D01*
X175005000Y-98968571D01*
X174862143Y-99040000D01*
X174719286Y-99040000D01*
X174576429Y-98968571D01*
X174505000Y-98897143D01*
X174433571Y-98754285D01*
X174433571Y-98397143D01*
X174505000Y-98182857D01*
X175862143Y-96968572D02*
X175933571Y-97111429D01*
X175933571Y-97397143D01*
X175862143Y-97540000D01*
X175719286Y-97611429D01*
X175147857Y-97611429D01*
X175005000Y-97540000D01*
X174933571Y-97397143D01*
X174933571Y-97111429D01*
X175005000Y-96968572D01*
X175147857Y-96897143D01*
X175290714Y-96897143D01*
X175433571Y-97611429D01*
X174933571Y-96254286D02*
X175933571Y-96254286D01*
X175076429Y-96254286D02*
X175005000Y-96182858D01*
X174933571Y-96040000D01*
X174933571Y-95825715D01*
X175005000Y-95682858D01*
X175147857Y-95611429D01*
X175933571Y-95611429D01*
X175862143Y-94968572D02*
X175933571Y-94825715D01*
X175933571Y-94540000D01*
X175862143Y-94397143D01*
X175719286Y-94325715D01*
X175647857Y-94325715D01*
X175505000Y-94397143D01*
X175433571Y-94540000D01*
X175433571Y-94754286D01*
X175362143Y-94897143D01*
X175219286Y-94968572D01*
X175147857Y-94968572D01*
X175005000Y-94897143D01*
X174933571Y-94754286D01*
X174933571Y-94540000D01*
X175005000Y-94397143D01*
X175933571Y-93468571D02*
X175862143Y-93611429D01*
X175790714Y-93682857D01*
X175647857Y-93754286D01*
X175219286Y-93754286D01*
X175076429Y-93682857D01*
X175005000Y-93611429D01*
X174933571Y-93468571D01*
X174933571Y-93254286D01*
X175005000Y-93111429D01*
X175076429Y-93040000D01*
X175219286Y-92968571D01*
X175647857Y-92968571D01*
X175790714Y-93040000D01*
X175862143Y-93111429D01*
X175933571Y-93254286D01*
X175933571Y-93468571D01*
X175933571Y-92325714D02*
X174933571Y-92325714D01*
X175219286Y-92325714D02*
X175076429Y-92254286D01*
X175005000Y-92182857D01*
X174933571Y-92040000D01*
X174933571Y-91897143D01*
X175862143Y-91468572D02*
X175933571Y-91325715D01*
X175933571Y-91040000D01*
X175862143Y-90897143D01*
X175719286Y-90825715D01*
X175647857Y-90825715D01*
X175505000Y-90897143D01*
X175433571Y-91040000D01*
X175433571Y-91254286D01*
X175362143Y-91397143D01*
X175219286Y-91468572D01*
X175147857Y-91468572D01*
X175005000Y-91397143D01*
X174933571Y-91254286D01*
X174933571Y-91040000D01*
X175005000Y-90897143D01*
X178483571Y-102004285D02*
X178483571Y-102861428D01*
X178483571Y-102432856D02*
X176983571Y-102432856D01*
X177197857Y-102575713D01*
X177340714Y-102718571D01*
X177412143Y-102861428D01*
X177483571Y-99075714D02*
X177912143Y-100218571D01*
X178340714Y-99075714D01*
X177912143Y-98361428D02*
X177912143Y-97218571D01*
X177483571Y-96504285D02*
X177912143Y-95361428D01*
X178340714Y-96504285D01*
X176983571Y-92861428D02*
X176983571Y-93147142D01*
X177055000Y-93289999D01*
X177126429Y-93361428D01*
X177340714Y-93504285D01*
X177626429Y-93575714D01*
X178197857Y-93575714D01*
X178340714Y-93504285D01*
X178412143Y-93432857D01*
X178483571Y-93289999D01*
X178483571Y-93004285D01*
X178412143Y-92861428D01*
X178340714Y-92789999D01*
X178197857Y-92718571D01*
X177840714Y-92718571D01*
X177697857Y-92789999D01*
X177626429Y-92861428D01*
X177555000Y-93004285D01*
X177555000Y-93289999D01*
X177626429Y-93432857D01*
X177697857Y-93504285D01*
X177840714Y-93575714D01*
D14*
X179705000Y-109855000D02*
X180975000Y-109855000D01*
X179705000Y-85090000D02*
X179705000Y-109855000D01*
X180975000Y-85090000D02*
X179705000Y-85090000D01*
D13*
X192512143Y-113601428D02*
X192512143Y-112458571D01*
X189972143Y-84097857D02*
X189972143Y-82955000D01*
D11*
X190137143Y-74948143D02*
X190173429Y-74984429D01*
X190209714Y-75093286D01*
X190209714Y-75165857D01*
X190173429Y-75274714D01*
X190100857Y-75347286D01*
X190028286Y-75383571D01*
X189883143Y-75419857D01*
X189774286Y-75419857D01*
X189629143Y-75383571D01*
X189556571Y-75347286D01*
X189484000Y-75274714D01*
X189447714Y-75165857D01*
X189447714Y-75093286D01*
X189484000Y-74984429D01*
X189520286Y-74948143D01*
X190209714Y-74258714D02*
X190209714Y-74621571D01*
X189447714Y-74621571D01*
X190209714Y-74004714D02*
X189447714Y-74004714D01*
X190209714Y-73569286D02*
X189774286Y-73895857D01*
X189447714Y-73569286D02*
X189883143Y-74004714D01*
X187669714Y-75383571D02*
X186907714Y-75383571D01*
X186907714Y-75202143D01*
X186944000Y-75093286D01*
X187016571Y-75020714D01*
X187089143Y-74984429D01*
X187234286Y-74948143D01*
X187343143Y-74948143D01*
X187488286Y-74984429D01*
X187560857Y-75020714D01*
X187633429Y-75093286D01*
X187669714Y-75202143D01*
X187669714Y-75383571D01*
X187452000Y-74657857D02*
X187452000Y-74295000D01*
X187669714Y-74730429D02*
X186907714Y-74476429D01*
X187669714Y-74222429D01*
X186907714Y-74077286D02*
X186907714Y-73641857D01*
X187669714Y-73859571D02*
X186907714Y-73859571D01*
X187452000Y-73424143D02*
X187452000Y-73061286D01*
X187669714Y-73496715D02*
X186907714Y-73242715D01*
X187669714Y-72988715D01*
D13*
X192512143Y-75207857D02*
X192512143Y-74065000D01*
X184892143Y-75207857D02*
X184892143Y-74065000D01*
X185463571Y-74636429D02*
X184320714Y-74636429D01*
X170570000Y-78148571D02*
X170570000Y-76648571D01*
X171212857Y-76791429D02*
X171284286Y-76720000D01*
X171427143Y-76648571D01*
X171784286Y-76648571D01*
X171927143Y-76720000D01*
X171998572Y-76791429D01*
X172070000Y-76934286D01*
X172070000Y-77077143D01*
X171998572Y-77291429D01*
X171141429Y-78148571D01*
X172070000Y-78148571D01*
X173570000Y-78005714D02*
X173498571Y-78077143D01*
X173284285Y-78148571D01*
X173141428Y-78148571D01*
X172927143Y-78077143D01*
X172784285Y-77934286D01*
X172712857Y-77791429D01*
X172641428Y-77505714D01*
X172641428Y-77291429D01*
X172712857Y-77005714D01*
X172784285Y-76862857D01*
X172927143Y-76720000D01*
X173141428Y-76648571D01*
X173284285Y-76648571D01*
X173498571Y-76720000D01*
X173570000Y-76791429D01*
X175855714Y-77362857D02*
X176070000Y-77434286D01*
X176141428Y-77505714D01*
X176212857Y-77648571D01*
X176212857Y-77862857D01*
X176141428Y-78005714D01*
X176070000Y-78077143D01*
X175927142Y-78148571D01*
X175355714Y-78148571D01*
X175355714Y-76648571D01*
X175855714Y-76648571D01*
X175998571Y-76720000D01*
X176070000Y-76791429D01*
X176141428Y-76934286D01*
X176141428Y-77077143D01*
X176070000Y-77220000D01*
X175998571Y-77291429D01*
X175855714Y-77362857D01*
X175355714Y-77362857D01*
X177498571Y-77148571D02*
X177498571Y-78148571D01*
X176855714Y-77148571D02*
X176855714Y-77934286D01*
X176927142Y-78077143D01*
X177070000Y-78148571D01*
X177284285Y-78148571D01*
X177427142Y-78077143D01*
X177498571Y-78005714D01*
X178141428Y-78077143D02*
X178284285Y-78148571D01*
X178570000Y-78148571D01*
X178712857Y-78077143D01*
X178784285Y-77934286D01*
X178784285Y-77862857D01*
X178712857Y-77720000D01*
X178570000Y-77648571D01*
X178355714Y-77648571D01*
X178212857Y-77577143D01*
X178141428Y-77434286D01*
X178141428Y-77362857D01*
X178212857Y-77220000D01*
X178355714Y-77148571D01*
X178570000Y-77148571D01*
X178712857Y-77220000D01*
D14*
X131770381Y-116300285D02*
X131770381Y-116871714D01*
X131770381Y-116586000D02*
X130770381Y-116586000D01*
X130913238Y-116681238D01*
X131008476Y-116776476D01*
X131056095Y-116871714D01*
X147320000Y-112395000D02*
X147320000Y-111125000D01*
X146685000Y-115570000D02*
X147320000Y-115570000D01*
X147320000Y-115570000D02*
X147320000Y-113665000D01*
X147320000Y-108585000D02*
X147320000Y-109855000D01*
X147320000Y-106045000D02*
X147320000Y-107315000D01*
X147320000Y-103505000D02*
X147320000Y-104775000D01*
X147320000Y-100965000D02*
X147320000Y-102235000D01*
X147320000Y-98425000D02*
X147320000Y-99695000D01*
X147320000Y-95250000D02*
X147320000Y-97155000D01*
X145415000Y-95250000D02*
X147320000Y-95250000D01*
X142875000Y-95250000D02*
X144145000Y-95250000D01*
X140335000Y-95250000D02*
X141605000Y-95250000D01*
X137795000Y-95250000D02*
X139065000Y-95250000D01*
X135255000Y-95250000D02*
X136525000Y-95250000D01*
X132715000Y-95250000D02*
X133985000Y-95250000D01*
X129540000Y-95250000D02*
X131445000Y-95250000D01*
X129540000Y-97155000D02*
X129540000Y-95250000D01*
X129540000Y-99695000D02*
X129540000Y-98425000D01*
X129540000Y-102235000D02*
X129540000Y-100965000D01*
X129540000Y-104775000D02*
X129540000Y-103505000D01*
X129540000Y-107315000D02*
X129540000Y-106045000D01*
X129540000Y-109855000D02*
X129540000Y-108585000D01*
X129540000Y-112395000D02*
X129540000Y-111125000D01*
X130810000Y-115570000D02*
X129540000Y-115570000D01*
X129540000Y-115570000D02*
X129540000Y-113665000D01*
X132080000Y-115570000D02*
X133350000Y-115570000D01*
X133993000Y-113038000D02*
X146677000Y-113038000D01*
X146677000Y-113038000D02*
X146677000Y-115562000D01*
X146677000Y-115562000D02*
X133993000Y-115562000D01*
X133993000Y-115562000D02*
X133993000Y-113038000D01*
X136525000Y-113038000D02*
X136525000Y-115562000D01*
X201168000Y-115316000D02*
X201168000Y-69596000D01*
X196088000Y-69596000D02*
X196088000Y-112776000D01*
X201168000Y-69596000D02*
X196088000Y-69596000D01*
X201168000Y-115316000D02*
X198628000Y-115316000D01*
X195808000Y-114046000D02*
X195808000Y-115596000D01*
X198628000Y-115316000D02*
X198628000Y-112776000D01*
X198628000Y-112776000D02*
X196088000Y-112776000D01*
X195808000Y-115596000D02*
X197358000Y-115596000D01*
X132588000Y-120396000D02*
X150368000Y-120396000D01*
X150368000Y-120396000D02*
X150368000Y-117856000D01*
X150368000Y-117856000D02*
X132588000Y-117856000D01*
X129768000Y-120676000D02*
X131318000Y-120676000D01*
X132588000Y-120396000D02*
X132588000Y-117856000D01*
X131318000Y-117576000D02*
X129768000Y-117576000D01*
X129768000Y-117576000D02*
X129768000Y-120676000D01*
X155448000Y-120396000D02*
X173228000Y-120396000D01*
X173228000Y-120396000D02*
X173228000Y-117856000D01*
X173228000Y-117856000D02*
X155448000Y-117856000D01*
X152628000Y-120676000D02*
X154178000Y-120676000D01*
X155448000Y-120396000D02*
X155448000Y-117856000D01*
X154178000Y-117576000D02*
X152628000Y-117576000D01*
X152628000Y-117576000D02*
X152628000Y-120676000D01*
X178308000Y-120396000D02*
X196088000Y-120396000D01*
X196088000Y-120396000D02*
X196088000Y-117856000D01*
X196088000Y-117856000D02*
X178308000Y-117856000D01*
X175488000Y-120676000D02*
X177038000Y-120676000D01*
X178308000Y-120396000D02*
X178308000Y-117856000D01*
X177038000Y-117576000D02*
X175488000Y-117576000D01*
X175488000Y-117576000D02*
X175488000Y-120676000D01*
X123444000Y-72136000D02*
X146304000Y-72136000D01*
X146304000Y-72136000D02*
X146304000Y-69596000D01*
X146304000Y-69596000D02*
X123444000Y-69596000D01*
X120624000Y-72416000D02*
X122174000Y-72416000D01*
X123444000Y-72136000D02*
X123444000Y-69596000D01*
X122174000Y-69316000D02*
X120624000Y-69316000D01*
X120624000Y-69316000D02*
X120624000Y-72416000D01*
X150368000Y-72136000D02*
X168148000Y-72136000D01*
X168148000Y-72136000D02*
X168148000Y-69596000D01*
X168148000Y-69596000D02*
X150368000Y-69596000D01*
X147548000Y-72416000D02*
X149098000Y-72416000D01*
X150368000Y-72136000D02*
X150368000Y-69596000D01*
X149098000Y-69316000D02*
X147548000Y-69316000D01*
X147548000Y-69316000D02*
X147548000Y-72416000D01*
X173228000Y-72136000D02*
X191008000Y-72136000D01*
X191008000Y-72136000D02*
X191008000Y-69596000D01*
X191008000Y-69596000D02*
X173228000Y-69596000D01*
X170408000Y-72416000D02*
X171958000Y-72416000D01*
X173228000Y-72136000D02*
X173228000Y-69596000D01*
X171958000Y-69316000D02*
X170408000Y-69316000D01*
X170408000Y-69316000D02*
X170408000Y-72416000D01*
X119634000Y-119126000D02*
G75*
G03X119634000Y-119126000I-2286000J0D01*
G01*
X171704000Y-114046000D02*
G75*
G03X171704000Y-114046000I-2286000J0D01*
G01*
X202184000Y-119126000D02*
G75*
G03X202184000Y-119126000I-2286000J0D01*
G01*
X120904000Y-70866000D02*
G75*
G03X120904000Y-70866000I-2286000J0D01*
G01*
X171704000Y-86106000D02*
G75*
G03X171704000Y-86106000I-2286000J0D01*
G01*
X195834000Y-70866000D02*
G75*
G03X195834000Y-70866000I-2286000J0D01*
G01*
D15*
X183365000Y-108755000D02*
X183365000Y-107165000D01*
X183365000Y-107165000D02*
X191285000Y-107165000D01*
X191285000Y-107165000D02*
X191285000Y-110005000D01*
X191285000Y-110005000D02*
X184615000Y-110005000D01*
X183115000Y-108855000D02*
X183115000Y-110255000D01*
X183115000Y-110255000D02*
X184515000Y-110255000D01*
X183365000Y-104310000D02*
X183365000Y-102720000D01*
X183365000Y-102720000D02*
X191285000Y-102720000D01*
X191285000Y-102720000D02*
X191285000Y-105560000D01*
X191285000Y-105560000D02*
X184615000Y-105560000D01*
X183115000Y-104410000D02*
X183115000Y-105810000D01*
X183115000Y-105810000D02*
X184515000Y-105810000D01*
X183365000Y-99865000D02*
X183365000Y-98275000D01*
X183365000Y-98275000D02*
X191285000Y-98275000D01*
X191285000Y-98275000D02*
X191285000Y-101115000D01*
X191285000Y-101115000D02*
X184615000Y-101115000D01*
X183115000Y-99965000D02*
X183115000Y-101365000D01*
X183115000Y-101365000D02*
X184515000Y-101365000D01*
X183365000Y-95420000D02*
X183365000Y-93830000D01*
X183365000Y-93830000D02*
X191285000Y-93830000D01*
X191285000Y-93830000D02*
X191285000Y-96670000D01*
X191285000Y-96670000D02*
X184615000Y-96670000D01*
X183115000Y-95520000D02*
X183115000Y-96920000D01*
X183115000Y-96920000D02*
X184515000Y-96920000D01*
X183365000Y-90975000D02*
X183365000Y-89385000D01*
X183365000Y-89385000D02*
X191285000Y-89385000D01*
X191285000Y-89385000D02*
X191285000Y-92225000D01*
X191285000Y-92225000D02*
X184615000Y-92225000D01*
X183115000Y-91075000D02*
X183115000Y-92475000D01*
X183115000Y-92475000D02*
X184515000Y-92475000D01*
X183365000Y-86530000D02*
X183365000Y-84940000D01*
X183365000Y-84940000D02*
X191285000Y-84940000D01*
X191285000Y-84940000D02*
X191285000Y-87780000D01*
X191285000Y-87780000D02*
X184615000Y-87780000D01*
X183115000Y-86630000D02*
X183115000Y-88030000D01*
X183115000Y-88030000D02*
X184515000Y-88030000D01*
X138580000Y-78570000D02*
X138580000Y-80160000D01*
X138580000Y-80160000D02*
X130660000Y-80160000D01*
X130660000Y-80160000D02*
X130660000Y-77320000D01*
X130660000Y-77320000D02*
X137330000Y-77320000D01*
X138830000Y-78470000D02*
X138830000Y-77070000D01*
X138830000Y-77070000D02*
X137430000Y-77070000D01*
X160170000Y-97620000D02*
X160170000Y-99210000D01*
X160170000Y-99210000D02*
X149710000Y-99210000D01*
X149710000Y-99210000D02*
X149710000Y-96370000D01*
X149710000Y-96370000D02*
X158920000Y-96370000D01*
X160420000Y-97520000D02*
X160420000Y-96120000D01*
X160420000Y-96120000D02*
X159020000Y-96120000D01*
X183365000Y-77640000D02*
X183365000Y-76050000D01*
X183365000Y-76050000D02*
X193825000Y-76050000D01*
X193825000Y-76050000D02*
X193825000Y-78890000D01*
X193825000Y-78890000D02*
X184615000Y-78890000D01*
X183115000Y-77740000D02*
X183115000Y-79140000D01*
X183115000Y-79140000D02*
X184515000Y-79140000D01*
X105410000Y-104140000D02*
X105410000Y-93980000D01*
X104140000Y-104140000D02*
X111760000Y-104140000D01*
X111760000Y-104140000D02*
X111760000Y-93980000D01*
X111760000Y-93980000D02*
X104140000Y-93980000D01*
X104140000Y-93980000D02*
X104140000Y-104140000D01*
X185905000Y-113200000D02*
X185905000Y-111610000D01*
X185905000Y-111610000D02*
X191285000Y-111610000D01*
X191285000Y-111610000D02*
X191285000Y-114450000D01*
X191285000Y-114450000D02*
X187155000Y-114450000D01*
X185655000Y-113300000D02*
X185655000Y-114700000D01*
X185655000Y-114700000D02*
X187055000Y-114700000D01*
D14*
X165100000Y-92710000D02*
X144780000Y-92710000D01*
X165100000Y-86360000D02*
X165100000Y-92710000D01*
X165100000Y-83820000D02*
G75*
G03X163830000Y-85090000I0J-1270000D01*
G01*
X163830000Y-85090000D02*
G75*
G03X165100000Y-86360000I1270000J0D01*
G01*
X144780000Y-92710000D02*
X144780000Y-77470000D01*
X144780000Y-77470000D02*
X165100000Y-77470000D01*
X165100000Y-77470000D02*
X165100000Y-83820000D01*
X148253571Y-113642857D02*
X148253571Y-114500000D01*
X148196429Y-114671429D01*
X148082143Y-114785714D01*
X147910714Y-114842857D01*
X147796429Y-114842857D01*
X149453572Y-114842857D02*
X148767857Y-114842857D01*
X149110715Y-114842857D02*
X149110715Y-113642857D01*
X148996429Y-113814286D01*
X148882143Y-113928571D01*
X148767857Y-113985714D01*
X149853572Y-113642857D02*
X150596429Y-113642857D01*
X150196429Y-114100000D01*
X150367857Y-114100000D01*
X150482143Y-114157143D01*
X150539286Y-114214286D01*
X150596429Y-114328571D01*
X150596429Y-114614286D01*
X150539286Y-114728571D01*
X150482143Y-114785714D01*
X150367857Y-114842857D01*
X150025000Y-114842857D01*
X149910714Y-114785714D01*
X149853572Y-114728571D01*
X195016381Y-93194095D02*
X194016381Y-93194095D01*
X194016381Y-92813142D01*
X194064000Y-92717904D01*
X194111619Y-92670285D01*
X194206857Y-92622666D01*
X194349714Y-92622666D01*
X194444952Y-92670285D01*
X194492571Y-92717904D01*
X194540190Y-92813142D01*
X194540190Y-93194095D01*
X195016381Y-91670285D02*
X195016381Y-92241714D01*
X195016381Y-91956000D02*
X194016381Y-91956000D01*
X194159238Y-92051238D01*
X194254476Y-92146476D01*
X194302095Y-92241714D01*
X148486905Y-117292381D02*
X148486905Y-116292381D01*
X148867858Y-116292381D01*
X148963096Y-116340000D01*
X149010715Y-116387619D01*
X149058334Y-116482857D01*
X149058334Y-116625714D01*
X149010715Y-116720952D01*
X148963096Y-116768571D01*
X148867858Y-116816190D01*
X148486905Y-116816190D01*
X149439286Y-116387619D02*
X149486905Y-116340000D01*
X149582143Y-116292381D01*
X149820239Y-116292381D01*
X149915477Y-116340000D01*
X149963096Y-116387619D01*
X150010715Y-116482857D01*
X150010715Y-116578095D01*
X149963096Y-116720952D01*
X149391667Y-117292381D01*
X150010715Y-117292381D01*
X162329905Y-117038381D02*
X162329905Y-116038381D01*
X162710858Y-116038381D01*
X162806096Y-116086000D01*
X162853715Y-116133619D01*
X162901334Y-116228857D01*
X162901334Y-116371714D01*
X162853715Y-116466952D01*
X162806096Y-116514571D01*
X162710858Y-116562190D01*
X162329905Y-116562190D01*
X163234667Y-116038381D02*
X163853715Y-116038381D01*
X163520381Y-116419333D01*
X163663239Y-116419333D01*
X163758477Y-116466952D01*
X163806096Y-116514571D01*
X163853715Y-116609810D01*
X163853715Y-116847905D01*
X163806096Y-116943143D01*
X163758477Y-116990762D01*
X163663239Y-117038381D01*
X163377524Y-117038381D01*
X163282286Y-116990762D01*
X163234667Y-116943143D01*
X185189905Y-116784381D02*
X185189905Y-115784381D01*
X185570858Y-115784381D01*
X185666096Y-115832000D01*
X185713715Y-115879619D01*
X185761334Y-115974857D01*
X185761334Y-116117714D01*
X185713715Y-116212952D01*
X185666096Y-116260571D01*
X185570858Y-116308190D01*
X185189905Y-116308190D01*
X186618477Y-116117714D02*
X186618477Y-116784381D01*
X186380381Y-115736762D02*
X186142286Y-116451048D01*
X186761334Y-116451048D01*
X132865905Y-74112381D02*
X132865905Y-73112381D01*
X133246858Y-73112381D01*
X133342096Y-73160000D01*
X133389715Y-73207619D01*
X133437334Y-73302857D01*
X133437334Y-73445714D01*
X133389715Y-73540952D01*
X133342096Y-73588571D01*
X133246858Y-73636190D01*
X132865905Y-73636190D01*
X134342096Y-73112381D02*
X133865905Y-73112381D01*
X133818286Y-73588571D01*
X133865905Y-73540952D01*
X133961143Y-73493333D01*
X134199239Y-73493333D01*
X134294477Y-73540952D01*
X134342096Y-73588571D01*
X134389715Y-73683810D01*
X134389715Y-73921905D01*
X134342096Y-74017143D01*
X134294477Y-74064762D01*
X134199239Y-74112381D01*
X133961143Y-74112381D01*
X133865905Y-74064762D01*
X133818286Y-74017143D01*
X157249905Y-74112381D02*
X157249905Y-73112381D01*
X157630858Y-73112381D01*
X157726096Y-73160000D01*
X157773715Y-73207619D01*
X157821334Y-73302857D01*
X157821334Y-73445714D01*
X157773715Y-73540952D01*
X157726096Y-73588571D01*
X157630858Y-73636190D01*
X157249905Y-73636190D01*
X158678477Y-73112381D02*
X158488000Y-73112381D01*
X158392762Y-73160000D01*
X158345143Y-73207619D01*
X158249905Y-73350476D01*
X158202286Y-73540952D01*
X158202286Y-73921905D01*
X158249905Y-74017143D01*
X158297524Y-74064762D01*
X158392762Y-74112381D01*
X158583239Y-74112381D01*
X158678477Y-74064762D01*
X158726096Y-74017143D01*
X158773715Y-73921905D01*
X158773715Y-73683810D01*
X158726096Y-73588571D01*
X158678477Y-73540952D01*
X158583239Y-73493333D01*
X158392762Y-73493333D01*
X158297524Y-73540952D01*
X158249905Y-73588571D01*
X158202286Y-73683810D01*
X180109905Y-74112381D02*
X180109905Y-73112381D01*
X180490858Y-73112381D01*
X180586096Y-73160000D01*
X180633715Y-73207619D01*
X180681334Y-73302857D01*
X180681334Y-73445714D01*
X180633715Y-73540952D01*
X180586096Y-73588571D01*
X180490858Y-73636190D01*
X180109905Y-73636190D01*
X181014667Y-73112381D02*
X181681334Y-73112381D01*
X181252762Y-74112381D01*
X181276667Y-108037381D02*
X181276667Y-108751667D01*
X181229047Y-108894524D01*
X181133809Y-108989762D01*
X180990952Y-109037381D01*
X180895714Y-109037381D01*
X182276667Y-109037381D02*
X181705238Y-109037381D01*
X181990952Y-109037381D02*
X181990952Y-108037381D01*
X181895714Y-108180238D01*
X181800476Y-108275476D01*
X181705238Y-108323095D01*
X181276667Y-103592381D02*
X181276667Y-104306667D01*
X181229047Y-104449524D01*
X181133809Y-104544762D01*
X180990952Y-104592381D01*
X180895714Y-104592381D01*
X181705238Y-103687619D02*
X181752857Y-103640000D01*
X181848095Y-103592381D01*
X182086191Y-103592381D01*
X182181429Y-103640000D01*
X182229048Y-103687619D01*
X182276667Y-103782857D01*
X182276667Y-103878095D01*
X182229048Y-104020952D01*
X181657619Y-104592381D01*
X182276667Y-104592381D01*
X181276667Y-99147381D02*
X181276667Y-99861667D01*
X181229047Y-100004524D01*
X181133809Y-100099762D01*
X180990952Y-100147381D01*
X180895714Y-100147381D01*
X181657619Y-99147381D02*
X182276667Y-99147381D01*
X181943333Y-99528333D01*
X182086191Y-99528333D01*
X182181429Y-99575952D01*
X182229048Y-99623571D01*
X182276667Y-99718810D01*
X182276667Y-99956905D01*
X182229048Y-100052143D01*
X182181429Y-100099762D01*
X182086191Y-100147381D01*
X181800476Y-100147381D01*
X181705238Y-100099762D01*
X181657619Y-100052143D01*
X181276667Y-94702381D02*
X181276667Y-95416667D01*
X181229047Y-95559524D01*
X181133809Y-95654762D01*
X180990952Y-95702381D01*
X180895714Y-95702381D01*
X182181429Y-95035714D02*
X182181429Y-95702381D01*
X181943333Y-94654762D02*
X181705238Y-95369048D01*
X182324286Y-95369048D01*
X181276667Y-90257381D02*
X181276667Y-90971667D01*
X181229047Y-91114524D01*
X181133809Y-91209762D01*
X180990952Y-91257381D01*
X180895714Y-91257381D01*
X182229048Y-90257381D02*
X181752857Y-90257381D01*
X181705238Y-90733571D01*
X181752857Y-90685952D01*
X181848095Y-90638333D01*
X182086191Y-90638333D01*
X182181429Y-90685952D01*
X182229048Y-90733571D01*
X182276667Y-90828810D01*
X182276667Y-91066905D01*
X182229048Y-91162143D01*
X182181429Y-91209762D01*
X182086191Y-91257381D01*
X181848095Y-91257381D01*
X181752857Y-91209762D01*
X181705238Y-91162143D01*
X181276667Y-85812381D02*
X181276667Y-86526667D01*
X181229047Y-86669524D01*
X181133809Y-86764762D01*
X180990952Y-86812381D01*
X180895714Y-86812381D01*
X182181429Y-85812381D02*
X181990952Y-85812381D01*
X181895714Y-85860000D01*
X181848095Y-85907619D01*
X181752857Y-86050476D01*
X181705238Y-86240952D01*
X181705238Y-86621905D01*
X181752857Y-86717143D01*
X181800476Y-86764762D01*
X181895714Y-86812381D01*
X182086191Y-86812381D01*
X182181429Y-86764762D01*
X182229048Y-86717143D01*
X182276667Y-86621905D01*
X182276667Y-86383810D01*
X182229048Y-86288571D01*
X182181429Y-86240952D01*
X182086191Y-86193333D01*
X181895714Y-86193333D01*
X181800476Y-86240952D01*
X181752857Y-86288571D01*
X181705238Y-86383810D01*
X134286667Y-75922381D02*
X134286667Y-76636667D01*
X134239047Y-76779524D01*
X134143809Y-76874762D01*
X134000952Y-76922381D01*
X133905714Y-76922381D01*
X134667619Y-75922381D02*
X135334286Y-75922381D01*
X134905714Y-76922381D01*
X161591667Y-97242381D02*
X161591667Y-97956667D01*
X161544047Y-98099524D01*
X161448809Y-98194762D01*
X161305952Y-98242381D01*
X161210714Y-98242381D01*
X162115476Y-98242381D02*
X162305952Y-98242381D01*
X162401191Y-98194762D01*
X162448810Y-98147143D01*
X162544048Y-98004286D01*
X162591667Y-97813810D01*
X162591667Y-97432857D01*
X162544048Y-97337619D01*
X162496429Y-97290000D01*
X162401191Y-97242381D01*
X162210714Y-97242381D01*
X162115476Y-97290000D01*
X162067857Y-97337619D01*
X162020238Y-97432857D01*
X162020238Y-97670952D01*
X162067857Y-97766190D01*
X162115476Y-97813810D01*
X162210714Y-97861429D01*
X162401191Y-97861429D01*
X162496429Y-97813810D01*
X162544048Y-97766190D01*
X162591667Y-97670952D01*
X180165477Y-76922381D02*
X180165477Y-77636667D01*
X180117857Y-77779524D01*
X180022619Y-77874762D01*
X179879762Y-77922381D01*
X179784524Y-77922381D01*
X181165477Y-77922381D02*
X180594048Y-77922381D01*
X180879762Y-77922381D02*
X180879762Y-76922381D01*
X180784524Y-77065238D01*
X180689286Y-77160476D01*
X180594048Y-77208095D01*
X182117858Y-77922381D02*
X181546429Y-77922381D01*
X181832143Y-77922381D02*
X181832143Y-76922381D01*
X181736905Y-77065238D01*
X181641667Y-77160476D01*
X181546429Y-77208095D01*
X107775477Y-91527381D02*
X107775477Y-92241667D01*
X107727857Y-92384524D01*
X107632619Y-92479762D01*
X107489762Y-92527381D01*
X107394524Y-92527381D01*
X108775477Y-92527381D02*
X108204048Y-92527381D01*
X108489762Y-92527381D02*
X108489762Y-91527381D01*
X108394524Y-91670238D01*
X108299286Y-91765476D01*
X108204048Y-91813095D01*
X109156429Y-91622619D02*
X109204048Y-91575000D01*
X109299286Y-91527381D01*
X109537382Y-91527381D01*
X109632620Y-91575000D01*
X109680239Y-91622619D01*
X109727858Y-91717857D01*
X109727858Y-91813095D01*
X109680239Y-91955952D01*
X109108810Y-92527381D01*
X109727858Y-92527381D01*
X182705477Y-112482381D02*
X182705477Y-113196667D01*
X182657857Y-113339524D01*
X182562619Y-113434762D01*
X182419762Y-113482381D01*
X182324524Y-113482381D01*
X183705477Y-113482381D02*
X183134048Y-113482381D01*
X183419762Y-113482381D02*
X183419762Y-112482381D01*
X183324524Y-112625238D01*
X183229286Y-112720476D01*
X183134048Y-112768095D01*
X184562620Y-112815714D02*
X184562620Y-113482381D01*
X184324524Y-112434762D02*
X184086429Y-113149048D01*
X184705477Y-113149048D01*
X165970000Y-78082857D02*
X165970000Y-78940000D01*
X165912858Y-79111429D01*
X165798572Y-79225714D01*
X165627143Y-79282857D01*
X165512858Y-79282857D01*
X166712858Y-78597143D02*
X166598572Y-78540000D01*
X166541429Y-78482857D01*
X166484286Y-78368571D01*
X166484286Y-78311429D01*
X166541429Y-78197143D01*
X166598572Y-78140000D01*
X166712858Y-78082857D01*
X166941429Y-78082857D01*
X167055715Y-78140000D01*
X167112858Y-78197143D01*
X167170001Y-78311429D01*
X167170001Y-78368571D01*
X167112858Y-78482857D01*
X167055715Y-78540000D01*
X166941429Y-78597143D01*
X166712858Y-78597143D01*
X166598572Y-78654286D01*
X166541429Y-78711429D01*
X166484286Y-78825714D01*
X166484286Y-79054286D01*
X166541429Y-79168571D01*
X166598572Y-79225714D01*
X166712858Y-79282857D01*
X166941429Y-79282857D01*
X167055715Y-79225714D01*
X167112858Y-79168571D01*
X167170001Y-79054286D01*
X167170001Y-78825714D01*
X167112858Y-78711429D01*
X167055715Y-78654286D01*
X166941429Y-78597143D01*
M02*
