M48
;DRILL file {KiCad 4.0.7} date 03/21/18 16:14:46
;FORMAT={-:-/ absolute / inch / decimal}
FMAT,2
INCH,TZ
T1C0.037
T2C0.040
T3C0.060
T4C0.086
T5C0.120
%
G90
G05
M72
T1
X5.2Y-3.1
X5.3Y-3.1
X5.4Y-3.1
X5.95Y-3.85
X6.05Y-3.85
X6.15Y-3.85
X6.25Y-3.85
X7.275Y-3.05
X7.275Y-3.4
X7.275Y-3.575
X7.275Y-3.75
X7.275Y-3.925
X7.275Y-4.1
X7.275Y-4.275
X7.375Y-3.05
X7.375Y-3.4
X7.375Y-3.575
X7.375Y-3.75
X7.375Y-3.925
X7.375Y-4.1
X7.375Y-4.275
X7.375Y-4.45
X7.475Y-3.05
X7.475Y-3.4
X7.475Y-3.575
X7.475Y-3.75
X7.475Y-3.925
X7.475Y-4.1
X7.475Y-4.275
X7.475Y-4.45
X7.575Y-3.05
T2
X4.81Y-2.79
X4.91Y-2.79
X5.01Y-2.79
X5.11Y-2.79
X5.17Y-4.69
X5.21Y-2.79
X5.27Y-4.69
X5.31Y-2.79
X5.325Y-4.5
X5.37Y-4.69
X5.41Y-2.79
X5.425Y-4.5
X5.47Y-4.69
X5.51Y-2.79
X5.525Y-4.5
X5.57Y-4.69
X5.61Y-2.79
X5.625Y-4.5
X5.67Y-4.69
X5.71Y-2.79
X5.725Y-4.5
X5.75Y-3.1
X5.75Y-3.6
X5.77Y-4.69
X5.85Y-3.1
X5.85Y-3.6
X5.87Y-2.79
X5.87Y-4.69
X5.95Y-3.1
X5.95Y-3.6
X5.97Y-2.79
X6.05Y-3.1
X6.05Y-3.6
X6.07Y-2.79
X6.07Y-4.69
X6.15Y-3.1
X6.15Y-3.6
X6.17Y-2.79
X6.17Y-4.69
X6.25Y-3.1
X6.25Y-3.6
X6.27Y-2.79
X6.27Y-4.69
X6.35Y-3.1
X6.35Y-3.6
X6.37Y-2.79
X6.37Y-4.69
X6.45Y-3.1
X6.45Y-3.6
X6.47Y-2.79
X6.47Y-4.69
X6.57Y-2.79
X6.57Y-4.69
X6.67Y-4.69
X6.77Y-2.79
X6.77Y-4.69
X6.87Y-2.79
X6.97Y-2.79
X6.97Y-4.69
X7.07Y-2.79
X7.07Y-4.69
X7.17Y-2.79
X7.17Y-4.69
X7.27Y-2.79
X7.27Y-4.69
X7.37Y-2.79
X7.37Y-4.69
X7.47Y-2.79
X7.47Y-4.69
X7.57Y-4.69
X7.67Y-4.69
X7.77Y-2.79
X7.77Y-2.89
X7.77Y-2.99
X7.77Y-3.09
X7.77Y-3.19
X7.77Y-3.29
X7.77Y-3.39
X7.77Y-3.49
X7.77Y-3.59
X7.77Y-3.69
X7.77Y-3.79
X7.77Y-3.89
X7.77Y-3.99
X7.77Y-4.09
X7.77Y-4.19
X7.77Y-4.29
X7.77Y-4.39
X7.77Y-4.49
X7.87Y-2.79
X7.87Y-2.89
X7.87Y-2.99
X7.87Y-3.09
X7.87Y-3.19
X7.87Y-3.29
X7.87Y-3.39
X7.87Y-3.49
X7.87Y-3.59
X7.87Y-3.69
X7.87Y-3.79
X7.87Y-3.89
X7.87Y-3.99
X7.87Y-4.09
X7.87Y-4.19
X7.87Y-4.29
X7.87Y-4.39
X7.87Y-4.49
T3
X4.25Y-3.8
X4.25Y-4.
T4
X5.185Y-4.465
X5.715Y-3.835
T5
X4.62Y-4.69
X4.67Y-2.79
X6.67Y-3.39
X6.67Y-4.49
X7.62Y-2.79
X7.87Y-4.69
T0
M30
