G04 #@! TF.FileFunction,Copper,L1,Top,Signal*
%FSLAX46Y46*%
G04 Gerber Fmt 4.6, Leading zero omitted, Abs format (unit mm)*
G04 Created by KiCad (PCBNEW 4.0.7) date 03/20/18 22:31:40*
%MOMM*%
%LPD*%
G01*
G04 APERTURE LIST*
%ADD10C,0.100000*%
%ADD11C,1.905000*%
%ADD12C,3.048000*%
%ADD13C,1.727200*%
%ADD14O,1.727200X1.727200*%
%ADD15O,1.727200X2.032000*%
%ADD16C,4.064000*%
%ADD17R,2.000000X2.000000*%
%ADD18C,2.000000*%
%ADD19R,3.000000X3.000000*%
%ADD20C,3.000000*%
%ADD21C,0.254000*%
G04 APERTURE END LIST*
D10*
D11*
X135255000Y-114300000D03*
X137795000Y-114300000D03*
X140335000Y-114300000D03*
X142875000Y-114300000D03*
X145415000Y-114300000D03*
D12*
X131699000Y-113411000D03*
X145161000Y-97409000D03*
D13*
X197358000Y-114046000D03*
D14*
X199898000Y-114046000D03*
X197358000Y-111506000D03*
X199898000Y-111506000D03*
X197358000Y-108966000D03*
X199898000Y-108966000D03*
X197358000Y-106426000D03*
X199898000Y-106426000D03*
X197358000Y-103886000D03*
X199898000Y-103886000D03*
X197358000Y-101346000D03*
X199898000Y-101346000D03*
X197358000Y-98806000D03*
X199898000Y-98806000D03*
X197358000Y-96266000D03*
X199898000Y-96266000D03*
X197358000Y-93726000D03*
X199898000Y-93726000D03*
X197358000Y-91186000D03*
X199898000Y-91186000D03*
X197358000Y-88646000D03*
X199898000Y-88646000D03*
X197358000Y-86106000D03*
X199898000Y-86106000D03*
X197358000Y-83566000D03*
X199898000Y-83566000D03*
X197358000Y-81026000D03*
X199898000Y-81026000D03*
X197358000Y-78486000D03*
X199898000Y-78486000D03*
X197358000Y-75946000D03*
X199898000Y-75946000D03*
X197358000Y-73406000D03*
X199898000Y-73406000D03*
X197358000Y-70866000D03*
X199898000Y-70866000D03*
D15*
X131318000Y-119126000D03*
X133858000Y-119126000D03*
X136398000Y-119126000D03*
X138938000Y-119126000D03*
X141478000Y-119126000D03*
X144018000Y-119126000D03*
X146558000Y-119126000D03*
X149098000Y-119126000D03*
X154178000Y-119126000D03*
X156718000Y-119126000D03*
X159258000Y-119126000D03*
X161798000Y-119126000D03*
X164338000Y-119126000D03*
X166878000Y-119126000D03*
X169418000Y-119126000D03*
X171958000Y-119126000D03*
X177038000Y-119126000D03*
X179578000Y-119126000D03*
X182118000Y-119126000D03*
X184658000Y-119126000D03*
X187198000Y-119126000D03*
X189738000Y-119126000D03*
X192278000Y-119126000D03*
X194818000Y-119126000D03*
X122174000Y-70866000D03*
X124714000Y-70866000D03*
X127254000Y-70866000D03*
X129794000Y-70866000D03*
X132334000Y-70866000D03*
X134874000Y-70866000D03*
X137414000Y-70866000D03*
X139954000Y-70866000D03*
X142494000Y-70866000D03*
X145034000Y-70866000D03*
X149098000Y-70866000D03*
X151638000Y-70866000D03*
X154178000Y-70866000D03*
X156718000Y-70866000D03*
X159258000Y-70866000D03*
X161798000Y-70866000D03*
X164338000Y-70866000D03*
X166878000Y-70866000D03*
X171958000Y-70866000D03*
X174498000Y-70866000D03*
X177038000Y-70866000D03*
X179578000Y-70866000D03*
X182118000Y-70866000D03*
X184658000Y-70866000D03*
X187198000Y-70866000D03*
X189738000Y-70866000D03*
D16*
X117348000Y-119126000D03*
X169418000Y-114046000D03*
X199898000Y-119126000D03*
X118618000Y-70866000D03*
X169418000Y-86106000D03*
X193548000Y-70866000D03*
D17*
X184785000Y-108585000D03*
D18*
X187325000Y-108585000D03*
X189865000Y-108585000D03*
D17*
X184785000Y-104140000D03*
D18*
X187325000Y-104140000D03*
X189865000Y-104140000D03*
D17*
X184785000Y-99695000D03*
D18*
X187325000Y-99695000D03*
X189865000Y-99695000D03*
D17*
X184785000Y-95250000D03*
D18*
X187325000Y-95250000D03*
X189865000Y-95250000D03*
D17*
X184785000Y-90805000D03*
D18*
X187325000Y-90805000D03*
X189865000Y-90805000D03*
D17*
X184785000Y-86360000D03*
D18*
X187325000Y-86360000D03*
X189865000Y-86360000D03*
D17*
X137160000Y-78740000D03*
D18*
X134620000Y-78740000D03*
X132080000Y-78740000D03*
D17*
X158750000Y-97790000D03*
D18*
X156210000Y-97790000D03*
X153670000Y-97790000D03*
X151130000Y-97790000D03*
D17*
X184785000Y-77470000D03*
D18*
X187325000Y-77470000D03*
X189865000Y-77470000D03*
X192405000Y-77470000D03*
D19*
X107950000Y-96520000D03*
D20*
X107950000Y-101600000D03*
D17*
X187325000Y-113030000D03*
D18*
X189865000Y-113030000D03*
D11*
X163830000Y-91440000D03*
X163830000Y-78740000D03*
X161290000Y-91440000D03*
X161290000Y-78740000D03*
X158750000Y-91440000D03*
X158750000Y-78740000D03*
X156210000Y-91440000D03*
X156210000Y-78740000D03*
X153670000Y-91440000D03*
X153670000Y-78740000D03*
X151130000Y-91440000D03*
X151130000Y-78740000D03*
X148590000Y-91440000D03*
X148590000Y-78740000D03*
X146050000Y-91440000D03*
X146050000Y-78740000D03*
D21*
G36*
X115857825Y-69174577D02*
X115420651Y-70359603D01*
X115470245Y-71621722D01*
X115857825Y-72557423D01*
X116359146Y-72765644D01*
X118258790Y-70866000D01*
X118244648Y-70851858D01*
X118603858Y-70492648D01*
X118618000Y-70506790D01*
X118632143Y-70492648D01*
X118991353Y-70851858D01*
X118977210Y-70866000D01*
X120876854Y-72765644D01*
X121378175Y-72557423D01*
X121458295Y-72340245D01*
X121600511Y-72435271D01*
X122174000Y-72549345D01*
X122747489Y-72435271D01*
X123233670Y-72110415D01*
X123444000Y-71795634D01*
X123654330Y-72110415D01*
X124140511Y-72435271D01*
X124714000Y-72549345D01*
X125287489Y-72435271D01*
X125773670Y-72110415D01*
X125984000Y-71795634D01*
X126194330Y-72110415D01*
X126680511Y-72435271D01*
X127254000Y-72549345D01*
X127827489Y-72435271D01*
X128187386Y-72194795D01*
X128700529Y-72696287D01*
X129231751Y-72944619D01*
X129540000Y-72720401D01*
X129540000Y-71120000D01*
X129520000Y-71120000D01*
X129520000Y-70612000D01*
X129540000Y-70612000D01*
X129540000Y-70592000D01*
X130048000Y-70592000D01*
X130048000Y-70612000D01*
X130068000Y-70612000D01*
X130068000Y-71120000D01*
X130048000Y-71120000D01*
X130048000Y-72720401D01*
X130356249Y-72944619D01*
X130887471Y-72696287D01*
X131400614Y-72194795D01*
X131760511Y-72435271D01*
X132334000Y-72549345D01*
X132907489Y-72435271D01*
X133393670Y-72110415D01*
X133604000Y-71795634D01*
X133814330Y-72110415D01*
X134300511Y-72435271D01*
X134874000Y-72549345D01*
X135447489Y-72435271D01*
X135933670Y-72110415D01*
X136144000Y-71795634D01*
X136354330Y-72110415D01*
X136840511Y-72435271D01*
X137414000Y-72549345D01*
X137987489Y-72435271D01*
X138473670Y-72110415D01*
X138684000Y-71795634D01*
X138894330Y-72110415D01*
X139380511Y-72435271D01*
X139954000Y-72549345D01*
X140527489Y-72435271D01*
X141013670Y-72110415D01*
X141224000Y-71795634D01*
X141434330Y-72110415D01*
X141920511Y-72435271D01*
X142494000Y-72549345D01*
X143067489Y-72435271D01*
X143553670Y-72110415D01*
X143764000Y-71795634D01*
X143974330Y-72110415D01*
X144460511Y-72435271D01*
X145034000Y-72549345D01*
X145607489Y-72435271D01*
X146093670Y-72110415D01*
X146418526Y-71624234D01*
X146532600Y-71050745D01*
X146532600Y-70681255D01*
X147599400Y-70681255D01*
X147599400Y-71050745D01*
X147713474Y-71624234D01*
X148038330Y-72110415D01*
X148524511Y-72435271D01*
X149098000Y-72549345D01*
X149671489Y-72435271D01*
X150157670Y-72110415D01*
X150368000Y-71795634D01*
X150578330Y-72110415D01*
X151064511Y-72435271D01*
X151638000Y-72549345D01*
X152211489Y-72435271D01*
X152697670Y-72110415D01*
X152908000Y-71795634D01*
X153118330Y-72110415D01*
X153604511Y-72435271D01*
X154178000Y-72549345D01*
X154751489Y-72435271D01*
X155237670Y-72110415D01*
X155448000Y-71795634D01*
X155658330Y-72110415D01*
X156144511Y-72435271D01*
X156718000Y-72549345D01*
X157291489Y-72435271D01*
X157777670Y-72110415D01*
X157988000Y-71795634D01*
X158198330Y-72110415D01*
X158684511Y-72435271D01*
X159258000Y-72549345D01*
X159831489Y-72435271D01*
X160317670Y-72110415D01*
X160528000Y-71795634D01*
X160738330Y-72110415D01*
X161224511Y-72435271D01*
X161798000Y-72549345D01*
X162371489Y-72435271D01*
X162857670Y-72110415D01*
X163068000Y-71795634D01*
X163278330Y-72110415D01*
X163764511Y-72435271D01*
X164338000Y-72549345D01*
X164911489Y-72435271D01*
X165397670Y-72110415D01*
X165608000Y-71795634D01*
X165818330Y-72110415D01*
X166304511Y-72435271D01*
X166878000Y-72549345D01*
X167451489Y-72435271D01*
X167937670Y-72110415D01*
X168262526Y-71624234D01*
X168376600Y-71050745D01*
X168376600Y-70681255D01*
X168262526Y-70107766D01*
X167937670Y-69621585D01*
X167451489Y-69296729D01*
X166878000Y-69182655D01*
X166304511Y-69296729D01*
X165818330Y-69621585D01*
X165608000Y-69936366D01*
X165397670Y-69621585D01*
X164911489Y-69296729D01*
X164338000Y-69182655D01*
X163764511Y-69296729D01*
X163278330Y-69621585D01*
X163068000Y-69936366D01*
X162857670Y-69621585D01*
X162371489Y-69296729D01*
X161798000Y-69182655D01*
X161224511Y-69296729D01*
X160738330Y-69621585D01*
X160528000Y-69936366D01*
X160317670Y-69621585D01*
X159831489Y-69296729D01*
X159258000Y-69182655D01*
X158684511Y-69296729D01*
X158198330Y-69621585D01*
X157988000Y-69936366D01*
X157777670Y-69621585D01*
X157291489Y-69296729D01*
X156718000Y-69182655D01*
X156144511Y-69296729D01*
X155658330Y-69621585D01*
X155448000Y-69936366D01*
X155237670Y-69621585D01*
X154751489Y-69296729D01*
X154178000Y-69182655D01*
X153604511Y-69296729D01*
X153118330Y-69621585D01*
X152908000Y-69936366D01*
X152697670Y-69621585D01*
X152211489Y-69296729D01*
X151638000Y-69182655D01*
X151064511Y-69296729D01*
X150578330Y-69621585D01*
X150368000Y-69936366D01*
X150157670Y-69621585D01*
X149671489Y-69296729D01*
X149098000Y-69182655D01*
X148524511Y-69296729D01*
X148038330Y-69621585D01*
X147713474Y-70107766D01*
X147599400Y-70681255D01*
X146532600Y-70681255D01*
X146418526Y-70107766D01*
X146093670Y-69621585D01*
X145607489Y-69296729D01*
X145034000Y-69182655D01*
X144460511Y-69296729D01*
X143974330Y-69621585D01*
X143764000Y-69936366D01*
X143553670Y-69621585D01*
X143067489Y-69296729D01*
X142494000Y-69182655D01*
X141920511Y-69296729D01*
X141434330Y-69621585D01*
X141224000Y-69936366D01*
X141013670Y-69621585D01*
X140527489Y-69296729D01*
X139954000Y-69182655D01*
X139380511Y-69296729D01*
X138894330Y-69621585D01*
X138684000Y-69936366D01*
X138473670Y-69621585D01*
X137987489Y-69296729D01*
X137414000Y-69182655D01*
X136840511Y-69296729D01*
X136354330Y-69621585D01*
X136144000Y-69936366D01*
X135933670Y-69621585D01*
X135447489Y-69296729D01*
X134874000Y-69182655D01*
X134300511Y-69296729D01*
X133814330Y-69621585D01*
X133604000Y-69936366D01*
X133393670Y-69621585D01*
X132907489Y-69296729D01*
X132334000Y-69182655D01*
X131760511Y-69296729D01*
X131400614Y-69537205D01*
X130887765Y-69036000D01*
X191121468Y-69036000D01*
X190787825Y-69174577D01*
X190657475Y-69527910D01*
X190311489Y-69296729D01*
X189738000Y-69182655D01*
X189164511Y-69296729D01*
X188678330Y-69621585D01*
X188468000Y-69936366D01*
X188257670Y-69621585D01*
X187771489Y-69296729D01*
X187198000Y-69182655D01*
X186624511Y-69296729D01*
X186138330Y-69621585D01*
X185928000Y-69936366D01*
X185717670Y-69621585D01*
X185231489Y-69296729D01*
X184658000Y-69182655D01*
X184084511Y-69296729D01*
X183598330Y-69621585D01*
X183388000Y-69936366D01*
X183177670Y-69621585D01*
X182691489Y-69296729D01*
X182118000Y-69182655D01*
X181544511Y-69296729D01*
X181058330Y-69621585D01*
X180848000Y-69936366D01*
X180637670Y-69621585D01*
X180151489Y-69296729D01*
X179578000Y-69182655D01*
X179004511Y-69296729D01*
X178518330Y-69621585D01*
X178308000Y-69936366D01*
X178097670Y-69621585D01*
X177611489Y-69296729D01*
X177038000Y-69182655D01*
X176464511Y-69296729D01*
X175978330Y-69621585D01*
X175768000Y-69936366D01*
X175557670Y-69621585D01*
X175071489Y-69296729D01*
X174498000Y-69182655D01*
X173924511Y-69296729D01*
X173438330Y-69621585D01*
X173228000Y-69936366D01*
X173017670Y-69621585D01*
X172531489Y-69296729D01*
X171958000Y-69182655D01*
X171384511Y-69296729D01*
X170898330Y-69621585D01*
X170573474Y-70107766D01*
X170459400Y-70681255D01*
X170459400Y-71050745D01*
X170573474Y-71624234D01*
X170898330Y-72110415D01*
X171384511Y-72435271D01*
X171958000Y-72549345D01*
X172531489Y-72435271D01*
X173017670Y-72110415D01*
X173228000Y-71795634D01*
X173438330Y-72110415D01*
X173924511Y-72435271D01*
X174498000Y-72549345D01*
X175071489Y-72435271D01*
X175557670Y-72110415D01*
X175768000Y-71795634D01*
X175978330Y-72110415D01*
X176464511Y-72435271D01*
X177038000Y-72549345D01*
X177611489Y-72435271D01*
X178097670Y-72110415D01*
X178308000Y-71795634D01*
X178518330Y-72110415D01*
X179004511Y-72435271D01*
X179578000Y-72549345D01*
X180151489Y-72435271D01*
X180637670Y-72110415D01*
X180848000Y-71795634D01*
X181058330Y-72110415D01*
X181544511Y-72435271D01*
X182118000Y-72549345D01*
X182691489Y-72435271D01*
X183177670Y-72110415D01*
X183388000Y-71795634D01*
X183598330Y-72110415D01*
X184084511Y-72435271D01*
X184658000Y-72549345D01*
X185231489Y-72435271D01*
X185717670Y-72110415D01*
X185928000Y-71795634D01*
X186138330Y-72110415D01*
X186624511Y-72435271D01*
X187198000Y-72549345D01*
X187771489Y-72435271D01*
X188257670Y-72110415D01*
X188468000Y-71795634D01*
X188678330Y-72110415D01*
X189164511Y-72435271D01*
X189738000Y-72549345D01*
X190311489Y-72435271D01*
X190644939Y-72212466D01*
X190787825Y-72557423D01*
X191289146Y-72765644D01*
X193188790Y-70866000D01*
X193174648Y-70851858D01*
X193533858Y-70492648D01*
X193548000Y-70506790D01*
X193562143Y-70492648D01*
X193921353Y-70851858D01*
X193907210Y-70866000D01*
X195806854Y-72765644D01*
X196072167Y-72655448D01*
X195973474Y-72803152D01*
X195859400Y-73376641D01*
X195859400Y-73435359D01*
X195973474Y-74008848D01*
X196298330Y-74495029D01*
X196569172Y-74676000D01*
X196298330Y-74856971D01*
X195973474Y-75343152D01*
X195859400Y-75916641D01*
X195859400Y-75975359D01*
X195973474Y-76548848D01*
X196298330Y-77035029D01*
X196569172Y-77216000D01*
X196298330Y-77396971D01*
X195973474Y-77883152D01*
X195859400Y-78456641D01*
X195859400Y-78515359D01*
X195973474Y-79088848D01*
X196298330Y-79575029D01*
X196569172Y-79756000D01*
X196298330Y-79936971D01*
X195973474Y-80423152D01*
X195859400Y-80996641D01*
X195859400Y-81055359D01*
X195973474Y-81628848D01*
X196298330Y-82115029D01*
X196569172Y-82296000D01*
X196298330Y-82476971D01*
X195973474Y-82963152D01*
X195859400Y-83536641D01*
X195859400Y-83595359D01*
X195973474Y-84168848D01*
X196298330Y-84655029D01*
X196569172Y-84836000D01*
X196298330Y-85016971D01*
X195973474Y-85503152D01*
X195859400Y-86076641D01*
X195859400Y-86135359D01*
X195973474Y-86708848D01*
X196298330Y-87195029D01*
X196569172Y-87376000D01*
X196298330Y-87556971D01*
X195973474Y-88043152D01*
X195859400Y-88616641D01*
X195859400Y-88675359D01*
X195973474Y-89248848D01*
X196298330Y-89735029D01*
X196569172Y-89916000D01*
X196298330Y-90096971D01*
X195973474Y-90583152D01*
X195859400Y-91156641D01*
X195859400Y-91215359D01*
X195973474Y-91788848D01*
X196298330Y-92275029D01*
X196569172Y-92456000D01*
X196298330Y-92636971D01*
X195973474Y-93123152D01*
X195859400Y-93696641D01*
X195859400Y-93755359D01*
X195973474Y-94328848D01*
X196298330Y-94815029D01*
X196569172Y-94996000D01*
X196298330Y-95176971D01*
X195973474Y-95663152D01*
X195859400Y-96236641D01*
X195859400Y-96295359D01*
X195973474Y-96868848D01*
X196298330Y-97355029D01*
X196569172Y-97536000D01*
X196298330Y-97716971D01*
X195973474Y-98203152D01*
X195859400Y-98776641D01*
X195859400Y-98835359D01*
X195973474Y-99408848D01*
X196298330Y-99895029D01*
X196569172Y-100076000D01*
X196298330Y-100256971D01*
X195973474Y-100743152D01*
X195859400Y-101316641D01*
X195859400Y-101375359D01*
X195973474Y-101948848D01*
X196298330Y-102435029D01*
X196569172Y-102616000D01*
X196298330Y-102796971D01*
X195973474Y-103283152D01*
X195859400Y-103856641D01*
X195859400Y-103915359D01*
X195973474Y-104488848D01*
X196298330Y-104975029D01*
X196569172Y-105156000D01*
X196298330Y-105336971D01*
X195973474Y-105823152D01*
X195859400Y-106396641D01*
X195859400Y-106455359D01*
X195973474Y-107028848D01*
X196298330Y-107515029D01*
X196569172Y-107696000D01*
X196298330Y-107876971D01*
X195973474Y-108363152D01*
X195859400Y-108936641D01*
X195859400Y-108995359D01*
X195973474Y-109568848D01*
X196298330Y-110055029D01*
X196569172Y-110236000D01*
X196298330Y-110416971D01*
X195973474Y-110903152D01*
X195859400Y-111476641D01*
X195859400Y-111535359D01*
X195973474Y-112108848D01*
X196298330Y-112595029D01*
X196311265Y-112603672D01*
X196306010Y-112634799D01*
X197358000Y-113686790D01*
X197372142Y-113672647D01*
X197731353Y-114031858D01*
X197717210Y-114046000D01*
X197731353Y-114060142D01*
X197372142Y-114419353D01*
X197358000Y-114405210D01*
X196306010Y-115457201D01*
X196370237Y-115837670D01*
X197131068Y-116079288D01*
X197926448Y-116011356D01*
X198345763Y-115837670D01*
X198409990Y-115457203D01*
X198623312Y-115670526D01*
X198691300Y-115602538D01*
X198933519Y-115805624D01*
X199332275Y-115970779D01*
X199142278Y-115978245D01*
X198206577Y-116365825D01*
X197998356Y-116867146D01*
X199898000Y-118766790D01*
X201797644Y-116867146D01*
X201589423Y-116365825D01*
X200489573Y-115960074D01*
X200862481Y-115805624D01*
X201462443Y-115302590D01*
X201824233Y-114608251D01*
X201602723Y-114300000D01*
X200152000Y-114300000D01*
X200152000Y-114320000D01*
X199644000Y-114320000D01*
X199644000Y-114300000D01*
X199624000Y-114300000D01*
X199624000Y-113792000D01*
X199644000Y-113792000D01*
X199644000Y-113772000D01*
X200152000Y-113772000D01*
X200152000Y-113792000D01*
X201602723Y-113792000D01*
X201824233Y-113483749D01*
X201462443Y-112789410D01*
X201055673Y-112448357D01*
X201282526Y-112108848D01*
X201396600Y-111535359D01*
X201396600Y-111476641D01*
X201282526Y-110903152D01*
X200957670Y-110416971D01*
X200686828Y-110236000D01*
X200957670Y-110055029D01*
X201282526Y-109568848D01*
X201396600Y-108995359D01*
X201396600Y-108936641D01*
X201282526Y-108363152D01*
X200957670Y-107876971D01*
X200686828Y-107696000D01*
X200957670Y-107515029D01*
X201282526Y-107028848D01*
X201396600Y-106455359D01*
X201396600Y-106396641D01*
X201282526Y-105823152D01*
X200957670Y-105336971D01*
X200686828Y-105156000D01*
X200957670Y-104975029D01*
X201282526Y-104488848D01*
X201396600Y-103915359D01*
X201396600Y-103856641D01*
X201282526Y-103283152D01*
X200957670Y-102796971D01*
X200686828Y-102616000D01*
X200957670Y-102435029D01*
X201282526Y-101948848D01*
X201396600Y-101375359D01*
X201396600Y-101316641D01*
X201282526Y-100743152D01*
X200957670Y-100256971D01*
X200686828Y-100076000D01*
X200957670Y-99895029D01*
X201282526Y-99408848D01*
X201396600Y-98835359D01*
X201396600Y-98776641D01*
X201282526Y-98203152D01*
X200957670Y-97716971D01*
X200686828Y-97536000D01*
X200957670Y-97355029D01*
X201282526Y-96868848D01*
X201396600Y-96295359D01*
X201396600Y-96236641D01*
X201282526Y-95663152D01*
X200957670Y-95176971D01*
X200686828Y-94996000D01*
X200957670Y-94815029D01*
X201282526Y-94328848D01*
X201396600Y-93755359D01*
X201396600Y-93696641D01*
X201282526Y-93123152D01*
X200957670Y-92636971D01*
X200686828Y-92456000D01*
X200957670Y-92275029D01*
X201282526Y-91788848D01*
X201396600Y-91215359D01*
X201396600Y-91156641D01*
X201282526Y-90583152D01*
X200957670Y-90096971D01*
X200686828Y-89916000D01*
X200957670Y-89735029D01*
X201282526Y-89248848D01*
X201396600Y-88675359D01*
X201396600Y-88616641D01*
X201282526Y-88043152D01*
X200957670Y-87556971D01*
X200686828Y-87376000D01*
X200957670Y-87195029D01*
X201282526Y-86708848D01*
X201396600Y-86135359D01*
X201396600Y-86076641D01*
X201282526Y-85503152D01*
X200957670Y-85016971D01*
X200686828Y-84836000D01*
X200957670Y-84655029D01*
X201282526Y-84168848D01*
X201396600Y-83595359D01*
X201396600Y-83536641D01*
X201282526Y-82963152D01*
X200957670Y-82476971D01*
X200686828Y-82296000D01*
X200957670Y-82115029D01*
X201282526Y-81628848D01*
X201396600Y-81055359D01*
X201396600Y-80996641D01*
X201282526Y-80423152D01*
X200957670Y-79936971D01*
X200686828Y-79756000D01*
X200957670Y-79575029D01*
X201282526Y-79088848D01*
X201396600Y-78515359D01*
X201396600Y-78456641D01*
X201282526Y-77883152D01*
X200957670Y-77396971D01*
X200686828Y-77216000D01*
X200957670Y-77035029D01*
X201282526Y-76548848D01*
X201396600Y-75975359D01*
X201396600Y-75916641D01*
X201282526Y-75343152D01*
X200957670Y-74856971D01*
X200686828Y-74676000D01*
X200957670Y-74495029D01*
X201282526Y-74008848D01*
X201396600Y-73435359D01*
X201396600Y-73376641D01*
X201282526Y-72803152D01*
X200957670Y-72316971D01*
X200686828Y-72136000D01*
X200957670Y-71955029D01*
X201282526Y-71468848D01*
X201396600Y-70895359D01*
X201396600Y-70836641D01*
X201282526Y-70263152D01*
X200957670Y-69776971D01*
X200471489Y-69452115D01*
X199898000Y-69338041D01*
X199324511Y-69452115D01*
X198838330Y-69776971D01*
X198628000Y-70091752D01*
X198417670Y-69776971D01*
X197931489Y-69452115D01*
X197358000Y-69338041D01*
X196784511Y-69452115D01*
X196501472Y-69641236D01*
X196308175Y-69174577D01*
X195974532Y-69036000D01*
X204623600Y-69036000D01*
X204623600Y-120956000D01*
X202324532Y-120956000D01*
X202658175Y-120817423D01*
X203095349Y-119632397D01*
X203045755Y-118370278D01*
X202658175Y-117434577D01*
X202156854Y-117226356D01*
X200257210Y-119126000D01*
X200271353Y-119140143D01*
X199912143Y-119499353D01*
X199898000Y-119485210D01*
X199883858Y-119499353D01*
X199524648Y-119140143D01*
X199538790Y-119126000D01*
X197639146Y-117226356D01*
X197137825Y-117434577D01*
X196700651Y-118619603D01*
X196750245Y-119881722D01*
X197137825Y-120817423D01*
X197471468Y-120956000D01*
X147651765Y-120956000D01*
X148164614Y-120454795D01*
X148524511Y-120695271D01*
X149098000Y-120809345D01*
X149671489Y-120695271D01*
X150157670Y-120370415D01*
X150482526Y-119884234D01*
X150596600Y-119310745D01*
X150596600Y-118941255D01*
X152679400Y-118941255D01*
X152679400Y-119310745D01*
X152793474Y-119884234D01*
X153118330Y-120370415D01*
X153604511Y-120695271D01*
X154178000Y-120809345D01*
X154751489Y-120695271D01*
X155237670Y-120370415D01*
X155448000Y-120055634D01*
X155658330Y-120370415D01*
X156144511Y-120695271D01*
X156718000Y-120809345D01*
X157291489Y-120695271D01*
X157777670Y-120370415D01*
X157988000Y-120055634D01*
X158198330Y-120370415D01*
X158684511Y-120695271D01*
X159258000Y-120809345D01*
X159831489Y-120695271D01*
X160317670Y-120370415D01*
X160528000Y-120055634D01*
X160738330Y-120370415D01*
X161224511Y-120695271D01*
X161798000Y-120809345D01*
X162371489Y-120695271D01*
X162857670Y-120370415D01*
X163068000Y-120055634D01*
X163278330Y-120370415D01*
X163764511Y-120695271D01*
X164338000Y-120809345D01*
X164911489Y-120695271D01*
X165397670Y-120370415D01*
X165608000Y-120055634D01*
X165818330Y-120370415D01*
X166304511Y-120695271D01*
X166878000Y-120809345D01*
X167451489Y-120695271D01*
X167937670Y-120370415D01*
X168148000Y-120055634D01*
X168358330Y-120370415D01*
X168844511Y-120695271D01*
X169418000Y-120809345D01*
X169991489Y-120695271D01*
X170477670Y-120370415D01*
X170688000Y-120055634D01*
X170898330Y-120370415D01*
X171384511Y-120695271D01*
X171958000Y-120809345D01*
X172531489Y-120695271D01*
X173017670Y-120370415D01*
X173342526Y-119884234D01*
X173456600Y-119310745D01*
X173456600Y-118941255D01*
X175539400Y-118941255D01*
X175539400Y-119310745D01*
X175653474Y-119884234D01*
X175978330Y-120370415D01*
X176464511Y-120695271D01*
X177038000Y-120809345D01*
X177611489Y-120695271D01*
X178097670Y-120370415D01*
X178308000Y-120055634D01*
X178518330Y-120370415D01*
X179004511Y-120695271D01*
X179578000Y-120809345D01*
X180151489Y-120695271D01*
X180637670Y-120370415D01*
X180848000Y-120055634D01*
X181058330Y-120370415D01*
X181544511Y-120695271D01*
X182118000Y-120809345D01*
X182691489Y-120695271D01*
X183177670Y-120370415D01*
X183388000Y-120055634D01*
X183598330Y-120370415D01*
X184084511Y-120695271D01*
X184658000Y-120809345D01*
X185231489Y-120695271D01*
X185717670Y-120370415D01*
X185928000Y-120055634D01*
X186138330Y-120370415D01*
X186624511Y-120695271D01*
X187198000Y-120809345D01*
X187771489Y-120695271D01*
X188257670Y-120370415D01*
X188468000Y-120055634D01*
X188678330Y-120370415D01*
X189164511Y-120695271D01*
X189738000Y-120809345D01*
X190311489Y-120695271D01*
X190797670Y-120370415D01*
X191008000Y-120055634D01*
X191218330Y-120370415D01*
X191704511Y-120695271D01*
X192278000Y-120809345D01*
X192851489Y-120695271D01*
X193337670Y-120370415D01*
X193548000Y-120055634D01*
X193758330Y-120370415D01*
X194244511Y-120695271D01*
X194818000Y-120809345D01*
X195391489Y-120695271D01*
X195877670Y-120370415D01*
X196202526Y-119884234D01*
X196316600Y-119310745D01*
X196316600Y-118941255D01*
X196202526Y-118367766D01*
X195877670Y-117881585D01*
X195391489Y-117556729D01*
X194818000Y-117442655D01*
X194244511Y-117556729D01*
X193758330Y-117881585D01*
X193548000Y-118196366D01*
X193337670Y-117881585D01*
X192851489Y-117556729D01*
X192278000Y-117442655D01*
X191704511Y-117556729D01*
X191218330Y-117881585D01*
X191008000Y-118196366D01*
X190797670Y-117881585D01*
X190311489Y-117556729D01*
X189738000Y-117442655D01*
X189164511Y-117556729D01*
X188678330Y-117881585D01*
X188468000Y-118196366D01*
X188257670Y-117881585D01*
X187771489Y-117556729D01*
X187198000Y-117442655D01*
X186624511Y-117556729D01*
X186138330Y-117881585D01*
X185928000Y-118196366D01*
X185717670Y-117881585D01*
X185231489Y-117556729D01*
X184658000Y-117442655D01*
X184084511Y-117556729D01*
X183598330Y-117881585D01*
X183388000Y-118196366D01*
X183177670Y-117881585D01*
X182691489Y-117556729D01*
X182118000Y-117442655D01*
X181544511Y-117556729D01*
X181058330Y-117881585D01*
X180848000Y-118196366D01*
X180637670Y-117881585D01*
X180151489Y-117556729D01*
X179578000Y-117442655D01*
X179004511Y-117556729D01*
X178518330Y-117881585D01*
X178308000Y-118196366D01*
X178097670Y-117881585D01*
X177611489Y-117556729D01*
X177038000Y-117442655D01*
X176464511Y-117556729D01*
X175978330Y-117881585D01*
X175653474Y-118367766D01*
X175539400Y-118941255D01*
X173456600Y-118941255D01*
X173342526Y-118367766D01*
X173017670Y-117881585D01*
X172531489Y-117556729D01*
X171958000Y-117442655D01*
X171384511Y-117556729D01*
X170898330Y-117881585D01*
X170688000Y-118196366D01*
X170477670Y-117881585D01*
X169991489Y-117556729D01*
X169418000Y-117442655D01*
X168844511Y-117556729D01*
X168358330Y-117881585D01*
X168148000Y-118196366D01*
X167937670Y-117881585D01*
X167451489Y-117556729D01*
X166878000Y-117442655D01*
X166304511Y-117556729D01*
X165818330Y-117881585D01*
X165608000Y-118196366D01*
X165397670Y-117881585D01*
X164911489Y-117556729D01*
X164338000Y-117442655D01*
X163764511Y-117556729D01*
X163278330Y-117881585D01*
X163068000Y-118196366D01*
X162857670Y-117881585D01*
X162371489Y-117556729D01*
X161798000Y-117442655D01*
X161224511Y-117556729D01*
X160738330Y-117881585D01*
X160528000Y-118196366D01*
X160317670Y-117881585D01*
X159831489Y-117556729D01*
X159258000Y-117442655D01*
X158684511Y-117556729D01*
X158198330Y-117881585D01*
X157988000Y-118196366D01*
X157777670Y-117881585D01*
X157291489Y-117556729D01*
X156718000Y-117442655D01*
X156144511Y-117556729D01*
X155658330Y-117881585D01*
X155448000Y-118196366D01*
X155237670Y-117881585D01*
X154751489Y-117556729D01*
X154178000Y-117442655D01*
X153604511Y-117556729D01*
X153118330Y-117881585D01*
X152793474Y-118367766D01*
X152679400Y-118941255D01*
X150596600Y-118941255D01*
X150482526Y-118367766D01*
X150157670Y-117881585D01*
X149671489Y-117556729D01*
X149098000Y-117442655D01*
X148524511Y-117556729D01*
X148164614Y-117797205D01*
X147651471Y-117295713D01*
X147120249Y-117047381D01*
X146812000Y-117271599D01*
X146812000Y-118872000D01*
X146832000Y-118872000D01*
X146832000Y-119380000D01*
X146812000Y-119380000D01*
X146812000Y-119400000D01*
X146304000Y-119400000D01*
X146304000Y-119380000D01*
X144272000Y-119380000D01*
X144272000Y-119400000D01*
X143764000Y-119400000D01*
X143764000Y-119380000D01*
X143744000Y-119380000D01*
X143744000Y-118872000D01*
X143764000Y-118872000D01*
X143764000Y-117271599D01*
X144272000Y-117271599D01*
X144272000Y-118872000D01*
X146304000Y-118872000D01*
X146304000Y-117271599D01*
X145995751Y-117047381D01*
X145464529Y-117295713D01*
X145288000Y-117468234D01*
X145111471Y-117295713D01*
X144580249Y-117047381D01*
X144272000Y-117271599D01*
X143764000Y-117271599D01*
X143455751Y-117047381D01*
X142924529Y-117295713D01*
X142411386Y-117797205D01*
X142051489Y-117556729D01*
X141478000Y-117442655D01*
X140904511Y-117556729D01*
X140418330Y-117881585D01*
X140208000Y-118196366D01*
X139997670Y-117881585D01*
X139511489Y-117556729D01*
X138938000Y-117442655D01*
X138364511Y-117556729D01*
X137878330Y-117881585D01*
X137668000Y-118196366D01*
X137457670Y-117881585D01*
X136971489Y-117556729D01*
X136398000Y-117442655D01*
X135824511Y-117556729D01*
X135338330Y-117881585D01*
X135128000Y-118196366D01*
X134917670Y-117881585D01*
X134431489Y-117556729D01*
X133858000Y-117442655D01*
X133284511Y-117556729D01*
X132798330Y-117881585D01*
X132588000Y-118196366D01*
X132377670Y-117881585D01*
X131891489Y-117556729D01*
X131318000Y-117442655D01*
X130744511Y-117556729D01*
X130258330Y-117881585D01*
X129933474Y-118367766D01*
X129819400Y-118941255D01*
X129819400Y-119310745D01*
X129933474Y-119884234D01*
X130258330Y-120370415D01*
X130744511Y-120695271D01*
X131318000Y-120809345D01*
X131891489Y-120695271D01*
X132377670Y-120370415D01*
X132588000Y-120055634D01*
X132798330Y-120370415D01*
X133284511Y-120695271D01*
X133858000Y-120809345D01*
X134431489Y-120695271D01*
X134917670Y-120370415D01*
X135128000Y-120055634D01*
X135338330Y-120370415D01*
X135824511Y-120695271D01*
X136398000Y-120809345D01*
X136971489Y-120695271D01*
X137457670Y-120370415D01*
X137668000Y-120055634D01*
X137878330Y-120370415D01*
X138364511Y-120695271D01*
X138938000Y-120809345D01*
X139511489Y-120695271D01*
X139997670Y-120370415D01*
X140208000Y-120055634D01*
X140418330Y-120370415D01*
X140904511Y-120695271D01*
X141478000Y-120809345D01*
X142051489Y-120695271D01*
X142411386Y-120454795D01*
X142924235Y-120956000D01*
X119774532Y-120956000D01*
X120108175Y-120817423D01*
X120545349Y-119632397D01*
X120495755Y-118370278D01*
X120108175Y-117434577D01*
X119606854Y-117226356D01*
X117707210Y-119126000D01*
X117721353Y-119140143D01*
X117362143Y-119499353D01*
X117348000Y-119485210D01*
X117333858Y-119499353D01*
X116974648Y-119140143D01*
X116988790Y-119126000D01*
X115089146Y-117226356D01*
X114587825Y-117434577D01*
X114150651Y-118619603D01*
X114200245Y-119881722D01*
X114587825Y-120817423D01*
X114921468Y-120956000D01*
X104088000Y-120956000D01*
X104088000Y-116867146D01*
X115448356Y-116867146D01*
X117348000Y-118766790D01*
X119247644Y-116867146D01*
X119039423Y-116365825D01*
X117854397Y-115928651D01*
X116592278Y-115978245D01*
X115656577Y-116365825D01*
X115448356Y-116867146D01*
X104088000Y-116867146D01*
X104088000Y-113838567D01*
X129539626Y-113838567D01*
X129867622Y-114632377D01*
X130474428Y-115240244D01*
X131267664Y-115569624D01*
X132126567Y-115570374D01*
X132920377Y-115242378D01*
X133528244Y-114635572D01*
X133667499Y-114300208D01*
X133667225Y-114614388D01*
X133908398Y-115198072D01*
X134354579Y-115645032D01*
X134937841Y-115887224D01*
X135569388Y-115887775D01*
X136153072Y-115646602D01*
X136525257Y-115275065D01*
X136894579Y-115645032D01*
X137477841Y-115887224D01*
X138109388Y-115887775D01*
X138693072Y-115646602D01*
X139140032Y-115200421D01*
X139185949Y-115089840D01*
X139975790Y-114300000D01*
X139186585Y-113510796D01*
X139141602Y-113401928D01*
X138695421Y-112954968D01*
X138380165Y-112824062D01*
X139218273Y-112824062D01*
X140335000Y-113940790D01*
X140349143Y-113926648D01*
X140708353Y-114285858D01*
X140694210Y-114300000D01*
X140708353Y-114314143D01*
X140349143Y-114673353D01*
X140335000Y-114659210D01*
X139218273Y-115775938D01*
X139293562Y-116165547D01*
X140086751Y-116422082D01*
X140917733Y-116355549D01*
X141376438Y-116165547D01*
X141432486Y-115875509D01*
X141545595Y-115988618D01*
X141605000Y-115929213D01*
X141664405Y-115988618D01*
X141777514Y-115875509D01*
X141833562Y-116165547D01*
X142626751Y-116422082D01*
X143457733Y-116355549D01*
X143580121Y-116304854D01*
X167518356Y-116304854D01*
X167726577Y-116806175D01*
X168911603Y-117243349D01*
X170173722Y-117193755D01*
X171109423Y-116806175D01*
X171317644Y-116304854D01*
X169418000Y-114405210D01*
X167518356Y-116304854D01*
X143580121Y-116304854D01*
X143916438Y-116165547D01*
X143991727Y-115775938D01*
X142875000Y-114659210D01*
X142860858Y-114673353D01*
X142501648Y-114314143D01*
X142515790Y-114300000D01*
X143234210Y-114300000D01*
X144023415Y-115089204D01*
X144068398Y-115198072D01*
X144514579Y-115645032D01*
X145097841Y-115887224D01*
X145729388Y-115887775D01*
X146313072Y-115646602D01*
X146760032Y-115200421D01*
X147002224Y-114617159D01*
X147002775Y-113985612D01*
X146818489Y-113539603D01*
X166220651Y-113539603D01*
X166270245Y-114801722D01*
X166657825Y-115737423D01*
X167159146Y-115945644D01*
X169058790Y-114046000D01*
X169777210Y-114046000D01*
X171676854Y-115945644D01*
X172178175Y-115737423D01*
X172615349Y-114552397D01*
X172565755Y-113290278D01*
X172178175Y-112354577D01*
X171676854Y-112146356D01*
X169777210Y-114046000D01*
X169058790Y-114046000D01*
X167159146Y-112146356D01*
X166657825Y-112354577D01*
X166220651Y-113539603D01*
X146818489Y-113539603D01*
X146761602Y-113401928D01*
X146315421Y-112954968D01*
X145732159Y-112712776D01*
X145100612Y-112712225D01*
X144516928Y-112953398D01*
X144069968Y-113399579D01*
X144024051Y-113510160D01*
X143234210Y-114300000D01*
X142515790Y-114300000D01*
X142501648Y-114285858D01*
X142860858Y-113926648D01*
X142875000Y-113940790D01*
X143991727Y-112824062D01*
X143916438Y-112434453D01*
X143123249Y-112177918D01*
X142292267Y-112244451D01*
X141833562Y-112434453D01*
X141777514Y-112724491D01*
X141664405Y-112611382D01*
X141605000Y-112670787D01*
X141545595Y-112611382D01*
X141432486Y-112724491D01*
X141376438Y-112434453D01*
X140583249Y-112177918D01*
X139752267Y-112244451D01*
X139293562Y-112434453D01*
X139218273Y-112824062D01*
X138380165Y-112824062D01*
X138112159Y-112712776D01*
X137480612Y-112712225D01*
X136896928Y-112953398D01*
X136524743Y-113324935D01*
X136155421Y-112954968D01*
X135572159Y-112712776D01*
X134940612Y-112712225D01*
X134356928Y-112953398D01*
X133909968Y-113399579D01*
X133857901Y-113524970D01*
X133858374Y-112983433D01*
X133530378Y-112189623D01*
X133128604Y-111787146D01*
X167518356Y-111787146D01*
X169418000Y-113686790D01*
X171074790Y-112030000D01*
X185677560Y-112030000D01*
X185677560Y-114030000D01*
X185721838Y-114265317D01*
X185860910Y-114481441D01*
X186073110Y-114626431D01*
X186325000Y-114677440D01*
X188325000Y-114677440D01*
X188409942Y-114661457D01*
X188501349Y-114752864D01*
X188713709Y-114540504D01*
X188794896Y-114935002D01*
X189605366Y-115199503D01*
X190455362Y-115133716D01*
X190935104Y-114935002D01*
X191016292Y-114540502D01*
X189865000Y-113389210D01*
X189850858Y-113403353D01*
X189491648Y-113044143D01*
X189505790Y-113030000D01*
X190224210Y-113030000D01*
X191375502Y-114181292D01*
X191770002Y-114100104D01*
X191861719Y-113819068D01*
X195324712Y-113819068D01*
X195392644Y-114614448D01*
X195566330Y-115033763D01*
X195946799Y-115097990D01*
X196998790Y-114046000D01*
X195946799Y-112994010D01*
X195566330Y-113058237D01*
X195324712Y-113819068D01*
X191861719Y-113819068D01*
X192034503Y-113289634D01*
X191968716Y-112439638D01*
X191770002Y-111959896D01*
X191375502Y-111878708D01*
X190224210Y-113030000D01*
X189505790Y-113030000D01*
X189491648Y-113015858D01*
X189850858Y-112656648D01*
X189865000Y-112670790D01*
X191016292Y-111519498D01*
X190935104Y-111124998D01*
X190124634Y-110860497D01*
X189274638Y-110926284D01*
X188794896Y-111124998D01*
X188713709Y-111519496D01*
X188501349Y-111307136D01*
X188408929Y-111399556D01*
X188325000Y-111382560D01*
X186325000Y-111382560D01*
X186089683Y-111426838D01*
X185873559Y-111565910D01*
X185728569Y-111778110D01*
X185677560Y-112030000D01*
X171074790Y-112030000D01*
X171317644Y-111787146D01*
X171109423Y-111285825D01*
X169924397Y-110848651D01*
X168662278Y-110898245D01*
X167726577Y-111285825D01*
X167518356Y-111787146D01*
X133128604Y-111787146D01*
X132923572Y-111581756D01*
X132130336Y-111252376D01*
X131271433Y-111251626D01*
X130477623Y-111579622D01*
X129869756Y-112186428D01*
X129540376Y-112979664D01*
X129539626Y-113838567D01*
X104088000Y-113838567D01*
X104088000Y-107585000D01*
X183137560Y-107585000D01*
X183137560Y-109585000D01*
X183181838Y-109820317D01*
X183320910Y-110036441D01*
X183533110Y-110181431D01*
X183785000Y-110232440D01*
X185785000Y-110232440D01*
X186020317Y-110188162D01*
X186236441Y-110049090D01*
X186333910Y-109906439D01*
X186397637Y-109970278D01*
X186998352Y-110219716D01*
X187648795Y-110220284D01*
X187950789Y-110095502D01*
X188713708Y-110095502D01*
X188794896Y-110490002D01*
X189605366Y-110754503D01*
X190455362Y-110688716D01*
X190935104Y-110490002D01*
X191016292Y-110095502D01*
X189865000Y-108944210D01*
X188713708Y-110095502D01*
X187950789Y-110095502D01*
X188249943Y-109971894D01*
X188710278Y-109512363D01*
X188803904Y-109286886D01*
X189505790Y-108585000D01*
X190224210Y-108585000D01*
X191375502Y-109736292D01*
X191770002Y-109655104D01*
X192034503Y-108844634D01*
X191968716Y-107994638D01*
X191770002Y-107514896D01*
X191375502Y-107433708D01*
X190224210Y-108585000D01*
X189505790Y-108585000D01*
X188804169Y-107883379D01*
X188711894Y-107660057D01*
X188252363Y-107199722D01*
X187950790Y-107074498D01*
X188713708Y-107074498D01*
X189865000Y-108225790D01*
X191016292Y-107074498D01*
X190935104Y-106679998D01*
X190124634Y-106415497D01*
X189274638Y-106481284D01*
X188794896Y-106679998D01*
X188713708Y-107074498D01*
X187950790Y-107074498D01*
X187651648Y-106950284D01*
X187001205Y-106949716D01*
X186400057Y-107198106D01*
X186333426Y-107264621D01*
X186249090Y-107133559D01*
X186036890Y-106988569D01*
X185785000Y-106937560D01*
X183785000Y-106937560D01*
X183549683Y-106981838D01*
X183333559Y-107120910D01*
X183188569Y-107333110D01*
X183137560Y-107585000D01*
X104088000Y-107585000D01*
X104088000Y-103473551D01*
X106435659Y-103473551D01*
X106578590Y-103919713D01*
X107570699Y-104267951D01*
X108620552Y-104210017D01*
X109321410Y-103919713D01*
X109464341Y-103473551D01*
X109130790Y-103140000D01*
X183137560Y-103140000D01*
X183137560Y-105140000D01*
X183181838Y-105375317D01*
X183320910Y-105591441D01*
X183533110Y-105736431D01*
X183785000Y-105787440D01*
X185785000Y-105787440D01*
X186020317Y-105743162D01*
X186236441Y-105604090D01*
X186333910Y-105461439D01*
X186397637Y-105525278D01*
X186998352Y-105774716D01*
X187648795Y-105775284D01*
X187950789Y-105650502D01*
X188713708Y-105650502D01*
X188794896Y-106045002D01*
X189605366Y-106309503D01*
X190455362Y-106243716D01*
X190935104Y-106045002D01*
X191016292Y-105650502D01*
X189865000Y-104499210D01*
X188713708Y-105650502D01*
X187950789Y-105650502D01*
X188249943Y-105526894D01*
X188710278Y-105067363D01*
X188803904Y-104841886D01*
X189505790Y-104140000D01*
X190224210Y-104140000D01*
X191375502Y-105291292D01*
X191770002Y-105210104D01*
X192034503Y-104399634D01*
X191968716Y-103549638D01*
X191770002Y-103069896D01*
X191375502Y-102988708D01*
X190224210Y-104140000D01*
X189505790Y-104140000D01*
X188804169Y-103438379D01*
X188711894Y-103215057D01*
X188252363Y-102754722D01*
X187950790Y-102629498D01*
X188713708Y-102629498D01*
X189865000Y-103780790D01*
X191016292Y-102629498D01*
X190935104Y-102234998D01*
X190124634Y-101970497D01*
X189274638Y-102036284D01*
X188794896Y-102234998D01*
X188713708Y-102629498D01*
X187950790Y-102629498D01*
X187651648Y-102505284D01*
X187001205Y-102504716D01*
X186400057Y-102753106D01*
X186333426Y-102819621D01*
X186249090Y-102688559D01*
X186036890Y-102543569D01*
X185785000Y-102492560D01*
X183785000Y-102492560D01*
X183549683Y-102536838D01*
X183333559Y-102675910D01*
X183188569Y-102888110D01*
X183137560Y-103140000D01*
X109130790Y-103140000D01*
X107950000Y-101959210D01*
X106435659Y-103473551D01*
X104088000Y-103473551D01*
X104088000Y-101220699D01*
X105282049Y-101220699D01*
X105339983Y-102270552D01*
X105630287Y-102971410D01*
X106076449Y-103114341D01*
X107590790Y-101600000D01*
X108309210Y-101600000D01*
X109823551Y-103114341D01*
X110269713Y-102971410D01*
X110617951Y-101979301D01*
X110560017Y-100929448D01*
X110269713Y-100228590D01*
X109823551Y-100085659D01*
X108309210Y-101600000D01*
X107590790Y-101600000D01*
X106076449Y-100085659D01*
X105630287Y-100228590D01*
X105282049Y-101220699D01*
X104088000Y-101220699D01*
X104088000Y-99726449D01*
X106435659Y-99726449D01*
X107950000Y-101240790D01*
X109464341Y-99726449D01*
X109321410Y-99280287D01*
X108329301Y-98932049D01*
X107279448Y-98989983D01*
X106578590Y-99280287D01*
X106435659Y-99726449D01*
X104088000Y-99726449D01*
X104088000Y-95020000D01*
X105802560Y-95020000D01*
X105802560Y-98020000D01*
X105846838Y-98255317D01*
X105985910Y-98471441D01*
X106198110Y-98616431D01*
X106450000Y-98667440D01*
X109450000Y-98667440D01*
X109685317Y-98623162D01*
X109901441Y-98484090D01*
X110046431Y-98271890D01*
X110097440Y-98020000D01*
X110097440Y-97836567D01*
X143001626Y-97836567D01*
X143329622Y-98630377D01*
X143936428Y-99238244D01*
X144729664Y-99567624D01*
X145588567Y-99568374D01*
X146382377Y-99240378D01*
X146990244Y-98633572D01*
X147206074Y-98113795D01*
X149494716Y-98113795D01*
X149743106Y-98714943D01*
X150202637Y-99175278D01*
X150803352Y-99424716D01*
X151453795Y-99425284D01*
X152054943Y-99176894D01*
X152400199Y-98832241D01*
X152742637Y-99175278D01*
X153343352Y-99424716D01*
X153993795Y-99425284D01*
X154594943Y-99176894D01*
X154940199Y-98832241D01*
X155282637Y-99175278D01*
X155883352Y-99424716D01*
X156533795Y-99425284D01*
X157134943Y-99176894D01*
X157201574Y-99110379D01*
X157285910Y-99241441D01*
X157498110Y-99386431D01*
X157750000Y-99437440D01*
X159750000Y-99437440D01*
X159985317Y-99393162D01*
X160201441Y-99254090D01*
X160346431Y-99041890D01*
X160397440Y-98790000D01*
X160397440Y-98695000D01*
X183137560Y-98695000D01*
X183137560Y-100695000D01*
X183181838Y-100930317D01*
X183320910Y-101146441D01*
X183533110Y-101291431D01*
X183785000Y-101342440D01*
X185785000Y-101342440D01*
X186020317Y-101298162D01*
X186236441Y-101159090D01*
X186333910Y-101016439D01*
X186397637Y-101080278D01*
X186998352Y-101329716D01*
X187648795Y-101330284D01*
X187950789Y-101205502D01*
X188713708Y-101205502D01*
X188794896Y-101600002D01*
X189605366Y-101864503D01*
X190455362Y-101798716D01*
X190935104Y-101600002D01*
X191016292Y-101205502D01*
X189865000Y-100054210D01*
X188713708Y-101205502D01*
X187950789Y-101205502D01*
X188249943Y-101081894D01*
X188710278Y-100622363D01*
X188803904Y-100396886D01*
X189505790Y-99695000D01*
X190224210Y-99695000D01*
X191375502Y-100846292D01*
X191770002Y-100765104D01*
X192034503Y-99954634D01*
X191968716Y-99104638D01*
X191770002Y-98624896D01*
X191375502Y-98543708D01*
X190224210Y-99695000D01*
X189505790Y-99695000D01*
X188804169Y-98993379D01*
X188711894Y-98770057D01*
X188252363Y-98309722D01*
X187950790Y-98184498D01*
X188713708Y-98184498D01*
X189865000Y-99335790D01*
X191016292Y-98184498D01*
X190935104Y-97789998D01*
X190124634Y-97525497D01*
X189274638Y-97591284D01*
X188794896Y-97789998D01*
X188713708Y-98184498D01*
X187950790Y-98184498D01*
X187651648Y-98060284D01*
X187001205Y-98059716D01*
X186400057Y-98308106D01*
X186333426Y-98374621D01*
X186249090Y-98243559D01*
X186036890Y-98098569D01*
X185785000Y-98047560D01*
X183785000Y-98047560D01*
X183549683Y-98091838D01*
X183333559Y-98230910D01*
X183188569Y-98443110D01*
X183137560Y-98695000D01*
X160397440Y-98695000D01*
X160397440Y-96790000D01*
X160353162Y-96554683D01*
X160214090Y-96338559D01*
X160001890Y-96193569D01*
X159750000Y-96142560D01*
X157750000Y-96142560D01*
X157514683Y-96186838D01*
X157298559Y-96325910D01*
X157201090Y-96468561D01*
X157137363Y-96404722D01*
X156536648Y-96155284D01*
X155886205Y-96154716D01*
X155285057Y-96403106D01*
X154939801Y-96747759D01*
X154597363Y-96404722D01*
X153996648Y-96155284D01*
X153346205Y-96154716D01*
X152745057Y-96403106D01*
X152399801Y-96747759D01*
X152057363Y-96404722D01*
X151456648Y-96155284D01*
X150806205Y-96154716D01*
X150205057Y-96403106D01*
X149744722Y-96862637D01*
X149495284Y-97463352D01*
X149494716Y-98113795D01*
X147206074Y-98113795D01*
X147319624Y-97840336D01*
X147320374Y-96981433D01*
X146992378Y-96187623D01*
X146385572Y-95579756D01*
X145592336Y-95250376D01*
X144733433Y-95249626D01*
X143939623Y-95577622D01*
X143331756Y-96184428D01*
X143002376Y-96977664D01*
X143001626Y-97836567D01*
X110097440Y-97836567D01*
X110097440Y-95020000D01*
X110053162Y-94784683D01*
X109914090Y-94568559D01*
X109701890Y-94423569D01*
X109450000Y-94372560D01*
X106450000Y-94372560D01*
X106214683Y-94416838D01*
X105998559Y-94555910D01*
X105853569Y-94768110D01*
X105802560Y-95020000D01*
X104088000Y-95020000D01*
X104088000Y-94250000D01*
X183137560Y-94250000D01*
X183137560Y-96250000D01*
X183181838Y-96485317D01*
X183320910Y-96701441D01*
X183533110Y-96846431D01*
X183785000Y-96897440D01*
X185785000Y-96897440D01*
X186020317Y-96853162D01*
X186236441Y-96714090D01*
X186333910Y-96571439D01*
X186397637Y-96635278D01*
X186998352Y-96884716D01*
X187648795Y-96885284D01*
X187950789Y-96760502D01*
X188713708Y-96760502D01*
X188794896Y-97155002D01*
X189605366Y-97419503D01*
X190455362Y-97353716D01*
X190935104Y-97155002D01*
X191016292Y-96760502D01*
X189865000Y-95609210D01*
X188713708Y-96760502D01*
X187950789Y-96760502D01*
X188249943Y-96636894D01*
X188710278Y-96177363D01*
X188803904Y-95951886D01*
X189505790Y-95250000D01*
X190224210Y-95250000D01*
X191375502Y-96401292D01*
X191770002Y-96320104D01*
X192034503Y-95509634D01*
X191968716Y-94659638D01*
X191770002Y-94179896D01*
X191375502Y-94098708D01*
X190224210Y-95250000D01*
X189505790Y-95250000D01*
X188804169Y-94548379D01*
X188711894Y-94325057D01*
X188252363Y-93864722D01*
X187950790Y-93739498D01*
X188713708Y-93739498D01*
X189865000Y-94890790D01*
X191016292Y-93739498D01*
X190935104Y-93344998D01*
X190124634Y-93080497D01*
X189274638Y-93146284D01*
X188794896Y-93344998D01*
X188713708Y-93739498D01*
X187950790Y-93739498D01*
X187651648Y-93615284D01*
X187001205Y-93614716D01*
X186400057Y-93863106D01*
X186333426Y-93929621D01*
X186249090Y-93798559D01*
X186036890Y-93653569D01*
X185785000Y-93602560D01*
X183785000Y-93602560D01*
X183549683Y-93646838D01*
X183333559Y-93785910D01*
X183188569Y-93998110D01*
X183137560Y-94250000D01*
X104088000Y-94250000D01*
X104088000Y-92915938D01*
X144933273Y-92915938D01*
X145008562Y-93305547D01*
X145801751Y-93562082D01*
X146632733Y-93495549D01*
X147091438Y-93305547D01*
X147166727Y-92915938D01*
X146050000Y-91799210D01*
X144933273Y-92915938D01*
X104088000Y-92915938D01*
X104088000Y-91191751D01*
X143927918Y-91191751D01*
X143994451Y-92022733D01*
X144184453Y-92481438D01*
X144574062Y-92556727D01*
X145690790Y-91440000D01*
X146409210Y-91440000D01*
X147198415Y-92229204D01*
X147243398Y-92338072D01*
X147689579Y-92785032D01*
X148272841Y-93027224D01*
X148904388Y-93027775D01*
X149488072Y-92786602D01*
X149860257Y-92415065D01*
X150229579Y-92785032D01*
X150812841Y-93027224D01*
X151444388Y-93027775D01*
X152028072Y-92786602D01*
X152400257Y-92415065D01*
X152769579Y-92785032D01*
X153352841Y-93027224D01*
X153984388Y-93027775D01*
X154568072Y-92786602D01*
X154940257Y-92415065D01*
X155309579Y-92785032D01*
X155892841Y-93027224D01*
X156524388Y-93027775D01*
X157108072Y-92786602D01*
X157480257Y-92415065D01*
X157849579Y-92785032D01*
X158432841Y-93027224D01*
X159064388Y-93027775D01*
X159335054Y-92915938D01*
X160173273Y-92915938D01*
X160248562Y-93305547D01*
X161041751Y-93562082D01*
X161872733Y-93495549D01*
X162331438Y-93305547D01*
X162406727Y-92915938D01*
X161290000Y-91799210D01*
X160173273Y-92915938D01*
X159335054Y-92915938D01*
X159648072Y-92786602D01*
X160095032Y-92340421D01*
X160140949Y-92229840D01*
X160930790Y-91440000D01*
X161649210Y-91440000D01*
X162438415Y-92229204D01*
X162483398Y-92338072D01*
X162929579Y-92785032D01*
X163512841Y-93027224D01*
X164144388Y-93027775D01*
X164728072Y-92786602D01*
X165175032Y-92340421D01*
X165417224Y-91757159D01*
X165417775Y-91125612D01*
X165176602Y-90541928D01*
X164730421Y-90094968D01*
X164147159Y-89852776D01*
X163515612Y-89852225D01*
X162931928Y-90093398D01*
X162484968Y-90539579D01*
X162439051Y-90650160D01*
X161649210Y-91440000D01*
X160930790Y-91440000D01*
X160141585Y-90650796D01*
X160096602Y-90541928D01*
X159650421Y-90094968D01*
X159335165Y-89964062D01*
X160173273Y-89964062D01*
X161290000Y-91080790D01*
X162406727Y-89964062D01*
X162375990Y-89805000D01*
X183137560Y-89805000D01*
X183137560Y-91805000D01*
X183181838Y-92040317D01*
X183320910Y-92256441D01*
X183533110Y-92401431D01*
X183785000Y-92452440D01*
X185785000Y-92452440D01*
X186020317Y-92408162D01*
X186236441Y-92269090D01*
X186333910Y-92126439D01*
X186397637Y-92190278D01*
X186998352Y-92439716D01*
X187648795Y-92440284D01*
X187950789Y-92315502D01*
X188713708Y-92315502D01*
X188794896Y-92710002D01*
X189605366Y-92974503D01*
X190455362Y-92908716D01*
X190935104Y-92710002D01*
X191016292Y-92315502D01*
X189865000Y-91164210D01*
X188713708Y-92315502D01*
X187950789Y-92315502D01*
X188249943Y-92191894D01*
X188710278Y-91732363D01*
X188803904Y-91506886D01*
X189505790Y-90805000D01*
X190224210Y-90805000D01*
X191375502Y-91956292D01*
X191770002Y-91875104D01*
X192034503Y-91064634D01*
X191968716Y-90214638D01*
X191770002Y-89734896D01*
X191375502Y-89653708D01*
X190224210Y-90805000D01*
X189505790Y-90805000D01*
X188804169Y-90103379D01*
X188711894Y-89880057D01*
X188252363Y-89419722D01*
X187950790Y-89294498D01*
X188713708Y-89294498D01*
X189865000Y-90445790D01*
X191016292Y-89294498D01*
X190935104Y-88899998D01*
X190124634Y-88635497D01*
X189274638Y-88701284D01*
X188794896Y-88899998D01*
X188713708Y-89294498D01*
X187950790Y-89294498D01*
X187651648Y-89170284D01*
X187001205Y-89169716D01*
X186400057Y-89418106D01*
X186333426Y-89484621D01*
X186249090Y-89353559D01*
X186036890Y-89208569D01*
X185785000Y-89157560D01*
X183785000Y-89157560D01*
X183549683Y-89201838D01*
X183333559Y-89340910D01*
X183188569Y-89553110D01*
X183137560Y-89805000D01*
X162375990Y-89805000D01*
X162331438Y-89574453D01*
X161538249Y-89317918D01*
X160707267Y-89384451D01*
X160248562Y-89574453D01*
X160173273Y-89964062D01*
X159335165Y-89964062D01*
X159067159Y-89852776D01*
X158435612Y-89852225D01*
X157851928Y-90093398D01*
X157479743Y-90464935D01*
X157110421Y-90094968D01*
X156527159Y-89852776D01*
X155895612Y-89852225D01*
X155311928Y-90093398D01*
X154939743Y-90464935D01*
X154570421Y-90094968D01*
X153987159Y-89852776D01*
X153355612Y-89852225D01*
X152771928Y-90093398D01*
X152399743Y-90464935D01*
X152030421Y-90094968D01*
X151447159Y-89852776D01*
X150815612Y-89852225D01*
X150231928Y-90093398D01*
X149859743Y-90464935D01*
X149490421Y-90094968D01*
X148907159Y-89852776D01*
X148275612Y-89852225D01*
X147691928Y-90093398D01*
X147244968Y-90539579D01*
X147199051Y-90650160D01*
X146409210Y-91440000D01*
X145690790Y-91440000D01*
X144574062Y-90323273D01*
X144184453Y-90398562D01*
X143927918Y-91191751D01*
X104088000Y-91191751D01*
X104088000Y-89964062D01*
X144933273Y-89964062D01*
X146050000Y-91080790D01*
X147166727Y-89964062D01*
X147091438Y-89574453D01*
X146298249Y-89317918D01*
X145467267Y-89384451D01*
X145008562Y-89574453D01*
X144933273Y-89964062D01*
X104088000Y-89964062D01*
X104088000Y-88364854D01*
X167518356Y-88364854D01*
X167726577Y-88866175D01*
X168911603Y-89303349D01*
X170173722Y-89253755D01*
X171109423Y-88866175D01*
X171317644Y-88364854D01*
X169418000Y-86465210D01*
X167518356Y-88364854D01*
X104088000Y-88364854D01*
X104088000Y-85599603D01*
X166220651Y-85599603D01*
X166270245Y-86861722D01*
X166657825Y-87797423D01*
X167159146Y-88005644D01*
X169058790Y-86106000D01*
X169777210Y-86106000D01*
X171676854Y-88005644D01*
X172178175Y-87797423D01*
X172615349Y-86612397D01*
X172566138Y-85360000D01*
X183137560Y-85360000D01*
X183137560Y-87360000D01*
X183181838Y-87595317D01*
X183320910Y-87811441D01*
X183533110Y-87956431D01*
X183785000Y-88007440D01*
X185785000Y-88007440D01*
X186020317Y-87963162D01*
X186236441Y-87824090D01*
X186333910Y-87681439D01*
X186397637Y-87745278D01*
X186998352Y-87994716D01*
X187648795Y-87995284D01*
X187950789Y-87870502D01*
X188713708Y-87870502D01*
X188794896Y-88265002D01*
X189605366Y-88529503D01*
X190455362Y-88463716D01*
X190935104Y-88265002D01*
X191016292Y-87870502D01*
X189865000Y-86719210D01*
X188713708Y-87870502D01*
X187950789Y-87870502D01*
X188249943Y-87746894D01*
X188710278Y-87287363D01*
X188803904Y-87061886D01*
X189505790Y-86360000D01*
X190224210Y-86360000D01*
X191375502Y-87511292D01*
X191770002Y-87430104D01*
X192034503Y-86619634D01*
X191968716Y-85769638D01*
X191770002Y-85289896D01*
X191375502Y-85208708D01*
X190224210Y-86360000D01*
X189505790Y-86360000D01*
X188804169Y-85658379D01*
X188711894Y-85435057D01*
X188252363Y-84974722D01*
X187950790Y-84849498D01*
X188713708Y-84849498D01*
X189865000Y-86000790D01*
X191016292Y-84849498D01*
X190935104Y-84454998D01*
X190124634Y-84190497D01*
X189274638Y-84256284D01*
X188794896Y-84454998D01*
X188713708Y-84849498D01*
X187950790Y-84849498D01*
X187651648Y-84725284D01*
X187001205Y-84724716D01*
X186400057Y-84973106D01*
X186333426Y-85039621D01*
X186249090Y-84908559D01*
X186036890Y-84763569D01*
X185785000Y-84712560D01*
X183785000Y-84712560D01*
X183549683Y-84756838D01*
X183333559Y-84895910D01*
X183188569Y-85108110D01*
X183137560Y-85360000D01*
X172566138Y-85360000D01*
X172565755Y-85350278D01*
X172178175Y-84414577D01*
X171676854Y-84206356D01*
X169777210Y-86106000D01*
X169058790Y-86106000D01*
X167159146Y-84206356D01*
X166657825Y-84414577D01*
X166220651Y-85599603D01*
X104088000Y-85599603D01*
X104088000Y-83847146D01*
X167518356Y-83847146D01*
X169418000Y-85746790D01*
X171317644Y-83847146D01*
X171109423Y-83345825D01*
X169924397Y-82908651D01*
X168662278Y-82958245D01*
X167726577Y-83345825D01*
X167518356Y-83847146D01*
X104088000Y-83847146D01*
X104088000Y-80250502D01*
X130928708Y-80250502D01*
X131009896Y-80645002D01*
X131820366Y-80909503D01*
X132670362Y-80843716D01*
X133150104Y-80645002D01*
X133231292Y-80250502D01*
X132080000Y-79099210D01*
X130928708Y-80250502D01*
X104088000Y-80250502D01*
X104088000Y-78480366D01*
X129910497Y-78480366D01*
X129976284Y-79330362D01*
X130174998Y-79810104D01*
X130569498Y-79891292D01*
X131720790Y-78740000D01*
X132439210Y-78740000D01*
X133140831Y-79441621D01*
X133233106Y-79664943D01*
X133692637Y-80125278D01*
X134293352Y-80374716D01*
X134943795Y-80375284D01*
X135544943Y-80126894D01*
X135611574Y-80060379D01*
X135695910Y-80191441D01*
X135908110Y-80336431D01*
X136160000Y-80387440D01*
X138160000Y-80387440D01*
X138395317Y-80343162D01*
X138611441Y-80204090D01*
X138756431Y-79991890D01*
X138807440Y-79740000D01*
X138807440Y-79054388D01*
X144462225Y-79054388D01*
X144703398Y-79638072D01*
X145149579Y-80085032D01*
X145732841Y-80327224D01*
X146364388Y-80327775D01*
X146948072Y-80086602D01*
X147320257Y-79715065D01*
X147689579Y-80085032D01*
X148272841Y-80327224D01*
X148904388Y-80327775D01*
X149488072Y-80086602D01*
X149860257Y-79715065D01*
X150229579Y-80085032D01*
X150812841Y-80327224D01*
X151444388Y-80327775D01*
X152028072Y-80086602D01*
X152400257Y-79715065D01*
X152769579Y-80085032D01*
X153352841Y-80327224D01*
X153984388Y-80327775D01*
X154568072Y-80086602D01*
X154940257Y-79715065D01*
X155309579Y-80085032D01*
X155892841Y-80327224D01*
X156524388Y-80327775D01*
X157108072Y-80086602D01*
X157480257Y-79715065D01*
X157849579Y-80085032D01*
X158432841Y-80327224D01*
X159064388Y-80327775D01*
X159648072Y-80086602D01*
X160020257Y-79715065D01*
X160389579Y-80085032D01*
X160972841Y-80327224D01*
X161604388Y-80327775D01*
X162188072Y-80086602D01*
X162560257Y-79715065D01*
X162929579Y-80085032D01*
X163512841Y-80327224D01*
X164144388Y-80327775D01*
X164728072Y-80086602D01*
X165175032Y-79640421D01*
X165417224Y-79057159D01*
X165417775Y-78425612D01*
X165176602Y-77841928D01*
X164730421Y-77394968D01*
X164147159Y-77152776D01*
X163515612Y-77152225D01*
X162931928Y-77393398D01*
X162559743Y-77764935D01*
X162190421Y-77394968D01*
X161607159Y-77152776D01*
X160975612Y-77152225D01*
X160391928Y-77393398D01*
X160019743Y-77764935D01*
X159650421Y-77394968D01*
X159067159Y-77152776D01*
X158435612Y-77152225D01*
X157851928Y-77393398D01*
X157479743Y-77764935D01*
X157110421Y-77394968D01*
X156527159Y-77152776D01*
X155895612Y-77152225D01*
X155311928Y-77393398D01*
X154939743Y-77764935D01*
X154570421Y-77394968D01*
X153987159Y-77152776D01*
X153355612Y-77152225D01*
X152771928Y-77393398D01*
X152399743Y-77764935D01*
X152030421Y-77394968D01*
X151447159Y-77152776D01*
X150815612Y-77152225D01*
X150231928Y-77393398D01*
X149859743Y-77764935D01*
X149490421Y-77394968D01*
X148907159Y-77152776D01*
X148275612Y-77152225D01*
X147691928Y-77393398D01*
X147319743Y-77764935D01*
X146950421Y-77394968D01*
X146367159Y-77152776D01*
X145735612Y-77152225D01*
X145151928Y-77393398D01*
X144704968Y-77839579D01*
X144462776Y-78422841D01*
X144462225Y-79054388D01*
X138807440Y-79054388D01*
X138807440Y-77740000D01*
X138763162Y-77504683D01*
X138624090Y-77288559D01*
X138411890Y-77143569D01*
X138160000Y-77092560D01*
X136160000Y-77092560D01*
X135924683Y-77136838D01*
X135708559Y-77275910D01*
X135611090Y-77418561D01*
X135547363Y-77354722D01*
X134946648Y-77105284D01*
X134296205Y-77104716D01*
X133695057Y-77353106D01*
X133234722Y-77812637D01*
X133141096Y-78038114D01*
X132439210Y-78740000D01*
X131720790Y-78740000D01*
X130569498Y-77588708D01*
X130174998Y-77669896D01*
X129910497Y-78480366D01*
X104088000Y-78480366D01*
X104088000Y-77229498D01*
X130928708Y-77229498D01*
X132080000Y-78380790D01*
X133231292Y-77229498D01*
X133150104Y-76834998D01*
X132339634Y-76570497D01*
X131489638Y-76636284D01*
X131009896Y-76834998D01*
X130928708Y-77229498D01*
X104088000Y-77229498D01*
X104088000Y-76470000D01*
X183137560Y-76470000D01*
X183137560Y-78470000D01*
X183181838Y-78705317D01*
X183320910Y-78921441D01*
X183533110Y-79066431D01*
X183785000Y-79117440D01*
X185785000Y-79117440D01*
X186020317Y-79073162D01*
X186236441Y-78934090D01*
X186333910Y-78791439D01*
X186397637Y-78855278D01*
X186998352Y-79104716D01*
X187648795Y-79105284D01*
X188249943Y-78856894D01*
X188595199Y-78512241D01*
X188937637Y-78855278D01*
X189538352Y-79104716D01*
X190188795Y-79105284D01*
X190490789Y-78980502D01*
X191253708Y-78980502D01*
X191334896Y-79375002D01*
X192145366Y-79639503D01*
X192995362Y-79573716D01*
X193475104Y-79375002D01*
X193556292Y-78980502D01*
X192405000Y-77829210D01*
X191253708Y-78980502D01*
X190490789Y-78980502D01*
X190789943Y-78856894D01*
X191250278Y-78397363D01*
X191343904Y-78171886D01*
X192045790Y-77470000D01*
X192764210Y-77470000D01*
X193915502Y-78621292D01*
X194310002Y-78540104D01*
X194574503Y-77729634D01*
X194508716Y-76879638D01*
X194310002Y-76399896D01*
X193915502Y-76318708D01*
X192764210Y-77470000D01*
X192045790Y-77470000D01*
X191344169Y-76768379D01*
X191251894Y-76545057D01*
X190792363Y-76084722D01*
X190490790Y-75959498D01*
X191253708Y-75959498D01*
X192405000Y-77110790D01*
X193556292Y-75959498D01*
X193475104Y-75564998D01*
X192664634Y-75300497D01*
X191814638Y-75366284D01*
X191334896Y-75564998D01*
X191253708Y-75959498D01*
X190490790Y-75959498D01*
X190191648Y-75835284D01*
X189541205Y-75834716D01*
X188940057Y-76083106D01*
X188594801Y-76427759D01*
X188252363Y-76084722D01*
X187651648Y-75835284D01*
X187001205Y-75834716D01*
X186400057Y-76083106D01*
X186333426Y-76149621D01*
X186249090Y-76018559D01*
X186036890Y-75873569D01*
X185785000Y-75822560D01*
X183785000Y-75822560D01*
X183549683Y-75866838D01*
X183333559Y-76005910D01*
X183188569Y-76218110D01*
X183137560Y-76470000D01*
X104088000Y-76470000D01*
X104088000Y-73124854D01*
X116718356Y-73124854D01*
X116926577Y-73626175D01*
X118111603Y-74063349D01*
X119373722Y-74013755D01*
X120309423Y-73626175D01*
X120517644Y-73124854D01*
X191648356Y-73124854D01*
X191856577Y-73626175D01*
X193041603Y-74063349D01*
X194303722Y-74013755D01*
X195239423Y-73626175D01*
X195447644Y-73124854D01*
X193548000Y-71225210D01*
X191648356Y-73124854D01*
X120517644Y-73124854D01*
X118618000Y-71225210D01*
X116718356Y-73124854D01*
X104088000Y-73124854D01*
X104088000Y-69036000D01*
X116191468Y-69036000D01*
X115857825Y-69174577D01*
X115857825Y-69174577D01*
G37*
X115857825Y-69174577D02*
X115420651Y-70359603D01*
X115470245Y-71621722D01*
X115857825Y-72557423D01*
X116359146Y-72765644D01*
X118258790Y-70866000D01*
X118244648Y-70851858D01*
X118603858Y-70492648D01*
X118618000Y-70506790D01*
X118632143Y-70492648D01*
X118991353Y-70851858D01*
X118977210Y-70866000D01*
X120876854Y-72765644D01*
X121378175Y-72557423D01*
X121458295Y-72340245D01*
X121600511Y-72435271D01*
X122174000Y-72549345D01*
X122747489Y-72435271D01*
X123233670Y-72110415D01*
X123444000Y-71795634D01*
X123654330Y-72110415D01*
X124140511Y-72435271D01*
X124714000Y-72549345D01*
X125287489Y-72435271D01*
X125773670Y-72110415D01*
X125984000Y-71795634D01*
X126194330Y-72110415D01*
X126680511Y-72435271D01*
X127254000Y-72549345D01*
X127827489Y-72435271D01*
X128187386Y-72194795D01*
X128700529Y-72696287D01*
X129231751Y-72944619D01*
X129540000Y-72720401D01*
X129540000Y-71120000D01*
X129520000Y-71120000D01*
X129520000Y-70612000D01*
X129540000Y-70612000D01*
X129540000Y-70592000D01*
X130048000Y-70592000D01*
X130048000Y-70612000D01*
X130068000Y-70612000D01*
X130068000Y-71120000D01*
X130048000Y-71120000D01*
X130048000Y-72720401D01*
X130356249Y-72944619D01*
X130887471Y-72696287D01*
X131400614Y-72194795D01*
X131760511Y-72435271D01*
X132334000Y-72549345D01*
X132907489Y-72435271D01*
X133393670Y-72110415D01*
X133604000Y-71795634D01*
X133814330Y-72110415D01*
X134300511Y-72435271D01*
X134874000Y-72549345D01*
X135447489Y-72435271D01*
X135933670Y-72110415D01*
X136144000Y-71795634D01*
X136354330Y-72110415D01*
X136840511Y-72435271D01*
X137414000Y-72549345D01*
X137987489Y-72435271D01*
X138473670Y-72110415D01*
X138684000Y-71795634D01*
X138894330Y-72110415D01*
X139380511Y-72435271D01*
X139954000Y-72549345D01*
X140527489Y-72435271D01*
X141013670Y-72110415D01*
X141224000Y-71795634D01*
X141434330Y-72110415D01*
X141920511Y-72435271D01*
X142494000Y-72549345D01*
X143067489Y-72435271D01*
X143553670Y-72110415D01*
X143764000Y-71795634D01*
X143974330Y-72110415D01*
X144460511Y-72435271D01*
X145034000Y-72549345D01*
X145607489Y-72435271D01*
X146093670Y-72110415D01*
X146418526Y-71624234D01*
X146532600Y-71050745D01*
X146532600Y-70681255D01*
X147599400Y-70681255D01*
X147599400Y-71050745D01*
X147713474Y-71624234D01*
X148038330Y-72110415D01*
X148524511Y-72435271D01*
X149098000Y-72549345D01*
X149671489Y-72435271D01*
X150157670Y-72110415D01*
X150368000Y-71795634D01*
X150578330Y-72110415D01*
X151064511Y-72435271D01*
X151638000Y-72549345D01*
X152211489Y-72435271D01*
X152697670Y-72110415D01*
X152908000Y-71795634D01*
X153118330Y-72110415D01*
X153604511Y-72435271D01*
X154178000Y-72549345D01*
X154751489Y-72435271D01*
X155237670Y-72110415D01*
X155448000Y-71795634D01*
X155658330Y-72110415D01*
X156144511Y-72435271D01*
X156718000Y-72549345D01*
X157291489Y-72435271D01*
X157777670Y-72110415D01*
X157988000Y-71795634D01*
X158198330Y-72110415D01*
X158684511Y-72435271D01*
X159258000Y-72549345D01*
X159831489Y-72435271D01*
X160317670Y-72110415D01*
X160528000Y-71795634D01*
X160738330Y-72110415D01*
X161224511Y-72435271D01*
X161798000Y-72549345D01*
X162371489Y-72435271D01*
X162857670Y-72110415D01*
X163068000Y-71795634D01*
X163278330Y-72110415D01*
X163764511Y-72435271D01*
X164338000Y-72549345D01*
X164911489Y-72435271D01*
X165397670Y-72110415D01*
X165608000Y-71795634D01*
X165818330Y-72110415D01*
X166304511Y-72435271D01*
X166878000Y-72549345D01*
X167451489Y-72435271D01*
X167937670Y-72110415D01*
X168262526Y-71624234D01*
X168376600Y-71050745D01*
X168376600Y-70681255D01*
X168262526Y-70107766D01*
X167937670Y-69621585D01*
X167451489Y-69296729D01*
X166878000Y-69182655D01*
X166304511Y-69296729D01*
X165818330Y-69621585D01*
X165608000Y-69936366D01*
X165397670Y-69621585D01*
X164911489Y-69296729D01*
X164338000Y-69182655D01*
X163764511Y-69296729D01*
X163278330Y-69621585D01*
X163068000Y-69936366D01*
X162857670Y-69621585D01*
X162371489Y-69296729D01*
X161798000Y-69182655D01*
X161224511Y-69296729D01*
X160738330Y-69621585D01*
X160528000Y-69936366D01*
X160317670Y-69621585D01*
X159831489Y-69296729D01*
X159258000Y-69182655D01*
X158684511Y-69296729D01*
X158198330Y-69621585D01*
X157988000Y-69936366D01*
X157777670Y-69621585D01*
X157291489Y-69296729D01*
X156718000Y-69182655D01*
X156144511Y-69296729D01*
X155658330Y-69621585D01*
X155448000Y-69936366D01*
X155237670Y-69621585D01*
X154751489Y-69296729D01*
X154178000Y-69182655D01*
X153604511Y-69296729D01*
X153118330Y-69621585D01*
X152908000Y-69936366D01*
X152697670Y-69621585D01*
X152211489Y-69296729D01*
X151638000Y-69182655D01*
X151064511Y-69296729D01*
X150578330Y-69621585D01*
X150368000Y-69936366D01*
X150157670Y-69621585D01*
X149671489Y-69296729D01*
X149098000Y-69182655D01*
X148524511Y-69296729D01*
X148038330Y-69621585D01*
X147713474Y-70107766D01*
X147599400Y-70681255D01*
X146532600Y-70681255D01*
X146418526Y-70107766D01*
X146093670Y-69621585D01*
X145607489Y-69296729D01*
X145034000Y-69182655D01*
X144460511Y-69296729D01*
X143974330Y-69621585D01*
X143764000Y-69936366D01*
X143553670Y-69621585D01*
X143067489Y-69296729D01*
X142494000Y-69182655D01*
X141920511Y-69296729D01*
X141434330Y-69621585D01*
X141224000Y-69936366D01*
X141013670Y-69621585D01*
X140527489Y-69296729D01*
X139954000Y-69182655D01*
X139380511Y-69296729D01*
X138894330Y-69621585D01*
X138684000Y-69936366D01*
X138473670Y-69621585D01*
X137987489Y-69296729D01*
X137414000Y-69182655D01*
X136840511Y-69296729D01*
X136354330Y-69621585D01*
X136144000Y-69936366D01*
X135933670Y-69621585D01*
X135447489Y-69296729D01*
X134874000Y-69182655D01*
X134300511Y-69296729D01*
X133814330Y-69621585D01*
X133604000Y-69936366D01*
X133393670Y-69621585D01*
X132907489Y-69296729D01*
X132334000Y-69182655D01*
X131760511Y-69296729D01*
X131400614Y-69537205D01*
X130887765Y-69036000D01*
X191121468Y-69036000D01*
X190787825Y-69174577D01*
X190657475Y-69527910D01*
X190311489Y-69296729D01*
X189738000Y-69182655D01*
X189164511Y-69296729D01*
X188678330Y-69621585D01*
X188468000Y-69936366D01*
X188257670Y-69621585D01*
X187771489Y-69296729D01*
X187198000Y-69182655D01*
X186624511Y-69296729D01*
X186138330Y-69621585D01*
X185928000Y-69936366D01*
X185717670Y-69621585D01*
X185231489Y-69296729D01*
X184658000Y-69182655D01*
X184084511Y-69296729D01*
X183598330Y-69621585D01*
X183388000Y-69936366D01*
X183177670Y-69621585D01*
X182691489Y-69296729D01*
X182118000Y-69182655D01*
X181544511Y-69296729D01*
X181058330Y-69621585D01*
X180848000Y-69936366D01*
X180637670Y-69621585D01*
X180151489Y-69296729D01*
X179578000Y-69182655D01*
X179004511Y-69296729D01*
X178518330Y-69621585D01*
X178308000Y-69936366D01*
X178097670Y-69621585D01*
X177611489Y-69296729D01*
X177038000Y-69182655D01*
X176464511Y-69296729D01*
X175978330Y-69621585D01*
X175768000Y-69936366D01*
X175557670Y-69621585D01*
X175071489Y-69296729D01*
X174498000Y-69182655D01*
X173924511Y-69296729D01*
X173438330Y-69621585D01*
X173228000Y-69936366D01*
X173017670Y-69621585D01*
X172531489Y-69296729D01*
X171958000Y-69182655D01*
X171384511Y-69296729D01*
X170898330Y-69621585D01*
X170573474Y-70107766D01*
X170459400Y-70681255D01*
X170459400Y-71050745D01*
X170573474Y-71624234D01*
X170898330Y-72110415D01*
X171384511Y-72435271D01*
X171958000Y-72549345D01*
X172531489Y-72435271D01*
X173017670Y-72110415D01*
X173228000Y-71795634D01*
X173438330Y-72110415D01*
X173924511Y-72435271D01*
X174498000Y-72549345D01*
X175071489Y-72435271D01*
X175557670Y-72110415D01*
X175768000Y-71795634D01*
X175978330Y-72110415D01*
X176464511Y-72435271D01*
X177038000Y-72549345D01*
X177611489Y-72435271D01*
X178097670Y-72110415D01*
X178308000Y-71795634D01*
X178518330Y-72110415D01*
X179004511Y-72435271D01*
X179578000Y-72549345D01*
X180151489Y-72435271D01*
X180637670Y-72110415D01*
X180848000Y-71795634D01*
X181058330Y-72110415D01*
X181544511Y-72435271D01*
X182118000Y-72549345D01*
X182691489Y-72435271D01*
X183177670Y-72110415D01*
X183388000Y-71795634D01*
X183598330Y-72110415D01*
X184084511Y-72435271D01*
X184658000Y-72549345D01*
X185231489Y-72435271D01*
X185717670Y-72110415D01*
X185928000Y-71795634D01*
X186138330Y-72110415D01*
X186624511Y-72435271D01*
X187198000Y-72549345D01*
X187771489Y-72435271D01*
X188257670Y-72110415D01*
X188468000Y-71795634D01*
X188678330Y-72110415D01*
X189164511Y-72435271D01*
X189738000Y-72549345D01*
X190311489Y-72435271D01*
X190644939Y-72212466D01*
X190787825Y-72557423D01*
X191289146Y-72765644D01*
X193188790Y-70866000D01*
X193174648Y-70851858D01*
X193533858Y-70492648D01*
X193548000Y-70506790D01*
X193562143Y-70492648D01*
X193921353Y-70851858D01*
X193907210Y-70866000D01*
X195806854Y-72765644D01*
X196072167Y-72655448D01*
X195973474Y-72803152D01*
X195859400Y-73376641D01*
X195859400Y-73435359D01*
X195973474Y-74008848D01*
X196298330Y-74495029D01*
X196569172Y-74676000D01*
X196298330Y-74856971D01*
X195973474Y-75343152D01*
X195859400Y-75916641D01*
X195859400Y-75975359D01*
X195973474Y-76548848D01*
X196298330Y-77035029D01*
X196569172Y-77216000D01*
X196298330Y-77396971D01*
X195973474Y-77883152D01*
X195859400Y-78456641D01*
X195859400Y-78515359D01*
X195973474Y-79088848D01*
X196298330Y-79575029D01*
X196569172Y-79756000D01*
X196298330Y-79936971D01*
X195973474Y-80423152D01*
X195859400Y-80996641D01*
X195859400Y-81055359D01*
X195973474Y-81628848D01*
X196298330Y-82115029D01*
X196569172Y-82296000D01*
X196298330Y-82476971D01*
X195973474Y-82963152D01*
X195859400Y-83536641D01*
X195859400Y-83595359D01*
X195973474Y-84168848D01*
X196298330Y-84655029D01*
X196569172Y-84836000D01*
X196298330Y-85016971D01*
X195973474Y-85503152D01*
X195859400Y-86076641D01*
X195859400Y-86135359D01*
X195973474Y-86708848D01*
X196298330Y-87195029D01*
X196569172Y-87376000D01*
X196298330Y-87556971D01*
X195973474Y-88043152D01*
X195859400Y-88616641D01*
X195859400Y-88675359D01*
X195973474Y-89248848D01*
X196298330Y-89735029D01*
X196569172Y-89916000D01*
X196298330Y-90096971D01*
X195973474Y-90583152D01*
X195859400Y-91156641D01*
X195859400Y-91215359D01*
X195973474Y-91788848D01*
X196298330Y-92275029D01*
X196569172Y-92456000D01*
X196298330Y-92636971D01*
X195973474Y-93123152D01*
X195859400Y-93696641D01*
X195859400Y-93755359D01*
X195973474Y-94328848D01*
X196298330Y-94815029D01*
X196569172Y-94996000D01*
X196298330Y-95176971D01*
X195973474Y-95663152D01*
X195859400Y-96236641D01*
X195859400Y-96295359D01*
X195973474Y-96868848D01*
X196298330Y-97355029D01*
X196569172Y-97536000D01*
X196298330Y-97716971D01*
X195973474Y-98203152D01*
X195859400Y-98776641D01*
X195859400Y-98835359D01*
X195973474Y-99408848D01*
X196298330Y-99895029D01*
X196569172Y-100076000D01*
X196298330Y-100256971D01*
X195973474Y-100743152D01*
X195859400Y-101316641D01*
X195859400Y-101375359D01*
X195973474Y-101948848D01*
X196298330Y-102435029D01*
X196569172Y-102616000D01*
X196298330Y-102796971D01*
X195973474Y-103283152D01*
X195859400Y-103856641D01*
X195859400Y-103915359D01*
X195973474Y-104488848D01*
X196298330Y-104975029D01*
X196569172Y-105156000D01*
X196298330Y-105336971D01*
X195973474Y-105823152D01*
X195859400Y-106396641D01*
X195859400Y-106455359D01*
X195973474Y-107028848D01*
X196298330Y-107515029D01*
X196569172Y-107696000D01*
X196298330Y-107876971D01*
X195973474Y-108363152D01*
X195859400Y-108936641D01*
X195859400Y-108995359D01*
X195973474Y-109568848D01*
X196298330Y-110055029D01*
X196569172Y-110236000D01*
X196298330Y-110416971D01*
X195973474Y-110903152D01*
X195859400Y-111476641D01*
X195859400Y-111535359D01*
X195973474Y-112108848D01*
X196298330Y-112595029D01*
X196311265Y-112603672D01*
X196306010Y-112634799D01*
X197358000Y-113686790D01*
X197372142Y-113672647D01*
X197731353Y-114031858D01*
X197717210Y-114046000D01*
X197731353Y-114060142D01*
X197372142Y-114419353D01*
X197358000Y-114405210D01*
X196306010Y-115457201D01*
X196370237Y-115837670D01*
X197131068Y-116079288D01*
X197926448Y-116011356D01*
X198345763Y-115837670D01*
X198409990Y-115457203D01*
X198623312Y-115670526D01*
X198691300Y-115602538D01*
X198933519Y-115805624D01*
X199332275Y-115970779D01*
X199142278Y-115978245D01*
X198206577Y-116365825D01*
X197998356Y-116867146D01*
X199898000Y-118766790D01*
X201797644Y-116867146D01*
X201589423Y-116365825D01*
X200489573Y-115960074D01*
X200862481Y-115805624D01*
X201462443Y-115302590D01*
X201824233Y-114608251D01*
X201602723Y-114300000D01*
X200152000Y-114300000D01*
X200152000Y-114320000D01*
X199644000Y-114320000D01*
X199644000Y-114300000D01*
X199624000Y-114300000D01*
X199624000Y-113792000D01*
X199644000Y-113792000D01*
X199644000Y-113772000D01*
X200152000Y-113772000D01*
X200152000Y-113792000D01*
X201602723Y-113792000D01*
X201824233Y-113483749D01*
X201462443Y-112789410D01*
X201055673Y-112448357D01*
X201282526Y-112108848D01*
X201396600Y-111535359D01*
X201396600Y-111476641D01*
X201282526Y-110903152D01*
X200957670Y-110416971D01*
X200686828Y-110236000D01*
X200957670Y-110055029D01*
X201282526Y-109568848D01*
X201396600Y-108995359D01*
X201396600Y-108936641D01*
X201282526Y-108363152D01*
X200957670Y-107876971D01*
X200686828Y-107696000D01*
X200957670Y-107515029D01*
X201282526Y-107028848D01*
X201396600Y-106455359D01*
X201396600Y-106396641D01*
X201282526Y-105823152D01*
X200957670Y-105336971D01*
X200686828Y-105156000D01*
X200957670Y-104975029D01*
X201282526Y-104488848D01*
X201396600Y-103915359D01*
X201396600Y-103856641D01*
X201282526Y-103283152D01*
X200957670Y-102796971D01*
X200686828Y-102616000D01*
X200957670Y-102435029D01*
X201282526Y-101948848D01*
X201396600Y-101375359D01*
X201396600Y-101316641D01*
X201282526Y-100743152D01*
X200957670Y-100256971D01*
X200686828Y-100076000D01*
X200957670Y-99895029D01*
X201282526Y-99408848D01*
X201396600Y-98835359D01*
X201396600Y-98776641D01*
X201282526Y-98203152D01*
X200957670Y-97716971D01*
X200686828Y-97536000D01*
X200957670Y-97355029D01*
X201282526Y-96868848D01*
X201396600Y-96295359D01*
X201396600Y-96236641D01*
X201282526Y-95663152D01*
X200957670Y-95176971D01*
X200686828Y-94996000D01*
X200957670Y-94815029D01*
X201282526Y-94328848D01*
X201396600Y-93755359D01*
X201396600Y-93696641D01*
X201282526Y-93123152D01*
X200957670Y-92636971D01*
X200686828Y-92456000D01*
X200957670Y-92275029D01*
X201282526Y-91788848D01*
X201396600Y-91215359D01*
X201396600Y-91156641D01*
X201282526Y-90583152D01*
X200957670Y-90096971D01*
X200686828Y-89916000D01*
X200957670Y-89735029D01*
X201282526Y-89248848D01*
X201396600Y-88675359D01*
X201396600Y-88616641D01*
X201282526Y-88043152D01*
X200957670Y-87556971D01*
X200686828Y-87376000D01*
X200957670Y-87195029D01*
X201282526Y-86708848D01*
X201396600Y-86135359D01*
X201396600Y-86076641D01*
X201282526Y-85503152D01*
X200957670Y-85016971D01*
X200686828Y-84836000D01*
X200957670Y-84655029D01*
X201282526Y-84168848D01*
X201396600Y-83595359D01*
X201396600Y-83536641D01*
X201282526Y-82963152D01*
X200957670Y-82476971D01*
X200686828Y-82296000D01*
X200957670Y-82115029D01*
X201282526Y-81628848D01*
X201396600Y-81055359D01*
X201396600Y-80996641D01*
X201282526Y-80423152D01*
X200957670Y-79936971D01*
X200686828Y-79756000D01*
X200957670Y-79575029D01*
X201282526Y-79088848D01*
X201396600Y-78515359D01*
X201396600Y-78456641D01*
X201282526Y-77883152D01*
X200957670Y-77396971D01*
X200686828Y-77216000D01*
X200957670Y-77035029D01*
X201282526Y-76548848D01*
X201396600Y-75975359D01*
X201396600Y-75916641D01*
X201282526Y-75343152D01*
X200957670Y-74856971D01*
X200686828Y-74676000D01*
X200957670Y-74495029D01*
X201282526Y-74008848D01*
X201396600Y-73435359D01*
X201396600Y-73376641D01*
X201282526Y-72803152D01*
X200957670Y-72316971D01*
X200686828Y-72136000D01*
X200957670Y-71955029D01*
X201282526Y-71468848D01*
X201396600Y-70895359D01*
X201396600Y-70836641D01*
X201282526Y-70263152D01*
X200957670Y-69776971D01*
X200471489Y-69452115D01*
X199898000Y-69338041D01*
X199324511Y-69452115D01*
X198838330Y-69776971D01*
X198628000Y-70091752D01*
X198417670Y-69776971D01*
X197931489Y-69452115D01*
X197358000Y-69338041D01*
X196784511Y-69452115D01*
X196501472Y-69641236D01*
X196308175Y-69174577D01*
X195974532Y-69036000D01*
X204623600Y-69036000D01*
X204623600Y-120956000D01*
X202324532Y-120956000D01*
X202658175Y-120817423D01*
X203095349Y-119632397D01*
X203045755Y-118370278D01*
X202658175Y-117434577D01*
X202156854Y-117226356D01*
X200257210Y-119126000D01*
X200271353Y-119140143D01*
X199912143Y-119499353D01*
X199898000Y-119485210D01*
X199883858Y-119499353D01*
X199524648Y-119140143D01*
X199538790Y-119126000D01*
X197639146Y-117226356D01*
X197137825Y-117434577D01*
X196700651Y-118619603D01*
X196750245Y-119881722D01*
X197137825Y-120817423D01*
X197471468Y-120956000D01*
X147651765Y-120956000D01*
X148164614Y-120454795D01*
X148524511Y-120695271D01*
X149098000Y-120809345D01*
X149671489Y-120695271D01*
X150157670Y-120370415D01*
X150482526Y-119884234D01*
X150596600Y-119310745D01*
X150596600Y-118941255D01*
X152679400Y-118941255D01*
X152679400Y-119310745D01*
X152793474Y-119884234D01*
X153118330Y-120370415D01*
X153604511Y-120695271D01*
X154178000Y-120809345D01*
X154751489Y-120695271D01*
X155237670Y-120370415D01*
X155448000Y-120055634D01*
X155658330Y-120370415D01*
X156144511Y-120695271D01*
X156718000Y-120809345D01*
X157291489Y-120695271D01*
X157777670Y-120370415D01*
X157988000Y-120055634D01*
X158198330Y-120370415D01*
X158684511Y-120695271D01*
X159258000Y-120809345D01*
X159831489Y-120695271D01*
X160317670Y-120370415D01*
X160528000Y-120055634D01*
X160738330Y-120370415D01*
X161224511Y-120695271D01*
X161798000Y-120809345D01*
X162371489Y-120695271D01*
X162857670Y-120370415D01*
X163068000Y-120055634D01*
X163278330Y-120370415D01*
X163764511Y-120695271D01*
X164338000Y-120809345D01*
X164911489Y-120695271D01*
X165397670Y-120370415D01*
X165608000Y-120055634D01*
X165818330Y-120370415D01*
X166304511Y-120695271D01*
X166878000Y-120809345D01*
X167451489Y-120695271D01*
X167937670Y-120370415D01*
X168148000Y-120055634D01*
X168358330Y-120370415D01*
X168844511Y-120695271D01*
X169418000Y-120809345D01*
X169991489Y-120695271D01*
X170477670Y-120370415D01*
X170688000Y-120055634D01*
X170898330Y-120370415D01*
X171384511Y-120695271D01*
X171958000Y-120809345D01*
X172531489Y-120695271D01*
X173017670Y-120370415D01*
X173342526Y-119884234D01*
X173456600Y-119310745D01*
X173456600Y-118941255D01*
X175539400Y-118941255D01*
X175539400Y-119310745D01*
X175653474Y-119884234D01*
X175978330Y-120370415D01*
X176464511Y-120695271D01*
X177038000Y-120809345D01*
X177611489Y-120695271D01*
X178097670Y-120370415D01*
X178308000Y-120055634D01*
X178518330Y-120370415D01*
X179004511Y-120695271D01*
X179578000Y-120809345D01*
X180151489Y-120695271D01*
X180637670Y-120370415D01*
X180848000Y-120055634D01*
X181058330Y-120370415D01*
X181544511Y-120695271D01*
X182118000Y-120809345D01*
X182691489Y-120695271D01*
X183177670Y-120370415D01*
X183388000Y-120055634D01*
X183598330Y-120370415D01*
X184084511Y-120695271D01*
X184658000Y-120809345D01*
X185231489Y-120695271D01*
X185717670Y-120370415D01*
X185928000Y-120055634D01*
X186138330Y-120370415D01*
X186624511Y-120695271D01*
X187198000Y-120809345D01*
X187771489Y-120695271D01*
X188257670Y-120370415D01*
X188468000Y-120055634D01*
X188678330Y-120370415D01*
X189164511Y-120695271D01*
X189738000Y-120809345D01*
X190311489Y-120695271D01*
X190797670Y-120370415D01*
X191008000Y-120055634D01*
X191218330Y-120370415D01*
X191704511Y-120695271D01*
X192278000Y-120809345D01*
X192851489Y-120695271D01*
X193337670Y-120370415D01*
X193548000Y-120055634D01*
X193758330Y-120370415D01*
X194244511Y-120695271D01*
X194818000Y-120809345D01*
X195391489Y-120695271D01*
X195877670Y-120370415D01*
X196202526Y-119884234D01*
X196316600Y-119310745D01*
X196316600Y-118941255D01*
X196202526Y-118367766D01*
X195877670Y-117881585D01*
X195391489Y-117556729D01*
X194818000Y-117442655D01*
X194244511Y-117556729D01*
X193758330Y-117881585D01*
X193548000Y-118196366D01*
X193337670Y-117881585D01*
X192851489Y-117556729D01*
X192278000Y-117442655D01*
X191704511Y-117556729D01*
X191218330Y-117881585D01*
X191008000Y-118196366D01*
X190797670Y-117881585D01*
X190311489Y-117556729D01*
X189738000Y-117442655D01*
X189164511Y-117556729D01*
X188678330Y-117881585D01*
X188468000Y-118196366D01*
X188257670Y-117881585D01*
X187771489Y-117556729D01*
X187198000Y-117442655D01*
X186624511Y-117556729D01*
X186138330Y-117881585D01*
X185928000Y-118196366D01*
X185717670Y-117881585D01*
X185231489Y-117556729D01*
X184658000Y-117442655D01*
X184084511Y-117556729D01*
X183598330Y-117881585D01*
X183388000Y-118196366D01*
X183177670Y-117881585D01*
X182691489Y-117556729D01*
X182118000Y-117442655D01*
X181544511Y-117556729D01*
X181058330Y-117881585D01*
X180848000Y-118196366D01*
X180637670Y-117881585D01*
X180151489Y-117556729D01*
X179578000Y-117442655D01*
X179004511Y-117556729D01*
X178518330Y-117881585D01*
X178308000Y-118196366D01*
X178097670Y-117881585D01*
X177611489Y-117556729D01*
X177038000Y-117442655D01*
X176464511Y-117556729D01*
X175978330Y-117881585D01*
X175653474Y-118367766D01*
X175539400Y-118941255D01*
X173456600Y-118941255D01*
X173342526Y-118367766D01*
X173017670Y-117881585D01*
X172531489Y-117556729D01*
X171958000Y-117442655D01*
X171384511Y-117556729D01*
X170898330Y-117881585D01*
X170688000Y-118196366D01*
X170477670Y-117881585D01*
X169991489Y-117556729D01*
X169418000Y-117442655D01*
X168844511Y-117556729D01*
X168358330Y-117881585D01*
X168148000Y-118196366D01*
X167937670Y-117881585D01*
X167451489Y-117556729D01*
X166878000Y-117442655D01*
X166304511Y-117556729D01*
X165818330Y-117881585D01*
X165608000Y-118196366D01*
X165397670Y-117881585D01*
X164911489Y-117556729D01*
X164338000Y-117442655D01*
X163764511Y-117556729D01*
X163278330Y-117881585D01*
X163068000Y-118196366D01*
X162857670Y-117881585D01*
X162371489Y-117556729D01*
X161798000Y-117442655D01*
X161224511Y-117556729D01*
X160738330Y-117881585D01*
X160528000Y-118196366D01*
X160317670Y-117881585D01*
X159831489Y-117556729D01*
X159258000Y-117442655D01*
X158684511Y-117556729D01*
X158198330Y-117881585D01*
X157988000Y-118196366D01*
X157777670Y-117881585D01*
X157291489Y-117556729D01*
X156718000Y-117442655D01*
X156144511Y-117556729D01*
X155658330Y-117881585D01*
X155448000Y-118196366D01*
X155237670Y-117881585D01*
X154751489Y-117556729D01*
X154178000Y-117442655D01*
X153604511Y-117556729D01*
X153118330Y-117881585D01*
X152793474Y-118367766D01*
X152679400Y-118941255D01*
X150596600Y-118941255D01*
X150482526Y-118367766D01*
X150157670Y-117881585D01*
X149671489Y-117556729D01*
X149098000Y-117442655D01*
X148524511Y-117556729D01*
X148164614Y-117797205D01*
X147651471Y-117295713D01*
X147120249Y-117047381D01*
X146812000Y-117271599D01*
X146812000Y-118872000D01*
X146832000Y-118872000D01*
X146832000Y-119380000D01*
X146812000Y-119380000D01*
X146812000Y-119400000D01*
X146304000Y-119400000D01*
X146304000Y-119380000D01*
X144272000Y-119380000D01*
X144272000Y-119400000D01*
X143764000Y-119400000D01*
X143764000Y-119380000D01*
X143744000Y-119380000D01*
X143744000Y-118872000D01*
X143764000Y-118872000D01*
X143764000Y-117271599D01*
X144272000Y-117271599D01*
X144272000Y-118872000D01*
X146304000Y-118872000D01*
X146304000Y-117271599D01*
X145995751Y-117047381D01*
X145464529Y-117295713D01*
X145288000Y-117468234D01*
X145111471Y-117295713D01*
X144580249Y-117047381D01*
X144272000Y-117271599D01*
X143764000Y-117271599D01*
X143455751Y-117047381D01*
X142924529Y-117295713D01*
X142411386Y-117797205D01*
X142051489Y-117556729D01*
X141478000Y-117442655D01*
X140904511Y-117556729D01*
X140418330Y-117881585D01*
X140208000Y-118196366D01*
X139997670Y-117881585D01*
X139511489Y-117556729D01*
X138938000Y-117442655D01*
X138364511Y-117556729D01*
X137878330Y-117881585D01*
X137668000Y-118196366D01*
X137457670Y-117881585D01*
X136971489Y-117556729D01*
X136398000Y-117442655D01*
X135824511Y-117556729D01*
X135338330Y-117881585D01*
X135128000Y-118196366D01*
X134917670Y-117881585D01*
X134431489Y-117556729D01*
X133858000Y-117442655D01*
X133284511Y-117556729D01*
X132798330Y-117881585D01*
X132588000Y-118196366D01*
X132377670Y-117881585D01*
X131891489Y-117556729D01*
X131318000Y-117442655D01*
X130744511Y-117556729D01*
X130258330Y-117881585D01*
X129933474Y-118367766D01*
X129819400Y-118941255D01*
X129819400Y-119310745D01*
X129933474Y-119884234D01*
X130258330Y-120370415D01*
X130744511Y-120695271D01*
X131318000Y-120809345D01*
X131891489Y-120695271D01*
X132377670Y-120370415D01*
X132588000Y-120055634D01*
X132798330Y-120370415D01*
X133284511Y-120695271D01*
X133858000Y-120809345D01*
X134431489Y-120695271D01*
X134917670Y-120370415D01*
X135128000Y-120055634D01*
X135338330Y-120370415D01*
X135824511Y-120695271D01*
X136398000Y-120809345D01*
X136971489Y-120695271D01*
X137457670Y-120370415D01*
X137668000Y-120055634D01*
X137878330Y-120370415D01*
X138364511Y-120695271D01*
X138938000Y-120809345D01*
X139511489Y-120695271D01*
X139997670Y-120370415D01*
X140208000Y-120055634D01*
X140418330Y-120370415D01*
X140904511Y-120695271D01*
X141478000Y-120809345D01*
X142051489Y-120695271D01*
X142411386Y-120454795D01*
X142924235Y-120956000D01*
X119774532Y-120956000D01*
X120108175Y-120817423D01*
X120545349Y-119632397D01*
X120495755Y-118370278D01*
X120108175Y-117434577D01*
X119606854Y-117226356D01*
X117707210Y-119126000D01*
X117721353Y-119140143D01*
X117362143Y-119499353D01*
X117348000Y-119485210D01*
X117333858Y-119499353D01*
X116974648Y-119140143D01*
X116988790Y-119126000D01*
X115089146Y-117226356D01*
X114587825Y-117434577D01*
X114150651Y-118619603D01*
X114200245Y-119881722D01*
X114587825Y-120817423D01*
X114921468Y-120956000D01*
X104088000Y-120956000D01*
X104088000Y-116867146D01*
X115448356Y-116867146D01*
X117348000Y-118766790D01*
X119247644Y-116867146D01*
X119039423Y-116365825D01*
X117854397Y-115928651D01*
X116592278Y-115978245D01*
X115656577Y-116365825D01*
X115448356Y-116867146D01*
X104088000Y-116867146D01*
X104088000Y-113838567D01*
X129539626Y-113838567D01*
X129867622Y-114632377D01*
X130474428Y-115240244D01*
X131267664Y-115569624D01*
X132126567Y-115570374D01*
X132920377Y-115242378D01*
X133528244Y-114635572D01*
X133667499Y-114300208D01*
X133667225Y-114614388D01*
X133908398Y-115198072D01*
X134354579Y-115645032D01*
X134937841Y-115887224D01*
X135569388Y-115887775D01*
X136153072Y-115646602D01*
X136525257Y-115275065D01*
X136894579Y-115645032D01*
X137477841Y-115887224D01*
X138109388Y-115887775D01*
X138693072Y-115646602D01*
X139140032Y-115200421D01*
X139185949Y-115089840D01*
X139975790Y-114300000D01*
X139186585Y-113510796D01*
X139141602Y-113401928D01*
X138695421Y-112954968D01*
X138380165Y-112824062D01*
X139218273Y-112824062D01*
X140335000Y-113940790D01*
X140349143Y-113926648D01*
X140708353Y-114285858D01*
X140694210Y-114300000D01*
X140708353Y-114314143D01*
X140349143Y-114673353D01*
X140335000Y-114659210D01*
X139218273Y-115775938D01*
X139293562Y-116165547D01*
X140086751Y-116422082D01*
X140917733Y-116355549D01*
X141376438Y-116165547D01*
X141432486Y-115875509D01*
X141545595Y-115988618D01*
X141605000Y-115929213D01*
X141664405Y-115988618D01*
X141777514Y-115875509D01*
X141833562Y-116165547D01*
X142626751Y-116422082D01*
X143457733Y-116355549D01*
X143580121Y-116304854D01*
X167518356Y-116304854D01*
X167726577Y-116806175D01*
X168911603Y-117243349D01*
X170173722Y-117193755D01*
X171109423Y-116806175D01*
X171317644Y-116304854D01*
X169418000Y-114405210D01*
X167518356Y-116304854D01*
X143580121Y-116304854D01*
X143916438Y-116165547D01*
X143991727Y-115775938D01*
X142875000Y-114659210D01*
X142860858Y-114673353D01*
X142501648Y-114314143D01*
X142515790Y-114300000D01*
X143234210Y-114300000D01*
X144023415Y-115089204D01*
X144068398Y-115198072D01*
X144514579Y-115645032D01*
X145097841Y-115887224D01*
X145729388Y-115887775D01*
X146313072Y-115646602D01*
X146760032Y-115200421D01*
X147002224Y-114617159D01*
X147002775Y-113985612D01*
X146818489Y-113539603D01*
X166220651Y-113539603D01*
X166270245Y-114801722D01*
X166657825Y-115737423D01*
X167159146Y-115945644D01*
X169058790Y-114046000D01*
X169777210Y-114046000D01*
X171676854Y-115945644D01*
X172178175Y-115737423D01*
X172615349Y-114552397D01*
X172565755Y-113290278D01*
X172178175Y-112354577D01*
X171676854Y-112146356D01*
X169777210Y-114046000D01*
X169058790Y-114046000D01*
X167159146Y-112146356D01*
X166657825Y-112354577D01*
X166220651Y-113539603D01*
X146818489Y-113539603D01*
X146761602Y-113401928D01*
X146315421Y-112954968D01*
X145732159Y-112712776D01*
X145100612Y-112712225D01*
X144516928Y-112953398D01*
X144069968Y-113399579D01*
X144024051Y-113510160D01*
X143234210Y-114300000D01*
X142515790Y-114300000D01*
X142501648Y-114285858D01*
X142860858Y-113926648D01*
X142875000Y-113940790D01*
X143991727Y-112824062D01*
X143916438Y-112434453D01*
X143123249Y-112177918D01*
X142292267Y-112244451D01*
X141833562Y-112434453D01*
X141777514Y-112724491D01*
X141664405Y-112611382D01*
X141605000Y-112670787D01*
X141545595Y-112611382D01*
X141432486Y-112724491D01*
X141376438Y-112434453D01*
X140583249Y-112177918D01*
X139752267Y-112244451D01*
X139293562Y-112434453D01*
X139218273Y-112824062D01*
X138380165Y-112824062D01*
X138112159Y-112712776D01*
X137480612Y-112712225D01*
X136896928Y-112953398D01*
X136524743Y-113324935D01*
X136155421Y-112954968D01*
X135572159Y-112712776D01*
X134940612Y-112712225D01*
X134356928Y-112953398D01*
X133909968Y-113399579D01*
X133857901Y-113524970D01*
X133858374Y-112983433D01*
X133530378Y-112189623D01*
X133128604Y-111787146D01*
X167518356Y-111787146D01*
X169418000Y-113686790D01*
X171074790Y-112030000D01*
X185677560Y-112030000D01*
X185677560Y-114030000D01*
X185721838Y-114265317D01*
X185860910Y-114481441D01*
X186073110Y-114626431D01*
X186325000Y-114677440D01*
X188325000Y-114677440D01*
X188409942Y-114661457D01*
X188501349Y-114752864D01*
X188713709Y-114540504D01*
X188794896Y-114935002D01*
X189605366Y-115199503D01*
X190455362Y-115133716D01*
X190935104Y-114935002D01*
X191016292Y-114540502D01*
X189865000Y-113389210D01*
X189850858Y-113403353D01*
X189491648Y-113044143D01*
X189505790Y-113030000D01*
X190224210Y-113030000D01*
X191375502Y-114181292D01*
X191770002Y-114100104D01*
X191861719Y-113819068D01*
X195324712Y-113819068D01*
X195392644Y-114614448D01*
X195566330Y-115033763D01*
X195946799Y-115097990D01*
X196998790Y-114046000D01*
X195946799Y-112994010D01*
X195566330Y-113058237D01*
X195324712Y-113819068D01*
X191861719Y-113819068D01*
X192034503Y-113289634D01*
X191968716Y-112439638D01*
X191770002Y-111959896D01*
X191375502Y-111878708D01*
X190224210Y-113030000D01*
X189505790Y-113030000D01*
X189491648Y-113015858D01*
X189850858Y-112656648D01*
X189865000Y-112670790D01*
X191016292Y-111519498D01*
X190935104Y-111124998D01*
X190124634Y-110860497D01*
X189274638Y-110926284D01*
X188794896Y-111124998D01*
X188713709Y-111519496D01*
X188501349Y-111307136D01*
X188408929Y-111399556D01*
X188325000Y-111382560D01*
X186325000Y-111382560D01*
X186089683Y-111426838D01*
X185873559Y-111565910D01*
X185728569Y-111778110D01*
X185677560Y-112030000D01*
X171074790Y-112030000D01*
X171317644Y-111787146D01*
X171109423Y-111285825D01*
X169924397Y-110848651D01*
X168662278Y-110898245D01*
X167726577Y-111285825D01*
X167518356Y-111787146D01*
X133128604Y-111787146D01*
X132923572Y-111581756D01*
X132130336Y-111252376D01*
X131271433Y-111251626D01*
X130477623Y-111579622D01*
X129869756Y-112186428D01*
X129540376Y-112979664D01*
X129539626Y-113838567D01*
X104088000Y-113838567D01*
X104088000Y-107585000D01*
X183137560Y-107585000D01*
X183137560Y-109585000D01*
X183181838Y-109820317D01*
X183320910Y-110036441D01*
X183533110Y-110181431D01*
X183785000Y-110232440D01*
X185785000Y-110232440D01*
X186020317Y-110188162D01*
X186236441Y-110049090D01*
X186333910Y-109906439D01*
X186397637Y-109970278D01*
X186998352Y-110219716D01*
X187648795Y-110220284D01*
X187950789Y-110095502D01*
X188713708Y-110095502D01*
X188794896Y-110490002D01*
X189605366Y-110754503D01*
X190455362Y-110688716D01*
X190935104Y-110490002D01*
X191016292Y-110095502D01*
X189865000Y-108944210D01*
X188713708Y-110095502D01*
X187950789Y-110095502D01*
X188249943Y-109971894D01*
X188710278Y-109512363D01*
X188803904Y-109286886D01*
X189505790Y-108585000D01*
X190224210Y-108585000D01*
X191375502Y-109736292D01*
X191770002Y-109655104D01*
X192034503Y-108844634D01*
X191968716Y-107994638D01*
X191770002Y-107514896D01*
X191375502Y-107433708D01*
X190224210Y-108585000D01*
X189505790Y-108585000D01*
X188804169Y-107883379D01*
X188711894Y-107660057D01*
X188252363Y-107199722D01*
X187950790Y-107074498D01*
X188713708Y-107074498D01*
X189865000Y-108225790D01*
X191016292Y-107074498D01*
X190935104Y-106679998D01*
X190124634Y-106415497D01*
X189274638Y-106481284D01*
X188794896Y-106679998D01*
X188713708Y-107074498D01*
X187950790Y-107074498D01*
X187651648Y-106950284D01*
X187001205Y-106949716D01*
X186400057Y-107198106D01*
X186333426Y-107264621D01*
X186249090Y-107133559D01*
X186036890Y-106988569D01*
X185785000Y-106937560D01*
X183785000Y-106937560D01*
X183549683Y-106981838D01*
X183333559Y-107120910D01*
X183188569Y-107333110D01*
X183137560Y-107585000D01*
X104088000Y-107585000D01*
X104088000Y-103473551D01*
X106435659Y-103473551D01*
X106578590Y-103919713D01*
X107570699Y-104267951D01*
X108620552Y-104210017D01*
X109321410Y-103919713D01*
X109464341Y-103473551D01*
X109130790Y-103140000D01*
X183137560Y-103140000D01*
X183137560Y-105140000D01*
X183181838Y-105375317D01*
X183320910Y-105591441D01*
X183533110Y-105736431D01*
X183785000Y-105787440D01*
X185785000Y-105787440D01*
X186020317Y-105743162D01*
X186236441Y-105604090D01*
X186333910Y-105461439D01*
X186397637Y-105525278D01*
X186998352Y-105774716D01*
X187648795Y-105775284D01*
X187950789Y-105650502D01*
X188713708Y-105650502D01*
X188794896Y-106045002D01*
X189605366Y-106309503D01*
X190455362Y-106243716D01*
X190935104Y-106045002D01*
X191016292Y-105650502D01*
X189865000Y-104499210D01*
X188713708Y-105650502D01*
X187950789Y-105650502D01*
X188249943Y-105526894D01*
X188710278Y-105067363D01*
X188803904Y-104841886D01*
X189505790Y-104140000D01*
X190224210Y-104140000D01*
X191375502Y-105291292D01*
X191770002Y-105210104D01*
X192034503Y-104399634D01*
X191968716Y-103549638D01*
X191770002Y-103069896D01*
X191375502Y-102988708D01*
X190224210Y-104140000D01*
X189505790Y-104140000D01*
X188804169Y-103438379D01*
X188711894Y-103215057D01*
X188252363Y-102754722D01*
X187950790Y-102629498D01*
X188713708Y-102629498D01*
X189865000Y-103780790D01*
X191016292Y-102629498D01*
X190935104Y-102234998D01*
X190124634Y-101970497D01*
X189274638Y-102036284D01*
X188794896Y-102234998D01*
X188713708Y-102629498D01*
X187950790Y-102629498D01*
X187651648Y-102505284D01*
X187001205Y-102504716D01*
X186400057Y-102753106D01*
X186333426Y-102819621D01*
X186249090Y-102688559D01*
X186036890Y-102543569D01*
X185785000Y-102492560D01*
X183785000Y-102492560D01*
X183549683Y-102536838D01*
X183333559Y-102675910D01*
X183188569Y-102888110D01*
X183137560Y-103140000D01*
X109130790Y-103140000D01*
X107950000Y-101959210D01*
X106435659Y-103473551D01*
X104088000Y-103473551D01*
X104088000Y-101220699D01*
X105282049Y-101220699D01*
X105339983Y-102270552D01*
X105630287Y-102971410D01*
X106076449Y-103114341D01*
X107590790Y-101600000D01*
X108309210Y-101600000D01*
X109823551Y-103114341D01*
X110269713Y-102971410D01*
X110617951Y-101979301D01*
X110560017Y-100929448D01*
X110269713Y-100228590D01*
X109823551Y-100085659D01*
X108309210Y-101600000D01*
X107590790Y-101600000D01*
X106076449Y-100085659D01*
X105630287Y-100228590D01*
X105282049Y-101220699D01*
X104088000Y-101220699D01*
X104088000Y-99726449D01*
X106435659Y-99726449D01*
X107950000Y-101240790D01*
X109464341Y-99726449D01*
X109321410Y-99280287D01*
X108329301Y-98932049D01*
X107279448Y-98989983D01*
X106578590Y-99280287D01*
X106435659Y-99726449D01*
X104088000Y-99726449D01*
X104088000Y-95020000D01*
X105802560Y-95020000D01*
X105802560Y-98020000D01*
X105846838Y-98255317D01*
X105985910Y-98471441D01*
X106198110Y-98616431D01*
X106450000Y-98667440D01*
X109450000Y-98667440D01*
X109685317Y-98623162D01*
X109901441Y-98484090D01*
X110046431Y-98271890D01*
X110097440Y-98020000D01*
X110097440Y-97836567D01*
X143001626Y-97836567D01*
X143329622Y-98630377D01*
X143936428Y-99238244D01*
X144729664Y-99567624D01*
X145588567Y-99568374D01*
X146382377Y-99240378D01*
X146990244Y-98633572D01*
X147206074Y-98113795D01*
X149494716Y-98113795D01*
X149743106Y-98714943D01*
X150202637Y-99175278D01*
X150803352Y-99424716D01*
X151453795Y-99425284D01*
X152054943Y-99176894D01*
X152400199Y-98832241D01*
X152742637Y-99175278D01*
X153343352Y-99424716D01*
X153993795Y-99425284D01*
X154594943Y-99176894D01*
X154940199Y-98832241D01*
X155282637Y-99175278D01*
X155883352Y-99424716D01*
X156533795Y-99425284D01*
X157134943Y-99176894D01*
X157201574Y-99110379D01*
X157285910Y-99241441D01*
X157498110Y-99386431D01*
X157750000Y-99437440D01*
X159750000Y-99437440D01*
X159985317Y-99393162D01*
X160201441Y-99254090D01*
X160346431Y-99041890D01*
X160397440Y-98790000D01*
X160397440Y-98695000D01*
X183137560Y-98695000D01*
X183137560Y-100695000D01*
X183181838Y-100930317D01*
X183320910Y-101146441D01*
X183533110Y-101291431D01*
X183785000Y-101342440D01*
X185785000Y-101342440D01*
X186020317Y-101298162D01*
X186236441Y-101159090D01*
X186333910Y-101016439D01*
X186397637Y-101080278D01*
X186998352Y-101329716D01*
X187648795Y-101330284D01*
X187950789Y-101205502D01*
X188713708Y-101205502D01*
X188794896Y-101600002D01*
X189605366Y-101864503D01*
X190455362Y-101798716D01*
X190935104Y-101600002D01*
X191016292Y-101205502D01*
X189865000Y-100054210D01*
X188713708Y-101205502D01*
X187950789Y-101205502D01*
X188249943Y-101081894D01*
X188710278Y-100622363D01*
X188803904Y-100396886D01*
X189505790Y-99695000D01*
X190224210Y-99695000D01*
X191375502Y-100846292D01*
X191770002Y-100765104D01*
X192034503Y-99954634D01*
X191968716Y-99104638D01*
X191770002Y-98624896D01*
X191375502Y-98543708D01*
X190224210Y-99695000D01*
X189505790Y-99695000D01*
X188804169Y-98993379D01*
X188711894Y-98770057D01*
X188252363Y-98309722D01*
X187950790Y-98184498D01*
X188713708Y-98184498D01*
X189865000Y-99335790D01*
X191016292Y-98184498D01*
X190935104Y-97789998D01*
X190124634Y-97525497D01*
X189274638Y-97591284D01*
X188794896Y-97789998D01*
X188713708Y-98184498D01*
X187950790Y-98184498D01*
X187651648Y-98060284D01*
X187001205Y-98059716D01*
X186400057Y-98308106D01*
X186333426Y-98374621D01*
X186249090Y-98243559D01*
X186036890Y-98098569D01*
X185785000Y-98047560D01*
X183785000Y-98047560D01*
X183549683Y-98091838D01*
X183333559Y-98230910D01*
X183188569Y-98443110D01*
X183137560Y-98695000D01*
X160397440Y-98695000D01*
X160397440Y-96790000D01*
X160353162Y-96554683D01*
X160214090Y-96338559D01*
X160001890Y-96193569D01*
X159750000Y-96142560D01*
X157750000Y-96142560D01*
X157514683Y-96186838D01*
X157298559Y-96325910D01*
X157201090Y-96468561D01*
X157137363Y-96404722D01*
X156536648Y-96155284D01*
X155886205Y-96154716D01*
X155285057Y-96403106D01*
X154939801Y-96747759D01*
X154597363Y-96404722D01*
X153996648Y-96155284D01*
X153346205Y-96154716D01*
X152745057Y-96403106D01*
X152399801Y-96747759D01*
X152057363Y-96404722D01*
X151456648Y-96155284D01*
X150806205Y-96154716D01*
X150205057Y-96403106D01*
X149744722Y-96862637D01*
X149495284Y-97463352D01*
X149494716Y-98113795D01*
X147206074Y-98113795D01*
X147319624Y-97840336D01*
X147320374Y-96981433D01*
X146992378Y-96187623D01*
X146385572Y-95579756D01*
X145592336Y-95250376D01*
X144733433Y-95249626D01*
X143939623Y-95577622D01*
X143331756Y-96184428D01*
X143002376Y-96977664D01*
X143001626Y-97836567D01*
X110097440Y-97836567D01*
X110097440Y-95020000D01*
X110053162Y-94784683D01*
X109914090Y-94568559D01*
X109701890Y-94423569D01*
X109450000Y-94372560D01*
X106450000Y-94372560D01*
X106214683Y-94416838D01*
X105998559Y-94555910D01*
X105853569Y-94768110D01*
X105802560Y-95020000D01*
X104088000Y-95020000D01*
X104088000Y-94250000D01*
X183137560Y-94250000D01*
X183137560Y-96250000D01*
X183181838Y-96485317D01*
X183320910Y-96701441D01*
X183533110Y-96846431D01*
X183785000Y-96897440D01*
X185785000Y-96897440D01*
X186020317Y-96853162D01*
X186236441Y-96714090D01*
X186333910Y-96571439D01*
X186397637Y-96635278D01*
X186998352Y-96884716D01*
X187648795Y-96885284D01*
X187950789Y-96760502D01*
X188713708Y-96760502D01*
X188794896Y-97155002D01*
X189605366Y-97419503D01*
X190455362Y-97353716D01*
X190935104Y-97155002D01*
X191016292Y-96760502D01*
X189865000Y-95609210D01*
X188713708Y-96760502D01*
X187950789Y-96760502D01*
X188249943Y-96636894D01*
X188710278Y-96177363D01*
X188803904Y-95951886D01*
X189505790Y-95250000D01*
X190224210Y-95250000D01*
X191375502Y-96401292D01*
X191770002Y-96320104D01*
X192034503Y-95509634D01*
X191968716Y-94659638D01*
X191770002Y-94179896D01*
X191375502Y-94098708D01*
X190224210Y-95250000D01*
X189505790Y-95250000D01*
X188804169Y-94548379D01*
X188711894Y-94325057D01*
X188252363Y-93864722D01*
X187950790Y-93739498D01*
X188713708Y-93739498D01*
X189865000Y-94890790D01*
X191016292Y-93739498D01*
X190935104Y-93344998D01*
X190124634Y-93080497D01*
X189274638Y-93146284D01*
X188794896Y-93344998D01*
X188713708Y-93739498D01*
X187950790Y-93739498D01*
X187651648Y-93615284D01*
X187001205Y-93614716D01*
X186400057Y-93863106D01*
X186333426Y-93929621D01*
X186249090Y-93798559D01*
X186036890Y-93653569D01*
X185785000Y-93602560D01*
X183785000Y-93602560D01*
X183549683Y-93646838D01*
X183333559Y-93785910D01*
X183188569Y-93998110D01*
X183137560Y-94250000D01*
X104088000Y-94250000D01*
X104088000Y-92915938D01*
X144933273Y-92915938D01*
X145008562Y-93305547D01*
X145801751Y-93562082D01*
X146632733Y-93495549D01*
X147091438Y-93305547D01*
X147166727Y-92915938D01*
X146050000Y-91799210D01*
X144933273Y-92915938D01*
X104088000Y-92915938D01*
X104088000Y-91191751D01*
X143927918Y-91191751D01*
X143994451Y-92022733D01*
X144184453Y-92481438D01*
X144574062Y-92556727D01*
X145690790Y-91440000D01*
X146409210Y-91440000D01*
X147198415Y-92229204D01*
X147243398Y-92338072D01*
X147689579Y-92785032D01*
X148272841Y-93027224D01*
X148904388Y-93027775D01*
X149488072Y-92786602D01*
X149860257Y-92415065D01*
X150229579Y-92785032D01*
X150812841Y-93027224D01*
X151444388Y-93027775D01*
X152028072Y-92786602D01*
X152400257Y-92415065D01*
X152769579Y-92785032D01*
X153352841Y-93027224D01*
X153984388Y-93027775D01*
X154568072Y-92786602D01*
X154940257Y-92415065D01*
X155309579Y-92785032D01*
X155892841Y-93027224D01*
X156524388Y-93027775D01*
X157108072Y-92786602D01*
X157480257Y-92415065D01*
X157849579Y-92785032D01*
X158432841Y-93027224D01*
X159064388Y-93027775D01*
X159335054Y-92915938D01*
X160173273Y-92915938D01*
X160248562Y-93305547D01*
X161041751Y-93562082D01*
X161872733Y-93495549D01*
X162331438Y-93305547D01*
X162406727Y-92915938D01*
X161290000Y-91799210D01*
X160173273Y-92915938D01*
X159335054Y-92915938D01*
X159648072Y-92786602D01*
X160095032Y-92340421D01*
X160140949Y-92229840D01*
X160930790Y-91440000D01*
X161649210Y-91440000D01*
X162438415Y-92229204D01*
X162483398Y-92338072D01*
X162929579Y-92785032D01*
X163512841Y-93027224D01*
X164144388Y-93027775D01*
X164728072Y-92786602D01*
X165175032Y-92340421D01*
X165417224Y-91757159D01*
X165417775Y-91125612D01*
X165176602Y-90541928D01*
X164730421Y-90094968D01*
X164147159Y-89852776D01*
X163515612Y-89852225D01*
X162931928Y-90093398D01*
X162484968Y-90539579D01*
X162439051Y-90650160D01*
X161649210Y-91440000D01*
X160930790Y-91440000D01*
X160141585Y-90650796D01*
X160096602Y-90541928D01*
X159650421Y-90094968D01*
X159335165Y-89964062D01*
X160173273Y-89964062D01*
X161290000Y-91080790D01*
X162406727Y-89964062D01*
X162375990Y-89805000D01*
X183137560Y-89805000D01*
X183137560Y-91805000D01*
X183181838Y-92040317D01*
X183320910Y-92256441D01*
X183533110Y-92401431D01*
X183785000Y-92452440D01*
X185785000Y-92452440D01*
X186020317Y-92408162D01*
X186236441Y-92269090D01*
X186333910Y-92126439D01*
X186397637Y-92190278D01*
X186998352Y-92439716D01*
X187648795Y-92440284D01*
X187950789Y-92315502D01*
X188713708Y-92315502D01*
X188794896Y-92710002D01*
X189605366Y-92974503D01*
X190455362Y-92908716D01*
X190935104Y-92710002D01*
X191016292Y-92315502D01*
X189865000Y-91164210D01*
X188713708Y-92315502D01*
X187950789Y-92315502D01*
X188249943Y-92191894D01*
X188710278Y-91732363D01*
X188803904Y-91506886D01*
X189505790Y-90805000D01*
X190224210Y-90805000D01*
X191375502Y-91956292D01*
X191770002Y-91875104D01*
X192034503Y-91064634D01*
X191968716Y-90214638D01*
X191770002Y-89734896D01*
X191375502Y-89653708D01*
X190224210Y-90805000D01*
X189505790Y-90805000D01*
X188804169Y-90103379D01*
X188711894Y-89880057D01*
X188252363Y-89419722D01*
X187950790Y-89294498D01*
X188713708Y-89294498D01*
X189865000Y-90445790D01*
X191016292Y-89294498D01*
X190935104Y-88899998D01*
X190124634Y-88635497D01*
X189274638Y-88701284D01*
X188794896Y-88899998D01*
X188713708Y-89294498D01*
X187950790Y-89294498D01*
X187651648Y-89170284D01*
X187001205Y-89169716D01*
X186400057Y-89418106D01*
X186333426Y-89484621D01*
X186249090Y-89353559D01*
X186036890Y-89208569D01*
X185785000Y-89157560D01*
X183785000Y-89157560D01*
X183549683Y-89201838D01*
X183333559Y-89340910D01*
X183188569Y-89553110D01*
X183137560Y-89805000D01*
X162375990Y-89805000D01*
X162331438Y-89574453D01*
X161538249Y-89317918D01*
X160707267Y-89384451D01*
X160248562Y-89574453D01*
X160173273Y-89964062D01*
X159335165Y-89964062D01*
X159067159Y-89852776D01*
X158435612Y-89852225D01*
X157851928Y-90093398D01*
X157479743Y-90464935D01*
X157110421Y-90094968D01*
X156527159Y-89852776D01*
X155895612Y-89852225D01*
X155311928Y-90093398D01*
X154939743Y-90464935D01*
X154570421Y-90094968D01*
X153987159Y-89852776D01*
X153355612Y-89852225D01*
X152771928Y-90093398D01*
X152399743Y-90464935D01*
X152030421Y-90094968D01*
X151447159Y-89852776D01*
X150815612Y-89852225D01*
X150231928Y-90093398D01*
X149859743Y-90464935D01*
X149490421Y-90094968D01*
X148907159Y-89852776D01*
X148275612Y-89852225D01*
X147691928Y-90093398D01*
X147244968Y-90539579D01*
X147199051Y-90650160D01*
X146409210Y-91440000D01*
X145690790Y-91440000D01*
X144574062Y-90323273D01*
X144184453Y-90398562D01*
X143927918Y-91191751D01*
X104088000Y-91191751D01*
X104088000Y-89964062D01*
X144933273Y-89964062D01*
X146050000Y-91080790D01*
X147166727Y-89964062D01*
X147091438Y-89574453D01*
X146298249Y-89317918D01*
X145467267Y-89384451D01*
X145008562Y-89574453D01*
X144933273Y-89964062D01*
X104088000Y-89964062D01*
X104088000Y-88364854D01*
X167518356Y-88364854D01*
X167726577Y-88866175D01*
X168911603Y-89303349D01*
X170173722Y-89253755D01*
X171109423Y-88866175D01*
X171317644Y-88364854D01*
X169418000Y-86465210D01*
X167518356Y-88364854D01*
X104088000Y-88364854D01*
X104088000Y-85599603D01*
X166220651Y-85599603D01*
X166270245Y-86861722D01*
X166657825Y-87797423D01*
X167159146Y-88005644D01*
X169058790Y-86106000D01*
X169777210Y-86106000D01*
X171676854Y-88005644D01*
X172178175Y-87797423D01*
X172615349Y-86612397D01*
X172566138Y-85360000D01*
X183137560Y-85360000D01*
X183137560Y-87360000D01*
X183181838Y-87595317D01*
X183320910Y-87811441D01*
X183533110Y-87956431D01*
X183785000Y-88007440D01*
X185785000Y-88007440D01*
X186020317Y-87963162D01*
X186236441Y-87824090D01*
X186333910Y-87681439D01*
X186397637Y-87745278D01*
X186998352Y-87994716D01*
X187648795Y-87995284D01*
X187950789Y-87870502D01*
X188713708Y-87870502D01*
X188794896Y-88265002D01*
X189605366Y-88529503D01*
X190455362Y-88463716D01*
X190935104Y-88265002D01*
X191016292Y-87870502D01*
X189865000Y-86719210D01*
X188713708Y-87870502D01*
X187950789Y-87870502D01*
X188249943Y-87746894D01*
X188710278Y-87287363D01*
X188803904Y-87061886D01*
X189505790Y-86360000D01*
X190224210Y-86360000D01*
X191375502Y-87511292D01*
X191770002Y-87430104D01*
X192034503Y-86619634D01*
X191968716Y-85769638D01*
X191770002Y-85289896D01*
X191375502Y-85208708D01*
X190224210Y-86360000D01*
X189505790Y-86360000D01*
X188804169Y-85658379D01*
X188711894Y-85435057D01*
X188252363Y-84974722D01*
X187950790Y-84849498D01*
X188713708Y-84849498D01*
X189865000Y-86000790D01*
X191016292Y-84849498D01*
X190935104Y-84454998D01*
X190124634Y-84190497D01*
X189274638Y-84256284D01*
X188794896Y-84454998D01*
X188713708Y-84849498D01*
X187950790Y-84849498D01*
X187651648Y-84725284D01*
X187001205Y-84724716D01*
X186400057Y-84973106D01*
X186333426Y-85039621D01*
X186249090Y-84908559D01*
X186036890Y-84763569D01*
X185785000Y-84712560D01*
X183785000Y-84712560D01*
X183549683Y-84756838D01*
X183333559Y-84895910D01*
X183188569Y-85108110D01*
X183137560Y-85360000D01*
X172566138Y-85360000D01*
X172565755Y-85350278D01*
X172178175Y-84414577D01*
X171676854Y-84206356D01*
X169777210Y-86106000D01*
X169058790Y-86106000D01*
X167159146Y-84206356D01*
X166657825Y-84414577D01*
X166220651Y-85599603D01*
X104088000Y-85599603D01*
X104088000Y-83847146D01*
X167518356Y-83847146D01*
X169418000Y-85746790D01*
X171317644Y-83847146D01*
X171109423Y-83345825D01*
X169924397Y-82908651D01*
X168662278Y-82958245D01*
X167726577Y-83345825D01*
X167518356Y-83847146D01*
X104088000Y-83847146D01*
X104088000Y-80250502D01*
X130928708Y-80250502D01*
X131009896Y-80645002D01*
X131820366Y-80909503D01*
X132670362Y-80843716D01*
X133150104Y-80645002D01*
X133231292Y-80250502D01*
X132080000Y-79099210D01*
X130928708Y-80250502D01*
X104088000Y-80250502D01*
X104088000Y-78480366D01*
X129910497Y-78480366D01*
X129976284Y-79330362D01*
X130174998Y-79810104D01*
X130569498Y-79891292D01*
X131720790Y-78740000D01*
X132439210Y-78740000D01*
X133140831Y-79441621D01*
X133233106Y-79664943D01*
X133692637Y-80125278D01*
X134293352Y-80374716D01*
X134943795Y-80375284D01*
X135544943Y-80126894D01*
X135611574Y-80060379D01*
X135695910Y-80191441D01*
X135908110Y-80336431D01*
X136160000Y-80387440D01*
X138160000Y-80387440D01*
X138395317Y-80343162D01*
X138611441Y-80204090D01*
X138756431Y-79991890D01*
X138807440Y-79740000D01*
X138807440Y-79054388D01*
X144462225Y-79054388D01*
X144703398Y-79638072D01*
X145149579Y-80085032D01*
X145732841Y-80327224D01*
X146364388Y-80327775D01*
X146948072Y-80086602D01*
X147320257Y-79715065D01*
X147689579Y-80085032D01*
X148272841Y-80327224D01*
X148904388Y-80327775D01*
X149488072Y-80086602D01*
X149860257Y-79715065D01*
X150229579Y-80085032D01*
X150812841Y-80327224D01*
X151444388Y-80327775D01*
X152028072Y-80086602D01*
X152400257Y-79715065D01*
X152769579Y-80085032D01*
X153352841Y-80327224D01*
X153984388Y-80327775D01*
X154568072Y-80086602D01*
X154940257Y-79715065D01*
X155309579Y-80085032D01*
X155892841Y-80327224D01*
X156524388Y-80327775D01*
X157108072Y-80086602D01*
X157480257Y-79715065D01*
X157849579Y-80085032D01*
X158432841Y-80327224D01*
X159064388Y-80327775D01*
X159648072Y-80086602D01*
X160020257Y-79715065D01*
X160389579Y-80085032D01*
X160972841Y-80327224D01*
X161604388Y-80327775D01*
X162188072Y-80086602D01*
X162560257Y-79715065D01*
X162929579Y-80085032D01*
X163512841Y-80327224D01*
X164144388Y-80327775D01*
X164728072Y-80086602D01*
X165175032Y-79640421D01*
X165417224Y-79057159D01*
X165417775Y-78425612D01*
X165176602Y-77841928D01*
X164730421Y-77394968D01*
X164147159Y-77152776D01*
X163515612Y-77152225D01*
X162931928Y-77393398D01*
X162559743Y-77764935D01*
X162190421Y-77394968D01*
X161607159Y-77152776D01*
X160975612Y-77152225D01*
X160391928Y-77393398D01*
X160019743Y-77764935D01*
X159650421Y-77394968D01*
X159067159Y-77152776D01*
X158435612Y-77152225D01*
X157851928Y-77393398D01*
X157479743Y-77764935D01*
X157110421Y-77394968D01*
X156527159Y-77152776D01*
X155895612Y-77152225D01*
X155311928Y-77393398D01*
X154939743Y-77764935D01*
X154570421Y-77394968D01*
X153987159Y-77152776D01*
X153355612Y-77152225D01*
X152771928Y-77393398D01*
X152399743Y-77764935D01*
X152030421Y-77394968D01*
X151447159Y-77152776D01*
X150815612Y-77152225D01*
X150231928Y-77393398D01*
X149859743Y-77764935D01*
X149490421Y-77394968D01*
X148907159Y-77152776D01*
X148275612Y-77152225D01*
X147691928Y-77393398D01*
X147319743Y-77764935D01*
X146950421Y-77394968D01*
X146367159Y-77152776D01*
X145735612Y-77152225D01*
X145151928Y-77393398D01*
X144704968Y-77839579D01*
X144462776Y-78422841D01*
X144462225Y-79054388D01*
X138807440Y-79054388D01*
X138807440Y-77740000D01*
X138763162Y-77504683D01*
X138624090Y-77288559D01*
X138411890Y-77143569D01*
X138160000Y-77092560D01*
X136160000Y-77092560D01*
X135924683Y-77136838D01*
X135708559Y-77275910D01*
X135611090Y-77418561D01*
X135547363Y-77354722D01*
X134946648Y-77105284D01*
X134296205Y-77104716D01*
X133695057Y-77353106D01*
X133234722Y-77812637D01*
X133141096Y-78038114D01*
X132439210Y-78740000D01*
X131720790Y-78740000D01*
X130569498Y-77588708D01*
X130174998Y-77669896D01*
X129910497Y-78480366D01*
X104088000Y-78480366D01*
X104088000Y-77229498D01*
X130928708Y-77229498D01*
X132080000Y-78380790D01*
X133231292Y-77229498D01*
X133150104Y-76834998D01*
X132339634Y-76570497D01*
X131489638Y-76636284D01*
X131009896Y-76834998D01*
X130928708Y-77229498D01*
X104088000Y-77229498D01*
X104088000Y-76470000D01*
X183137560Y-76470000D01*
X183137560Y-78470000D01*
X183181838Y-78705317D01*
X183320910Y-78921441D01*
X183533110Y-79066431D01*
X183785000Y-79117440D01*
X185785000Y-79117440D01*
X186020317Y-79073162D01*
X186236441Y-78934090D01*
X186333910Y-78791439D01*
X186397637Y-78855278D01*
X186998352Y-79104716D01*
X187648795Y-79105284D01*
X188249943Y-78856894D01*
X188595199Y-78512241D01*
X188937637Y-78855278D01*
X189538352Y-79104716D01*
X190188795Y-79105284D01*
X190490789Y-78980502D01*
X191253708Y-78980502D01*
X191334896Y-79375002D01*
X192145366Y-79639503D01*
X192995362Y-79573716D01*
X193475104Y-79375002D01*
X193556292Y-78980502D01*
X192405000Y-77829210D01*
X191253708Y-78980502D01*
X190490789Y-78980502D01*
X190789943Y-78856894D01*
X191250278Y-78397363D01*
X191343904Y-78171886D01*
X192045790Y-77470000D01*
X192764210Y-77470000D01*
X193915502Y-78621292D01*
X194310002Y-78540104D01*
X194574503Y-77729634D01*
X194508716Y-76879638D01*
X194310002Y-76399896D01*
X193915502Y-76318708D01*
X192764210Y-77470000D01*
X192045790Y-77470000D01*
X191344169Y-76768379D01*
X191251894Y-76545057D01*
X190792363Y-76084722D01*
X190490790Y-75959498D01*
X191253708Y-75959498D01*
X192405000Y-77110790D01*
X193556292Y-75959498D01*
X193475104Y-75564998D01*
X192664634Y-75300497D01*
X191814638Y-75366284D01*
X191334896Y-75564998D01*
X191253708Y-75959498D01*
X190490790Y-75959498D01*
X190191648Y-75835284D01*
X189541205Y-75834716D01*
X188940057Y-76083106D01*
X188594801Y-76427759D01*
X188252363Y-76084722D01*
X187651648Y-75835284D01*
X187001205Y-75834716D01*
X186400057Y-76083106D01*
X186333426Y-76149621D01*
X186249090Y-76018559D01*
X186036890Y-75873569D01*
X185785000Y-75822560D01*
X183785000Y-75822560D01*
X183549683Y-75866838D01*
X183333559Y-76005910D01*
X183188569Y-76218110D01*
X183137560Y-76470000D01*
X104088000Y-76470000D01*
X104088000Y-73124854D01*
X116718356Y-73124854D01*
X116926577Y-73626175D01*
X118111603Y-74063349D01*
X119373722Y-74013755D01*
X120309423Y-73626175D01*
X120517644Y-73124854D01*
X191648356Y-73124854D01*
X191856577Y-73626175D01*
X193041603Y-74063349D01*
X194303722Y-74013755D01*
X195239423Y-73626175D01*
X195447644Y-73124854D01*
X193548000Y-71225210D01*
X191648356Y-73124854D01*
X120517644Y-73124854D01*
X118618000Y-71225210D01*
X116718356Y-73124854D01*
X104088000Y-73124854D01*
X104088000Y-69036000D01*
X116191468Y-69036000D01*
X115857825Y-69174577D01*
M02*
